<?xml version="1.0" encoding="UTF-8"?>
<svg version="1.1" xmlns="http://www.w3.org/2000/svg" width="72" height="69">
<path d="M0 0 C1.6875 1.25 1.6875 1.25 3 3 C6.86886552 7.06726888 9.72583582 9.24194527 15 11 C15.309375 11.639375 15.61875 12.27875 15.9375 12.9375 C17.2342338 15.45468915 18.4221737 15.96886948 21 17 C21 17.99 21 18.98 21 20 C21.66 19.34 22.32 18.68 23 18 C23 21.44147687 22.67760723 24.32461449 22.0625 27.6875 C21.88847656 28.66074219 21.71445312 29.63398437 21.53515625 30.63671875 C21 33 21 33 20 34 C19.64281989 36.22868581 19.28928792 38.4579567 18.9375 40.6875 C17.92678396 45.59669221 17.28293159 48.6026165 13.125 51.5625 C11.75260912 52.37939933 10.37778855 53.19223769 9 54 C8.0925 54.9075 7.185 55.815 6.25 56.75 C3.37182395 59.62817605 1.3902647 60.86278955 -2.69140625 61.265625 C-3.63886719 61.26046875 -4.58632813 61.2553125 -5.5625 61.25 C-6.98755859 61.25773437 -6.98755859 61.25773437 -8.44140625 61.265625 C-11 61 -11 61 -14 59 C-14.78246094 58.85175781 -15.56492187 58.70351563 -16.37109375 58.55078125 C-19.39074136 57.91813591 -21.43493587 56.7916543 -24.0625 55.1875 C-24.89910156 54.68605469 -25.73570313 54.18460938 -26.59765625 53.66796875 C-29.02421481 51.98318744 -30.94430837 50.11063216 -33 48 C-33.33 48 -33.66 48 -34 48 C-34.09909001 40.25996896 -34.1692368 32.66499677 -33 25 C-32.67 24.67 -32.34 24.34 -32 24 C-31.896875 22.7625 -31.79375 21.525 -31.6875 20.25 C-31.22852757 16.09703976 -29.79753318 14.13662811 -27 11 C-26.75894531 10.19433594 -26.51789062 9.38867188 -26.26953125 8.55859375 C-24.47416218 4.94023455 -22.28869641 4.31427487 -18.625 2.75 C-17.48289062 2.24984375 -16.34078125 1.7496875 -15.1640625 1.234375 C-9.70228847 -0.89639117 -5.7305923 -1.37730974 0 0 Z M-19.1875 5.9375 C-19.785625 6.288125 -20.38375 6.63875 -21 7 C-17.535 6.505 -17.535 6.505 -14 6 C-16.89186786 4.66695302 -16.89186786 4.66695302 -19.1875 5.9375 Z M19 27 C20 30 20 30 20 30 Z M19 31 C20 33 20 33 20 33 Z " fill="#B9D8EB" transform="translate(42,4)"/>
<path d="M0 0 C3.60144465 2.36864244 6.9513354 4.9513354 10 8 C10.22660954 10.48681895 10.32434998 12.82637349 10.3125 15.3125 C10.32925781 16.62863281 10.34601562 17.94476563 10.36328125 19.30078125 C9.99025805 23.09920031 9.35798651 25.03387098 7 28 C6.34 28 5.68 28 5 28 C5 28.66 5 29.32 5 30 C1.58168085 32.5393228 -0.75776898 33.3636198 -5 33 C-5.495 31.515 -5.495 31.515 -6 30 C-4.35 29.67 -2.7 29.34 -1 29 C-0.731875 27.96875 -0.46375 26.9375 -0.1875 25.875 C0.80998897 22.3514958 2.2661898 19.23119173 4 16 C2.02 16 0.04 16 -2 16 C-2 13.03 -2 10.06 -2 7 C-5.73231736 8.24410579 -6.20098809 9.43424185 -8.1875 12.75 C-8.98220703 14.04164062 -8.98220703 14.04164062 -9.79296875 15.359375 C-11.08628656 18.18876931 -11.10985308 19.93980692 -11 23 C-12.5 24.8125 -12.5 24.8125 -14 26 C-14.99 25.67 -15.98 25.34 -17 25 C-17.2165625 23.39125 -17.2165625 23.39125 -17.4375 21.75 C-17.87643559 18.24122819 -17.87643559 18.24122819 -18.625 15.875 C-19.16838301 13.15808493 -18.95852672 11.61997302 -18 9 C-16.55889905 7.68699692 -15.10806284 6.37725699 -13.5546875 5.19921875 C-11.81398499 3.91519042 -11.81398499 3.91519042 -9.8125 1.75 C-6.59046444 -1.36093088 -4.05742675 -1.35247558 0 0 Z " fill="#3C2A71" transform="translate(42,18)"/>
<path d="M0 0 C0.8353125 0.37125 0.8353125 0.37125 1.6875 0.75 C0.90375 1.183125 0.12 1.61625 -0.6875 2.0625 C-3.52948375 3.64220247 -3.52948375 3.64220247 -5.3125 6.75 C-5.9725 6.75 -6.6325 6.75 -7.3125 6.75 C-7.40975306 12.48793057 -7.13989649 17.26781054 -5.3125 22.75 C-4.6525 23.08 -3.9925 23.41 -3.3125 23.75 C-2.9825 22.76 -2.6525 21.77 -2.3125 20.75 C-1.6525 20.75 -0.9925 20.75 -0.3125 20.75 C-0.54453125 20.04488281 -0.7765625 19.33976562 -1.015625 18.61328125 C-1.41726319 14.73958661 -0.18069024 13.15353275 1.9375 9.9375 C2.56140625 8.96167969 3.1853125 7.98585938 3.828125 6.98046875 C4.44171875 6.24441406 5.0553125 5.50835937 5.6875 4.75 C6.6775 4.75 7.6675 4.75 8.6875 4.75 C8.6875 7.72 8.6875 10.69 8.6875 13.75 C10.6675 13.75 12.6475 13.75 14.6875 13.75 C14.07472388 16.71175123 13.43377478 18.13058783 11.6875 20.75 C10.97937186 23.07108669 10.30725848 25.40377147 9.6875 27.75 C8.0375 27.75 6.3875 27.75 4.6875 27.75 C5.0175 28.41 5.3475 29.07 5.6875 29.75 C8.10395782 29.91687448 8.10395782 29.91687448 10.6875 29.75 C11.3475 29.09 12.0075 28.43 12.6875 27.75 C13.6775 27.75 14.6675 27.75 15.6875 27.75 C15.6875 27.09 15.6875 26.43 15.6875 25.75 C16.3475 25.75 17.0075 25.75 17.6875 25.75 C19.53316532 21.76606389 20.04772829 18.30623317 20.3125 13.9375 C20.38726562 12.77605469 20.46203125 11.61460938 20.5390625 10.41796875 C20.58804688 9.53753906 20.63703125 8.65710937 20.6875 7.75 C21.0175 7.75 21.3475 7.75 21.6875 7.75 C23.05501288 21.66148904 23.05501288 21.66148904 19.89453125 26.48828125 C17.59798646 28.53093667 15.31555073 30.16276144 12.6875 31.75 C11.6975 32.471875 10.7075 33.19375 9.6875 33.9375 C4.16887643 35.43212722 0.15985648 33.09073063 -4.66796875 30.47265625 C-8.42853395 27.85690028 -10.08423016 26.01141318 -10.9140625 21.42578125 C-11.06505401 14.96746241 -10.79349686 9.27158123 -7.3125 3.75 C-3.30761002 -0.35757946 -3.30761002 -0.35757946 0 0 Z " fill="#493576" transform="translate(31.3125,20.25)"/>
<path d="M0 0 C1.6875 1.25 1.6875 1.25 3 3 C6.86886552 7.06726888 9.72583582 9.24194527 15 11 C15.309375 11.639375 15.61875 12.27875 15.9375 12.9375 C17.2342338 15.45468915 18.4221737 15.96886948 21 17 C21 17.99 21 18.98 21 20 C21.66 19.34 22.32 18.68 23 18 C23 21.44147687 22.67760723 24.32461449 22.0625 27.6875 C21.88847656 28.66074219 21.71445312 29.63398437 21.53515625 30.63671875 C21 33 21 33 20 34 C19.63239269 36.32817964 19.29758419 38.6618385 19 41 C18.67 41 18.34 41 18 41 C18 37.37 18 33.74 18 30 C18.66 30 19.32 30 20 30 C19.34 29.01 18.68 28.02 18 27 C17.34 27.66 16.68 28.32 16 29 C15.505 29.495 15.505 29.495 15 30 C14.95936168 31.66617115 14.957279 33.33388095 15 35 C14.01 35.495 14.01 35.495 13 36 C12.95101562 34.92621094 12.90203125 33.85242187 12.8515625 32.74609375 C12.77646602 31.30987358 12.70092124 29.87367681 12.625 28.4375 C12.5940625 27.73302734 12.563125 27.02855469 12.53125 26.30273438 C12.27047442 21.58704259 11.45341877 17.49614504 10 13 C9.34 13 8.68 13 8 13 C8.495 15.475 8.495 15.475 9 18 C8.319375 17.5875 7.63875 17.175 6.9375 16.75 C5.4834375 15.88375 5.4834375 15.88375 4 15 C2.9275 14.34 1.855 13.68 0.75 13 C-3.28337728 10.68503732 -7.560831 9.32873086 -12 8 C-12 7.34 -12 6.68 -12 6 C-13.41702513 6.14230808 -14.8336096 6.28900746 -16.25 6.4375 C-17.03890625 6.51871094 -17.8278125 6.59992187 -18.640625 6.68359375 C-20.84728444 6.97951993 -22.88748009 7.29426879 -25 8 C-25.33 8.66 -25.66 9.32 -26 10 C-25.89453125 8.19921875 -25.89453125 8.19921875 -25 6 C-22.19921875 4.33203125 -22.19921875 4.33203125 -18.6875 2.8125 C-17.53636719 2.30332031 -16.38523437 1.79414062 -15.19921875 1.26953125 C-9.72572691 -0.90248932 -5.7530745 -1.38271318 0 0 Z M19 31 C20 33 20 33 20 33 Z " fill="#DBE1F0" transform="translate(42,4)"/>
<path d="M0 0 C0 0.66 0 1.32 0 2 C0.99 2.0825 1.98 2.165 3 2.25 C9.62075051 3.20156536 15.02746822 6.64903469 20 11 C20 9.68 20 8.36 20 7 C20.66 7 21.32 7 22 7 C24.83374078 12.66748157 25.63223832 17.69732561 26 24 C26.495 22.515 26.495 22.515 27 21 C27.66 21 28.32 21 29 21 C29.33 19.35 29.66 17.7 30 16 C30.33 16 30.66 16 31 16 C30.67 23.26 30.34 30.52 30 38 C29.01 38.33 28.02 38.66 27 39 C27 36.69 27 34.38 27 32 C25.68 32.99 24.36 33.98 23 35 C22.98582031 33.84242187 22.97164062 32.68484375 22.95703125 31.4921875 C22.91010743 29.95308628 22.86186018 28.41402501 22.8125 26.875 C22.80669922 26.11445312 22.80089844 25.35390625 22.79492188 24.5703125 C22.56706698 18.69671977 21.18280974 16.13308837 17 12 C13.65696712 9.16568952 12.03863194 8 7.625 8 C1.80862157 9.60451819 -3.34391002 12.11992502 -8 16 C-9.125 8.25 -9.125 8.25 -8 6 C-8.99 5.67 -9.98 5.34 -11 5 C-11 5.66 -11 6.32 -11 7 C-12.62626404 8.38232443 -14.2925002 9.71937515 -16 11 C-16 7.18819223 -15.43156554 5.94735217 -13 3 C-8.65885533 0.91986818 -4.81357053 0 0 0 Z " fill="#DBDCF2" transform="translate(30,10)"/>
<path d="M0 0 C0.99 0.33 1.98 0.66 3 1 C3 1.66 3 2.32 3 3 C3.66 3 4.32 3 5 3 C5.33 2.01 5.66 1.02 6 0 C6.10957031 0.58007812 6.21914063 1.16015625 6.33203125 1.7578125 C7.31874288 6.61917224 8.63635822 10.59503123 11 15 C11 15.66 11 16.32 11 17 C9.02 17 7.04 17 5 17 C7.97 17.33 10.94 17.66 14 18 C13.484375 17.21625 12.96875 16.4325 12.4375 15.625 C11.963125 14.75875 11.48875 13.8925 11 13 C11.33 12.34 11.66 11.68 12 11 C13.546875 11.928125 13.546875 11.928125 15.125 12.875 C20.5824284 15.97630971 25.77083841 17.25250061 32 18 C32 18.66 32 19.32 32 20 C32.66 20.33 33.32 20.66 34 21 C33.505 22.485 33.505 22.485 33 24 C29.90317736 25.22038796 26.73500589 25.16506799 23.4375 25.1875 C22.48746094 25.20167969 21.53742187 25.21585938 20.55859375 25.23046875 C18 25 18 25 15 23 C13.82824219 22.77763672 13.82824219 22.77763672 12.6328125 22.55078125 C9.6012742 21.91658704 7.52074891 20.78546761 4.875 19.1875 C4.02679687 18.68605469 3.17859375 18.18460938 2.3046875 17.66796875 C-0.06302425 15.95438753 -1.55379099 14.53834616 -3 12 C-2.67 11.01 -2.34 10.02 -2 9 C-1.34 10.32 -0.68 11.64 0 13 C0 8.71 0 4.42 0 0 Z " fill="#98B2DA" transform="translate(13,40)"/>
<path d="M0 0 C0.99 0 1.98 0 3 0 C3 2.97 3 5.94 3 9 C4.98 9 6.96 9 9 9 C8.34215037 12.29680965 7.10579427 14.84117922 5.4375 17.75 C4.98246094 18.54921875 4.52742188 19.3484375 4.05859375 20.171875 C3.70925781 20.77515625 3.35992187 21.3784375 3 22 C2.01 22 1.02 22 0 22 C0 19.36 0 16.72 0 14 C-2.31 14 -4.62 14 -7 14 C-6.32908723 10.49816259 -4.92575282 7.81396748 -3.125 4.75 C-2.61195312 3.85796875 -2.09890625 2.9659375 -1.5703125 2.046875 C-0.79300781 1.03367187 -0.79300781 1.03367187 0 0 Z " fill="#DCE2EF" transform="translate(37,25)"/>
<path d="M0 0 C0.33 0 0.66 0 1 0 C1.125 6.75 1.125 6.75 0 9 C0.66 9 1.32 9 2 9 C2 9.99 2 10.98 2 12 C0.390625 13.53515625 0.390625 13.53515625 -1.75 15.0625 C-2.44609375 15.56910156 -3.1421875 16.07570313 -3.859375 16.59765625 C-5.85360628 17.90409608 -7.84515509 18.98566985 -10 20 C-10 18.68 -10 17.36 -10 16 C-11.65 16 -13.3 16 -15 16 C-15 15.34 -15 14.68 -15 14 C-15.66 13.67 -16.32 13.34 -17 13 C-16.39671875 12.60167969 -15.7934375 12.20335937 -15.171875 11.79296875 C-14.37265625 11.26316406 -13.5734375 10.73335937 -12.75 10.1875 C-11.96109375 9.66542969 -11.1721875 9.14335938 -10.359375 8.60546875 C-7.277238 6.50818679 -4.45175318 4.45175318 -1.8125 1.8125 C-1.214375 1.214375 -0.61625 0.61625 0 0 Z " fill="#CCD3ED" transform="translate(57,40)"/>
<path d="M0 0 C0.99 0.33 1.98 0.66 3 1 C3.309375 1.639375 3.61875 2.27875 3.9375 2.9375 C5.2342338 5.45468915 6.4221737 5.96886948 9 7 C9 7.99 9 8.98 9 10 C9.66 9.34 10.32 8.68 11 8 C11 11.44147687 10.67760723 14.32461449 10.0625 17.6875 C9.88847656 18.66074219 9.71445312 19.63398437 9.53515625 20.63671875 C9 23 9 23 8 24 C7.63239269 26.32817964 7.29758419 28.6618385 7 31 C6.67 31 6.34 31 6 31 C6 27.37 6 23.74 6 20 C6.66 20 7.32 20 8 20 C7.34 19.01 6.68 18.02 6 17 C5.34 17.66 4.68 18.32 4 19 C3.67 19.33 3.34 19.66 3 20 C2.95936168 21.66617115 2.957279 23.33388095 3 25 C2.34 25.33 1.68 25.66 1 26 C0.92652344 24.38931641 0.92652344 24.38931641 0.8515625 22.74609375 C0.77646602 21.30987358 0.70092124 19.87367681 0.625 18.4375 C0.5940625 17.73302734 0.563125 17.02855469 0.53125 16.30273438 C0.27047442 11.58704259 -0.54658123 7.49614504 -2 3 C-1.34 3 -0.68 3 0 3 C0 2.01 0 1.02 0 0 Z M7 21 C8 23 8 23 8 23 Z " fill="#7668B6" transform="translate(54,14)"/>
<path d="M0 0 C0.33 0 0.66 0 1 0 C1.0515625 0.92941406 1.103125 1.85882813 1.15625 2.81640625 C1.82985527 11.42600911 1.82985527 11.42600911 6.625 18.25 C11.79130993 21.97913644 16.63646823 23 23 23 C23 23.66 23 24.32 23 25 C24.65 25 26.3 25 28 25 C28 26.32 28 27.64 28 29 C27.34 29 26.68 29 26 29 C26 28.34 26 27.68 26 27 C24.576875 27.12375 24.576875 27.12375 23.125 27.25 C17.96641595 27.28158317 13.64516814 25.02210991 9 23 C8.01 22.67 7.02 22.34 6 22 C6.99 23.98 7.98 25.96 9 28 C7.35333797 27.8864371 5.70763918 27.75882619 4.0625 27.625 C3.14597656 27.55539063 2.22945312 27.48578125 1.28515625 27.4140625 C0.53105469 27.27742188 -0.22304688 27.14078125 -1 27 C-1.33 26.34 -1.66 25.68 -2 25 C0.31 25.33 2.62 25.66 5 26 C4.6390625 25.46375 4.278125 24.9275 3.90625 24.375 C-0.86695018 16.31359525 -0.50543025 9.05281732 0 0 Z " fill="#EBF2F8" transform="translate(19,31)"/>
<path d="M0 0 C0.8353125 0.37125 0.8353125 0.37125 1.6875 0.75 C0.90375 1.183125 0.12 1.61625 -0.6875 2.0625 C-3.52948375 3.64220247 -3.52948375 3.64220247 -5.3125 6.75 C-5.9725 6.75 -6.6325 6.75 -7.3125 6.75 C-7.45168674 14.96201751 -6.47886949 21.50778727 -2.3125 28.75 C1.10458811 31.62754788 4.29663886 32.23943475 8.6875 32.75 C6.37425831 34.21540197 5.2699262 34.87707481 2.5390625 34.28125 C-8.03426959 29.38412777 -8.03426959 29.38412777 -10.3125 24.75 C-11.36723473 17.42838311 -11.32245549 10.11061906 -7.3125 3.75 C-3.30761002 -0.35757946 -3.30761002 -0.35757946 0 0 Z " fill="#52518D" transform="translate(31.3125,20.25)"/>
<path d="M0 0 C-0.33 2.64 -0.66 5.28 -1 8 C-0.46890625 7.68804688 0.0621875 7.37609375 0.609375 7.0546875 C1.31578125 6.66539063 2.0221875 6.27609375 2.75 5.875 C3.44609375 5.48054688 4.1421875 5.08609375 4.859375 4.6796875 C7 4 7 4 9.265625 4.8828125 C9.83796875 5.25148438 10.4103125 5.62015625 11 6 C10.41992188 6.24234375 9.83984375 6.4846875 9.2421875 6.734375 C4.46513347 8.78393614 0.22289611 10.96817715 -4 14 C-5.125 6.25 -5.125 6.25 -4 4 C-4.99 3.67 -5.98 3.34 -7 3 C-7 3.66 -7 4.32 -7 5 C-8.62626404 6.38232443 -10.2925002 7.71937515 -12 9 C-12 5.39222485 -11.0095568 3.93704456 -9 1 C-6.04335481 -0.4783226 -3.25770263 -0.06032783 0 0 Z " fill="#DAE6F2" transform="translate(26,12)"/>
<path d="M0 0 C0 0.66 0 1.32 0 2 C1.093125 2.103125 2.18625 2.20625 3.3125 2.3125 C7.05975155 3.01114012 7.65962741 3.31397238 10 6 C9.34773438 6.10957031 8.69546875 6.21914063 8.0234375 6.33203125 C2.8802377 7.26508962 -1.41899779 8.34784083 -6 11 C-5.41196203 7.97580475 -4.77321882 4.98241547 -4 2 C-5.65 2 -7.3 2 -9 2 C-9 1.67 -9 1.34 -9 1 C-5.846632 0.29925156 -3.27275026 0 0 0 Z " fill="#DCE6F0" transform="translate(30,10)"/>
<path d="M0 0 C2.01136276 2.55991624 3.62845496 5.04590299 5 8 C4.34 8 3.68 8 3 8 C3.15597656 8.89203125 3.31195312 9.7840625 3.47265625 10.703125 C3.76462891 12.45882812 3.76462891 12.45882812 4.0625 14.25 C4.25972656 15.41015625 4.45695313 16.5703125 4.66015625 17.765625 C4.9606216 20.62522624 4.9439206 22.33325929 4 25 C3.01 23.35 2.02 21.7 1 20 C0.34 20.99 -0.32 21.98 -1 23 C-1.09928082 15.24506486 -1.06059488 7.68931285 0 0 Z " fill="#B7C7DC" transform="translate(9,29)"/>
<path d="M0 0 C0.680625 0.53625 1.36125 1.0725 2.0625 1.625 C2.0625 2.285 2.0625 2.945 2.0625 3.625 C1.0725 4.12 1.0725 4.12 0.0625 4.625 C1.7125 4.955 3.3625 5.285 5.0625 5.625 C5.7225 7.605 6.3825 9.585 7.0625 11.625 C6.381875 11.2125 5.70125 10.8 5 10.375 C4.030625 9.7975 3.06125 9.22 2.0625 8.625 C0.969375 7.965 -0.12375 7.305 -1.25 6.625 C-4.9983628 4.47836051 -8.86627612 3.05349961 -12.9375 1.625 C-12.9375 0.965 -12.9375 0.305 -12.9375 -0.375 C-8.29341467 -1.92302844 -4.47790175 -2.09603912 0 0 Z " fill="#5F7ABC" transform="translate(43.9375,10.375)"/>
<path d="M0 0 C3.99500618 1.3697164 6.80009492 3.25722422 10 6 C10 4.68 10 3.36 10 2 C10.66 2 11.32 2 12 2 C14.81768894 7.51223979 15.31891563 11.33009038 14.6875 17.4375 C14.62626953 18.16904297 14.56503906 18.90058594 14.50195312 19.65429688 C14.35042975 21.43761042 14.17745066 23.21907951 14 25 C13.67 25 13.34 25 13 25 C12.98582031 24.20335938 12.97164062 23.40671875 12.95703125 22.5859375 C12.73192447 17.58491651 12.54844349 13.94263725 10 9.5625 C6.28292729 6.38750039 2.37251849 4.1529176 -2 2 C-1.34 1.34 -0.68 0.68 0 0 Z " fill="#D4D9EC" transform="translate(40,15)"/>
<path d="M0 0 C1.32 0.33 2.64 0.66 4 1 C3.34 2.98 2.68 4.96 2 7 C2.66 7.33 3.32 7.66 4 8 C2.53515625 9.20442708 1.0703125 10.40885417 -0.39453125 11.61328125 C-2.00903269 13.00780196 -3.50995992 14.47416317 -5 16 C-5.57293869 6.26004228 -5.57293869 6.26004228 -2 2 C-1.34 2 -0.68 2 0 2 C0 1.34 0 0.68 0 0 Z " fill="#6D9BCB" transform="translate(19,15)"/>
<path d="M0 0 C0.33 0 0.66 0 1 0 C2.3763009 14.00088819 2.3763009 14.00088819 -0.93359375 18.80859375 C-5.71030362 22.97388475 -9.3527568 25.39084915 -15.82421875 25.3671875 C-19.68689484 24.71531757 -22.03505144 22.47079047 -25 20 C-24.34 19.67 -23.68 19.34 -23 19 C-20.96855359 19.93446535 -18.96466413 20.93224776 -17 22 C-17 22.66 -17 23.32 -17 24 C-12.03088634 22.87302957 -12.03088634 22.87302957 -8 20 C-7.01 20 -6.02 20 -5 20 C-5 19.34 -5 18.68 -5 18 C-4.34 18 -3.68 18 -3 18 C-1.15433468 14.01606389 -0.63977171 10.55623317 -0.375 6.1875 C-0.30023438 5.02605469 -0.22546875 3.86460938 -0.1484375 2.66796875 C-0.09945312 1.78753906 -0.05046875 0.90710938 0 0 Z " fill="#5153A7" transform="translate(52,28)"/>
<path d="M0 0 C1.828125 0.19140625 1.828125 0.19140625 4 1 C5.484375 3.21484375 5.484375 3.21484375 6.75 5.9375 C7.17796875 6.83339844 7.6059375 7.72929688 8.046875 8.65234375 C9 11 9 11 9 13 C5.22618181 12.47585858 2.50846488 11.97299541 0 9 C-0.33878788 5.97241945 -0.22892133 3.03320768 0 0 Z " fill="#709DC8" transform="translate(15,44)"/>
<path d="M0 0 C2 1.5625 2 1.5625 3 3 C0 3 0 3 -2.234375 2.640625 C-7.67547045 1.7957344 -10.71767643 1.7981401 -15.265625 4.94921875 C-17.2796136 6.16940554 -19.08066037 6.6246387 -21.375 7.125 C-22.57125 7.41375 -23.7675 7.7025 -25 8 C-25.33 8.66 -25.66 9.32 -26 10 C-25.89453125 8.19921875 -25.89453125 8.19921875 -25 6 C-22.19921875 4.33203125 -22.19921875 4.33203125 -18.6875 2.8125 C-17.53636719 2.30332031 -16.38523437 1.79414062 -15.19921875 1.26953125 C-9.7538406 -0.8913331 -5.72533128 -1.42221605 0 0 Z " fill="#615F9B" transform="translate(42,4)"/>
<path d="M0 0 C4.54322642 0.58246493 8.57453361 1.81066233 12.8515625 3.37890625 C15.26770619 4.18514585 15.26770619 4.18514585 19 4 C19 4.66 19 5.32 19 6 C20.65 6 22.3 6 24 6 C24 7.32 24 8.64 24 10 C23.34 10 22.68 10 22 10 C22 9.34 22 8.68 22 8 C20.576875 8.12375 20.576875 8.12375 19.125 8.25 C13.96376364 8.27098064 9.64159421 6.04468941 5 4 C3.33558092 3.3277416 1.66951948 2.6594899 0 2 C0 1.34 0 0.68 0 0 Z " fill="#E2EAF5" transform="translate(23,50)"/>
<path d="M0 0 C0 0.66 0 1.32 0 2 C0.66 2.33 1.32 2.66 2 3 C1.67 3.99 1.34 4.98 1 6 C-2.875 5.125 -2.875 5.125 -4 4 C-5.093125 4.020625 -6.18625 4.04125 -7.3125 4.0625 C-10.71603882 4.0048129 -12.21094566 3.78499478 -15 2 C-15 1.67 -15 1.34 -15 1 C-10.03926578 -0.32286246 -5.08888488 -0.08893197 0 0 Z " fill="#8794CF" transform="translate(45,58)"/>
<path d="M0 0 C0.33 0 0.66 0 1 0 C1.02835938 0.92941406 1.05671875 1.85882813 1.0859375 2.81640625 C1.54583593 10.21959534 1.54583593 10.21959534 5.1484375 16.453125 C9.70044215 19.7065097 13.42164379 21.30678322 19 22 C16.68675831 23.46540197 15.5824262 24.12707481 12.8515625 23.53125 C2.20768236 18.60145288 2.20768236 18.60145288 0 14 C-0.48886057 9.29011748 -0.34887679 4.71629735 0 0 Z " fill="#6687BC" transform="translate(21,31)"/>
<path d="M0 0 C0.33 0 0.66 0 1 0 C1.125 6.75 1.125 6.75 0 9 C0.66 9 1.32 9 2 9 C2 9.99 2 10.98 2 12 C-0.76264289 12.59732819 -3.16032769 13 -6 13 C-4.7605743 7.83572624 -3.21011179 4.24563172 0 0 Z " fill="#6968B9" transform="translate(57,40)"/>
<path d="M0 0 C-0.33 1.98 -0.66 3.96 -1 6 C-0.34 6 0.32 6 1 6 C1 5.01 1 4.02 1 3 C5.22222222 0 5.22222222 0 8 0 C6.59070303 3.47132095 5.09394917 4.88093274 1.875 6.75 C1.15054688 7.17796875 0.42609375 7.6059375 -0.3203125 8.046875 C-0.87460937 8.36140625 -1.42890625 8.6759375 -2 9 C-2 7.68 -2 6.36 -2 5 C-3.65 5 -5.3 5 -7 5 C-2.25 0 -2.25 0 0 0 Z " fill="#9AA3DD" transform="translate(49,51)"/>
<path d="M0 0 C-0.375 2.4375 -0.375 2.4375 -1 5 C-1.99 5.495 -1.99 5.495 -3 6 C-3 5.01 -3 4.02 -3 3 C-4.32 3 -5.64 3 -7 3 C-7 3.66 -7 4.32 -7 5 C-8.62626404 6.38232443 -10.2925002 7.71937515 -12 9 C-12 5.39222485 -11.0095568 3.93704456 -9 1 C-6.04335481 -0.4783226 -3.25770263 -0.06032783 0 0 Z " fill="#E8F1F8" transform="translate(26,12)"/>
<path d="M0 0 C0.33 0 0.66 0 1 0 C1 3.63 1 7.26 1 11 C1.66 11 2.32 11 3 11 C6 17.625 6 17.625 6 21 C5.34 21 4.68 21 4 21 C3.67 20.34 3.34 19.68 3 19 C2.01 18.67 1.02 18.34 0 18 C0 17.01 0 16.02 0 15 C0.66 15 1.32 15 2 15 C1.505 14.525625 1.01 14.05125 0.5 13.5625 C-1.68440794 9.83080311 -1.42535668 6.23720693 -1 2 C-0.67 1.34 -0.34 0.68 0 0 Z " fill="#EFF6FA" transform="translate(12,22)"/>
<path d="M0 0 C0.66 0.33 1.32 0.66 2 1 C2 1.66 2 2.32 2 3 C1.14535156 3.04898437 0.29070313 3.09796875 -0.58984375 3.1484375 C-1.69457031 3.22320312 -2.79929687 3.29796875 -3.9375 3.375 C-5.03964844 3.44460938 -6.14179687 3.51421875 -7.27734375 3.5859375 C-8.62505859 3.79089844 -8.62505859 3.79089844 -10 4 C-10.33 4.66 -10.66 5.32 -11 6 C-11 5.34 -11 4.68 -11 4 C-11.66 3.67 -12.32 3.34 -13 3 C-9.28282996 -0.87878613 -5.02421098 -0.50436095 0 0 Z " fill="#D6DEED" transform="translate(41,6)"/>
<path d="M0 0 C4.3878919 2.73399418 7.94322954 5.13758368 10 10 C6.55835531 8.47038014 3.90848242 6.37270934 1 4 C0.34 3.67 -0.32 3.34 -1 3 C-1 2.34 -1 1.68 -1 1 C-3.64 1.33 -6.28 1.66 -9 2 C-7.02148037 -1.95703926 -3.62353928 -1.20784643 0 0 Z " fill="#5A64AB" transform="translate(42,18)"/>
<path d="M0 0 C1.98 0 3.96 0 6 0 C6 2.64 6 5.28 6 8 C6.99 8 7.98 8 9 8 C9.66 6.68 10.32 5.36 11 4 C10.67 5.65 10.34 7.3 10 9 C8.02 9 6.04 9 4 9 C3.67 6.69 3.34 4.38 3 2 C2.01 1.67 1.02 1.34 0 1 C0 0.67 0 0.34 0 0 Z " fill="#515498" transform="translate(31,39)"/>
<path d="M0 0 C2.72869407 0.03287583 5.2966618 0.56397771 8 1 C5.84733158 3.15266842 4.15226256 3.93474462 1.375 5.125 C0.55773437 5.47820313 -0.25953125 5.83140625 -1.1015625 6.1953125 C-1.72804688 6.46085937 -2.35453125 6.72640625 -3 7 C-2.25 2.25 -2.25 2.25 0 0 Z " fill="#689CD1" transform="translate(27,14)"/>
<path d="M0 0 C3.875 0.875 3.875 0.875 5 2 C5.04092937 4.33297433 5.04241723 6.66705225 5 9 C3.68 8.67 2.36 8.34 1 8 C0.67 5.36 0.34 2.72 0 0 Z " fill="#534CA0" transform="translate(54,21)"/>
<path d="M0 0 C1.32 0.33 2.64 0.66 4 1 C3.443125 1.45375 2.88625 1.9075 2.3125 2.375 C-1.00489056 6.14068658 -2.89274299 10.4745792 -5 15 C-5.33 15 -5.66 15 -6 15 C-6.37815631 10.62756771 -5.34305827 8.34852855 -3 4.6875 C-2.1646875 3.36298828 -2.1646875 3.36298828 -1.3125 2.01171875 C-0.879375 1.34785156 -0.44625 0.68398438 0 0 Z " fill="#4C569A" transform="translate(35,24)"/>
<path d="M0 0 C1.32 0.33 2.64 0.66 4 1 C4 3.64 4 6.28 4 9 C2.68 8.67 1.36 8.34 0 8 C0 5.36 0 2.72 0 0 Z " fill="#5867A0" transform="translate(15,44)"/>
<path d="M0 0 C0.33 0 0.66 0 1 0 C1.33 2.97 1.66 5.94 2 9 C2.99 7.68 3.98 6.36 5 5 C5 6.65 5 8.3 5 10 C4.34 10 3.68 10 3 10 C2.71125 10.639375 2.4225 11.27875 2.125 11.9375 C1 14 1 14 -1 15 C-0.67 10.05 -0.34 5.1 0 0 Z " fill="#E4E8F4" transform="translate(54,30)"/>
<path d="M0 0 C0.99 0.33 1.98 0.66 3 1 C3 1.66 3 2.32 3 3 C3.66 3 4.32 3 5 3 C5.33 2.01 5.66 1.02 6 0 C6 1.65 6 3.3 6 5 C4.68 4.67 3.36 4.34 2 4 C2 6.31 2 8.62 2 11 C1.34 10.67 0.68 10.34 0 10 C0 6.7 0 3.4 0 0 Z " fill="#70A1C7" transform="translate(13,40)"/>
<path d="M0 0 C2.31 0 4.62 0 7 0 C7.36637589 6.35051546 7.36637589 6.35051546 5.625 9.4375 C4 11 4 11 2 11 C3.19899698 7.9168649 4.47700477 4.93720508 6 2 C4.02 2 2.04 2 0 2 C0 1.34 0 0.68 0 0 Z " fill="#4C56A0" transform="translate(40,32)"/>
<path d="M0 0 C0.5775 0.226875 1.155 0.45375 1.75 0.6875 C0.96625 1.120625 0.1825 1.55375 -0.625 2 C-3.46698375 3.57970247 -3.46698375 3.57970247 -5.25 6.6875 C-5.91 6.6875 -6.57 6.6875 -7.25 6.6875 C-7.58 7.6775 -7.91 8.6675 -8.25 9.6875 C-8.58 9.0275 -8.91 8.3675 -9.25 7.6875 C-7.31178055 3.70904955 -4.92640521 -0.68422295 0 0 Z " fill="#6077B0" transform="translate(31.25,20.3125)"/>
<path d="M0 0 C0.33 0.66 0.66 1.32 1 2 C0.01 2.495 0.01 2.495 -1 3 C0.65 3.33 2.3 3.66 4 4 C4.66 5.98 5.32 7.96 6 10 C-0.54545455 6.18181818 -0.54545455 6.18181818 -3 4 C-3 3.01 -3 2.02 -3 1 C-2.01 0.67 -1.02 0.34 0 0 Z " fill="#748ED7" transform="translate(45,12)"/>
<path d="M0 0 C1.32 0.33 2.64 0.66 4 1 C3.34 2.98 2.68 4.96 2 7 C2.66 7.33 3.32 7.66 4 8 C3.01 8 2.02 8 1 8 C0.67 7.01 0.34 6.02 0 5 C-0.99 5 -1.98 5 -3 5 C-2.67 4.01 -2.34 3.02 -2 2 C-1.34 2 -0.68 2 0 2 C0 1.34 0 0.68 0 0 Z " fill="#81AED8" transform="translate(19,15)"/>
<path d="M0 0 C-2 2 -2 2 -4.3828125 2.1953125 C-5.28773437 2.17210938 -6.19265625 2.14890625 -7.125 2.125 C-8.49011719 2.09792969 -8.49011719 2.09792969 -9.8828125 2.0703125 C-10.58148438 2.04710938 -11.28015625 2.02390625 -12 2 C-12 1.34 -12 0.68 -12 0 C-10.56359829 -0.19573608 -9.12580496 -0.38127816 -7.6875 -0.5625 C-6.88699219 -0.66691406 -6.08648437 -0.77132812 -5.26171875 -0.87890625 C-3 -1 -3 -1 0 0 Z " fill="#E7ECF9" transform="translate(44,62)"/>
<path d="M0 0 C0 0.99 0 1.98 0 3 C-2.97 3 -5.94 3 -9 3 C-9.33 2.34 -9.66 1.68 -10 1 C-6.59437148 0.22157062 -3.49234244 -0.09978121 0 0 Z " fill="#6C7EC7" transform="translate(40,58)"/>
<path d="M0 0 C3.4375 0.8125 3.4375 0.8125 7 2 C7.33 2.99 7.66 3.98 8 5 C8.99 5.33 9.98 5.66 11 6 C6.48986609 5.46939601 3.61621781 3.69113883 0 1 C0 0.67 0 0.34 0 0 Z " fill="#544F8E" transform="translate(27,47)"/>
<path d="M0 0 C0.99 0.33 1.98 0.66 3 1 C2.814375 1.61875 2.62875 2.2375 2.4375 2.875 C1.76313824 5.04160178 1.76313824 5.04160178 3 7 C1.68 7.33 0.36 7.66 -1 8 C-1.33 6.35 -1.66 4.7 -2 3 C-1.34 3 -0.68 3 0 3 C0 2.01 0 1.02 0 0 Z " fill="#767BC1" transform="translate(54,14)"/>
<path d="M0 0 C0.33 0 0.66 0 1 0 C1.36552803 1.41377782 1.71695495 2.83120576 2.0625 4.25 C2.25972656 5.03890625 2.45695313 5.8278125 2.66015625 6.640625 C3.01497267 9.10394822 2.76877544 10.65604132 2 13 C-0.20914 9.68629 -0.22481553 8.6553979 -0.125 4.8125 C-0.10695313 3.91144531 -0.08890625 3.01039062 -0.0703125 2.08203125 C-0.04710937 1.39496094 -0.02390625 0.70789062 0 0 Z " fill="#F4F9FC" transform="translate(11,41)"/>
<path d="M0 0 C0 0.66 0 1.32 0 2 C-2.31 3.32 -4.62 4.64 -7 6 C-7.66 5.34 -8.32 4.68 -9 4 C-2.25 0 -2.25 0 0 0 Z " fill="#D5DBEE" transform="translate(49,49)"/>
<path d="M0 0 C0.99 0.33 1.98 0.66 3 1 C3 1.99 3 2.98 3 4 C2.01 4 1.02 4 0 4 C0 4.66 0 5.32 0 6 C-0.66 6 -1.32 6 -2 6 C-1.34 4.02 -0.68 2.04 0 0 Z " fill="#708BC1" transform="translate(17,19)"/>
<path d="M0 0 C3.875 1.875 3.875 1.875 5 3 C5.04063832 4.66617115 5.042721 6.33388095 5 8 C2.74754119 5.31158141 1.11786042 3.35358125 0 0 Z " fill="#DCDEEF" transform="translate(55,17)"/>
<path d="M0 0 C0.33 0.66 0.66 1.32 1 2 C1.99 2 2.98 2 4 2 C4 3.32 4 4.64 4 6 C2.68 5.67 1.36 5.34 0 5 C0 3.35 0 1.7 0 0 Z " fill="#473E9B" transform="translate(55,24)"/>
<path d="M0 0 C2.5 1.375 2.5 1.375 5 3 C5 3.66 5 4.32 5 5 C3.35 5.33 1.7 5.66 0 6 C0 4.02 0 2.04 0 0 Z " fill="#B0B7E3" transform="translate(49,12)"/>
<path d="M0 0 C3.63 0 7.26 0 11 0 C11 0.33 11 0.66 11 1 C7.37 1 3.74 1 0 1 C0 0.67 0 0.34 0 0 Z " fill="#ADADB9" transform="translate(31,66)"/>
<path d="M0 0 C1.15941038 3.47823115 0.70820884 5.45895578 0 9 C-0.33 9 -0.66 9 -1 9 C-1.125 2.25 -1.125 2.25 0 0 Z " fill="#BED7E8" transform="translate(9,20)"/>
<path d="M0 0 C3.875 1.75 3.875 1.75 5 4 C1.125 2.25 1.125 2.25 0 0 Z " fill="#76749C" transform="translate(45,7)"/>
<path d="M0 0 C0.33 0 0.66 0 1 0 C1 1.98 1 3.96 1 6 C0.67 6 0.34 6 0 6 C0 4.02 0 2.04 0 0 Z " fill="#D4D4E9" transform="translate(62,38)"/>
<path d="M0 0 C0.66 0.33 1.32 0.66 2 1 C1.01 1 0.02 1 -1 1 C-0.67 0.67 -0.34 0.34 0 0 Z " fill="#7777CE" transform="translate(49,59)"/>
<path d="M0 0 C0.66 0.33 1.32 0.66 2 1 C1.01 1 0.02 1 -1 1 C-0.67 0.67 -0.34 0.34 0 0 Z " fill="#BFBFFF" transform="translate(55,55)"/>
<path d="M0 0 C1 4 1 4 1 4 Z " fill="#949494" transform="translate(60,48)"/>
<path d="M0 0 C0 3 0 3 0 3 Z " fill="#DFFFFF" transform="translate(14,13)"/>
<path d="M0 0 C0.99 0.33 1.98 0.66 3 1 C2.01 1 1.02 1 0 1 C0 0.67 0 0.34 0 0 Z " fill="#555590" transform="translate(50,11)"/>
<path d="M0 0 C3 1 3 1 3 1 Z " fill="#CDCDCD" transform="translate(17,60)"/>
<path d="" fill="#EEEEEE" transform="translate(0,0)"/>
<path d="" fill="#2A0E38" transform="translate(0,0)"/>
<path d="M0 0 C2 1 2 1 2 1 Z " fill="#AAD4D4" transform="translate(28,64)"/>
<path d="M0 0 C2 1 2 1 2 1 Z " fill="#8080BF" transform="translate(20,61)"/>
<path d="M0 0 C2 1 2 1 2 1 Z " fill="#E5E5E5" transform="translate(51,58)"/>
<path d="M0 0 C2 1 2 1 2 1 Z " fill="#AAAAD4" transform="translate(14,58)"/>
<path d="" fill="#D4D4FF" transform="translate(0,0)"/>
<path d="" fill="#00007F" transform="translate(0,0)"/>
<path d="" fill="#FFFFFF" transform="translate(0,0)"/>
<path d="" fill="#808080" transform="translate(0,0)"/>
<path d="" fill="#8080BF" transform="translate(0,0)"/>
<path d="" fill="#AAAAFF" transform="translate(0,0)"/>
<path d="" fill="#FFFFFF" transform="translate(0,0)"/>
<path d="" fill="#BFBFFF" transform="translate(0,0)"/>
<path d="" fill="#6699CC" transform="translate(0,0)"/>
<path d="" fill="#BFBFBF" transform="translate(0,0)"/>
<path d="" fill="#8080BF" transform="translate(0,0)"/>
<path d="" fill="#6699CC" transform="translate(0,0)"/>
<path d="" fill="#80BFBF" transform="translate(0,0)"/>
<path d="" fill="#808080" transform="translate(0,0)"/>
<path d="" fill="#55AAAA" transform="translate(0,0)"/>
<path d="" fill="#FFFFFF" transform="translate(0,0)"/>
<path d="" fill="#0000FF" transform="translate(0,0)"/>
<path d="" fill="#0000FF" transform="translate(0,0)"/>
<path d="" fill="#FF00FF" transform="translate(0,0)"/>
<path d="" fill="#746CAA" transform="translate(0,0)"/>
<path d="" fill="#8077AA" transform="translate(0,0)"/>
<path d="" fill="#FFFFFF" transform="translate(0,0)"/>
<path d="" fill="#8E8EB8" transform="translate(0,0)"/>
<path d="" fill="#FFFFFF" transform="translate(0,0)"/>
<path d="" fill="#000000" transform="translate(0,0)"/>
<path d="" fill="#000000" transform="translate(0,0)"/>
<path d="" fill="#8080AA" transform="translate(0,0)"/>
<path d="" fill="#000000" transform="translate(0,0)"/>
<path d="" fill="#000000" transform="translate(0,0)"/>
<path d="" fill="#000000" transform="translate(0,0)"/>
</svg>
