<?xml version="1.0" encoding="UTF-8"?>
<svg version="1.1" xmlns="http://www.w3.org/2000/svg" width="512" height="512">
<path d="M0 0 C0.66 0 1.32 0 2 0 C3.06225586 1.38256836 3.06225586 1.38256836 4.21484375 3.33984375 C4.64772705 4.06397461 5.08061035 4.78810547 5.52661133 5.53417969 C5.99220459 6.32727539 6.45779785 7.12037109 6.9375 7.9375 C7.93824065 9.6091899 8.94089008 11.27973841 9.9453125 12.94921875 C10.45610352 13.79919434 10.96689453 14.64916992 11.49316406 15.52490234 C13.69737663 19.14549647 15.99493331 22.70125278 18.3125 26.25 C22.51822262 32.70473166 26.68042372 39.18534654 30.8125 45.6875 C31.69578979 47.07727051 31.69578979 47.07727051 32.59692383 48.49511719 C33.79867284 50.38644783 35.00025068 52.27788725 36.20166016 54.16943359 C39.1317377 58.78134224 42.06604578 63.39055701 45 68 C46.16668774 69.83331992 47.33335439 71.66665327 48.5 73.5 C49.0775 74.4075 49.655 75.315 50.25 76.25 C75.33333333 115.66666667 100.41666667 155.08333333 125.5 194.5 C126.0787085 195.4089502 126.65741699 196.31790039 127.25366211 197.25439453 C128.40976824 199.07203322 129.56425213 200.89070484 130.71704102 202.71044922 C133.78217112 207.54400706 136.88058932 212.35191959 140.02734375 217.1328125 C140.68154297 218.13570312 141.33574219 219.13859375 142.00976562 220.171875 C143.2703958 222.10305314 144.5408623 224.02785509 145.82226562 225.9453125 C146.38494141 226.8115625 146.94761719 227.6778125 147.52734375 228.5703125 C148.02999756 229.33102051 148.53265137 230.09172852 149.05053711 230.87548828 C150 233 150 233 149.97705078 235.078125 C148.53504037 237.91458327 146.63003681 238.69346329 143.83984375 240.1796875 C142.74849121 240.77144775 141.65713867 241.36320801 140.53271484 241.97290039 C139.65495392 242.4372197 139.65495392 242.4372197 138.75946045 242.91091919 C135.64973726 244.5564129 132.56339226 246.24498283 129.47265625 247.92578125 C128.84145874 248.26731735 128.21026123 248.60885345 127.55993652 248.96073914 C121.58852745 252.19902633 115.72471021 255.60961752 109.875 259.0625 C101.80418115 263.80925507 93.68183299 268.44727745 85.5 273 C76.2720875 278.13545293 67.13010376 283.3998841 58.02392578 288.74780273 C49.8330828 293.54533476 41.56540322 298.19524211 33.2565918 302.78515625 C28.01343665 305.69549389 22.84301304 308.67935403 17.74609375 311.83984375 C16.74723145 312.45400146 15.74836914 313.06815918 14.71923828 313.70092773 C12.82770674 314.87165644 10.94644617 316.0592008 9.07763672 317.26586914 C8.23346191 317.78656982 7.38928711 318.30727051 6.51953125 318.84375 C5.42282104 319.54274414 5.42282104 319.54274414 4.30395508 320.25585938 C0.9541124 321.33780496 -0.81526239 320.37785345 -4 319 C-5.93543355 318.00585575 -7.84374535 316.95770361 -9.7265625 315.8671875 C-11.37591797 314.91779297 -11.37591797 314.91779297 -13.05859375 313.94921875 C-14.24742099 313.25785576 -15.43622235 312.56644827 -16.625 311.875 C-17.87336563 311.15437198 -19.12206998 310.43433046 -20.37109375 309.71484375 C-22.96388176 308.22069053 -25.55519882 306.72403245 -28.14550781 305.22558594 C-34.08347309 301.79338022 -40.04280788 298.39869229 -46 295 C-48.33355955 293.66706242 -50.66677908 292.33353021 -53 291 C-54.16666041 290.33332238 -55.33332707 289.66665571 -56.5 289 C-91.49999998 269.00000001 -91.49999998 269.00000001 -93.24964905 268.00019836 C-94.41748305 267.3328661 -95.58531956 266.66553823 -96.75315857 265.99821472 C-99.65198546 264.34176745 -102.5507605 262.6852296 -105.44946289 261.02856445 C-110.91213365 257.90665293 -116.37520295 254.78544695 -121.83969116 251.66671753 C-124.41826832 250.19499772 -126.99661846 248.72288044 -129.57495117 247.25073242 C-130.8030278 246.54968724 -132.03121539 245.84883641 -133.25952148 245.14819336 C-134.96366068 244.1761123 -136.66738557 243.20330504 -138.37109375 242.23046875 C-139.33974365 241.67770264 -140.30839355 241.12493652 -141.30639648 240.55541992 C-143.88829312 239.06450508 -146.44830104 237.54192333 -149 236 C-147.486887 230.24278958 -144.52323056 225.87935587 -141.25 221 C-140.06537961 219.20640681 -138.88182243 217.41211104 -137.69921875 215.6171875 C-136.78148682 214.22838379 -136.78148682 214.22838379 -135.84521484 212.81152344 C-132.87062577 208.2791911 -129.9656806 203.70328143 -127.0625 199.125 C-126.19189941 197.75408203 -126.19189941 197.75408203 -125.30371094 196.35546875 C-124.12418577 194.49792829 -122.94498679 192.64018066 -121.76611328 190.78222656 C-118.84820062 186.18552589 -115.92379532 181.59296022 -113 177 C-111.83330173 175.16668678 -110.66663508 173.33335344 -109.5 171.5 C-83.83333333 131.16666667 -58.16666667 90.83333333 -32.5 50.5 C-31.9220166 49.59169434 -31.3440332 48.68338867 -30.74853516 47.74755859 C-29.58691995 45.92225595 -28.42513727 44.09705986 -27.26318359 42.27197266 C-24.26781689 37.5666492 -21.2757675 32.8592645 -18.2890625 28.1484375 C-14.87050983 22.75847727 -11.44027397 17.37611945 -8 12 C-7.55301758 11.29939453 -7.10603516 10.59878906 -6.64550781 9.87695312 C-5.52163453 8.12117964 -4.38640699 6.37268728 -3.25 4.625 C-2.65703125 3.70976562 -2.0640625 2.79453125 -1.453125 1.8515625 C-0.97359375 1.24054687 -0.4940625 0.62953125 0 0 Z " fill="#5B63C7" transform="translate(266,21)"/>
<path d="M0 0 C3.54886497 0.6835586 6.30707855 2.1318263 9.453125 3.88671875 C10.53480957 4.48814697 11.61649414 5.0895752 12.73095703 5.70922852 C13.90411129 6.36840336 15.07712192 7.02783387 16.25 7.6875 C17.4685084 8.36854928 18.68709676 9.04945552 19.90576172 9.73022461 C28.69025673 14.64944655 37.39726845 19.69606036 46.07714844 24.79760742 C53.1680826 28.95736496 60.31636565 33.00271796 67.5 37 C75.72202684 41.57566452 83.88579507 46.23573889 92 51 C101.25100654 56.43134405 110.56977297 61.72681563 119.95214844 66.92797852 C124.88651107 69.66907401 129.78613864 72.44590585 134.62109375 75.359375 C135.92566528 76.14018433 135.92566528 76.14018433 137.2565918 76.93676758 C138.87109857 77.90850684 140.47859874 78.89202394 142.07739258 79.8894043 C142.78919678 80.31648682 143.50100098 80.74356934 144.234375 81.18359375 C144.84506836 81.56056396 145.45576172 81.93753418 146.08496094 82.32592773 C149.65407081 83.58221437 152.37174825 82.29896197 155.6652832 80.73168945 C157.09360474 79.93057739 157.09360474 79.93057739 158.55078125 79.11328125 C159.62924316 78.51185303 160.70770508 77.9104248 161.81884766 77.29077148 C162.98355098 76.63161713 164.14809776 75.97218608 165.3125 75.3125 C166.52632536 74.63122715 167.74035841 73.95032422 168.95458984 73.26977539 C177.71893122 68.34460225 186.41003127 63.29616061 195.07739258 58.20239258 C202.16811794 54.04241464 209.3164277 49.99724751 216.5 46 C224.72202684 41.42433548 232.88579507 36.76426111 241 32 C250.24978366 26.56937391 259.57197143 21.28362078 268.94555664 16.06982422 C276.46993054 11.87880704 283.93436076 7.59435933 291.34106445 3.19848633 C296.78536118 0 296.78536118 0 299 0 C297.41951252 4.99202753 294.44592319 8.57723694 291.25 12.625 C290.0649405 14.14990371 288.88139948 15.67598844 287.69921875 17.203125 C286.78148682 18.38745117 286.78148682 18.38745117 285.84521484 19.59570312 C282.86274964 23.48182609 279.96026036 27.42551443 277.0625 31.375 C276.48209961 32.16535645 275.90169922 32.95571289 275.30371094 33.77001953 C274.124074 35.377283 272.94487514 36.98486808 271.76611328 38.59277344 C268.85059269 42.56665138 265.92482031 46.53296477 263 50.5 C261.83328336 52.08329651 260.66661671 53.66662986 259.5 55.25 C182.5 159.75 182.5 159.75 180.74829102 162.12719727 C179.58716535 163.70309174 178.42619411 165.2791 177.26538086 166.85522461 C174.26522349 170.92834175 171.26202653 174.99916558 168.25390625 179.06640625 C159.48010712 190.92790098 159.48010712 190.92790098 151 203 C147.7425081 201.61839226 146.09226686 200.18026874 144.0390625 197.31640625 C143.21921875 196.1871875 143.21921875 196.1871875 142.3828125 195.03515625 C141.80273438 194.21917969 141.22265625 193.40320313 140.625 192.5625 C139.36740573 190.82406086 138.10958705 189.08578404 136.8515625 187.34765625 C135.8910498 186.01178467 135.8910498 186.01178467 134.91113281 184.64892578 C131.97248238 180.57580912 128.98554453 176.5387947 126 172.5 C124.83306642 170.91686337 123.66640059 169.33352936 122.5 167.75 C121.9225 166.96625 121.345 166.1825 120.75 165.375 C91 125 61.25 84.625 31.5 44.25 C30.92193604 43.4655249 30.34387207 42.6810498 29.74829102 41.87280273 C28.58716535 40.29690826 27.42619411 38.7209 26.26538086 37.14477539 C23.26522349 33.07165825 20.26202653 29.00083442 17.25390625 24.93359375 C0 1.59220183 0 1.59220183 0 0 Z " fill="#777FE6" transform="translate(117,288)"/>
<path d="M0 0 C0.99 0.495 0.99 0.495 2 1 C1.67 57.1 1.34 113.2 1 171 C-7.74582958 175.08138714 -16.42862012 179.12364618 -25.30859375 182.87109375 C-26.33433502 183.30671127 -27.36007629 183.7423288 -28.41690063 184.19114685 C-30.6150285 185.12439313 -32.81364788 186.05648247 -35.01272583 186.98748779 C-40.34811545 189.24643384 -45.68040196 191.51267834 -51.01285362 193.77854919 C-52.87752366 194.57079781 -54.74232349 195.36274037 -56.60713196 196.15466309 C-70.43902561 202.03006973 -84.25133888 207.95106106 -98.0625 213.875 C-100.36840669 214.86385444 -102.67431486 215.85270544 -104.98022461 216.84155273 C-106.08481522 217.31537888 -107.18940582 217.78920502 -108.32746887 218.27738953 C-110.47822929 219.19966297 -112.62925347 220.12132159 -114.78056335 221.04231262 C-119.91916437 223.24321241 -125.05220377 225.45558845 -130.17529297 227.69238281 C-131.63400063 228.32625412 -131.63400063 228.32625412 -133.12217712 228.97293091 C-134.94702005 229.7663581 -136.77002712 230.56402618 -138.59083557 231.3666687 C-139.39415817 231.71504791 -140.19748077 232.06342712 -141.02514648 232.42236328 C-141.72413559 232.72860626 -142.42312469 233.03484924 -143.14329529 233.35037231 C-145 234 -145 234 -148 234 C-146.31598528 229.05565446 -143.55694472 224.92440012 -140.75 220.5625 C-140.22132324 219.73339111 -139.69264648 218.90428223 -139.14794922 218.05004883 C-138.01602447 216.27544347 -136.88234488 214.50195643 -135.74707031 212.72949219 C-133.44479888 209.13259524 -131.15479307 205.52796143 -128.86425781 201.92358398 C-126.50595333 198.21365721 -124.14397915 194.50607212 -121.78222656 190.79833984 C-118.85345187 186.19976238 -115.92682309 181.59981973 -113 177 C-111.83334387 175.16665996 -110.6666772 173.33332663 -109.5 171.5 C-108.63375 170.13875 -108.63375 170.13875 -107.75 168.75 C-82.66666667 129.33333333 -57.58333333 89.91666667 -32.5 50.5 C-31.9220166 49.59169434 -31.3440332 48.68338867 -30.74853516 47.74755859 C-29.58691995 45.92225595 -28.42513727 44.09705986 -27.26318359 42.27197266 C-24.26781689 37.5666492 -21.2757675 32.8592645 -18.2890625 28.1484375 C-12.29270188 18.69660076 -6.2905518 9.26000483 0 0 Z " fill="#777FE6" transform="translate(266,21)"/>
<path d="M0 0 C2.51747868 2.47514993 4.66487134 4.76785308 6.5234375 7.7734375 C6.97960449 8.50409424 7.43577148 9.23475098 7.90576172 9.98754883 C8.39061035 10.77540771 8.87545898 11.5632666 9.375 12.375 C10.44742026 14.09536162 11.52035752 15.81540106 12.59375 17.53515625 C13.15191406 18.43250488 13.71007812 19.32985352 14.28515625 20.25439453 C17.11939932 24.79225011 19.99802256 29.30166362 22.875 33.8125 C24.05998253 35.67312187 25.24487774 37.53379936 26.4296875 39.39453125 C27.01975586 40.32088379 27.60982422 41.24723633 28.21777344 42.20166016 C31.14654813 46.80023762 34.07317691 51.40018027 37 56 C38.16665613 57.83334004 39.3333228 59.66667337 40.5 61.5 C138.74609375 215.88671875 138.74609375 215.88671875 140.33154297 218.39599609 C141.53350807 220.27193401 142.75953338 222.13253341 144.00048828 223.98291016 C144.65130371 224.96437012 145.30211914 225.94583008 145.97265625 226.95703125 C146.574729 227.85010986 147.17680176 228.74318848 147.79711914 229.66333008 C148.19406982 230.43443115 148.59102051 231.20553223 149 232 C148.67 232.99 148.34 233.98 148 235 C148 234.34 148 233.68 148 233 C147.27440384 232.87492569 146.54880768 232.74985138 145.80122375 232.62098694 C143.06444474 232.01428638 140.74991365 231.1734235 138.18041992 230.06420898 C136.76718193 229.458405 136.76718193 229.458405 135.32539368 228.84036255 C134.30406845 228.39675385 133.28274323 227.95314514 132.23046875 227.49609375 C130.60452034 226.7968428 130.60452034 226.7968428 128.94572449 226.08346558 C125.97789286 224.80617161 123.01192446 223.52466265 120.04668427 222.24136734 C116.91824105 220.88870243 113.78742212 219.54156079 110.65673828 218.1940918 C106.74605639 216.51052745 102.83559752 214.8264531 98.92614746 213.14002991 C89.91866847 209.25455236 80.9052519 205.38318541 71.88671875 201.5234375 C71.27738998 201.26264278 70.66806122 201.00184807 70.04026794 200.73315048 C67.00960731 199.43605264 63.97890084 198.13906192 60.94818115 196.84210205 C45.45504632 190.20982403 29.96227496 183.57614178 14.49029541 176.8946228 C12.62810577 176.09081839 10.76499694 175.28914451 8.90185547 174.48754883 C7.84240723 174.02888428 6.78295898 173.57021973 5.69140625 173.09765625 C4.79623291 172.71101807 3.90105957 172.32437988 2.97875977 171.92602539 C1 171 1 171 0 170 C-0.09698498 167.81040962 -0.12186727 165.6176247 -0.12025452 163.42588806 C-0.12110894 162.73082974 -0.12196337 162.03577141 -0.12284368 161.31965071 C-0.12450049 158.97341014 -0.11897387 156.62723992 -0.11352539 154.28100586 C-0.11324354 152.60600282 -0.11340122 150.93099967 -0.1139679 149.2559967 C-0.11425594 144.69420721 -0.10835814 140.13244377 -0.10139394 135.57066035 C-0.09516151 130.80871 -0.09455669 126.0467591 -0.09336853 121.2848053 C-0.09025489 112.26084434 -0.08204106 103.23689544 -0.07201904 94.2129398 C-0.06085893 83.94225513 -0.05534771 73.67156991 -0.05032361 63.40088069 C-0.03985847 42.26724706 -0.02225839 21.13362429 0 0 Z " fill="#5C64C7" transform="translate(267,22)"/>
<path d="M0 0 C27.56039227 11.48349678 27.56039227 11.48349678 36.625 15.3828125 C37.68289734 15.83660782 38.74079468 16.29040314 39.83074951 16.75794983 C43.22098467 18.21250622 46.61048806 19.66875924 50 21.125 C52.41042248 22.15939925 54.82090558 23.19365723 57.23144531 24.2277832 C62.2515707 26.38153602 67.2714029 28.53597059 72.29101562 30.69091797 C83.26206651 35.40071447 94.23465484 40.10692538 105.2080307 44.81130219 C109.43068731 46.62163428 113.65289569 48.43300898 117.875 50.24462891 C120.09894348 51.19827683 122.32290108 52.15189183 124.546875 53.10546875 C126.02471466 53.73993675 126.02471466 53.73993675 127.53240967 54.38722229 C134.33636188 57.30326938 141.16224052 60.16417301 148 63 C148 63.99 148 64.98 148 66 C147.30777344 66.3810791 146.61554688 66.7621582 145.90234375 67.15478516 C132.48409987 74.55117222 119.13326746 82.03211875 105.92382812 89.79736328 C98.83227599 93.95669651 91.68391745 98.00256043 84.5 102 C76.27797099 106.57566573 68.11425646 111.23582452 60 116 C50.79498392 121.40315778 41.52167076 126.66957143 32.19506836 131.85986328 C27.05340002 134.72299025 21.92603341 137.60639883 16.828125 140.546875 C15.85576904 141.10745605 14.88341309 141.66803711 13.8815918 142.24560547 C12.0423763 143.30864558 10.20519605 144.37521707 8.37036133 145.44580078 C7.55849365 145.9148584 6.74662598 146.38391602 5.91015625 146.8671875 C4.84486694 147.48762939 4.84486694 147.48762939 3.75805664 148.12060547 C2 149 2 149 0 149 C0 99.83 0 50.66 0 0 Z " fill="#2A3192" transform="translate(267,192)"/>
<path d="M0 0 C-1.58048748 4.99202753 -4.55407681 8.57723694 -7.75 12.625 C-8.9350595 14.14990371 -10.11860052 15.67598844 -11.30078125 17.203125 C-12.21851318 18.38745117 -12.21851318 18.38745117 -13.15478516 19.59570312 C-16.13725036 23.48182609 -19.03973964 27.42551443 -21.9375 31.375 C-22.51790039 32.16535645 -23.09830078 32.95571289 -23.69628906 33.77001953 C-24.875926 35.377283 -26.05512486 36.98486808 -27.23388672 38.59277344 C-30.14940731 42.56665138 -33.07517969 46.53296477 -36 50.5 C-37.16671664 52.08329651 -38.33338329 53.66662986 -39.5 55.25 C-65.16666667 90.08333333 -90.83333333 124.91666667 -116.5 159.75 C-117.07806396 160.53455566 -117.65612793 161.31911133 -118.25170898 162.12744141 C-119.41252343 163.70275139 -120.57349223 165.27794765 -121.73461914 166.85302734 C-124.74213315 170.93317488 -127.74653234 175.01556415 -130.74609375 179.1015625 C-131.36419922 179.94267578 -131.98230469 180.78378906 -132.61914062 181.65039062 C-133.78682124 183.23948981 -134.9535689 184.82927521 -136.11914062 186.41992188 C-138.99152537 190.32677892 -141.89719002 194.20638396 -144.84765625 198.0546875 C-145.42652588 198.80991699 -146.00539551 199.56514648 -146.60180664 200.34326172 C-147.06321045 200.88998535 -147.52461426 201.43670898 -148 202 C-148.33 202 -148.66 202 -149 202 C-149.33 163.06 -149.66 124.12 -150 84 C-146.37 82.02 -142.74 80.04 -139 78 C-124.86578559 70.24561958 -110.81983591 62.37106253 -96.92114258 54.20117188 C-89.83058469 50.04215763 -82.68302526 45.99694311 -75.5 42 C-66.27955056 36.86870036 -57.14508246 31.60833148 -48.04589844 26.26538086 C-39.66679455 21.35826992 -31.21106546 16.59603378 -22.72265625 11.88085938 C-16.55600359 8.45173944 -10.45862088 4.92988808 -4.40722656 1.30053711 C-2 0 -2 0 0 0 Z " fill="#5C64C7" transform="translate(416,288)"/>
</svg>
