<?xml version="1.0" encoding="UTF-8"?>
<svg version="1.1" xmlns="http://www.w3.org/2000/svg" width="1024" height="1024">
<path d="M0 0 C1.29386627 -0.00701431 2.58773254 -0.01402863 3.92080688 -0.02125549 C8.07611582 -0.0406665 12.23136905 -0.0456896 16.38671875 -0.046875 C17.09423908 -0.04731686 17.80175941 -0.04775871 18.53071976 -0.04821396 C39.53210388 -0.05509584 60.24019538 0.23559833 81.07421875 3.203125 C82.32799316 3.36941406 83.58176758 3.53570312 84.87353516 3.70703125 C115.8134435 7.84922798 146.37597333 14.56609669 176.07421875 24.203125 C177.14784668 24.54956055 178.22147461 24.89599609 179.32763672 25.25292969 C204.79264519 33.55516809 229.12123053 44.26171626 253.07421875 56.203125 C253.92032715 56.62416504 254.76643555 57.04520508 255.63818359 57.47900391 C292.98021238 76.21415393 327.72279689 100.81080488 358.5625 128.9375 C359.90637913 130.14970824 361.25584362 131.35654373 362.63842773 132.52441406 C369.28312719 138.17698288 375.40944179 144.35226435 381.57348633 150.51708984 C383.49866577 152.44008682 385.43170906 154.35493074 387.36523438 156.26953125 C393.67417464 162.55047461 399.70084222 168.85293231 405.20239258 175.86376953 C407.14427094 178.29067425 409.20074078 180.55944538 411.32421875 182.828125 C430.14830283 203.55098625 446.0394297 228.03001463 460.07421875 252.203125 C460.42806641 252.81172363 460.78191406 253.42032227 461.14648438 254.04736328 C463.85496193 258.73025661 466.47910654 263.45661388 469.07421875 268.203125 C469.51604492 269.00621094 469.95787109 269.80929687 470.41308594 270.63671875 C500.52696207 325.70927718 518.46308606 386.19355287 527.07421875 448.203125 C527.25500977 449.4823584 527.43580078 450.7615918 527.62207031 452.07958984 C532.9680993 491.98349808 532.56786219 535.34875171 527.07421875 575.203125 C526.9026123 576.49669922 526.73100586 577.79027344 526.55419922 579.12304688 C519.83822216 629.13737227 506.33219972 678.37617158 485.07421875 724.203125 C484.60902832 725.21036621 484.14383789 726.21760742 483.66455078 727.25537109 C470.4885872 755.6279355 455.28758831 782.74429091 437.07421875 808.203125 C436.5421582 808.94771973 436.01009766 809.69231445 435.46191406 810.45947266 C424.90921084 825.15592345 413.78223272 839.35783628 401.453125 852.61328125 C400.19368294 853.98439798 398.93966721 855.36163878 397.73486328 856.78100586 C392.08707459 863.42092572 385.92035133 869.5430755 379.76025391 875.70239258 C377.83725693 877.62757202 375.92241301 879.56061531 374.0078125 881.49414062 C367.72686914 887.80308089 361.42441144 893.82974847 354.41357422 899.33129883 C351.98666603 901.27317997 349.71789381 903.3296349 347.44921875 905.453125 C340.38685226 911.86940749 332.7206591 917.5099501 325.07421875 923.203125 C324.3570166 923.7398584 323.63981445 924.2765918 322.90087891 924.82958984 C304.22486666 938.75710408 284.49347675 951.00522633 264.07421875 962.203125 C263.18718262 962.68990723 262.30014648 963.17668945 261.38623047 963.67822266 C236.86760315 977.02603143 211.44317126 988.06969996 185.07421875 997.203125 C184.07600098 997.55181641 183.0777832 997.90050781 182.04931641 998.25976562 C135.71951578 1014.27198154 85.22482988 1024.22787287 36.1484375 1024.40625 C34.85457123 1024.41326431 33.56070496 1024.42027863 32.22763062 1024.42750549 C28.07232168 1024.4469165 23.91706845 1024.4519396 19.76171875 1024.453125 C19.05419842 1024.45356686 18.34667809 1024.45400871 17.61771774 1024.45446396 C-3.38366638 1024.46134584 -24.09175788 1024.17065167 -44.92578125 1021.203125 C-46.80644287 1020.95369141 -46.80644287 1020.95369141 -48.72509766 1020.69921875 C-98.8320816 1013.99095761 -147.98352272 1000.41440062 -193.92578125 979.203125 C-194.93737305 978.73648438 -195.94896484 978.26984375 -196.99121094 977.7890625 C-225.3586149 964.61376404 -252.47104235 949.41356484 -277.92578125 931.203125 C-278.67037598 930.67106445 -279.4149707 930.13900391 -280.18212891 929.59082031 C-294.8785797 919.03811709 -309.08049253 907.91113897 -322.3359375 895.58203125 C-323.70705423 894.32258919 -325.08429503 893.06857346 -326.50366211 891.86376953 C-333.14358197 886.21598084 -339.26573175 880.04925758 -345.42504883 873.88916016 C-347.35022827 871.96616318 -349.28327156 870.05131926 -351.21679688 868.13671875 C-357.52573714 861.85577539 -363.55240472 855.55331769 -369.05395508 848.54248047 C-370.99583344 846.11557575 -373.05230328 843.84680462 -375.17578125 841.578125 C-393.99061455 820.86544765 -409.93362371 796.39103851 -423.92578125 772.203125 C-424.43625 771.32430664 -424.94671875 770.44548828 -425.47265625 769.54003906 C-459.15433438 711.28568805 -480.75109506 647.87122872 -490.17578125 581.265625 C-490.32692383 580.20335693 -490.47806641 579.14108887 -490.63378906 578.04663086 C-491.11490455 574.43690719 -491.53940274 570.82397439 -491.92578125 567.203125 C-492.01298431 566.38687653 -492.10018738 565.57062805 -492.19003296 564.72964478 C-493.95782808 547.57213645 -494.28698926 530.50412198 -494.23828125 513.265625 C-494.23635689 511.91028861 -494.23451647 510.5549521 -494.23275757 509.19961548 C-494.19476599 489.04865914 -493.68836713 469.19046053 -490.92578125 449.203125 C-490.74693779 447.86964667 -490.56823073 446.53615005 -490.38964844 445.20263672 C-487.87253598 426.66691058 -484.39104366 408.37269369 -479.92578125 390.203125 C-479.67103027 389.16091797 -479.4162793 388.11871094 -479.15380859 387.04492188 C-472.56593891 360.4951875 -463.95758602 334.24305724 -452.92578125 309.203125 C-452.31597412 307.80852051 -452.31597412 307.80852051 -451.69384766 306.38574219 C-430.18374167 257.48943869 -401.79622096 211.02626322 -365.3046875 171.79296875 C-364.04524544 170.42185202 -362.79122971 169.04461122 -361.58642578 167.62524414 C-355.93863709 160.98532428 -349.77191383 154.8631745 -343.61181641 148.70385742 C-341.68881943 146.77867798 -339.77397551 144.84563469 -337.859375 142.91210938 C-331.57843164 136.60316911 -325.27597394 130.57650153 -318.26513672 125.07495117 C-315.83822853 123.13307003 -313.56945631 121.0766151 -311.30078125 118.953125 C-304.23874017 112.53713816 -296.57360542 106.89388048 -288.92578125 101.203125 C-288.19262695 100.65575684 -287.45947266 100.10838867 -286.70410156 99.54443359 C-275.45807319 91.18079065 -263.88920698 83.49898428 -251.92578125 76.203125 C-251.0965918 75.69313965 -250.26740234 75.1831543 -249.41308594 74.65771484 C-217.60635941 55.15954782 -184.14500311 39.50857295 -148.92578125 27.203125 C-147.41975342 26.6757373 -147.41975342 26.6757373 -145.88330078 26.13769531 C-107.48893099 12.87199307 -67.34607273 4.83010157 -26.92578125 1.203125 C-25.47137131 1.07213158 -25.47137131 1.07213158 -23.98757935 0.93849182 C-15.98175401 0.26827764 -8.03185832 0.02919326 0 0 Z " fill="#F7931A" transform="translate(493.92578125,-0.203125)"/>
<path d="M0 0 C6.60599024 0.66128429 12.854221 2.08301178 19.28125 3.72265625 C20.33534058 3.98759384 21.38943115 4.25253143 22.47546387 4.52549744 C25.81811383 5.36672522 29.15906039 6.21450791 32.5 7.0625 C34.77593205 7.6365025 37.05197266 8.21007477 39.328125 8.78320312 C44.88668262 10.18382547 50.44385914 11.58982292 56 13 C54.88820557 18.72603867 53.70827812 24.40872781 52.265625 30.0625 C51.94190918 31.34068604 51.61819336 32.61887207 51.28466797 33.93579102 C51.03157867 34.92955246 51.03157867 34.92955246 50.77337646 35.94338989 C48.01338383 46.78879302 45.3474619 57.64732263 42.875 68.5625 C40.18061188 80.44624746 37.15616287 92.23119975 34 104 C34.66612305 104.09651855 35.33224609 104.19303711 36.01855469 104.29248047 C45.2331367 105.71976436 54.20819776 107.88568433 63.25 110.125 C64.78505692 110.50170706 66.32021264 110.8780118 67.85546875 111.25390625 C71.57146504 112.16464748 75.28609114 113.0807852 79 114 C79.12956085 112.83210434 79.2591217 111.66420868 79.39260864 110.46092224 C79.89818226 106.43387083 80.73322452 102.56592351 81.71826172 98.62524414 C81.88915314 97.93627548 82.06004456 97.24730682 82.2361145 96.53746033 C82.79600467 94.28550714 83.36263689 92.03531612 83.9296875 89.78515625 C84.32494517 88.20397032 84.7198881 86.62270569 85.11453247 85.04136658 C85.94039462 81.7365381 86.76951281 78.43254929 87.60107422 75.12915039 C88.66127455 70.9166983 89.71415935 66.70246001 90.76469231 62.48758793 C91.57878794 59.22421452 92.3963762 55.96172396 93.21503067 52.6994915 C93.60428487 51.1469584 93.99257725 49.59418379 94.37984848 48.04115486 C96.322031 40.2619157 98.30882036 32.56237404 101 25 C108.38331894 26.26329896 115.64909242 27.79686236 122.91796875 29.6015625 C123.90122635 29.8428891 124.88448395 30.0842157 125.89753723 30.33285522 C128.9949608 31.09381636 132.09123921 31.85932297 135.1875 32.625 C137.30526403 33.14613621 139.42310196 33.66697224 141.54101562 34.1875 C146.69486856 35.45486917 151.84779278 36.72595804 157 38 C155.53581109 48.41218937 153.00580995 58.4944155 150.4296875 68.671875 C149.98372719 70.44824007 149.53818789 72.22471088 149.0930481 74.00128174 C147.93002507 78.63822607 146.76135277 83.27372781 145.59143066 87.90893555 C144.39472616 92.65456523 143.2034632 97.40156028 142.01171875 102.1484375 C139.67975258 111.4336232 137.34180599 120.71729149 135 130 C139.68162672 132.09925665 144.35591185 134.19301367 149.12890625 136.078125 C160.36987332 140.56547139 171.32385753 145.29285012 182 151 C182.67256836 151.35562012 183.34513672 151.71124023 184.03808594 152.07763672 C197.41058601 159.19100277 208.93434049 167.5930107 220 178 C220.67546875 178.59941406 221.3509375 179.19882812 222.046875 179.81640625 C236.75346347 193.43470717 247.05022854 214.34564067 248.1262207 234.34619141 C248.50389021 246.88002337 247.95428541 258.79903387 245 271 C244.83371094 271.69931641 244.66742187 272.39863281 244.49609375 273.11914062 C238.73365793 296.57438863 226.28437462 317.7320431 205.53808594 330.87402344 C199.02988863 334.78738033 192.12821593 337.4263553 185 340 C183.5175091 340.55276011 182.03573582 341.10744873 180.5546875 341.6640625 C178.79511719 342.32535156 178.79511719 342.32535156 177 343 C177.93199219 343.53367187 178.86398437 344.06734375 179.82421875 344.6171875 C204.35423465 358.8634535 225.86210425 377.63867542 233.53466797 405.97460938 C242.30335383 441.74459056 230.25806324 479.92417112 212.078125 510.80859375 C208.77356428 515.88345486 204.96097639 520.43141752 201 525 C200.21625 526.03125 199.4325 527.0625 198.625 528.125 C186.48124309 541.42530519 169.89231141 550.60851652 152.9375 556.1875 C152.23753906 556.4254126 151.53757812 556.6633252 150.81640625 556.90844727 C134.30879975 562.07612452 117.2127613 562.56732161 100.0625 562.5 C98.98081543 562.49989929 97.89913086 562.49979858 96.78466797 562.49969482 C73.39032048 562.45711429 50.88457386 559.76521709 28 555 C27.90864777 555.57857254 27.81729553 556.15714508 27.72317505 556.75325012 C26.13292636 566.15182287 23.76007703 575.33884544 21.4296875 584.57421875 C20.98383094 586.35203916 20.5382897 588.12993868 20.0930481 589.90791321 C18.9289776 594.55282416 17.76066901 599.19665863 16.59143066 603.840271 C15.39559807 608.59273263 14.20383738 613.34621503 13.01171875 618.09960938 C10.67843054 627.40073481 8.34065725 636.70072648 6 646 C2.131738 647.01339456 -0.48107759 646.90629405 -4.34106445 645.92016602 C-5.3817659 645.65982071 -6.42246735 645.3994754 -7.4947052 645.13124084 C-8.6063353 644.84172043 -9.71796539 644.55220001 -10.86328125 644.25390625 C-12.01040085 643.96394272 -13.15752045 643.67397919 -14.33940125 643.37522888 C-17.99970604 642.44756648 -21.65605267 641.50523972 -25.3125 640.5625 C-27.79467517 639.93067065 -30.27709449 639.29979959 -32.75976562 638.66992188 C-38.84271959 637.12438652 -44.92248991 635.56679721 -51 634 C-44.14733583 603.54491433 -36.65484938 573.26248593 -29 543 C-30.41028688 542.52489731 -31.82102012 542.05111951 -33.23193359 541.57788086 C-34.01748627 541.31389999 -34.80303894 541.04991913 -35.61239624 540.77793884 C-39.25255601 539.59188707 -42.9322561 538.57035931 -46.625 537.5625 C-47.39263672 537.35077148 -48.16027344 537.13904297 -48.95117188 536.92089844 C-52.77253573 535.87025965 -56.59825394 534.83751174 -60.4296875 533.82421875 C-61.46101807 533.55146118 -61.46101807 533.55146118 -62.51318359 533.27319336 C-64.3934132 532.77806777 -66.27479896 532.28733873 -68.15625 531.796875 C-71 531 -71 531 -73 530 C-73.12544693 531.15111267 -73.25089386 532.30222534 -73.38014221 533.48822021 C-73.92348767 537.81394243 -74.85007241 541.96581998 -75.91772461 546.18847656 C-76.20573189 547.35101959 -76.20573189 547.35101959 -76.4995575 548.53704834 C-77.12912253 551.07277024 -77.76547701 553.60672798 -78.40234375 556.140625 C-78.84480312 557.91315975 -79.28698314 559.68576425 -79.72889709 561.45843506 C-80.65304081 565.1608882 -81.58056152 568.86247429 -82.51049805 572.56347656 C-83.70167302 577.30533006 -84.88434736 582.04925562 -86.06452084 586.79385757 C-86.97475553 590.44924859 -87.8894694 594.10350721 -88.8055439 597.75743866 C-89.24349665 599.5065839 -89.68005471 601.25607895 -90.11518669 603.00592804 C-90.72320282 605.44815392 -91.33723502 607.88878953 -91.95288086 610.32910156 C-92.13113403 611.05021118 -92.30938721 611.7713208 -92.49304199 612.51428223 C-93.35064721 615.88766353 -94.26269003 618.97071944 -96 622 C-103.89520342 620.64068432 -111.69792861 619.00348927 -119.5 617.1875 C-120.6226123 616.92759277 -121.74522461 616.66768555 -122.90185547 616.39990234 C-132.65293565 614.12192357 -142.33869601 611.63066832 -152 609 C-150.42222739 599.03067279 -147.92778714 589.30868024 -145.46484375 579.53125 C-145.02141733 577.76060773 -144.57827128 575.98989522 -144.13539124 574.21911621 C-143.21212438 570.53062468 -142.28656576 566.84271913 -141.35913086 563.15527344 C-140.1699992 558.42718858 -138.9850235 553.69807488 -137.80153561 548.96857452 C-136.88895629 545.32240838 -135.97504541 541.67657719 -135.06064034 538.03086853 C-134.62304515 536.28618316 -134.18566975 534.54144265 -133.74851799 532.79664612 C-133.13948465 530.36737463 -132.52886112 527.93850875 -131.91772461 525.50976562 C-131.7374472 524.78977386 -131.5571698 524.0697821 -131.37142944 523.32797241 C-130.66189211 520.51411776 -129.91813472 517.75440417 -129 515 C-129.58523438 514.91363281 -130.17046875 514.82726562 -130.7734375 514.73828125 C-136.7523531 513.75975002 -142.51287543 512.3533313 -148.328125 510.68798828 C-156.55337217 508.36949007 -164.8140939 506.25085752 -173.11679077 504.22951889 C-175.45718301 503.65967749 -177.79666686 503.08622201 -180.13598633 502.51199341 C-185.08991188 501.29660597 -190.04488292 500.08551895 -195 498.875 C-200.78159295 497.46237144 -206.56272034 496.04788358 -212.34283447 494.62921524 C-214.62762007 494.06936025 -216.91314555 493.51260535 -219.19873047 492.95602417 C-226.52721866 491.16308923 -233.80720817 489.28929559 -241 487 C-240.40519885 481.49008883 -238.45648735 477.00393421 -236.2109375 472.0078125 C-235.63866928 470.71241043 -235.63866928 470.71241043 -235.05484009 469.39083862 C-233.83466156 466.63265332 -232.60507499 463.87878389 -231.375 461.125 C-230.17258256 458.41483542 -228.97207308 455.70383304 -227.77203369 452.99261475 C-226.98429895 451.21783009 -226.19310338 449.44457728 -225.39837646 447.6729126 C-223.53932822 443.52274343 -221.7250356 439.36689837 -220.02832031 435.14746094 C-219.72205719 434.40068085 -219.41579407 433.65390076 -219.10025024 432.88449097 C-218.534296 431.49675748 -217.98357525 430.10267338 -217.45126343 428.70169067 C-216.29216348 425.8901055 -215.59118171 424.27608387 -212.77661133 422.96166992 C-209.1149076 423.01221837 -205.83680709 423.85810307 -202.34765625 424.87109375 C-200.83277523 425.28484565 -199.31779797 425.69824527 -197.80273438 426.11132812 C-195.44501536 426.76788653 -193.08906702 427.42993928 -190.73510742 428.09985352 C-174.47005374 432.92234378 -174.47005374 432.92234378 -157.98461914 430.90795898 C-149.28412366 425.34604715 -147.45342773 418.19555084 -145.14453125 408.45703125 C-144.80377458 407.08466072 -144.46120942 405.71273818 -144.11698914 404.3412323 C-143.3803644 401.38999128 -142.65644171 398.43602925 -141.94238281 395.47924805 C-140.79494786 390.72800859 -139.6199489 385.98383823 -138.44140625 381.24023438 C-136.78032215 374.54381509 -135.13154868 367.84447653 -133.49072266 361.14306641 C-131.09990738 351.38358862 -128.6718261 341.63366191 -126.23046875 331.88671875 C-126.03516256 331.10681957 -125.83985638 330.32692039 -125.63863182 329.52338791 C-124.85016305 326.37509693 -124.06157816 323.22683513 -123.27264309 320.07866096 C-121.88858912 314.55490871 -120.50862022 309.03014695 -119.13061523 303.50488281 C-114.17577005 283.64262327 -109.17031343 263.79372076 -104.12652016 243.95386791 C-100.74142295 230.63834152 -97.36801329 217.31985692 -94 204 C-93.71882324 202.88898926 -93.43764648 201.77797852 -93.14794922 200.63330078 C-91.73698927 195.05402595 -90.33446489 189.47284384 -88.95196533 183.88644409 C-88.57591135 182.37174574 -88.1967875 180.85780522 -87.81414795 179.34475708 C-84.71837762 167.08665146 -83.63483196 158.2453174 -89.6875 146.8125 C-98.89216079 135.61764228 -113.21406251 133.25335221 -126.625 129.875 C-127.99230937 129.52521563 -129.3594976 129.17495736 -130.7265625 128.82421875 C-137.4613011 127.10342432 -144.20263841 125.45550568 -151 124 C-150.24064374 117.43669916 -148.65077685 111.12782849 -147.05859375 104.72265625 C-146.6278933 102.97292763 -146.6278933 102.97292763 -146.18849182 101.18785095 C-145.27467818 97.47860686 -144.35615709 93.77054717 -143.4375 90.0625 C-142.81544381 87.54109243 -142.19369555 85.01960887 -141.57226562 82.49804688 C-140.05174335 76.33114644 -138.52735901 70.16521052 -137 64 C-129.0718095 64.70884959 -121.4610303 66.72409498 -113.7578125 68.640625 C-112.26545057 69.00868586 -110.77300713 69.37641637 -109.28048706 69.74383545 C-106.15470148 70.51435504 -103.02970276 71.28796436 -99.90527344 72.06396484 C-95.95522142 73.04489896 -92.0036505 74.01953522 -88.05152702 74.99208546 C-58.69398985 82.21979898 -58.69398985 82.21979898 -45.52050781 86.03686523 C-38.21450366 88.03562989 -30.58967465 90 -23 90 C-22.72660294 88.90197052 -22.45320587 87.80394104 -22.17152405 86.67263794 C-19.59896359 76.34191224 -17.02393947 66.0118034 -14.44648075 55.68229866 C-13.12135766 50.37135402 -11.79711389 45.06019331 -10.47485352 39.74853516 C-9.19958074 34.62576727 -7.92203241 29.5035719 -6.64288139 24.38177109 C-6.15443695 22.42428828 -5.66682305 20.46659804 -5.18004036 18.50870132 C-4.49988767 15.77364459 -3.81682765 13.0393298 -3.13305664 10.30517578 C-2.93093567 9.48950134 -2.7288147 8.6738269 -2.52056885 7.83343506 C-1.11405216 2.22810432 -1.11405216 2.22810432 0 0 Z " fill="#FEFEFE" transform="translate(491,179)"/>
<path d="M0 0 C1.88581818 0.30794905 3.77133961 0.61771558 5.65673828 0.92822266 C6.70677032 1.10052399 7.75680237 1.27282532 8.83865356 1.4503479 C13.55415791 2.27021593 18.2121501 3.2995071 22.875 4.375 C23.83043701 4.59414063 24.78587402 4.81328125 25.77026367 5.0390625 C33.2644969 6.78140683 40.629496 8.78969892 48 11 C49.28453801 11.3615786 50.56972687 11.72085087 51.85546875 12.078125 C83.89522568 21.06717379 121.96765248 33.84679134 139.375 64.625 C143.01910149 71.40425026 144.35045232 77.71332486 144.25 85.3125 C144.24250732 86.06233154 144.23501465 86.81216309 144.22729492 87.5847168 C143.94472366 102.19159884 139.42858349 115.44312111 129 126 C119.22271975 134.44176643 107.44757287 138.32621076 95 141 C94.2680542 141.17128418 93.5361084 141.34256836 92.78198242 141.51904297 C56.09840404 147.8610043 16.9334302 136.44873928 -18.24609375 127.546875 C-19.20279968 127.3053772 -20.15950562 127.06387939 -21.14520264 126.81506348 C-22.02081848 126.59088745 -22.89643433 126.36671143 -23.79858398 126.13574219 C-24.56508774 125.93986511 -25.33159149 125.74398804 -26.12132263 125.54217529 C-28 125 -28 125 -30 124 C-29.38786422 116.92043332 -27.98840731 110.2976404 -26.22436523 103.42163086 C-25.94136566 102.29865601 -25.65836609 101.17568115 -25.36679077 100.01867676 C-24.43638103 96.33260898 -23.49755061 92.64874268 -22.55859375 88.96484375 C-21.90931408 86.39951045 -21.26056375 83.83404313 -20.61231995 81.26844788 C-19.08363638 75.22201966 -17.54887854 69.1771509 -16.0118857 63.1328302 C-14.26107626 56.24640874 -12.51711639 49.3582586 -10.77370536 42.46996105 C-7.19004262 28.31138359 -3.59786217 14.15497579 0 0 Z " fill="#F7931A" transform="translate(467,518)"/>
<path d="M0 0 C6.67412067 -0.39987599 12.71851587 1.08296648 19.1875 2.625 C20.33935791 2.89642822 21.49121582 3.16785645 22.67797852 3.44750977 C55.65571668 11.35677684 95.04549743 21.79525135 114.45703125 51.99609375 C118.28643543 59.45131353 119.48485236 66.09482354 119.375 74.4375 C119.38660156 75.31470703 119.39820313 76.19191406 119.41015625 77.09570312 C119.35323929 89.96842197 114.15729652 102.84270348 105 112 C89.89624677 124.42360478 73.38495721 126.40778628 54.5 126.3125 C53.74988647 126.31067719 52.99977295 126.30885437 52.22692871 126.30697632 C40.25551521 126.25809066 28.72353186 125.51851246 17 123 C16.10394043 122.81244141 15.20788086 122.62488281 14.28466797 122.43164062 C0.37766393 119.48780487 -13.33930551 115.92032573 -27 112 C-26.30615932 104.22281686 -24.31907194 96.80671453 -22.39453125 89.2578125 C-22.02870082 87.80707926 -21.66336996 86.35621996 -21.29850769 84.90524292 C-20.33651609 81.08379784 -19.3693137 77.26369351 -18.4005127 73.44396973 C-16.68415628 66.67510472 -14.97523108 59.90436977 -13.26953125 53.1328125 C-13.0847736 52.40047646 -12.90001595 51.66814041 -12.70965958 50.91361237 C-9.9804888 40.08514873 -7.37355228 29.2371406 -4.94844055 18.33572388 C-3.55543372 12.13337408 -1.91330223 6.06249443 0 0 Z " fill="#F7931A" transform="translate(509,350)"/>
</svg>
