<?xml version="1.0" encoding="UTF-8"?>
<svg version="1.1" xmlns="http://www.w3.org/2000/svg" width="259" height="194">
<path d="M0 0 C85.47 0 170.94 0 259 0 C259 64.02 259 128.04 259 194 C173.53 194 88.06 194 0 194 C0 129.98 0 65.96 0 0 Z " fill="#FEFEFE" transform="translate(0,0)"/>
<path d="M0 0 C1.06734375 0.3403125 2.1346875 0.680625 3.234375 1.03125 C23.95907973 8.23138216 39.13580753 23.49161176 48.64648438 42.89111328 C57.02743053 60.53444992 59.30524053 82.15964514 52.70703125 100.82421875 C44.7775421 121.88921569 31.28412596 139.23231621 10.75 149.1875 C4.02597216 152.16710475 -2.86649483 154.24364456 -10 156 C-11.16208984 156.29197266 -11.16208984 156.29197266 -12.34765625 156.58984375 C-33.63223993 159.88127422 -54.33486955 153.92037258 -72 142 C-89.90497193 127.83171786 -101.38769529 109.51620907 -104.75390625 86.8203125 C-106.78498142 63.54354623 -100.75766094 42.61016725 -86.0390625 24.29296875 C-79.32421256 16.74197849 -71.90838854 10.73124942 -63 6 C-62.22269531 5.56042969 -61.44539063 5.12085938 -60.64453125 4.66796875 C-42.74403335 -4.99771609 -19.30928426 -6.68813198 0 0 Z " fill="#637DE8" transform="translate(154,15)"/>
<path d="M0 0 C3.75817347 1.25272449 4.07247306 2.35441738 5.99609375 5.734375 C6.55490234 6.70117188 7.11371094 7.66796875 7.68945312 8.6640625 C8.26630859 9.68242188 8.84316406 10.70078125 9.4375 11.75 C10.57838919 13.74687692 11.72281647 15.74173733 12.87109375 17.734375 C13.37568115 18.62350586 13.88026855 19.51263672 14.40014648 20.42871094 C16.08373838 23.13458457 17.98697666 25.53295238 20 28 C20.89577149 29.53902579 21.74883502 31.10353149 22.5625 32.6875 C25.40011032 38.01436949 28.47404787 43.16745949 31.625 48.3125 C32.09236572 49.07715576 32.55973145 49.84181152 33.04125977 50.62963867 C35.07640504 53.94095721 37.1308102 57.21694623 39.3359375 60.41796875 C41 63 41 63 41 65 C40.45859375 64.71382813 39.9171875 64.42765625 39.359375 64.1328125 C36.70680653 62.8592283 34.02068518 61.86453042 31.25 60.875 C30.26515625 60.52179688 29.2803125 60.16859375 28.265625 59.8046875 C27.51796875 59.53914063 26.7703125 59.27359375 26 59 C26 58.34 26 57.68 26 57 C25.34128906 56.90589844 24.68257812 56.81179687 24.00390625 56.71484375 C20.08561431 55.78240236 16.60147653 54.21145736 12.9375 52.5625 C11.87692383 52.09360352 11.87692383 52.09360352 10.79492188 51.61523438 C7.48539546 50.14536959 4.24152327 48.62076164 1 47 C1 60.53 1 74.06 1 88 C-12.655 81.1725 -12.655 81.1725 -18.5625 77.5 C-24.60834896 73.804836 -30.73810462 70.31971585 -37 67 C-37 66.34 -37 65.68 -37 65 C-37.66 64.67 -38.32 64.34 -39 64 C-33.11665147 54.09194923 -27.19055668 44.21980054 -21 34.5 C-15.22315776 25.42756043 -9.67748866 16.22476912 -4.17919922 6.98144531 C-2.79211966 4.65069216 -1.39752514 2.32450309 0 0 Z " fill="#FBFCFC" transform="translate(131,28)"/>
<path d="M0 0 C0.33 0 0.66 0 1 0 C0.99476318 0.89195068 0.98952637 1.78390137 0.98413086 2.70288086 C0.9669603 6.0520087 0.95448774 9.40108889 0.94506836 12.75024414 C0.94007852 14.192309 0.93328427 15.63436891 0.92456055 17.07641602 C0.78884947 28.58153071 0.78884947 28.58153071 2 40 C2.66 40.66 3.32 41.32 4 42 C4 42.99 4 43.98 4 45 C3.34 45 2.68 45 2 45 C2 46.65 2 48.3 2 50 C3.98 49.505 3.98 49.505 6 49 C6 49.66 6 50.32 6 51 C6.99 51 7.98 51 9 51 C10.16512384 54.49537151 11 57.3040893 11 61 C11.66 61 12.32 61 13 61 C13.66 62.65 14.32 64.3 15 66 C15.66 66 16.32 66 17 66 C17.99 69.465 17.99 69.465 19 73 C20.32 73 21.64 73 23 73 C23 73.66 23 74.32 23 75 C23.99 75 24.98 75 26 75 C26.33 76.98 26.66 78.96 27 81 C28.3921875 81.185625 28.3921875 81.185625 29.8125 81.375 C33 82 33 82 36 84 C36 84.66 36 85.32 36 86 C37.98 85.505 37.98 85.505 40 85 C40.99 86.485 40.99 86.485 42 88 C44.32115711 88.40961596 46.65834501 88.73128549 49 89 C52.37790101 89.9007736 55.68424686 90.89474895 59 92 C61.39254576 92.22560676 63.78928123 92.40848595 66.1875 92.5625 C68.09595703 92.68818359 68.09595703 92.68818359 70.04296875 92.81640625 C71.01878906 92.87699219 71.99460937 92.93757813 73 93 C73 93.66 73 94.32 73 95 C75.64680904 94.88660796 78.29177518 94.75987127 80.9375 94.625 C81.69224609 94.5940625 82.44699219 94.563125 83.22460938 94.53125 C85.15507395 94.4273685 87.07942081 94.22104386 89 94 C89.33 93.34 89.66 92.68 90 92 C92.31 92.33 94.62 92.66 97 93 C97 91.68 97 90.36 97 89 C100.96 89 104.92 89 109 89 C109.33 88.34 109.66 87.68 110 87 C110.66 87 111.32 87 112 87 C112.20625 86.21625 112.4125 85.4325 112.625 84.625 C114.47524896 81.09270653 116.3056605 81.15448109 120 80 C121.13350534 77.98330173 121.13350534 77.98330173 122 76 C124.125 75.25 124.125 75.25 126 75 C126 74.34 126 73.68 126 73 C126.99 73 127.98 73 129 73 C129 71.35 129 69.7 129 68 C129.66 68.66 130.32 69.32 131 70 C131.66 68.35 132.32 66.7 133 65 C134.32 65 135.64 65 137 65 C137.1546875 63.7625 137.1546875 63.7625 137.3125 62.5 C138.10329665 58.47412612 139.05444164 54.63624008 141 51 C141.70125 50.67 142.4025 50.34 143.125 50 C144.053125 49.505 144.053125 49.505 145 49 C145.29343287 47.04378089 145.57474595 45.08223052 145.71875 43.109375 C146.1273884 40.04458697 147.47414272 37.65366484 149 35 C151.65373577 37.65373577 151.7248248 39.28513486 152 43 C146.88438956 62.41495963 133.07608585 79.70590569 116 90 C107.37073859 94.63114801 98.49310823 97.66268169 89 100 C88.22527344 100.19464844 87.45054687 100.38929688 86.65234375 100.58984375 C65.36776007 103.88127422 44.66513045 97.92037258 27 86 C9.04954823 71.79572947 -2.26198558 53.56242686 -5.76171875 30.8671875 C-7.06434024 15.19302072 -7.06434024 15.19302072 -5 9 C-4.34 8.67 -3.68 8.34 -3 8 C-2.29508733 5.67793475 -1.62787571 3.34406932 -1 1 C-0.67 0.67 -0.34 0.34 0 0 Z " fill="#5160B5" transform="translate(55,71)"/>
<path d="M0 0 C1.06734375 0.3403125 2.1346875 0.680625 3.234375 1.03125 C23.95907973 8.23138216 39.13580753 23.49161176 48.64648438 42.89111328 C56.935942 60.34185081 57.59912725 78.23312218 54 97 C53.34 97 52.68 97 52 97 C49.74278964 91.43221444 48.98329109 87.53390019 49.5 81.5625 C50.02197911 74.59305388 49.85683349 67.94987168 49 61 C48.92652344 60.26652344 48.85304687 59.53304687 48.77734375 58.77734375 C48.36000756 54.96665066 48.36000756 54.96665066 46 52 C45.690625 51.195625 45.38125 50.39125 45.0625 49.5625 C44.2030365 47.00848372 44.2030365 47.00848372 42.5390625 45.58984375 C40.80324802 43.7967562 40.14922075 42.33750558 39.3125 40 C38.93544922 38.9790625 38.93544922 38.9790625 38.55078125 37.9375 C38 36 38 36 38 33 C37.01 32.67 36.02 32.34 35 32 C32 28.55555556 32 28.55555556 32 26 C31.34 26 30.68 26 30 26 C29.67 24.35 29.34 22.7 29 21 C27.68 21 26.36 21 25 21 C25 20.34 25 19.68 25 19 C22.03312999 17.35173889 19.34373475 16.55728913 16 16 C16 15.34 16 14.68 16 14 C15.34 14 14.68 14 14 14 C14 13.34 14 12.68 14 12 C13.01 11.67 12.02 11.34 11 11 C11 10.34 11 9.68 11 9 C10.38511719 8.93941406 9.77023438 8.87882812 9.13671875 8.81640625 C8.32847656 8.73261719 7.52023438 8.64882813 6.6875 8.5625 C5.88699219 8.48128906 5.08648437 8.40007813 4.26171875 8.31640625 C2 8 2 8 -1 7 C-1 6.34 -1 5.68 -1 5 C-1.99 5 -2.98 5 -4 5 C-4.495 4.01 -4.495 4.01 -5 3 C-9.00186193 2.97510565 -13.00369328 2.95704873 -17.00561523 2.94506836 C-18.36434719 2.94006887 -19.72307385 2.93326709 -21.08178711 2.92456055 C-23.04538585 2.91230158 -25.00902541 2.90726513 -26.97265625 2.90234375 C-28.74008179 2.89448853 -28.74008179 2.89448853 -30.54321289 2.88647461 C-35.73080516 3.0568419 -40.6078716 3.61370258 -45.4375 5.5625 C-46.613125 6.036875 -47.78875 6.51125 -49 7 C-49 7.66 -49 8.32 -49 9 C-50.175625 9.103125 -51.35125 9.20625 -52.5625 9.3125 C-56.87991197 9.86463794 -60.16046796 10.9266527 -64 13 C-65.13350534 15.01669827 -65.13350534 15.01669827 -66 17 C-68.5 18.125 -68.5 18.125 -71 19 C-73.16578818 20.7728088 -73.16578818 20.7728088 -73.3125 23 C-73.539375 23.66 -73.76625 24.32 -74 25 C-75.175625 25.433125 -75.175625 25.433125 -76.375 25.875 C-79.96419303 27.41322558 -80.55010571 29.48972962 -82 33 C-83.3921875 32.9690625 -83.3921875 32.9690625 -84.8125 32.9375 C-88.02286011 32.84230396 -88.02286011 32.84230396 -91 34 C-90.79375 35.27875 -90.5875 36.5575 -90.375 37.875 C-90.0234375 40.0546875 -90.0234375 40.0546875 -90 42 C-90.66 42.66 -91.32 43.32 -92 44 C-92.33 43.67 -92.66 43.34 -93 43 C-93.1546875 44.11375 -93.1546875 44.11375 -93.3125 45.25 C-94.04933797 48.1973519 -94.94799142 49.78383074 -97 52 C-97.66 52 -98.32 52 -99 52 C-98.79375 52.61875 -98.5875 53.2375 -98.375 53.875 C-98.25125 54.57625 -98.1275 55.2775 -98 56 C-98.66 56.66 -99.32 57.32 -100 58 C-100.71927295 60.31765729 -101.3909893 62.65095874 -102 65 C-102.66 65 -103.32 65 -104 65 C-102.46622852 45.06097073 -90.84109484 27.28548468 -76.015625 14.44140625 C-71.90074095 11.11005582 -67.68027389 8.45373583 -63 6 C-61.83597656 5.34257812 -61.83597656 5.34257812 -60.6484375 4.671875 C-42.75435521 -5.00375256 -19.30564198 -6.68687041 0 0 Z " fill="#7388D7" transform="translate(154,15)"/>
<path d="M0 0 C3.70576732 1.38442979 7.01698571 3.07224209 10.421875 5.08203125 C11.44796875 5.68466797 12.4740625 6.28730469 13.53125 6.90820312 C14.5934375 7.53662109 15.655625 8.16503906 16.75 8.8125 C19.86580248 10.64859789 22.98279134 12.4821832 26.10742188 14.30322266 C27.94807404 15.3829435 29.77884765 16.47982055 31.59570312 17.59912109 C32.37365234 18.06527832 33.15160156 18.53143555 33.953125 19.01171875 C34.61989258 19.42252686 35.28666016 19.83333496 35.97363281 20.2565918 C38.69254993 21.25407404 40.25395417 20.83016846 43 20 C44.92424181 19.12682877 44.92424181 19.12682877 46.71484375 17.99609375 C47.7346936 17.38507813 47.7346936 17.38507813 48.77514648 16.76171875 C49.48872314 16.32472656 50.2022998 15.88773438 50.9375 15.4375 C52.44737537 14.52904765 53.95780132 13.62150983 55.46875 12.71484375 C56.22414062 12.25964355 56.97953125 11.80444336 57.7578125 11.33544922 C62.23559822 8.66847536 66.79330559 6.14106415 71.33984375 3.59375 C74.03892167 2.12318787 74.03892167 2.12318787 76 0 C76.99 0.33 77.98 0.66 79 1 C78.44828125 1.6703125 77.8965625 2.340625 77.328125 3.03125 C74.66109169 6.43216496 72.21206919 9.94973954 69.75 13.5 C64.19223103 21.45618992 58.36040382 29.18374559 52.43261719 36.8671875 C49.1281687 41.15919121 45.94288996 45.45253433 43 50 C42.01133494 51.34175973 41.0161846 52.67896002 40 54 C36.73705243 52.91235081 36.37830082 52.51148783 34.5390625 49.81640625 C34.07435547 49.14536865 33.60964844 48.47433105 33.13085938 47.78295898 C32.63392578 47.05020752 32.13699219 46.31745605 31.625 45.5625 C30.54521722 44.00194891 29.46445565 42.44207471 28.3828125 40.8828125 C27.8249707 40.07489258 27.26712891 39.26697266 26.69238281 38.43457031 C24.00599443 34.57007739 21.25734309 30.75155441 18.5 26.9375 C17.96753662 26.19894775 17.43507324 25.46039551 16.88647461 24.69946289 C14.13395067 20.89546899 11.3483529 17.12066368 8.51171875 13.37890625 C7.95355469 12.6422876 7.39539063 11.90566895 6.8203125 11.14672852 C5.75334009 9.7439342 4.68190451 8.34452041 3.60546875 6.94897461 C0 2.21740922 0 2.21740922 0 0 Z " fill="#BAC6F4" transform="translate(93,101)"/>
<path d="M0 0 C3.75817347 1.25272449 4.07247306 2.35441738 5.99609375 5.734375 C6.55490234 6.70117188 7.11371094 7.66796875 7.68945312 8.6640625 C8.26630859 9.68242188 8.84316406 10.70078125 9.4375 11.75 C10.57838919 13.74687692 11.72281647 15.74173733 12.87109375 17.734375 C13.37568115 18.62350586 13.88026855 19.51263672 14.40014648 20.42871094 C16.08373838 23.13458457 17.98697666 25.53295238 20 28 C20.89577149 29.53902579 21.74883502 31.10353149 22.5625 32.6875 C25.40011032 38.01436949 28.47404787 43.16745949 31.625 48.3125 C32.09236572 49.07715576 32.55973145 49.84181152 33.04125977 50.62963867 C35.07640504 53.94095721 37.1308102 57.21694623 39.3359375 60.41796875 C41 63 41 63 41 65 C40.45859375 64.71382813 39.9171875 64.42765625 39.359375 64.1328125 C36.70680653 62.8592283 34.02068518 61.86453042 31.25 60.875 C29.77273437 60.34519531 29.77273437 60.34519531 28.265625 59.8046875 C27.14414063 59.40636719 27.14414063 59.40636719 26 59 C26 58.34 26 57.68 26 57 C25.01193359 56.85884766 25.01193359 56.85884766 24.00390625 56.71484375 C20.08561431 55.78240236 16.60147653 54.21145736 12.9375 52.5625 C12.23044922 52.24990234 11.52339844 51.93730469 10.79492188 51.61523438 C7.48539546 50.14536959 4.24152327 48.62076164 1 47 C0.67 31.49 0.34 15.98 0 0 Z " fill="#C4CFF8" transform="translate(131,28)"/>
<path d="M0 0 C3.70212749 1.2340425 7.17972935 2.4324878 10.7421875 3.9453125 C11.58007812 4.29980469 12.41796875 4.65429688 13.28125 5.01953125 C14.56515625 5.56673828 14.56515625 5.56673828 15.875 6.125 C16.75414062 6.49753906 17.63328125 6.87007813 18.5390625 7.25390625 C20.69358227 8.16723528 22.84719024 9.08264932 25 10 C25 10.66 25 11.32 25 12 C26.0209375 12.1546875 26.0209375 12.1546875 27.0625 12.3125 C32.15660705 13.50473782 36.42919717 15.12621996 40 19 C39.24976563 19.36351563 38.49953125 19.72703125 37.7265625 20.1015625 C30.93454856 23.43769026 24.43824439 27.03245444 18 31 C15.35829318 32.6110356 12.71098717 34.21264278 10.0625 35.8125 C9.41112061 36.20993408 8.75974121 36.60736816 8.08862305 37.0168457 C5.41178478 38.63457643 2.97799316 40.00733561 0 41 C0 27.47 0 13.94 0 0 Z " fill="#8096EC" transform="translate(132,75)"/>
<path d="M0 0 C0 13.53 0 27.06 0 41 C-13.655 34.1725 -13.655 34.1725 -19.5625 30.5 C-25.60834896 26.804836 -31.73810462 23.31971585 -38 20 C-38 19.34 -38 18.68 -38 18 C-38.66 17.67 -39.32 17.34 -40 17 C-39.12859375 16.72929688 -38.2571875 16.45859375 -37.359375 16.1796875 C-34.14028085 15.04926141 -31.27145602 13.70105679 -28.25 12.125 C-23.72546084 9.81804361 -19.1989236 7.82871342 -14.4609375 6.01171875 C-10.87427802 4.53720319 -7.46241768 2.75557385 -4.03125 0.953125 C-2 0 -2 0 0 0 Z " fill="#BFCBF5" transform="translate(132,75)"/>
<path d="M0 0 C0.33 0 0.66 0 1 0 C1.15855469 0.92039062 1.31710938 1.84078125 1.48046875 2.7890625 C5.56121281 24.92878992 14.9030728 43.83218676 33.44140625 57.34765625 C51.65642224 69.11094138 72.62269714 75.3939172 94.37890625 71.28125 C116.08874645 66.43309664 134.01974574 55.37160851 146.96484375 37.234375 C152.88762394 27.82158805 156.8596583 17.94631896 159 7 C161.14495955 10.41752883 161.06660337 12.41156365 160.25 16.3125 C160.05148438 17.27414063 159.85296875 18.23578125 159.6484375 19.2265625 C158.87629264 22.52910977 158.00746487 25.76172005 157 29 C156.34 29 155.68 29 155 29 C154.855625 29.94875 154.71125 30.8975 154.5625 31.875 C154 35 154 35 153 37 C152.01 37 151.02 37 150 37 C149.814375 37.928125 149.814375 37.928125 149.625 38.875 C149 41 149 41 147 43 C146.67 43.66 146.34 44.32 146 45 C145.34 45 144.68 45 144 45 C140.77485278 47.72121796 139.49222629 50.12021165 138 54 C136.625 55.5625 136.625 55.5625 135 57 C134.4225 57.66 133.845 58.32 133.25 59 C130.41855094 61.51684361 127.49081671 62.55552412 124 64 C123.030625 64.70125 122.06125 65.4025 121.0625 66.125 C117.19266223 68.49428843 114.48898509 68.69041482 110 69 C110 69.66 110 70.32 110 71 C108.48615887 71.82545462 106.96348161 72.63471087 105.4375 73.4375 C104.59058594 73.88996094 103.74367188 74.34242188 102.87109375 74.80859375 C96.03770936 77.64421584 88.53391174 77.21376163 81.25 77.25 C79.71859375 77.2809375 79.71859375 77.2809375 78.15625 77.3125 C71.84469772 77.34453834 66.448069 76.557308 60.41113281 74.72167969 C57.54755596 73.86457831 54.70982708 73.39684832 51.75 73 C47.03951346 72.27625337 43.25422543 71.12711271 39 69 C39 67.68 39 66.36 39 65 C37.576875 64.7834375 37.576875 64.7834375 36.125 64.5625 C33 64 33 64 31 63 C30.855625 62.34 30.71125 61.68 30.5625 61 C30.376875 60.34 30.19125 59.68 30 59 C28.515 58.505 28.515 58.505 27 58 C27 57.34 27 56.68 27 56 C26.34 56 25.68 56 25 56 C24.67 56.66 24.34 57.32 24 58 C23.505 55.525 23.505 55.525 23 53 C22.34 53 21.68 53 21 53 C21 52.34 21 51.68 21 51 C20.34 51 19.68 51 19 51 C19 50.34 19 49.68 19 49 C17.515 49.495 17.515 49.495 16 50 C15.40267181 47.23735711 15 44.83967231 15 42 C14.360625 41.731875 13.72125 41.46375 13.0625 41.1875 C11 40 11 40 10 37 C9.01 36.67 8.02 36.34 7 36 C7.04125 35.071875 7.0825 34.14375 7.125 33.1875 C7.27136339 29.84190281 7.27136339 29.84190281 5 27 C4.835 26.13375 4.67 25.2675 4.5 24.375 C4.335 23.59125 4.17 22.8075 4 22 C3.34 21.67 2.68 21.34 2 21 C2 20.34 2 19.68 2 19 C1.34 19 0.68 19 0 19 C-0.19600577 16.77156512 -0.38146569 14.54220107 -0.5625 12.3125 C-0.66691406 11.07113281 -0.77132812 9.82976562 -0.87890625 8.55078125 C-0.98493841 5.44164467 -0.77228525 2.99189028 0 0 Z " fill="#DFE4EE" transform="translate(49,99)"/>
<path d="M0 0 C0.66 0 1.32 0 2 0 C2 0.66 2 1.32 2 2 C2.66 2 3.32 2 4 2 C3.34 3.98 2.68 5.96 2 8 C1.01 8 0.02 8 -1 8 C-1.37125 8.8353125 -1.37125 8.8353125 -1.75 9.6875 C-3.22924818 12.42410913 -4.93467439 14.67650869 -7 17 C-7.66 17 -8.32 17 -9 17 C-9 17.94875 -9 18.8975 -9 19.875 C-9.64740053 24.85189156 -12.94709047 27.94799756 -16.1875 31.5703125 C-18.12362194 34.16571734 -18.74114656 35.7966887 -19 39 C-18.67 39.66 -18.34 40.32 -18 41 C-19.3921875 40.9071875 -19.3921875 40.9071875 -20.8125 40.8125 C-23.94482734 40.71722131 -23.94482734 40.71722131 -25.875 42.3125 C-27.2773501 44.07800472 -27.2773501 44.07800472 -27 47 C-27.99 47.495 -27.99 47.495 -29 48 C-31.80562478 51.15632788 -33.63001039 54.00419698 -35 58 C-38.3 57.67 -41.6 57.34 -45 57 C-45 53.79604584 -44.25664978 51.90600261 -43 49 C-43.969375 49.020625 -44.93875 49.04125 -45.9375 49.0625 C-49 49 -49 49 -50 48 C-50.04092937 45.66702567 -50.04241723 43.33294775 -50 41 C-52.49064888 40.31292445 -54.37886292 40 -57 40 C-57.495 39.505 -57.495 39.505 -58 39 C-58 37.02601418 -57.99714973 35.05190651 -57.96875 33.078125 C-58.00558125 30.62884658 -58.40670669 28.37317322 -59 26 C-59.99 26 -60.98 26 -62 26 C-62.33 25.34 -62.66 24.68 -63 24 C-63.99 24.33 -64.98 24.66 -66 25 C-66.33 23.68 -66.66 22.36 -67 21 C-67.99 23.475 -67.99 23.475 -69 26 C-72 25 -72 25 -74 22 C-74.125 18.9375 -74.125 18.9375 -74 16 C-74 15.34 -74 14.68 -74 14 C-73.67966043 11.99787771 -73.34740923 9.99760305 -73 8 C-74.32 8.33 -75.64 8.66 -77 9 C-76.67 7.02 -76.34 5.04 -76 3 C-72.83209844 4.35507085 -71.19384681 5.68782096 -69.22265625 8.5 C-68.71557129 9.21349609 -68.20848633 9.92699219 -67.68603516 10.66210938 C-66.88238525 11.81936523 -66.88238525 11.81936523 -66.0625 13 C-64.90521375 14.63560479 -63.74765365 16.27101585 -62.58984375 17.90625 C-61.99800293 18.74800781 -61.40616211 19.58976562 -60.79638672 20.45703125 C-57.94210029 24.49756502 -55.03131522 28.496818 -52.125 32.5 C-48.07429982 38.08563909 -44.09059504 43.69920644 -40.26953125 49.4453125 C-39.64111328 50.21488281 -39.64111328 50.21488281 -39 51 C-38.34 51 -37.68 51 -37 51 C-35.51824841 49.11583588 -34.15995368 47.22811923 -32.8125 45.25 C-28.48854706 39.04005895 -24.00312663 32.97172987 -19.4375 26.9375 C-14.3790988 20.23516589 -9.4509827 13.47819158 -4.734375 6.53125 C-1.40950226 1.67873303 -1.40950226 1.67873303 0 0 Z " fill="#4A62D5" transform="translate(170,103)"/>
<path d="M0 0 C3.6875901 1.37998519 6.99350891 3.05364413 10.38671875 5.046875 C11.40830078 5.645 12.42988281 6.243125 13.48242188 6.859375 C15.06893555 7.79523438 15.06893555 7.79523438 16.6875 8.75 C17.72583984 9.3584375 18.76417969 9.966875 19.83398438 10.59375 C21.90158822 11.80708994 23.95974731 13.03667774 26.0078125 14.28271484 C28.93869365 16.04305577 28.93869365 16.04305577 31.9765625 17.26806641 C34.88965065 18.59600074 36.83710777 19.62992758 39 22 C40.21513617 26.98118024 39.94801374 31.80185586 39.625 36.875 C39.57478889 38.24462949 39.52917008 39.61443551 39.48828125 40.984375 C39.37056838 44.3274205 39.20639699 47.6614493 39 51 C38.01 51 37.02 51 36 51 C34.58056641 49.54150391 34.58056641 49.54150391 33.1015625 47.4765625 C32.26854614 46.32909546 32.26854614 46.32909546 31.41870117 45.15844727 C30.82677979 44.32240967 30.2348584 43.48637207 29.625 42.625 C28.69941284 41.34290649 28.69941284 41.34290649 27.75512695 40.03491211 C25.82814243 37.36267952 23.91398894 34.6815501 22 32 C20.27810072 29.60860438 18.55266433 27.21980035 16.82641602 24.83154297 C15.74041447 23.32799785 14.65624295 21.82312909 13.57397461 20.31689453 C9.65078758 14.86325685 5.62234156 9.50105193 1.51171875 4.1875 C0 2 0 2 0 0 Z " fill="#F8FAFB" transform="translate(93,101)"/>
<path d="M0 0 C0.99 0.66 1.98 1.32 3 2 C1.72140117 5.9285446 0.56635982 7.75154767 -2.9375 9.9375 C-4.16146484 10.70320313 -4.16146484 10.70320313 -5.41015625 11.484375 C-8.77358738 13.4527178 -12.17950323 15.31999318 -15.625 17.140625 C-18.37827065 18.65747318 -21.06296274 20.23067553 -23.75 21.859375 C-24.59320801 22.36509033 -25.43641602 22.87080566 -26.30517578 23.3918457 C-27.99806437 24.41005562 -29.684189 25.43961011 -31.36279297 26.48120117 C-32.14799316 26.95017822 -32.93319336 27.41915527 -33.7421875 27.90234375 C-34.4419873 28.33023193 -35.14178711 28.75812012 -35.86279297 29.19897461 C-38.64609621 30.24215692 -40.18281115 29.85038721 -43 29 C-45.47808376 27.74668345 -47.85608318 26.45912339 -50.25 25.0625 C-51.28096802 24.46949097 -51.28096802 24.46949097 -52.33276367 23.86450195 C-53.79643261 23.02059217 -55.25821884 22.17340998 -56.71826172 21.32324219 C-59.04482301 19.97400591 -61.38262379 18.64602513 -63.72265625 17.3203125 C-65.25302902 16.4434494 -66.78298842 15.5658644 -68.3125 14.6875 C-69.0353418 14.27959229 -69.75818359 13.87168457 -70.50292969 13.45141602 C-74.09257588 11.36601474 -76.81361432 9.66073004 -79 6 C-78.67 5.67 -78.34 5.34 -78 5 C-78.66 5 -79.32 5 -80 5 C-80 3.68 -80 2.36 -80 1 C-74.0811654 2.61156388 -69.13030089 5.62061941 -63.875 8.6875 C-62.94228271 9.22262207 -62.00956543 9.75774414 -61.04858398 10.30908203 C-57.04433396 12.61263026 -53.06102737 14.93029256 -49.16796875 17.41796875 C-48.14316406 18.06378906 -47.11835937 18.70960937 -46.0625 19.375 C-45.20785156 19.93960938 -44.35320312 20.50421875 -43.47265625 21.0859375 C-39.95085392 22.38783599 -38.37873619 21.53656093 -35 20 C-32.67885749 18.71324955 -30.43549676 17.40182027 -28.1875 16 C-26.87413412 15.19720261 -25.56031291 14.39514976 -24.24609375 13.59375 C-23.56015137 13.17351562 -22.87420898 12.75328125 -22.16748047 12.3203125 C-18.38116517 10.01389291 -14.56711763 7.75495497 -10.75 5.5 C-10.02321045 5.066875 -9.2964209 4.63375 -8.54760742 4.1875 C-7.86674072 3.7853125 -7.18587402 3.383125 -6.484375 2.96875 C-5.88334961 2.61232422 -5.28232422 2.25589844 -4.66308594 1.88867188 C-3 1 -3 1 0 0 Z " fill="#556CC9" transform="translate(172,93)"/>
<path d="M0 0 C18.40142951 8.17841311 29.61308182 25.52678691 37.03515625 43.5078125 C42.43818936 58.65802595 41.99091687 74.4045049 39 90 C38.34 90 37.68 90 37 90 C34.74278964 84.43221444 33.98329109 80.53390019 34.5 74.5625 C35.02197911 67.59305388 34.85683349 60.94987168 34 54 C33.92652344 53.26652344 33.85304687 52.53304687 33.77734375 51.77734375 C33.36000756 47.96665066 33.36000756 47.96665066 31 45 C30.5359375 43.7934375 30.5359375 43.7934375 30.0625 42.5625 C29.2030365 40.00848372 29.2030365 40.00848372 27.5390625 38.58984375 C25.80324802 36.7967562 25.14922075 35.33750558 24.3125 33 C24.06113281 32.319375 23.80976563 31.63875 23.55078125 30.9375 C23 29 23 29 23 26 C22.01 25.67 21.02 25.34 20 25 C17 21.55555556 17 21.55555556 17 19 C16.34 19 15.68 19 15 19 C13.50178941 15.62902617 13 13.79557881 13 10 C12.030625 9.71125 11.06125 9.4225 10.0625 9.125 C7 8 7 8 6 6 C5.01 5.67 4.02 5.34 3 5 C3 4.34 3 3.68 3 3 C1.68 2.67 0.36 2.34 -1 2 C-0.67 1.34 -0.34 0.68 0 0 Z " fill="#6981D4" transform="translate(169,22)"/>
<path d="M0 0 C1.98 0.33 3.96 0.66 6 1 C6.495 3.97 6.495 3.97 7 7 C9.31 7.66 11.62 8.32 14 9 C14.33820166 10.5823006 14.67035939 12.16589375 15 13.75 C15.185625 14.63171875 15.37125 15.5134375 15.5625 16.421875 C16 19 16 19 16 23 C16.66 23 17.32 23 18 23 C18 23.66 18 24.32 18 25 C18.99 25 19.98 25 21 25 C21.66 24.34 22.32 23.68 23 23 C23.495 27.455 23.495 27.455 24 32 C24.99 32 25.98 32 27 32 C28.33981486 32.3062434 29.67511887 32.63451555 31 33 C30.34 33.99 29.68 34.98 29 36 C29 36.99 29 37.98 29 39 C28.34 39 27.68 39 27 39 C27 38.34 27 37.68 27 37 C25.515 37.495 25.515 37.495 24 38 C23.52433594 37.195625 23.52433594 37.195625 23.0390625 36.375 C19.31783509 30.1249827 15.48629052 23.94963489 11.60400391 17.79882812 C9.5905327 14.59698762 7.64614213 11.38722968 5.8203125 8.07421875 C4.34270986 4.94561725 4.34270986 4.94561725 2 4 C1.73300293 4.71591309 1.46600586 5.43182617 1.19091797 6.16943359 C-0.02247087 9.05340862 -1.44243664 11.60901324 -3.0546875 14.2890625 C-3.6636084 15.30371582 -4.2725293 16.31836914 -4.89990234 17.36376953 C-5.55168457 18.43997559 -6.2034668 19.51618164 -6.875 20.625 C-7.54611816 21.73858887 -8.21723633 22.85217773 -8.90869141 23.99951172 C-13.46181209 31.52905024 -18.10661361 38.99497834 -22.83447266 46.41577148 C-27.36123219 53.52891798 -31.70546473 60.74483815 -36 68 C-37.32 67.67 -38.64 67.34 -40 67 C-39.34 65.68 -38.68 64.36 -38 63 C-37.01 63 -36.02 63 -35 63 C-34.71125 62.0925 -34.4225 61.185 -34.125 60.25 C-33.22809358 57.65893701 -32.24937423 55.42066257 -31 53 C-30.71125 52.236875 -30.4225 51.47375 -30.125 50.6875 C-29.1913403 48.45709072 -28.18831915 46.61257904 -26.9375 44.5625 C-25.42270087 42.02118865 -24.95912852 40.72922645 -24.5 37.6875 C-24.335 36.800625 -24.17 35.91375 -24 35 C-22.0625 33.75 -22.0625 33.75 -20 33 C-19.34 32.34 -18.68 31.68 -18 31 C-17.01 31 -16.02 31 -15 31 C-15.33 30.401875 -15.66 29.80375 -16 29.1875 C-17 27 -17 27 -17 24 C-16.34 24 -15.68 24 -15 24 C-14.67 23.01 -14.34 22.02 -14 21 C-14 21.99 -14 22.98 -14 24 C-11.8125 23.15625 -11.8125 23.15625 -10.9375 20.875 C-9.86355738 17.92385886 -9.86355738 17.92385886 -9.625 14.375 C-9 11 -9 11 -7.125 9.0625 C-5 8 -5 8 -2 8 C-1.855625 7.05125 -1.71125 6.1025 -1.5625 5.125 C-1 2 -1 2 0 0 Z " fill="#7D8FD4" transform="translate(129,24)"/>
<path d="M0 0 C0.33 0 0.66 0 1 0 C0.99476318 0.89195068 0.98952637 1.78390137 0.98413086 2.70288086 C0.9669603 6.0520087 0.95448774 9.40108889 0.94506836 12.75024414 C0.94007852 14.192309 0.93328427 15.63436891 0.92456055 17.07641602 C0.78884947 28.58153071 0.78884947 28.58153071 2 40 C2.66 40.66 3.32 41.32 4 42 C4 42.99 4 43.98 4 45 C3.34 45 2.68 45 2 45 C2 46.65 2 48.3 2 50 C3.98 49.505 3.98 49.505 6 49 C6 49.66 6 50.32 6 51 C6.99 51 7.98 51 9 51 C10.16512384 54.49537151 11 57.3040893 11 61 C11.66 61 12.32 61 13 61 C13.66 62.65 14.32 64.3 15 66 C15.66 66 16.32 66 17 66 C17.99 69.465 17.99 69.465 19 73 C20.32 73 21.64 73 23 73 C23 73.66 23 74.32 23 75 C23.99 75 24.98 75 26 75 C27 78 27 78 26.0625 80.1875 C25.711875 80.785625 25.36125 81.38375 25 82 C25 81.01 25 80.02 25 79 C24.34 79 23.68 79 23 79 C22.505 78.01 22.505 78.01 22 77 C21.195625 76.71125 20.39125 76.4225 19.5625 76.125 C16.46824404 74.76654616 16.38857375 73.95071922 15 71 C14.154375 70.360625 13.30875 69.72125 12.4375 69.0625 C10 67 10 67 9.1875 64.25 C9.125625 63.5075 9.06375 62.765 9 62 C7.68 62 6.36 62 5 62 C1.54389782 56.01432517 -0.81184348 49.91831765 -2.75 43.3125 C-3.06553833 42.2443103 -3.06553833 42.2443103 -3.38745117 41.15454102 C-5.41027383 34.02543556 -6.16635452 27.13867427 -6.125 19.75 C-6.12886719 19.04359375 -6.13273437 18.3371875 -6.13671875 17.609375 C-6.13077317 14.47010696 -5.99991484 11.99974451 -5 9 C-4.34 8.67 -3.68 8.34 -3 8 C-2.29508733 5.67793475 -1.62787571 3.34406932 -1 1 C-0.67 0.67 -0.34 0.34 0 0 Z " fill="#5973D6" transform="translate(55,71)"/>
<path d="M0 0 C2.65373577 2.65373577 2.7248248 4.28513486 3 8 C0.26108463 18.39483597 -5.37438187 30.22110312 -13 38 C-16.3125 39.3125 -16.3125 39.3125 -19 40 C-19.33 40.99 -19.66 41.98 -20 43 C-21.375 44.6875 -21.375 44.6875 -23 46 C-23.99 46 -24.98 46 -26 46 C-26 46.66 -26 47.32 -26 48 C-29.465 48.495 -29.465 48.495 -33 49 C-33.495 51.475 -33.495 51.475 -34 54 C-35.65 53.67 -37.3 53.34 -39 53 C-38.01 52.505 -38.01 52.505 -37 52 C-36.7525 51.195625 -36.505 50.39125 -36.25 49.5625 C-35 47 -35 47 -32 45.9375 C-31.01 45.628125 -30.02 45.31875 -29 45 C-27.86649466 42.98330173 -27.86649466 42.98330173 -27 41 C-24.875 40.25 -24.875 40.25 -23 40 C-23 39.34 -23 38.68 -23 38 C-22.01 38 -21.02 38 -20 38 C-20 36.35 -20 34.7 -20 33 C-19.34 33.66 -18.68 34.32 -18 35 C-17.34 33.35 -16.68 31.7 -16 30 C-14.68 30 -13.36 30 -12 30 C-11.896875 29.175 -11.79375 28.35 -11.6875 27.5 C-10.89670335 23.47412612 -9.94555836 19.63624008 -8 16 C-6.948125 15.505 -6.948125 15.505 -5.875 15 C-5.25625 14.67 -4.6375 14.34 -4 14 C-3.70656713 12.04378089 -3.42525405 10.08223052 -3.28125 8.109375 C-2.8726116 5.04458697 -1.52585728 2.65366484 0 0 Z " fill="#4C64D0" transform="translate(204,106)"/>
<path d="M0 0 C3.73487777 0.4979837 5.81237635 0.87491756 9 3 C9 3.66 9 4.32 9 5 C10.32 4.67 11.64 4.34 13 4 C13.99 5.485 13.99 5.485 15 7 C17.32115711 7.40961596 19.65834501 7.73128549 22 8 C25.37790101 8.9007736 28.68424686 9.89474895 32 11 C34.39254576 11.22560676 36.78928123 11.40848595 39.1875 11.5625 C41.09595703 11.68818359 41.09595703 11.68818359 43.04296875 11.81640625 C44.50669922 11.90728516 44.50669922 11.90728516 46 12 C46 12.66 46 13.32 46 14 C48.64680904 13.88660796 51.29177518 13.75987127 53.9375 13.625 C54.69224609 13.5940625 55.44699219 13.563125 56.22460938 13.53125 C58.15507395 13.4273685 60.07942081 13.22104386 62 13 C62.33 12.34 62.66 11.68 63 11 C64.65 11.33 66.3 11.66 68 12 C66.54536973 15.74700573 66.54536973 15.74700573 64.21484375 16.828125 C58.53176824 17.88090743 52.95421609 18.19807545 47.1875 18.25 C46.45845459 18.2593457 45.72940918 18.26869141 44.97827148 18.27832031 C40.81795227 18.25343974 37.78089974 17.66333999 34 16 C31.43124559 15.65645838 28.89065164 15.50095147 26.3046875 15.34375 C24 15 24 15 21 13 C20.071875 12.87625 19.14375 12.7525 18.1875 12.625 C14.27544543 11.85793048 12.2266771 10.3409226 9 8 C6.58847023 6.45171077 4.17490111 4.9067852 1.7578125 3.3671875 C1.17773438 2.91601562 0.59765625 2.46484375 0 2 C0 1.34 0 0.68 0 0 Z " fill="#425BD1" transform="translate(82,152)"/>
<path d="M0 0 C-0.125 1.875 -0.125 1.875 -1 4 C-3.74177497 5.16671276 -6.00567607 6 -9 6 C-9 6.66 -9 7.32 -9 8 C-10.2375 8.45375 -11.475 8.9075 -12.75 9.375 C-13.4821875 9.65601563 -14.214375 9.93703125 -14.96875 10.2265625 C-16.38434314 10.76557681 -17.81299049 11.27099683 -19.25 11.75 C-21.63077912 13.45055651 -22.6436885 15.70305824 -23.9921875 18.24609375 C-25.33432949 20.58183698 -26.9372621 22.28105175 -29 24 C-29.66 24 -30.32 24 -31 24 C-31.2475 24.5775 -31.495 25.155 -31.75 25.75 C-33.18299988 28.32939979 -34.78424676 30.06121592 -37 32 C-37.66 32 -38.32 32 -39 32 C-38.79375 33.27875 -38.5875 34.5575 -38.375 35.875 C-38.0234375 38.0546875 -38.0234375 38.0546875 -38 40 C-38.66 40.66 -39.32 41.32 -40 42 C-40.33 41.67 -40.66 41.34 -41 41 C-41.1546875 42.11375 -41.1546875 42.11375 -41.3125 43.25 C-42.04933797 46.1973519 -42.94799142 47.78383074 -45 50 C-45.66 50 -46.32 50 -47 50 C-46.79375 50.61875 -46.5875 51.2375 -46.375 51.875 C-46.25125 52.57625 -46.1275 53.2775 -46 54 C-46.66 54.66 -47.32 55.32 -48 56 C-48.71927295 58.31765729 -49.3909893 60.65095874 -50 63 C-50.66 63 -51.32 63 -52 63 C-50.46595835 43.05745855 -38.83975058 25.30422949 -24.02734375 12.4453125 C-19.91592783 9.12434944 -15.64093561 6.50144016 -11 4 C-9.70797705 3.20891493 -8.41627249 2.41730944 -7.125 1.625 C-4 0 -4 0 0 0 Z " fill="#7484C6" transform="translate(102,17)"/>
<path d="M0 0 C2.14495955 3.41752883 2.06660337 5.41156365 1.25 9.3125 C0.95222656 10.75496094 0.95222656 10.75496094 0.6484375 12.2265625 C-0.12370736 15.52910977 -0.99253513 18.76172005 -2 22 C-2.66 22 -3.32 22 -4 22 C-4.144375 22.94875 -4.28875 23.8975 -4.4375 24.875 C-5 28 -5 28 -6 30 C-6.99 30 -7.98 30 -9 30 C-9.12375 30.61875 -9.2475 31.2375 -9.375 31.875 C-10 34 -10 34 -12 36 C-12.495 36.99 -12.495 36.99 -13 38 C-13.66 38 -14.32 38 -15 38 C-18.22514722 40.72121796 -19.50777371 43.12021165 -21 47 C-22.375 48.5625 -22.375 48.5625 -24 50 C-24.5775 50.66 -25.155 51.32 -25.75 52 C-28.58144906 54.51684361 -31.50918329 55.55552412 -35 57 C-35.969375 57.70125 -36.93875 58.4025 -37.9375 59.125 C-41.80733777 61.49428843 -44.51101491 61.69041482 -49 62 C-49 62.66 -49 63.32 -49 64 C-52.69541586 64.95024979 -55.30458414 64.95024979 -59 64 C-56.00118923 62.00079282 -53.37886693 60.96834144 -50 59.75 C-29.43406862 51.85577634 -14.47538682 37.75869915 -5.25610352 17.60009766 C-2.79080798 11.89526932 -1.19022506 6.08715102 0 0 Z " fill="#D6DFEF" transform="translate(208,106)"/>
<path d="M0 0 C3.33794502 1.39943502 4.95618291 2.90196825 7.0234375 5.8515625 C7.57 6.62113281 8.1165625 7.39070313 8.6796875 8.18359375 C9.23914063 8.98925781 9.79859375 9.79492188 10.375 10.625 C11.48626576 12.2010241 12.59824088 13.77654828 13.7109375 15.3515625 C14.25379395 16.12661133 14.79665039 16.90166016 15.35595703 17.70019531 C17.42230459 20.59074981 19.58916039 23.39676446 21.78613281 26.18896484 C23.66867789 28.99763728 24.31438464 31.70904626 25 35 C23.68 35.99 22.36 36.98 21 38 C19 37 19 37 18 36 C18 34.02601418 18.00285027 32.05190651 18.03125 30.078125 C17.99441875 27.62884658 17.59329331 25.37317322 17 23 C16.01 23 15.02 23 14 23 C13.67 22.34 13.34 21.68 13 21 C12.01 21.33 11.02 21.66 10 22 C9.67 20.68 9.34 19.36 9 18 C8.01 20.475 8.01 20.475 7 23 C4 22 4 22 2 19 C1.875 15.9375 1.875 15.9375 2 13 C2 12.34 2 11.68 2 11 C2.32033957 8.99787771 2.65259077 6.99760305 3 5 C1.68 5.33 0.36 5.66 -1 6 C-0.67 4.02 -0.34 2.04 0 0 Z " fill="#5766C2" transform="translate(94,106)"/>
<path d="M0 0 C0.99 1.32 1.98 2.64 3 4 C2.67 4.66 2.34 5.32 2 6 C2.66 6 3.32 6 4 6 C4.33 7.65 4.66 9.3 5 11 C5.99 11.33 6.98 11.66 8 12 C11.1836823 25.41694682 10.58083714 38.54277779 8 52 C7.34 52 6.68 52 6 52 C3.74278964 46.43221444 2.98329109 42.53390019 3.5 36.5625 C4.02197911 29.59305388 3.85683349 22.94987168 3 16 C2.88978516 14.89978516 2.88978516 14.89978516 2.77734375 13.77734375 C2.36000756 9.96665066 2.36000756 9.96665066 0 7 C-0.6875 3.9375 -0.6875 3.9375 -1 1 C-0.67 0.67 -0.34 0.34 0 0 Z " fill="#5D76D1" transform="translate(200,60)"/>
<path d="M0 0 C0.66 0 1.32 0 2 0 C2 0.66 2 1.32 2 2 C2.66 2 3.32 2 4 2 C3.34 3.98 2.68 5.96 2 8 C1.01 8 0.02 8 -1 8 C-1.2475 8.556875 -1.495 9.11375 -1.75 9.6875 C-3.22924818 12.42410913 -4.93467439 14.67650869 -7 17 C-7.66 17 -8.32 17 -9 17 C-9.020625 17.99 -9.04125 18.98 -9.0625 20 C-9.7798709 25.09437305 -13.08263649 28.83834835 -17 32 C-19.734375 32.7265625 -19.734375 32.7265625 -22 33 C-22.33 34.32 -22.66 35.64 -23 37 C-23.66 37 -24.32 37 -25 37 C-25.433125 37.86625 -25.433125 37.86625 -25.875 38.75 C-26.24625 39.4925 -26.6175 40.235 -27 41 C-27.309375 41.721875 -27.61875 42.44375 -27.9375 43.1875 C-29 45 -29 45 -32 46 C-30.67402625 42.2834979 -29.04723472 39.47879955 -26.62109375 36.375 C-25.95118408 35.50955566 -25.28127441 34.64411133 -24.59106445 33.75244141 C-23.88038818 32.84413574 -23.16971191 31.93583008 -22.4375 31 C-16.37005505 23.14944435 -10.54256203 15.22800691 -5 7 C-3.38534392 4.6059926 -1.75916917 2.29225074 0 0 Z " fill="#5269CD" transform="translate(170,103)"/>
<path d="M0 0 C0 3 0 3 -1.3984375 4.796875 C-14.69013179 17.93096027 -32.75014201 28.20505321 -51.875 28.25 C-53.58422313 28.18752187 -55.29334101 28.11252697 -57 28 C-57 27.67 -57 27.34 -57 27 C-55.85660156 26.80664062 -54.71320313 26.61328125 -53.53515625 26.4140625 C-52.04418963 26.15150234 -50.55330851 25.88845639 -49.0625 25.625 C-47.93038086 25.43550781 -47.93038086 25.43550781 -46.77539062 25.2421875 C-44.83716865 24.89452437 -42.91620795 24.45356496 -41 24 C-40.67 23.34 -40.34 22.68 -40 22 C-39.01 21.34 -38.02 20.68 -37 20 C-37 19.01 -37 18.02 -37 17 C-36.18015625 17.01160156 -35.3603125 17.02320313 -34.515625 17.03515625 C-33.43796875 17.04417969 -32.3603125 17.05320313 -31.25 17.0625 C-30.18265625 17.07410156 -29.1153125 17.08570313 -28.015625 17.09765625 C-25.09883173 17.10936547 -25.09883173 17.10936547 -22.734375 16.43359375 C-21 16 -21 16 -19 17 C-18.67 15.35 -18.34 13.7 -18 12 C-14.535 11.505 -14.535 11.505 -11 11 C-11 10.34 -11 9.68 -11 9 C-10.01 9 -9.02 9 -8 9 C-7.67 8.01 -7.34 7.02 -7 6 C-5.37109375 4.39453125 -5.37109375 4.39453125 -3.4375 2.8125 C-2.47650391 2.01779297 -2.47650391 2.01779297 -1.49609375 1.20703125 C-1.00238281 0.80871094 -0.50867188 0.41039062 0 0 Z " fill="#4657B5" transform="translate(189,143)"/>
<path d="M0 0 C0.70125 0.0721875 1.4025 0.144375 2.125 0.21875 C7.78307538 0.77225737 13.31588941 1.10724737 19 1 C19 1.33 19 1.66 19 2 C18.01 2.103125 17.02 2.20625 16 2.3125 C11.71702837 2.90808706 8.00003629 4.38595027 4 6 C4 6.66 4 7.32 4 8 C2.824375 8.103125 1.64875 8.20625 0.4375 8.3125 C-3.87991197 8.86463794 -7.16046796 9.9266527 -11 12 C-12.13350534 14.01669827 -12.13350534 14.01669827 -13 16 C-15.5 17.125 -15.5 17.125 -18 18 C-20.16578818 19.7728088 -20.16578818 19.7728088 -20.3125 22 C-20.539375 22.66 -20.76625 23.32 -21 24 C-21.78375 24.28875 -22.5675 24.5775 -23.375 24.875 C-26.96419303 26.41322558 -27.55010571 28.48972962 -29 32 C-30.9375 31.6875 -30.9375 31.6875 -33 31 C-33.33 30.01 -33.66 29.02 -34 28 C-33.01 27.67 -32.02 27.34 -31 27 C-30.67 26.34 -30.34 25.68 -30 25 C-29.34 25 -28.68 25 -28 25 C-27.67 24.01 -27.34 23.02 -27 22 C-25.33333333 20.33333333 -23.66666667 18.66666667 -22 17 C-21.67 16.29875 -21.34 15.5975 -21 14.875 C-19.52385259 12.1072236 -17.81893758 11.3155042 -15 10 C-11.1875 9.3125 -11.1875 9.3125 -8 9 C-8 8.34 -8 7.68 -8 7 C-5.36 6.01 -2.72 5.02 0 4 C0 2.68 0 1.36 0 0 Z " fill="#758AE4" transform="translate(101,16)"/>
<path d="M0 0 C0.33 0.99 0.66 1.98 1 3 C1.66 3 2.32 3 3 3 C2.85141249 9.68643791 -0.17427124 13.7790653 -3.83007812 19.21582031 C-6.18936989 22.81383872 -8.39394359 26.50915978 -10.625 30.1875 C-14.04693355 35.81496246 -17.49630017 41.4230099 -21 47 C-22.32 46.67 -23.64 46.34 -25 46 C-24.34 44.68 -23.68 43.36 -23 42 C-22.01 42 -21.02 42 -20 42 C-19.71125 41.0925 -19.4225 40.185 -19.125 39.25 C-18.22809358 36.65893701 -17.24937423 34.42066257 -16 32 C-15.71125 31.236875 -15.4225 30.47375 -15.125 29.6875 C-14.1913403 27.45709072 -13.18831915 25.61257904 -11.9375 23.5625 C-10.42270087 21.02118865 -9.95912852 19.72922645 -9.5 16.6875 C-9.335 15.800625 -9.17 14.91375 -9 14 C-7.0625 12.75 -7.0625 12.75 -5 12 C-4.34 11.34 -3.68 10.68 -3 10 C-2.01 10 -1.02 10 0 10 C-0.33 9.401875 -0.66 8.80375 -1 8.1875 C-2 6 -2 6 -2 3 C-1.34 3 -0.68 3 0 3 C0 2.01 0 1.02 0 0 Z " fill="#7389DD" transform="translate(114,45)"/>
<path d="M0 0 C4.97357688 1.7342733 9.31498953 4.43327957 13.8125 7.125 C14.60076172 7.59292969 15.38902344 8.06085938 16.20117188 8.54296875 C18.13602454 9.69215397 20.06887228 10.84457003 22 12 C20.625 13.5 20.625 13.5 19 15 C18.34 15 17.68 15 17 15 C17 17.31 17 19.62 17 22 C12.86450143 20.62150048 11.41863478 17.70893189 9.0625 14.25 C8.2005701 13.00427223 7.33730854 11.75946471 6.47265625 10.515625 C6.05902832 9.91685547 5.64540039 9.31808594 5.21923828 8.70117188 C4.10350131 7.14441272 2.89721305 5.6535957 1.68359375 4.171875 C0 2 0 2 0 0 Z " fill="#F6F8F9" transform="translate(93,101)"/>
<path d="M0 0 C0.99 0.66 1.98 1.32 3 2 C0.67939614 9.0933922 -4.93229175 11.38715698 -11.26171875 14.71484375 C-14.16115807 16.17314163 -17.07091288 17.60236452 -20 19 C-19.67 16.69 -19.34 14.38 -19 12 C-17.35 11.67 -15.7 11.34 -14 11 C-14.66 10.34 -15.32 9.68 -16 9 C-10.75608378 5.79768752 -5.55634291 2.63195191 0 0 Z " fill="#5B72CF" transform="translate(172,93)"/>
<path d="M0 0 C0.66 0 1.32 0 2 0 C2 0.66 2 1.32 2 2 C2.99 2 3.98 2 5 2 C6.16512384 5.49537151 7 8.3040893 7 12 C7.66 12 8.32 12 9 12 C9.66 13.65 10.32 15.3 11 17 C11.66 17 12.32 17 13 17 C13.66 19.31 14.32 21.62 15 24 C16.32 24 17.64 24 19 24 C19 24.66 19 25.32 19 26 C19.99 26 20.98 26 22 26 C23 29 23 29 22.0625 31.1875 C21.5365625 32.0846875 21.5365625 32.0846875 21 33 C21 32.01 21 31.02 21 30 C20.34 30 19.68 30 19 30 C18.67 29.34 18.34 28.68 18 28 C17.195625 27.71125 16.39125 27.4225 15.5625 27.125 C12.46824404 25.76654616 12.38857375 24.95071922 11 22 C10.154375 21.360625 9.30875 20.72125 8.4375 20.0625 C6 18 6 18 5.1875 15.25 C5.125625 14.5075 5.06375 13.765 5 13 C4.01 13 3.02 13 2 13 C-0.24828052 8.50343896 -0.16682272 4.92127034 0 0 Z " fill="#4D64D3" transform="translate(59,120)"/>
<path d="M0 0 C2.475 0.495 2.475 0.495 5 1 C5.33820166 2.5823006 5.67035939 4.16589375 6 5.75 C6.185625 6.63171875 6.37125 7.5134375 6.5625 8.421875 C7 11 7 11 7 15 C7.66 15 8.32 15 9 15 C9 15.66 9 16.32 9 17 C9.99 17 10.98 17 12 17 C12.66 16.34 13.32 15.68 14 15 C14.33 17.97 14.66 20.94 15 24 C15.99 24 16.98 24 18 24 C19.33981486 24.3062434 20.67511887 24.63451555 22 25 C21.34 25.99 20.68 26.98 20 28 C20 28.99 20 29.98 20 31 C19.34 31 18.68 31 18 31 C18 30.34 18 29.68 18 29 C17.01 29.33 16.02 29.66 15 30 C14.6596875 29.42894531 14.319375 28.85789062 13.96875 28.26953125 C13.4840625 27.45871094 12.999375 26.64789063 12.5 25.8125 C11.95988281 24.905 11.41976562 23.9975 10.86328125 23.0625 C9.55862198 20.91815437 8.21957203 18.7945302 6.85546875 16.6875 C6.49582031 16.12699951 6.13617188 15.56649902 5.765625 14.98901367 C4.73057504 13.37948286 3.68388895 11.77745301 2.63671875 10.17578125 C0.85042304 6.70977072 0.33522337 3.86235618 0 0 Z " fill="#758ADE" transform="translate(138,32)"/>
<path d="M0 0 C3.27967723 1.63374256 4.26674703 4.60595092 5.7265625 7.796875 C6.025625 8.41820312 6.3246875 9.03953125 6.6328125 9.6796875 C11.22192492 19.30464009 11.22192492 19.30464009 10.7265625 22.359375 C10.4171875 23.1946875 10.4171875 23.1946875 10.1015625 24.046875 C9.4415625 23.716875 8.7815625 23.386875 8.1015625 23.046875 C8.1015625 21.396875 8.1015625 19.746875 8.1015625 18.046875 C7.4415625 18.046875 6.7815625 18.046875 6.1015625 18.046875 C5.7715625 16.726875 5.4415625 15.406875 5.1015625 14.046875 C4.32425781 13.99660156 3.54695312 13.94632813 2.74609375 13.89453125 C0.1015625 13.046875 0.1015625 13.046875 -1.26171875 10.54296875 C-1.57496094 9.53363281 -1.88820312 8.52429688 -2.2109375 7.484375 C-2.53707031 6.47246094 -2.86320313 5.46054687 -3.19921875 4.41796875 C-3.42996094 3.63550781 -3.66070312 2.85304687 -3.8984375 2.046875 C-1.8984375 0.046875 -1.8984375 0.046875 0 0 Z " fill="#677BD1" transform="translate(195.8984375,47.953125)"/>
<path d="M0 0 C2.66216886 2.66216886 2.73061641 4.26837481 3 8 C2.14453125 11.39453125 2.14453125 11.39453125 0.8125 14.8125 C0.38582031 15.95332031 -0.04085937 17.09414062 -0.48046875 18.26953125 C-2 21 -2 21 -4.17578125 21.88671875 C-4.77777344 21.92410156 -5.37976563 21.96148437 -6 22 C-6.33 21.01 -6.66 20.02 -7 19 C-7.66 19.33 -8.32 19.66 -9 20 C-8.75 18.125 -8.75 18.125 -8 16 C-7.34 15.7525 -6.68 15.505 -6 15.25 C-5.01 14.63125 -5.01 14.63125 -4 14 C-3.70656713 12.04378089 -3.42525405 10.08223052 -3.28125 8.109375 C-2.8726116 5.04458697 -1.52585728 2.65366484 0 0 Z " fill="#5169D3" transform="translate(204,106)"/>
<path d="M0 0 C0.66 0.33 1.32 0.66 2 1 C1.67 2.98 1.34 4.96 1 7 C0.34 6.67 -0.32 6.34 -1 6 C-1.103125 6.7425 -1.20625 7.485 -1.3125 8.25 C-2.04933797 11.1973519 -2.94799142 12.78383074 -5 15 C-5.66 15 -6.32 15 -7 15 C-6.690625 15.928125 -6.690625 15.928125 -6.375 16.875 C-6.25125 17.57625 -6.1275 18.2775 -6 19 C-6.66 19.66 -7.32 20.32 -8 21 C-8.71927295 23.31765729 -9.3909893 25.65095874 -10 28 C-10.66 28 -11.32 28 -12 28 C-11.32971711 19.28632244 -9.05855071 10.2435268 -4 3 C-3.34 3 -2.68 3 -2 3 C-2 2.34 -2 1.68 -2 1 C-1.34 0.67 -0.68 0.34 0 0 Z " fill="#677AD4" transform="translate(62,52)"/>
<path d="M0 0 C0.33 0 0.66 0 1 0 C1.01981934 0.69037354 1.03963867 1.38074707 1.06005859 2.09204102 C1.15588293 5.24921471 1.26532814 8.40577822 1.375 11.5625 C1.4059375 12.64853516 1.436875 13.73457031 1.46875 14.85351562 C1.67810461 20.59332125 2.1091609 25.57259148 4 31 C4.38671875 32.29550781 4.38671875 32.29550781 4.78125 33.6171875 C5.0184375 34.36226562 5.255625 35.10734375 5.5 35.875 C5.7371875 36.63554688 5.974375 37.39609375 6.21875 38.1796875 C6.85169014 40.19482291 6.85169014 40.19482291 9 41 C9.40197001 43.32249342 9.72686657 45.65885633 10 48 C10.31966139 49.66934283 10.64731066 51.3373217 11 53 C7.14332558 48.80941437 5.55530106 44.69503032 3.875 39.375 C3.61638184 38.56885254 3.35776367 37.76270508 3.09130859 36.93212891 C-0.40584837 25.78731839 -3.83427054 11.50281161 0 0 Z " fill="#6775BC" transform="translate(50,80)"/>
<path d="M0 0 C2.82674877 3.43337406 5.3569759 6.93945158 7.75 10.6875 C8.36359375 11.64011719 8.9771875 12.59273437 9.609375 13.57421875 C11 16 11 16 11 18 C10.18789062 17.57074219 10.18789062 17.57074219 9.359375 17.1328125 C6.70680653 15.8592283 4.02068518 14.86453042 1.25 13.875 C0.26515625 13.52179688 -0.7196875 13.16859375 -1.734375 12.8046875 C-2.48203125 12.53914063 -3.2296875 12.27359375 -4 12 C-3.125 8.125 -3.125 8.125 -2 7 C-1.30643577 4.67451993 -0.63850788 2.34119555 0 0 Z " fill="#BECBFA" transform="translate(161,75)"/>
<path d="M0 0 C2.14495955 3.41752883 2.06660337 5.41156365 1.25 9.3125 C1.05148438 10.27414063 0.85296875 11.23578125 0.6484375 12.2265625 C-0.12370736 15.52910977 -0.99253513 18.76172005 -2 22 C-2.66 22 -3.32 22 -4 22 C-4.144375 22.94875 -4.28875 23.8975 -4.4375 24.875 C-5 28 -5 28 -6 30 C-6.99 30 -7.98 30 -9 30 C-9.33 31.32 -9.66 32.64 -10 34 C-10.66 34 -11.32 34 -12 34 C-10.36761169 28.64939387 -8.43993454 23.72517579 -6 18.6875 C-3.1140398 12.59970335 -1.35266784 6.5853566 0 0 Z " fill="#D7E0F7" transform="translate(208,106)"/>
<path d="M0 0 C0.99 0.33 1.98 0.66 3 1 C2.46375 1.64582031 1.9275 2.29164062 1.375 2.95703125 C-0.46533066 5.31495491 -2.18463286 7.67400951 -3.875 10.13671875 C-4.38546875 10.87857422 -4.8959375 11.62042969 -5.421875 12.38476562 C-6.47942956 13.92790527 -7.5314695 15.47483786 -8.578125 17.02539062 C-9.08859375 17.76337891 -9.5990625 18.50136719 -10.125 19.26171875 C-10.80949219 20.26658325 -10.80949219 20.26658325 -11.5078125 21.29174805 C-13.17319665 23.19827503 -14.68416026 24.02502402 -17 25 C-15.81069148 20.12383506 -13.79182916 17.28329805 -10.4375 13.7109375 C-8.92306222 11.90842732 -7.97047558 10.13691257 -7 8 C-8.98 8.33 -10.96 8.66 -13 9 C-9.20353033 5.77875301 -5.32733644 3.41332225 -1 1 C-0.67 0.67 -0.34 0.34 0 0 Z " fill="#AFC2FB" transform="translate(169,101)"/>
<path d="M0 0 C1.64742187 -0.00483398 1.64742187 -0.00483398 3.328125 -0.00976562 C10.41505015 0.03641694 17.07804722 0.79788934 24 2.3125 C23.34 2.9725 22.68 3.6325 22 4.3125 C19.41163058 4.09831092 16.93425022 3.77987863 14.375 3.375 C3.71068386 1.89996559 -6.71856911 1.72493688 -17 5.3125 C-20.375 5.4375 -20.375 5.4375 -23 5.3125 C-23.33 4.6525 -23.66 3.9925 -24 3.3125 C-15.87788577 0.62377907 -8.52558071 -0.12508188 0 0 Z " fill="#7988C0" transform="translate(128,11.6875)"/>
<path d="M0 0 C0.66 0 1.32 0 2 0 C2 0.66 2 1.32 2 2 C2.66 2 3.32 2 4 2 C4 1.34 4 0.68 4 0 C4.66 0 5.32 0 6 0 C6.14695313 1.26457031 6.14695313 1.26457031 6.296875 2.5546875 C6.44640625 3.65039062 6.5959375 4.74609375 6.75 5.875 C6.88921875 6.96554688 7.0284375 8.05609375 7.171875 9.1796875 C7.69708842 12.11741657 7.69708842 12.11741657 10.00390625 13.265625 C10.66261719 13.50796875 11.32132813 13.7503125 12 14 C13.62743728 16.56963781 14.28987444 19.07073205 15 22 C15.6469365 23.6744239 16.30959426 25.34302621 17 27 C17.66 27 18.32 27 19 27 C19 27.99 19 28.98 19 30 C18.34 30 17.68 30 17 30 C15.75073242 28.3828125 15.75073242 28.3828125 14.35546875 26.125 C13.84306641 25.30386719 13.33066406 24.48273438 12.80273438 23.63671875 C12.26970703 22.76660156 11.73667969 21.89648438 11.1875 21 C10.66607422 20.16082031 10.14464844 19.32164063 9.60742188 18.45703125 C8.56869058 16.78416811 7.53462677 15.10839729 6.50537109 13.4296875 C5.52074499 11.84048883 4.51902498 10.26172289 3.49853516 8.6953125 C2.81283447 7.63957031 2.81283447 7.63957031 2.11328125 6.5625 C1.70505127 5.94503906 1.29682129 5.32757813 0.8762207 4.69140625 C0 3 0 3 0 0 Z " fill="#687ED2" transform="translate(154,61)"/>
<path d="M0 0 C0 3 0 3 -1.3984375 4.796875 C-9.65374428 12.95429276 -18.27293688 18.57457662 -29 23 C-29 22.01 -29 21.02 -29 20 C-27.68 20 -26.36 20 -25 20 C-24.67 18.68 -24.34 17.36 -24 16 C-22.35 16.33 -20.7 16.66 -19 17 C-18.67 15.35 -18.34 13.7 -18 12 C-14.535 11.505 -14.535 11.505 -11 11 C-11 10.34 -11 9.68 -11 9 C-10.01 9 -9.02 9 -8 9 C-7.67 8.01 -7.34 7.02 -7 6 C-5.37109375 4.39453125 -5.37109375 4.39453125 -3.4375 2.8125 C-2.47650391 2.01779297 -2.47650391 2.01779297 -1.49609375 1.20703125 C-1.00238281 0.80871094 -0.50867188 0.41039062 0 0 Z " fill="#4D5DB6" transform="translate(189,143)"/>
<path d="M0 0 C1.32 0.66 2.64 1.32 4 2 C2.99796679 5.00609963 2.39971554 6.06176821 0 8 C-0.99 8 -1.98 8 -3 8 C-3 8.66 -3 9.32 -3 10 C-5.31 10.33 -7.62 10.66 -10 11 C-10.33 12.65 -10.66 14.3 -11 16 C-12.65 15.67 -14.3 15.34 -16 15 C-15.34 14.67 -14.68 14.34 -14 14 C-13.7525 13.195625 -13.505 12.39125 -13.25 11.5625 C-12 9 -12 9 -9 7.9375 C-8.01 7.628125 -7.02 7.31875 -6 7 C-4.86649466 4.98330173 -4.86649466 4.98330173 -4 3 C-1.875 2.25 -1.875 2.25 0 2 C0 1.34 0 0.68 0 0 Z " fill="#4A60D8" transform="translate(181,144)"/>
<path d="M0 0 C3.81275005 3.60958397 6.8622288 7.35290853 9.8125 11.6875 C10.21919922 12.26822266 10.62589844 12.84894531 11.04492188 13.44726562 C14 17.74330357 14 17.74330357 14 20 C13.34 20 12.68 20 12 20 C11.67 19.01 11.34 18.02 11 17 C9.865625 16.855625 8.73125 16.71125 7.5625 16.5625 C4 16 4 16 3 15 C2.95907063 12.66702567 2.95758277 10.33294775 3 8 C2.01 7.67 1.02 7.34 0 7 C0.2784375 6.1028125 0.2784375 6.1028125 0.5625 5.1875 C1.22093687 2.83591238 1.22093687 2.83591238 0 0 Z " fill="#4C62CC" transform="translate(117,136)"/>
<path d="M0 0 C0.55945313 0.18175781 1.11890625 0.36351562 1.6953125 0.55078125 C18.31557819 5.76131471 33.73537535 7.43828412 51 5 C50.67 5.99 50.34 6.98 50 8 C45.58339099 8.0589002 41.16688531 8.09389517 36.75 8.125 C35.51507813 8.14175781 34.28015625 8.15851563 33.0078125 8.17578125 C23.21921351 8.22730019 13.3403081 7.88543004 4.25 3.875 C3.43015625 3.52179688 2.6103125 3.16859375 1.765625 2.8046875 C0.89164062 2.40636719 0.89164062 2.40636719 0 2 C0 1.34 0 0.68 0 0 Z " fill="#CFD7F1" transform="translate(96,165)"/>
<path d="M0 0 C6.75 2.25 6.75 2.25 10 4 C9.67 4.66 9.34 5.32 9 6 C6.03 5.505 6.03 5.505 3 5 C2.19423531 12.2034375 1.73236406 19.38391198 1.4375 26.625 C1.39431641 27.62917969 1.35113281 28.63335937 1.30664062 29.66796875 C1.20190141 32.11188383 1.09972744 34.55587617 1 37 C0.67 37 0.34 37 0 37 C0 24.79 0 12.58 0 0 Z " fill="#8D9EE5" transform="translate(132,75)"/>
<path d="M0 0 C2.89932357 2.39509338 3.50168276 4.31245243 4 8 C3.01 8.33 2.02 8.66 1 9 C0.26676204 11.01508358 0.26676204 11.01508358 0 13 C-3 12 -3 12 -5 9 C-5.125 5.8125 -5.125 5.8125 -5 3 C-3.35 2.67 -1.7 2.34 0 2 C0 1.34 0 0.68 0 0 Z " fill="#5570DD" transform="translate(101,116)"/>
<path d="M0 0 C3.90320467 1.48052591 5.09475758 3.34828535 7 7 C7.35449219 7.64839844 7.70898438 8.29679687 8.07421875 8.96484375 C10.07536859 12.73543135 11 14.58416667 11 19 C10.34 19 9.68 19 9 19 C7.49212623 16.40011448 5.99354539 13.79559803 4.5 11.1875 C4.07074219 10.44951172 3.64148438 9.71152344 3.19921875 8.95117188 C2.79316406 8.23896484 2.38710937 7.52675781 1.96875 6.79296875 C1.40317383 5.81106567 1.40317383 5.81106567 0.82617188 4.80932617 C0 3 0 3 0 0 Z " fill="#E9F2FC" transform="translate(194,41)"/>
<path d="M0 0 C8.79660349 3.90960155 15.18448414 10.39516469 22 17 C20.02 17.99 20.02 17.99 18 19 C17.67 18.01 17.34 17.02 17 16 C14.99983534 14.79117904 14.99983534 14.79117904 13 14 C13 12.68 13 11.36 13 10 C12.030625 9.71125 11.06125 9.4225 10.0625 9.125 C7 8 7 8 6 6 C5.01 5.67 4.02 5.34 3 5 C3 4.34 3 3.68 3 3 C1.68 2.67 0.36 2.34 -1 2 C-0.67 1.34 -0.34 0.68 0 0 Z " fill="#7989C5" transform="translate(169,22)"/>
<path d="M0 0 C0.99 0.33 1.98 0.66 3 1 C1.43902526 2.1063219 -0.12385327 3.20995785 -1.6875 4.3125 C-2.55761719 4.92738281 -3.42773438 5.54226562 -4.32421875 6.17578125 C-10.16670848 10.15890928 -12.98429693 11.35673066 -20 11 C-19.01 10.67 -18.02 10.34 -17 10 C-17 9.34 -17 8.68 -17 8 C-16.113125 7.71125 -15.22625 7.4225 -14.3125 7.125 C-10.05177957 5.67796287 -6.58496327 4.40947429 -2.875 1.8125 C-1.451875 0.9153125 -1.451875 0.9153125 0 0 Z " fill="#EEF0EE" transform="translate(176,160)"/>
<path d="M0 0 C4.20969919 1.50346399 5.91860139 4.14555814 8 8 C7.9375 10.3125 7.9375 10.3125 7 12 C6.01 12.33 5.02 12.66 4 13 C3.34 12.34 2.68 11.68 2 11 C2.375 7.875 2.375 7.875 3 5 C1.68 5.33 0.36 5.66 -1 6 C-0.67 4.02 -0.34 2.04 0 0 Z " fill="#5A6EC7" transform="translate(94,106)"/>
<path d="M0 0 C1.8125 1.4375 1.8125 1.4375 3 3 C3 3.66 3 4.32 3 5 C4.65 5.33 6.3 5.66 8 6 C4.34142468 7.31534494 1.91973519 6.65468309 -1.75 5.5625 C-2.73484375 5.27503906 -3.7196875 4.98757812 -4.734375 4.69140625 C-5.85585937 4.34916016 -5.85585937 4.34916016 -7 4 C-7.33 2.68 -7.66 1.36 -8 0 C-4.65044556 -1.11651815 -3.32740404 -0.99822121 0 0 Z " fill="#E9EBE9" transform="translate(96,165)"/>
<path d="M0 0 C0.66 0 1.32 0 2 0 C2 0.66 2 1.32 2 2 C2.66 2 3.32 2 4 2 C3.34 3.98 2.68 5.96 2 8 C1.01 8 0.02 8 -1 8 C-1.33 8.99 -1.66 9.98 -2 11 C-3.32 10.01 -4.64 9.02 -6 8 C-5.04956626 6.66102417 -4.08940853 5.32894573 -3.125 4 C-2.59132812 3.2575 -2.05765625 2.515 -1.5078125 1.75 C-1.01023438 1.1725 -0.51265625 0.595 0 0 Z " fill="#5872D8" transform="translate(170,103)"/>
<path d="M0 0 C0.99 0.33 1.98 0.66 3 1 C1.89789095 2.75129657 0.79322568 4.50098464 -0.3125 6.25 C-0.92738281 7.22453125 -1.54226562 8.1990625 -2.17578125 9.203125 C-5.31920904 14.02259887 -5.31920904 14.02259887 -7 16 C-7.66 16 -8.32 16 -9 16 C-9 14.68 -9 13.36 -9 12 C-8.34 12 -7.68 12 -7 12 C-6.773125 10.948125 -6.54625 9.89625 -6.3125 8.8125 C-5.20639469 4.8402094 -3.11370115 2.70400363 0 0 Z " fill="#EBF1FC" transform="translate(67,36)"/>
<path d="M0 0 C3.63 0 7.26 0 11 0 C11.33 0.99 11.66 1.98 12 3 C10.68 3 9.36 3 8 3 C8 3.99 8 4.98 8 6 C5.69 5.67 3.38 5.34 1 5 C0.67 3.35 0.34 1.7 0 0 Z " fill="#435ED3" transform="translate(152,160)"/>
<path d="M0 0 C3.71336877 0.28564375 6.34748761 0.57586695 9.5 2.625 C11 5 11 5 10.75 8.75 C10.5025 9.8225 10.255 10.895 10 12 C9.34 11.67 8.68 11.34 8 11 C8 9.68 8 8.36 8 7 C7.34 7 6.68 7 6 7 C6 6.34 6 5.68 6 5 C5.34 5 4.68 5 4 5 C4 4.34 4 3.68 4 3 C3.01 3.33 2.02 3.66 1 4 C0.67 2.68 0.34 1.36 0 0 Z " fill="#DBE2F5" transform="translate(64,145)"/>
<path d="M0 0 C-0.99 1.485 -0.99 1.485 -2 3 C-1.19838209 5.67145537 -1.19838209 5.67145537 0 8 C-0.66 8 -1.32 8 -2 8 C-2.33 8.99 -2.66 9.98 -3 11 C-3.66 11 -4.32 11 -5 11 C-5.33 11.66 -5.66 12.32 -6 13 C-7 12 -7 12 -7.1328125 9.78515625 C-7.13023438 8.88667969 -7.12765625 7.98820312 -7.125 7.0625 C-7.12757812 6.16660156 -7.13015625 5.27070312 -7.1328125 4.34765625 C-7 2 -7 2 -6 0 C-2.49056604 -1.24528302 -2.49056604 -1.24528302 0 0 Z " fill="#5E79DB" transform="translate(96,98)"/>
<path d="M0 0 C0.66 0.33 1.32 0.66 2 1 C0.51481201 5.04301175 -1.42877998 8.61146256 -3.625 12.3125 C-4.25664063 13.38113281 -4.88828125 14.44976562 -5.5390625 15.55078125 C-6.02117187 16.35902344 -6.50328125 17.16726562 -7 18 C-8.32 17.67 -9.64 17.34 -11 17 C-10.34 15.68 -9.68 14.36 -9 13 C-8.01 13 -7.02 13 -6 13 C-5.71125 12.0925 -5.4225 11.185 -5.125 10.25 C-4.23193 7.67001999 -3.28282801 5.39461229 -2 3 C-1.67 2.34 -1.34 1.68 -1 1 C-0.67 0.67 -0.34 0.34 0 0 Z " fill="#6A80C9" transform="translate(100,74)"/>
<path d="M0 0 C3.25129538 2.67350494 4.64279401 6.15744514 6.25 9.9375 C6.53101563 10.55818359 6.81203125 11.17886719 7.1015625 11.81835938 C8.26797597 14.52940456 9.07032795 16.47672655 8.671875 19.44140625 C8.45015625 19.95574219 8.2284375 20.47007813 8 21 C7.34 20.67 6.68 20.34 6 20 C6 18.35 6 16.7 6 15 C5.34 15 4.68 15 4 15 C3.90203125 14.37351562 3.8040625 13.74703125 3.703125 13.1015625 C3.55359375 12.28429688 3.4040625 11.46703125 3.25 10.625 C3.11078125 9.81289063 2.9715625 9.00078125 2.828125 8.1640625 C2.18250739 5.82290908 2.18250739 5.82290908 -0.078125 4.7109375 C-0.71234375 4.47632813 -1.3465625 4.24171875 -2 4 C-1.34 2.68 -0.68 1.36 0 0 Z " fill="#6F7FC6" transform="translate(198,51)"/>
<path d="M0 0 C2.93200474 2.85276137 5.64315404 5.65079784 8 9 C6.93453047 11.13093906 5.70840281 12.36587557 4 14 C2 13 2 13 1 12 C1 10.00387907 1.00258336 8.00763383 1.03125 6.01171875 C0.99808428 3.87667548 0.67547226 2.02641679 0 0 Z " fill="#4F65D6" transform="translate(111,130)"/>
<path d="M0 0 C0.66 0.33 1.32 0.66 2 1 C1.67 9.91 1.34 18.82 1 28 C0.67 28 0.34 28 0 28 C-0.90366812 22.57799126 -1.11010445 17.24149172 -1.125 11.75 C-1.12951172 11.05261719 -1.13402344 10.35523437 -1.13867188 9.63671875 C-1.12897875 6.28289763 -1.04104926 3.20577074 0 0 Z " fill="#E9F1FC" transform="translate(48,76)"/>
<path d="M0 0 C1.04391334 3.13174001 1.0069626 4.82496113 0.6875 8.0625 C0.60886719 8.94035156 0.53023437 9.81820312 0.44921875 10.72265625 C0 13 0 13 -2 15 C-2.71927295 17.31765729 -3.3909893 19.65095874 -4 22 C-4.66 22 -5.32 22 -6 22 C-5.41368137 14.3778578 -3.43205654 6.86411309 0 0 Z " fill="#7281C5" transform="translate(56,58)"/>
<path d="M0 0 C0.66 0 1.32 0 2 0 C2 0.99 2 1.98 2 3 C1.34 3 0.68 3 0 3 C-0.2165625 4.423125 -0.2165625 4.423125 -0.4375 5.875 C-1 9 -1 9 -2 11 C-2.99 11 -3.98 11 -5 11 C-5.33 12.32 -5.66 13.64 -6 15 C-6.66 15 -7.32 15 -8 15 C-6.33070657 8.89282892 -4.5138263 4.5138263 0 0 Z " fill="#DBE4F8" transform="translate(204,125)"/>
<path d="M0 0 C2 1 2 1 2.78125 3.03125 C3.26041667 4.67708333 3.73958333 6.32291667 4.21875 7.96875 C4.80935836 10.18562475 4.80935836 10.18562475 7 11 C7.40197001 13.32249342 7.72686657 15.65885633 8 18 C8.31966139 19.66934283 8.64731066 21.3373217 9 23 C5.63776737 19.21389617 3.9036949 15.70973681 2.25 10.9375 C1.82203125 9.72964844 1.3940625 8.52179688 0.953125 7.27734375 C0 4 0 4 0 0 Z " fill="#5B69BB" transform="translate(52,110)"/>
<path d="M0 0 C0.99 0.66 1.98 1.32 3 2 C3 2.66 3 3.32 3 4 C3.99 4.33 4.98 4.66 6 5 C3.80040399 7.19959601 1.75361928 8.557628 -1 10 C-2.32 10 -3.64 10 -5 10 C-3.66511872 6.40608886 -2.03977277 3.24509304 0 0 Z " fill="#EBF5FD" transform="translate(98,82)"/>
<path d="M0 0 C8 9.71428571 8 9.71428571 8 13 C7.46375 12.71125 6.9275 12.4225 6.375 12.125 C3.64719516 10.83288192 0.87387282 9.91441408 -2 9 C-1.01 7.68 -0.02 6.36 1 5 C0.34 4.67 -0.32 4.34 -1 4 C-0.67 2.68 -0.34 1.36 0 0 Z " fill="#B0C3FC" transform="translate(164,80)"/>
<path d="M0 0 C0.33 1.32 0.66 2.64 1 4 C0.34 4 -0.32 4 -1 4 C-0.4740625 5.423125 -0.4740625 5.423125 0.0625 6.875 C1 10 1 10 0 12 C-1.65 11.67 -3.3 11.34 -5 11 C-5.66 12.32 -6.32 13.64 -7 15 C-7.33 14.34 -7.66 13.68 -8 13 C-6.75506252 10.71025684 -5.47358472 8.55809966 -4.0625 6.375 C-3.67642578 5.76398437 -3.29035156 5.15296875 -2.89257812 4.5234375 C-1.93553674 3.0110758 -0.96867189 1.50493883 0 0 Z " fill="#ECF5FC" transform="translate(127,35)"/>
<path d="M0 0 C0.66 0 1.32 0 2 0 C2.33 2.31 2.66 4.62 3 7 C2.01 7.495 2.01 7.495 1 8 C1 7.34 1 6.68 1 6 C-1.90802461 8.21928194 -3.95312762 9.92969143 -6 13 C-6.66 12.67 -7.32 12.34 -8 12 C-6.71656721 9.99426318 -5.4239631 7.99563881 -4.125 6 C-3.76019531 5.42765625 -3.39539063 4.8553125 -3.01953125 4.265625 C-2.06525233 2.80818084 -1.03722413 1.39962775 0 0 Z " fill="#EBF4FA" transform="translate(107,68)"/>
<path d="M0 0 C0.66 0.33 1.32 0.66 2 1 C0.9218837 2.58689029 -0.16273952 4.16936082 -1.25 5.75 C-1.85328125 6.63171875 -2.4565625 7.5134375 -3.078125 8.421875 C-4.89141332 10.85433494 -6.80049269 12.91728069 -9 15 C-8.814375 14.38125 -8.62875 13.7625 -8.4375 13.125 C-7.76313824 10.95839822 -7.76313824 10.95839822 -9 9 C-7.68 8.67 -6.36 8.34 -5 8 C-5.103125 7.236875 -5.20625 6.47375 -5.3125 5.6875 C-5.209375 4.800625 -5.10625 3.91375 -5 3 C-2.625 1.125 -2.625 1.125 0 0 Z " fill="#B2C0FB" transform="translate(144,136)"/>
<path d="M0 0 C2.15625 0.91796875 2.15625 0.91796875 4 2 C2.06730041 3.17460192 0.12866687 4.33944472 -1.8125 5.5 C-2.89144531 6.1496875 -3.97039062 6.799375 -5.08203125 7.46875 C-8 9 -8 9 -11 9 C-10.25 6.5625 -10.25 6.5625 -9 4 C-7.1875 3.375 -7.1875 3.375 -5 3 C-3.7625 2.1646875 -3.7625 2.1646875 -2.5 1.3125 C-1.675 0.879375 -0.85 0.44625 0 0 Z " fill="#5C70CB" transform="translate(142,114)"/>
<path d="M0 0 C2.29013653 3.4352048 2.17842973 4.985331 2 9 C-1.3 7.35 -4.6 5.7 -8 4 C-7.01 3.67 -6.02 3.34 -5 3 C-5 2.34 -5 1.68 -5 1 C-3.35 0.67 -1.7 0.34 0 0 Z " fill="#B8C9FC" transform="translate(130,107)"/>
<path d="M0 0 C0.66 1.32 1.32 2.64 2 4 C-0.31 4.33 -2.62 4.66 -5 5 C-5.33 6.65 -5.66 8.3 -6 10 C-7.65 9.67 -9.3 9.34 -11 9 C-10.34 8.67 -9.68 8.34 -9 8 C-8.773125 7.21625 -8.54625 6.4325 -8.3125 5.625 C-6.38022594 1.76045188 -4.00219421 1.40817944 0 0 Z " fill="#465CCF" transform="translate(176,150)"/>
<path d="M0 0 C3.48331435 3.01887244 4.79157144 5.56909529 6 10 C5.34 10.66 4.68 11.32 4 12 C1.375 11.625 1.375 11.625 -1 11 C-0.814375 10.030625 -0.62875 9.06125 -0.4375 8.0625 C-0.293125 7.051875 -0.14875 6.04125 0 5 C-0.33 4.67 -0.66 4.34 -1 4 C-0.5625 1.9375 -0.5625 1.9375 0 0 Z " fill="#BCC8F5" transform="translate(147,52)"/>
<path d="M0 0 C4.30764815 1.56641751 8.06171464 3.68336156 12 6 C12 6.33 12 6.66 12 7 C10.35 7 8.7 7 7 7 C7 7.66 7 8.32 7 9 C7.66 9.33 8.32 9.66 9 10 C8.01 10 7.02 10 6 10 C4.39453125 8.3203125 4.39453125 8.3203125 2.8125 6.125 C2.01779297 5.04605469 2.01779297 5.04605469 1.20703125 3.9453125 C0 2 0 2 0 0 Z " fill="#D6E5FC" transform="translate(93,101)"/>
<path d="M0 0 C0.66 0 1.32 0 2 0 C2 0.66 2 1.32 2 2 C2.66 2 3.32 2 4 2 C4 1.34 4 0.68 4 0 C4.66 0 5.32 0 6 0 C6.33 4.29 6.66 8.58 7 13 C0 3.66666667 0 3.66666667 0 0 Z " fill="#6B85DA" transform="translate(154,61)"/>
<path d="M0 0 C0.55945313 0.18175781 1.11890625 0.36351562 1.6953125 0.55078125 C9.03489231 2.85177492 16.46615047 4.46934757 24 6 C24 6.33 24 6.66 24 7 C15.15822509 7.31577768 8.17905449 5.21319998 0 2 C0 1.34 0 0.68 0 0 Z " fill="#CBD3F8" transform="translate(96,165)"/>
<path d="M0 0 C6 4 6 4 12 8 C11.67 8.66 11.34 9.32 11 10 C8.0625 9.625 8.0625 9.625 5 9 C4.67 8.34 4.34 7.68 4 7 C3.01 6.67 2.02 6.34 1 6 C0.67 4.02 0.34 2.04 0 0 Z " fill="#D3DAF4" transform="translate(75,151)"/>
<path d="M0 0 C0.66 0 1.32 0 2 0 C2.680625 1.670625 2.680625 1.670625 3.375 3.375 C4.72465986 6.96199008 4.72465986 6.96199008 7 9 C7 9.99 7 10.98 7 12 C6.34 12 5.68 12 5 12 C4.67 13.32 4.34 14.64 4 16 C2.07528683 10.66164461 0.60108576 5.65020618 0 0 Z " fill="#5169CA" transform="translate(52,104)"/>
<path d="M0 0 C0.66 0.66 1.32 1.32 2 2 C0.75457942 3.75326198 -0.49654053 5.50247622 -1.75 7.25 C-2.79414063 8.71179688 -2.79414063 8.71179688 -3.859375 10.203125 C-5.76452299 12.69233296 -7.72684621 14.84971939 -10 17 C-10 15.35 -10 13.7 -10 12 C-9.38125 11.773125 -8.7625 11.54625 -8.125 11.3125 C-5.33908767 9.59178944 -5.12780902 8.03098673 -4 5 C-2.71332828 3.29705213 -1.38903267 1.62053812 0 0 Z " fill="#EDF0F5" transform="translate(193,142)"/>
<path d="M0 0 C0.99 0 1.98 0 3 0 C1.8545847 5.1103144 0.54521255 9.37234081 -2 14 C-2.33 14 -2.66 14 -3 14 C-2.48594831 9.03083364 -1.76615118 4.70973649 0 0 Z " fill="#5969B5" transform="translate(204,112)"/>
<path d="M0 0 C0.66 0 1.32 0 2 0 C2.33 0.66 2.66 1.32 3 2 C3.99 2.33 4.98 2.66 6 3 C5.67 7.29 5.34 11.58 5 16 C4.67 16 4.34 16 4 16 C3.5186659 14.27143541 3.04003029 12.54211929 2.5625 10.8125 C2.29566406 9.84957031 2.02882812 8.88664062 1.75390625 7.89453125 C1.07119982 5.27336303 0.50107805 2.661065 0 0 Z " fill="#E6ECFA" transform="translate(204,61)"/>
<path d="M0 0 C-0.0625 1.75 -0.0625 1.75 -1 4 C-3.23932036 5.52956035 -5.60427563 6.71657623 -8 8 C-8.33 8.66 -8.66 9.32 -9 10 C-9.66 9.67 -10.32 9.34 -11 9 C-10.21448343 7.68381002 -9.4213763 6.37214772 -8.625 5.0625 C-8.18414062 4.33160156 -7.74328125 3.60070312 -7.2890625 2.84765625 C-5.08259146 -0.31495224 -3.96954591 0 0 0 Z " fill="#6D83DB" transform="translate(87,28)"/>
<path d="M0 0 C0.33 0 0.66 0 1 0 C1.19766544 3.56201195 1.38133629 7.12461367 1.5625 10.6875 C1.61857422 11.69490234 1.67464844 12.70230469 1.73242188 13.74023438 C1.78076172 14.71669922 1.82910156 15.69316406 1.87890625 16.69921875 C1.94960327 18.04246216 1.94960327 18.04246216 2.02172852 19.4128418 C1.99942695 22.06823177 1.60392668 24.41958599 1 27 C0.01 26.67 -0.98 26.34 -2 26 C-1.67 25.34 -1.34 24.68 -1 24 C-0.84693099 22.18828902 -0.75053339 20.3716206 -0.68359375 18.5546875 C-0.62075195 16.94013672 -0.62075195 16.94013672 -0.55664062 15.29296875 C-0.51732422 14.16503906 -0.47800781 13.03710938 -0.4375 11.875 C-0.39431641 10.73933594 -0.35113281 9.60367188 -0.30664062 8.43359375 C-0.2003396 5.62252232 -0.09830595 2.81136055 0 0 Z " fill="#C8D0EF" transform="translate(132,128)"/>
<path d="M0 0 C0.33 0.66 0.66 1.32 1 2 C0.0625 4.125 0.0625 4.125 -1 6 C-1.66 6 -2.32 6 -3 6 C-3.28875 6.5775 -3.5775 7.155 -3.875 7.75 C-4.24625 8.4925 -4.6175 9.235 -5 10 C-5.309375 10.721875 -5.61875 11.44375 -5.9375 12.1875 C-7 14 -7 14 -10 15 C-8.59601721 10.89889238 -6.62912962 8.01910841 -3.875 4.6875 C-3.15054688 3.80449219 -2.42609375 2.92148438 -1.6796875 2.01171875 C-1.12539062 1.34785156 -0.57109375 0.68398437 0 0 Z " fill="#5163BB" transform="translate(148,134)"/>
<path d="M0 0 C-0.125 1.8125 -0.125 1.8125 -1 4 C-4.74758745 6.38482838 -7.56348311 7.39145737 -12 7 C-9.20232475 3.70861735 -4.40323273 0 0 0 Z " fill="#AEBFF9" transform="translate(153,112)"/>
<path d="M0 0 C0.625 1.8125 0.625 1.8125 1 4 C0.01 5.485 0.01 5.485 -1 7 C-3.97 5.35 -6.94 3.7 -10 2 C-6.66203244 1.16550811 -3.39305036 0.53980347 0 0 Z " fill="#6172C7" transform="translate(130,115)"/>
<path d="M0 0 C-2.54996436 3.1166231 -5.14330357 4.01692052 -9 5 C-12.375 5.125 -12.375 5.125 -15 5 C-15.33 4.34 -15.66 3.68 -16 3 C-14.27318563 2.49193553 -12.54342021 1.99389533 -10.8125 1.5 C-9.84957031 1.2215625 -8.88664062 0.943125 -7.89453125 0.65625 C-5.14654124 0.03322392 -2.80401584 -0.12302812 0 0 Z " fill="#8091C7" transform="translate(120,12)"/>
<path d="M0 0 C4.92127034 -0.16682272 8.50343896 -0.24828052 13 2 C9.64672361 4.23551759 9.09256343 4.17283528 5.3125 3.625 C4.50425781 3.51414063 3.69601563 3.40328125 2.86328125 3.2890625 C2.24839844 3.19367188 1.63351563 3.09828125 1 3 C0.67 2.01 0.34 1.02 0 0 Z " fill="#4F60BE" transform="translate(108,167)"/>
<path d="M0 0 C1.43088528 2.86177057 0.59991697 4.93375773 0 8 C-0.99 8 -1.98 8 -3 8 C-4.45034604 9.30456502 -4.45034604 9.30456502 -5.6875 11 C-6.8321875 12.485 -6.8321875 12.485 -8 14 C-8.99 13.67 -9.98 13.34 -11 13 C-10.06027344 11.96939453 -10.06027344 11.96939453 -9.1015625 10.91796875 C-8.28429687 10.01691406 -7.46703125 9.11585938 -6.625 8.1875 C-5.81289062 7.29417969 -5.00078125 6.40085938 -4.1640625 5.48046875 C-1.90927093 3.00367326 -1.90927093 3.00367326 0 0 Z " fill="#C9D5F1" transform="translate(196,136)"/>
<path d="M0 0 C0.33 0.66 0.66 1.32 1 2 C-0.07421875 4.27734375 -0.07421875 4.27734375 -1.6875 6.9375 C-2.46673828 8.25041016 -2.46673828 8.25041016 -3.26171875 9.58984375 C-4.97618665 11.96698238 -6.56945192 13.39552055 -9 15 C-7.73792344 11.50501876 -6.21507148 8.95342864 -4 6 C-3.649375 5.113125 -3.29875 4.22625 -2.9375 3.3125 C-2 1 -2 1 0 0 Z " fill="#5664B0" transform="translate(200,127)"/>
<path d="M0 0 C1.875 0.25 1.875 0.25 4 1 C5.125 3 5.125 3 6 5 C6.66 5.33 7.32 5.66 8 6 C8.625 8.5625 8.625 8.5625 9 11 C5.357335 9.78577833 4.84263015 8.66800557 2.8125 5.5 C2.28269531 4.6853125 1.75289063 3.870625 1.20703125 3.03125 C0 1 0 1 0 0 Z " fill="#ECF4FC" transform="translate(101,112)"/>
<path d="M0 0 C5.31027254 1.46032495 9.46330032 3.98320986 14 7 C13.34 7.66 12.68 8.32 12 9 C11.46890625 8.6390625 10.9378125 8.278125 10.390625 7.90625 C9.68421875 7.4421875 8.9778125 6.978125 8.25 6.5 C7.55390625 6.0359375 6.8578125 5.571875 6.140625 5.09375 C3.80698194 3.69666898 3.80698194 3.69666898 0 4 C0 2.68 0 1.36 0 0 Z " fill="#5669C5" transform="translate(92,94)"/>
<path d="M0 0 C7.23549488 0.68259386 7.23549488 0.68259386 10 4 C10.99 4.33 11.98 4.66 13 5 C12.01 6.485 12.01 6.485 11 8 C8.03 6.35 5.06 4.7 2 3 C2 2.34 2 1.68 2 1 C1.34 0.67 0.68 0.34 0 0 Z " fill="#B6C1F9" transform="translate(92,92)"/>
<path d="M0 0 C-1.17255709 3.33727786 -2.18868404 5.77437487 -5 8 C-5.66 8 -6.32 8 -7 8 C-7.25 5.6875 -7.25 5.6875 -7 3 C-4.51960083 0.51960083 -3.55547616 0 0 0 Z " fill="#778EEC" transform="translate(127,32)"/>
<path d="M0 0 C0 0.99 0 1.98 0 3 C-0.66 3 -1.32 3 -2 3 C-2 3.66 -2 4.32 -2 5 C-5.69541586 5.95024979 -8.30458414 5.95024979 -12 5 C-9.3139714 3.20931427 -7.3373411 2.33944209 -4.3125 1.375 C-3.50425781 1.11460937 -2.69601563 0.85421875 -1.86328125 0.5859375 C-1.24839844 0.39257812 -0.63351563 0.19921875 0 0 Z " fill="#C9D0E8" transform="translate(161,165)"/>
<path d="M0 0 C0.99 0.66 1.98 1.32 3 2 C2.34 3.65 1.68 5.3 1 7 C0.01 7 -0.98 7 -2 7 C-2.66 5.35 -3.32 3.7 -4 2 C-2.68 1.34 -1.36 0.68 0 0 Z M-6 3 C-4 4 -4 4 -4 4 Z " fill="#5B77D9" transform="translate(172,93)"/>
<path d="M0 0 C2.97 0.495 2.97 0.495 6 1 C5.34 2.32 4.68 3.64 4 5 C2.68 5 1.36 5 0 5 C0 4.34 0 3.68 0 3 C-2.64 3 -5.28 3 -8 3 C-8 2.67 -8 2.34 -8 2 C-5.36 2 -2.72 2 0 2 C0 1.34 0 0.68 0 0 Z " fill="#3C5BDB" transform="translate(144,163)"/>
<path d="M0 0 C3.58806317 3.38872633 6.45684799 6.76141332 9 11 C9 11.66 9 12.32 9 13 C8.34 13 7.68 13 7 13 C6.67 12.01 6.34 11.02 6 10 C5.01 9.67 4.02 9.34 3 9 C2.05078125 6.93359375 2.05078125 6.93359375 1.3125 4.4375 C1.06113281 3.61121094 0.80976562 2.78492188 0.55078125 1.93359375 C0.36902344 1.29550781 0.18726562 0.65742188 0 0 Z " fill="#4E5EAF" transform="translate(122,143)"/>
<path d="M0 0 C0.66 0.99 1.32 1.98 2 3 C0.41641358 6.16717283 -0.45263699 7.73268318 -3.6875 9.3125 C-4.450625 9.539375 -5.21375 9.76625 -6 10 C-4.6302836 6.00499382 -2.74277578 3.19990508 0 0 Z " fill="#4D64BF" transform="translate(156,123)"/>
<path d="M0 0 C0.66 0.33 1.32 0.66 2 1 C-0.3024119 3.60045875 -2.49896677 4.84739183 -5.6875 6.1875 C-6.49574219 6.53167969 -7.30398437 6.87585938 -8.13671875 7.23046875 C-8.75160156 7.48441406 -9.36648437 7.73835938 -10 8 C-10.66 7.34 -11.32 6.68 -12 6 C-10.04669132 4.96958487 -8.08718472 3.9509107 -6.125 2.9375 C-5.03445312 2.36902344 -3.94390625 1.80054687 -2.8203125 1.21484375 C-1.42425781 0.61349609 -1.42425781 0.61349609 0 0 Z " fill="#C5CDE8" transform="translate(120,80)"/>
<path d="M0 0 C0.66 0.66 1.32 1.32 2 2 C1.61121812 5.01305957 0.73543126 6.39685311 -1 9 C-1.99 8.67 -2.98 8.34 -4 8 C-2.87548273 5.0280615 -1.77706209 2.66559313 0 0 Z " fill="#6F82D7" transform="translate(104,66)"/>
<path d="M0 0 C-0.33 1.65 -0.66 3.3 -1 5 C-1.99 5.33 -2.98 5.66 -4 6 C-4.66 5.34 -5.32 4.68 -6 4 C-6 2.68 -6 1.36 -6 0 C-3.50907189 -1.24546405 -2.58919267 -0.7767578 0 0 Z " fill="#5C71D5" transform="translate(102,113)"/>
<path d="M0 0 C0.33 0.66 0.66 1.32 1 2 C1.99 2.33 2.98 2.66 4 3 C4.33 5.31 4.66 7.62 5 10 C4.01 10 3.02 10 2 10 C1.46987262 8.71211992 0.9511671 7.41953322 0.4375 6.125 C0.14746094 5.40570313 -0.14257812 4.68640625 -0.44140625 3.9453125 C-1 2 -1 2 0 0 Z " fill="#EFF4F0" transform="translate(50,118)"/>
<path d="M0 0 C0.99 0 1.98 0 3 0 C3 0.66 3 1.32 3 2 C3.61488281 2.12117187 4.22976562 2.24234375 4.86328125 2.3671875 C5.67152344 2.53476563 6.47976562 2.70234375 7.3125 2.875 C8.51326172 3.11863281 8.51326172 3.11863281 9.73828125 3.3671875 C12 4 12 4 15 6 C9.04492601 5.6083965 4.37180176 4.62875405 -1 2 C-0.67 1.34 -0.34 0.68 0 0 Z " fill="#F8F3F0" transform="translate(89,166)"/>
<path d="M0 0 C-0.33 1.65 -0.66 3.3 -1 5 C-2.65 5.33 -4.3 5.66 -6 6 C-6.33 5.34 -6.66 4.68 -7 4 C-3.375 0 -3.375 0 0 0 Z " fill="#4F63CA" transform="translate(138,151)"/>
<path d="M0 0 C0.66 0 1.32 0 2 0 C2 1.32 2 2.64 2 4 C3.32 4.66 4.64 5.32 6 6 C5.67 6.99 5.34 7.98 5 9 C2 8 2 8 0 5 C-0.125 2.3125 -0.125 2.3125 0 0 Z " fill="#566FF0" transform="translate(96,120)"/>
<path d="M0 0 C0.99 0.66 1.98 1.32 3 2 C1.375 8.75 1.375 8.75 -2 11 C-2 6.98425198 -1.80684352 3.61368705 0 0 Z " fill="#6986DF" transform="translate(61,56)"/>
<path d="M0 0 C0.66 0 1.32 0 2 0 C2 0.99 2 1.98 2 3 C1.34 3 0.68 3 0 3 C-0.2165625 4.423125 -0.2165625 4.423125 -0.4375 5.875 C-1 9 -1 9 -2 11 C-2.66 11 -3.32 11 -4 11 C-4 10.01 -4 9.02 -4 8 C-3.34 8 -2.68 8 -2 8 C-2.226875 7.4225 -2.45375 6.845 -2.6875 6.25 C-3 4 -3 4 -1.6875 1.75 C-1.130625 1.1725 -0.57375 0.595 0 0 Z " fill="#EBF1F3" transform="translate(204,125)"/>
<path d="M0 0 C0.66 0.33 1.32 0.66 2 1 C-0.475 5.455 -0.475 5.455 -3 10 C-3.99 9.34 -4.98 8.68 -6 8 C-4.02 5.36 -2.04 2.72 0 0 Z " fill="#5E77C9" transform="translate(170,103)"/>
<path d="M0 0 C0.66 0 1.32 0 2 0 C2.05416188 1.60379341 2.09286638 3.20811406 2.125 4.8125 C2.14820313 5.70582031 2.17140625 6.59914063 2.1953125 7.51953125 C2 10 2 10 0 13 C-1.29676812 8.38926889 -0.71109139 4.66159911 0 0 Z " fill="#5C6EB7" transform="translate(207,96)"/>
<path d="M0 0 C2.31 0.66 4.62 1.32 7 2 C6.34 3.32 5.68 4.64 5 6 C4.34 6 3.68 6 3 6 C3 5.34 3 4.68 3 4 C1.68 3.67 0.36 3.34 -1 3 C-0.67 2.01 -0.34 1.02 0 0 Z " fill="#889DE7" transform="translate(145,81)"/>
<path d="M0 0 C0.66 0 1.32 0 2 0 C1.54738642 1.43931117 1.08767021 2.87638999 0.625 4.3125 C0.36976562 5.11300781 0.11453125 5.91351563 -0.1484375 6.73828125 C-1 9 -1 9 -3 12 C-3.88336837 9.5332355 -4.1312406 8.36140628 -3.22265625 5.859375 C-2.83980469 5.16328125 -2.45695312 4.4671875 -2.0625 3.75 C-1.68222656 3.04359375 -1.30195312 2.3371875 -0.91015625 1.609375 C-0.60980469 1.07828125 -0.30945312 0.5471875 0 0 Z " fill="#E7F1FD" transform="translate(55,56)"/>
<path d="M0 0 C4 0 4 0 6 1 C5.625 2.9375 5.625 2.9375 5 5 C4.01 5.495 4.01 5.495 3 6 C1.5 4.6875 1.5 4.6875 0 3 C0 2.01 0 1.02 0 0 Z " fill="#6682DA" transform="translate(195,56)"/>
<path d="M0 0 C2.66735273 2.48952921 4.55746343 4.63408134 6 8 C4.35 8.66 2.7 9.32 1 10 C0.67 6.7 0.34 3.4 0 0 Z " fill="#7987C8" transform="translate(191,40)"/>
<path d="M0 0 C0.66 0.66 1.32 1.32 2 2 C0.02 2.99 0.02 2.99 -2 4 C-2 5.98 -2 7.96 -2 10 C-3.9375 9.6875 -3.9375 9.6875 -6 9 C-6.33 8.01 -6.66 7.02 -7 6 C-6.01 5.67 -5.02 5.34 -4 5 C-3.67 4.34 -3.34 3.68 -3 3 C-2.34 3 -1.68 3 -1 3 C-0.67 2.01 -0.34 1.02 0 0 Z " fill="#6D86DF" transform="translate(74,38)"/>
<path d="M0 0 C0.99 0.33 1.98 0.66 3 1 C2.67 1.99 2.34 2.98 2 4 C-0.375 4.625 -0.375 4.625 -3 5 C-3.66 4.34 -4.32 3.68 -5 3 C-2.6875 1.4375 -2.6875 1.4375 0 0 Z " fill="#B1C1F8" transform="translate(139,119)"/>
<path d="M0 0 C0.99 0 1.98 0 3 0 C3.680625 1.423125 3.680625 1.423125 4.375 2.875 C5.80238254 6.00313679 5.80238254 6.00313679 8 8 C7.67 8.99 7.34 9.98 7 11 C5.82750647 9.54634731 4.66216184 8.08692581 3.5 6.625 C2.52546875 5.40683594 2.52546875 5.40683594 1.53125 4.1640625 C0 2 0 2 0 0 Z " fill="#5969AB" transform="translate(61,133)"/>
<path d="M0 0 C0.33 0 0.66 0 1 0 C1.33 2.64 1.66 5.28 2 8 C-0.475 7.01 -0.475 7.01 -3 6 C-1.125 1.125 -1.125 1.125 0 0 Z " fill="#677BC4" transform="translate(207,72)"/>
<path d="M0 0 C-0.33 0.99 -0.66 1.98 -1 3 C-1.99 3 -2.98 3 -4 3 C-4 3.66 -4 4.32 -4 5 C-5.98 5 -7.96 5 -10 5 C-3.63636364 0 -3.63636364 0 0 0 Z " fill="#D0D2EE" transform="translate(132,75)"/>
<path d="M0 0 C2.625 -0.1875 2.625 -0.1875 5 0 C4.67 1.32 4.34 2.64 4 4 C1.03 3.505 1.03 3.505 -2 3 C-1.34 2.01 -0.68 1.02 0 0 Z " fill="#4660E6" transform="translate(131,157)"/>
<path d="M0 0 C0.66 0.33 1.32 0.66 2 1 C1.67 1.66 1.34 2.32 1 3 C1.66 3 2.32 3 3 3 C2.34 4.32 1.68 5.64 1 7 C-1 6 -1 6 -2 3 C-1.34 2.01 -0.68 1.02 0 0 Z " fill="#4E6CE1" transform="translate(114,137)"/>
<path d="M0 0 C0.66 0.33 1.32 0.66 2 1 C1.34 3.31 0.68 5.62 0 8 C-3 4.25 -3 4.25 -3 2 C-2.34 2 -1.68 2 -1 2 C-0.67 1.34 -0.34 0.68 0 0 Z " fill="#5671E8" transform="translate(194,122)"/>
<path d="M0 0 C2.64 0.99 5.28 1.98 8 3 C8 3.66 8 4.32 8 5 C4.62537285 4.45276317 2.91765 3.9451 0 2 C0 1.34 0 0.68 0 0 Z " fill="#8A9CE2" transform="translate(161,88)"/>
<path d="M0 0 C2.97 0.495 2.97 0.495 6 1 C5.67 1.99 5.34 2.98 5 4 C3.02 4 1.04 4 -1 4 C-0.67 2.68 -0.34 1.36 0 0 Z " fill="#7B92E6" transform="translate(129,24)"/>
<path d="M0 0 C3.3 0.99 6.6 1.98 10 3 C9.34 3.66 8.68 4.32 8 5 C5.36 4.01 2.72 3.02 0 2 C0 1.34 0 0.68 0 0 Z " fill="#C2D1F1" transform="translate(96,165)"/>
<path d="M0 0 C1.98 0.99 1.98 0.99 4 2 C4 3.65 4 5.3 4 7 C3.34 7 2.68 7 2 7 C2 6.34 2 5.68 2 5 C1.34 4.67 0.68 4.34 0 4 C0 2.68 0 1.36 0 0 Z " fill="#EBF2FD" transform="translate(128,121)"/>
<path d="M0 0 C0.33 0.66 0.66 1.32 1 2 C-4.625 5 -4.625 5 -8 5 C-8.33 5.66 -8.66 6.32 -9 7 C-9 6.34 -9 5.68 -9 5 C-9.66 4.67 -10.32 4.34 -11 4 C-10.37351563 3.79503906 -9.74703125 3.59007813 -9.1015625 3.37890625 C-8.28429687 3.10949219 -7.46703125 2.84007813 -6.625 2.5625 C-5.81289062 2.29566406 -5.00078125 2.02882813 -4.1640625 1.75390625 C-1.98968201 1.04820271 -1.98968201 1.04820271 0 0 Z " fill="#C0CDFB" transform="translate(152,115)"/>
<path d="M0 0 C1.485 0.99 1.485 0.99 3 2 C3 2.99 3 3.98 3 5 C2.34 5 1.68 5 1 5 C0.67 6.32 0.34 7.64 0 9 C-1.125 3.375 -1.125 3.375 0 0 Z " fill="#536CD8" transform="translate(56,111)"/>
<path d="M0 0 C2.0625 0.4375 2.0625 0.4375 4 1 C3.01 2.485 3.01 2.485 2 4 C2 4.99 2 5.98 2 7 C1.34 7 0.68 7 0 7 C-0.38133299 5.0085944 -0.71325582 3.00720923 -1 1 C-0.67 0.67 -0.34 0.34 0 0 Z " fill="#6F8AF0" transform="translate(156,56)"/>
<path d="M0 0 C-0.33 1.32 -0.66 2.64 -1 4 C-2.32 4.33 -3.64 4.66 -5 5 C-4.67 4.34 -4.34 3.68 -4 3 C-4.66 2.34 -5.32 1.68 -6 1 C-4 0 -4 0 0 0 Z " fill="#7F8CCC" transform="translate(102,17)"/>
<path d="M0 0 C0.33 0.66 0.66 1.32 1 2 C-1.64 2.33 -4.28 2.66 -7 3 C-6.67 2.01 -6.34 1.02 -6 0 C-3 -1 -3 -1 0 0 Z " fill="#E7F2FC" transform="translate(111,12)"/>
<path d="M0 0 C2.64 0.66 5.28 1.32 8 2 C7.67 2.66 7.34 3.32 7 4 C4.69 3.67 2.38 3.34 0 3 C0 2.01 0 1.02 0 0 Z " fill="#F5F6F0" transform="translate(105,172)"/>
<path d="M0 0 C1.98 0 3.96 0 6 0 C6 1.32 6 2.64 6 4 C3.03 3.505 3.03 3.505 0 3 C0 2.01 0 1.02 0 0 Z " fill="#3C54CA" transform="translate(154,162)"/>
<path d="M0 0 C2.00720923 0.28674418 4.0085944 0.61866701 6 1 C6 1.33 6 1.66 6 2 C4.35 2 2.7 2 1 2 C1 2.66 1 3.32 1 4 C1.66 4.33 2.32 4.66 3 5 C2.01 5 1.02 5 0 5 C-0.5625 3.0625 -0.5625 3.0625 -1 1 C-0.67 0.67 -0.34 0.34 0 0 Z " fill="#E8EFFE" transform="translate(99,106)"/>
<path d="M0 0 C2.625 0.375 2.625 0.375 5 1 C4.67 1.99 4.34 2.98 4 4 C2.02 3.34 0.04 2.68 -2 2 C-1.34 1.34 -0.68 0.68 0 0 Z " fill="#5772D3" transform="translate(95,98)"/>
<path d="M0 0 C0.99 0.66 1.98 1.32 3 2 C1.68 2.33 0.36 2.66 -1 3 C-1 3.99 -1 4.98 -1 6 C-1.66 6 -2.32 6 -3 6 C-3.33 5.01 -3.66 4.02 -4 3 C-3 1 -3 1 0 0 Z " fill="#526CCC" transform="translate(168,96)"/>
<path d="M0 0 C0.66 0 1.32 0 2 0 C2.33 1.98 2.66 3.96 3 6 C2.01 6.33 1.02 6.66 0 7 C0 4.69 0 2.38 0 0 Z " fill="#7088F3" transform="translate(192,53)"/>
<path d="M0 0 C2.475 0.495 2.475 0.495 5 1 C4.67 2.98 4.34 4.96 4 7 C3.34 6.67 2.68 6.34 2 6 C2 4.68 2 3.36 2 2 C1.34 2 0.68 2 0 2 C0 1.34 0 0.68 0 0 Z " fill="#E9EFF7" transform="translate(70,150)"/>
<path d="M0 0 C2.97 0.495 2.97 0.495 6 1 C3.61426621 2.89213369 1.92824652 4.02391783 -1 5 C-0.67 3.35 -0.34 1.7 0 0 Z " fill="#7992E1" transform="translate(133,111)"/>
<path d="M0 0 C0.99 0 1.98 0 3 0 C2.67 1.65 2.34 3.3 2 5 C-0.475 4.01 -0.475 4.01 -3 3 C-2.01 2.67 -1.02 2.34 0 2 C0 1.34 0 0.68 0 0 Z " fill="#B2C5F5" transform="translate(125,108)"/>
</svg>
