<svg xmlns="http://www.w3.org/2000/svg" xmlns:xlink="http://www.w3.org/1999/xlink" width="612" zoomAndPan="magnify" viewBox="0 0 458.88 458.999989" height="612" preserveAspectRatio="xMidYMid meet" version="1.0"><defs><clipPath id="3201de92b5"><path d="M 0 0.0585938 L 458.761719 0.0585938 L 458.761719 458.9375 L 0 458.9375 Z M 0 0.0585938 " clip-rule="nonzero"/></clipPath><clipPath id="fc91ec2bad"><path d="M 236 236 L 458.761719 236 L 458.761719 458.9375 L 236 458.9375 Z M 236 236 " clip-rule="nonzero"/></clipPath><clipPath id="1655eb248d"><path d="M 69 0.0585938 L 106 0.0585938 L 106 85 L 69 85 Z M 69 0.0585938 " clip-rule="nonzero"/></clipPath><clipPath id="7bc2956566"><path d="M 267 0.0585938 L 303 0.0585938 L 303 85 L 267 85 Z M 267 0.0585938 " clip-rule="nonzero"/></clipPath></defs><g clip-path="url(#3201de92b5)"><path fill="#ffffff" d="M 0 0.0585938 L 458.878906 0.0585938 L 458.878906 458.941406 L 0 458.941406 Z M 0 0.0585938 " fill-opacity="1" fill-rule="nonzero"/><path fill="#ffffff" d="M 0 0.0585938 L 458.878906 0.0585938 L 458.878906 458.941406 L 0 458.941406 Z M 0 0.0585938 " fill-opacity="1" fill-rule="nonzero"/></g><g clip-path="url(#fc91ec2bad)"><path fill="#770b9d" d="M 458.878906 347.804688 C 458.878906 295.0625 422.125 250.929688 372.839844 239.550781 C 364.769531 237.6875 356.382812 236.667969 347.746094 236.667969 C 345.332031 236.667969 342.949219 236.773438 340.574219 236.925781 C 286.71875 240.359375 243.308594 282.132812 237.335938 335.257812 C 236.871094 339.378906 236.609375 343.558594 236.609375 347.804688 C 236.609375 355.800781 237.472656 363.589844 239.078125 371.105469 C 249.789062 421.292969 294.359375 458.941406 347.746094 458.941406 C 409.125 458.941406 458.878906 409.183594 458.878906 347.804688 Z M 347.746094 421.296875 C 307.15625 421.296875 274.253906 388.394531 274.253906 347.804688 C 274.253906 307.214844 307.15625 274.3125 347.746094 274.3125 C 388.332031 274.3125 421.238281 307.214844 421.238281 347.804688 C 421.238281 388.394531 388.332031 421.296875 347.746094 421.296875 Z M 347.746094 421.296875 " fill-opacity="1" fill-rule="nonzero"/></g><path fill="#770b9d" d="M 362.085938 297.613281 L 336.992188 297.613281 L 336.992188 337.050781 L 297.554688 337.050781 L 297.554688 362.144531 L 362.085938 362.144531 Z M 362.085938 297.613281 " fill-opacity="1" fill-rule="nonzero"/><g clip-path="url(#1655eb248d)"><path fill="#770b9d" d="M 82.457031 0.0585938 C 75.535156 0.0585938 69.90625 5.6875 69.90625 12.605469 L 69.90625 71.761719 C 69.90625 78.679688 75.535156 84.308594 82.457031 84.308594 L 93.210938 84.308594 C 100.128906 84.308594 105.757812 78.679688 105.757812 71.761719 L 105.757812 12.605469 C 105.757812 5.6875 100.128906 0.0585938 93.210938 0.0585938 Z M 82.457031 0.0585938 " fill-opacity="1" fill-rule="nonzero"/></g><g clip-path="url(#7bc2956566)"><path fill="#770b9d" d="M 279.628906 0.0585938 C 272.710938 0.0585938 267.082031 5.6875 267.082031 12.605469 L 267.082031 71.761719 C 267.082031 78.679688 272.710938 84.308594 279.628906 84.308594 L 290.386719 84.308594 C 297.304688 84.308594 302.933594 78.679688 302.933594 71.761719 L 302.933594 12.605469 C 302.933594 5.6875 297.304688 0.0585938 290.386719 0.0585938 Z M 279.628906 0.0585938 " fill-opacity="1" fill-rule="nonzero"/></g><path fill="#770b9d" d="M 28.679688 371.105469 L 206.136719 371.105469 C 204.386719 362.410156 203.460938 353.421875 203.460938 344.21875 C 203.460938 341.203125 203.59375 338.222656 203.785156 335.257812 L 53.773438 335.257812 C 41.894531 335.257812 32.265625 325.628906 32.265625 313.746094 L 32.265625 141.667969 L 340.574219 141.667969 L 340.574219 208.179688 C 342.949219 208.058594 345.339844 207.992188 347.746094 207.992188 C 356.320312 207.992188 364.699219 208.820312 372.839844 210.34375 L 372.839844 69.96875 C 372.839844 54.128906 360 41.289062 344.160156 41.289062 L 320.859375 41.289062 L 320.859375 71.761719 C 320.859375 88.5625 307.1875 102.234375 290.386719 102.234375 L 279.628906 102.234375 C 262.828125 102.234375 249.15625 88.5625 249.15625 71.761719 L 249.15625 41.289062 L 123.683594 41.289062 L 123.683594 71.761719 C 123.683594 88.5625 110.011719 102.234375 93.210938 102.234375 L 82.453125 102.234375 C 65.652344 102.234375 51.980469 88.5625 51.980469 71.761719 L 51.980469 41.289062 L 28.679688 41.289062 C 12.839844 41.289062 0 54.128906 0 69.96875 L 0 342.425781 C 0 358.265625 12.839844 371.105469 28.679688 371.105469 Z M 28.679688 371.105469 " fill-opacity="1" fill-rule="nonzero"/><path fill="#770b9d" d="M 129.511719 195.441406 C 129.511719 196.375 129.464844 197.304688 129.375 198.230469 C 129.285156 199.160156 129.148438 200.082031 128.964844 200.996094 C 128.785156 201.910156 128.558594 202.8125 128.285156 203.703125 C 128.015625 204.59375 127.703125 205.472656 127.347656 206.332031 C 126.988281 207.195312 126.589844 208.035156 126.152344 208.855469 C 125.710938 209.679688 125.234375 210.476562 124.714844 211.253906 C 124.199219 212.027344 123.644531 212.777344 123.050781 213.496094 C 122.460938 214.214844 121.835938 214.90625 121.175781 215.566406 C 120.519531 216.222656 119.828125 216.847656 119.109375 217.441406 C 118.386719 218.03125 117.640625 218.585938 116.863281 219.105469 C 116.089844 219.621094 115.292969 220.101562 114.46875 220.539062 C 113.648438 220.980469 112.804688 221.378906 111.945312 221.734375 C 111.082031 222.089844 110.207031 222.40625 109.316406 222.675781 C 108.421875 222.945312 107.519531 223.171875 106.605469 223.355469 C 105.691406 223.535156 104.769531 223.671875 103.84375 223.761719 C 102.914062 223.855469 101.984375 223.902344 101.054688 223.902344 C 100.121094 223.902344 99.191406 223.855469 98.265625 223.761719 C 97.335938 223.671875 96.417969 223.535156 95.503906 223.355469 C 94.589844 223.171875 93.683594 222.945312 92.792969 222.675781 C 91.902344 222.40625 91.023438 222.089844 90.164062 221.734375 C 89.300781 221.378906 88.460938 220.980469 87.640625 220.539062 C 86.816406 220.101562 86.019531 219.621094 85.242188 219.105469 C 84.46875 218.585938 83.722656 218.03125 83 217.441406 C 82.28125 216.847656 81.589844 216.222656 80.929688 215.566406 C 80.273438 214.90625 79.648438 214.214844 79.054688 213.496094 C 78.464844 212.777344 77.910156 212.027344 77.390625 211.253906 C 76.875 210.476562 76.394531 209.679688 75.957031 208.855469 C 75.515625 208.035156 75.117188 207.195312 74.761719 206.332031 C 74.40625 205.472656 74.09375 204.59375 73.820312 203.703125 C 73.550781 202.8125 73.324219 201.910156 73.144531 200.996094 C 72.960938 200.082031 72.824219 199.160156 72.734375 198.230469 C 72.640625 197.304688 72.597656 196.375 72.597656 195.441406 C 72.597656 194.511719 72.640625 193.582031 72.734375 192.652344 C 72.824219 191.726562 72.960938 190.804688 73.144531 189.890625 C 73.324219 188.976562 73.550781 188.074219 73.820312 187.179688 C 74.09375 186.289062 74.40625 185.414062 74.761719 184.550781 C 75.117188 183.691406 75.515625 182.847656 75.957031 182.027344 C 76.394531 181.207031 76.875 180.40625 77.390625 179.632812 C 77.910156 178.855469 78.464844 178.109375 79.054688 177.390625 C 79.648438 176.667969 80.273438 175.980469 80.929688 175.320312 C 81.589844 174.660156 82.28125 174.035156 83 173.445312 C 83.722656 172.851562 84.46875 172.296875 85.242188 171.78125 C 86.019531 171.261719 86.816406 170.785156 87.640625 170.34375 C 88.460938 169.90625 89.300781 169.507812 90.164062 169.152344 C 91.023438 168.792969 91.902344 168.480469 92.792969 168.210938 C 93.683594 167.9375 94.589844 167.714844 95.503906 167.53125 C 96.417969 167.347656 97.335938 167.210938 98.265625 167.121094 C 99.191406 167.03125 100.121094 166.984375 101.054688 166.984375 C 101.984375 166.984375 102.914062 167.03125 103.84375 167.121094 C 104.769531 167.210938 105.691406 167.347656 106.605469 167.53125 C 107.519531 167.714844 108.421875 167.9375 109.316406 168.210938 C 110.207031 168.480469 111.082031 168.792969 111.945312 169.152344 C 112.804688 169.507812 113.648438 169.90625 114.46875 170.34375 C 115.292969 170.785156 116.089844 171.261719 116.863281 171.78125 C 117.640625 172.296875 118.386719 172.851562 119.109375 173.445312 C 119.828125 174.035156 120.519531 174.660156 121.175781 175.320312 C 121.835938 175.980469 122.460938 176.667969 123.050781 177.390625 C 123.644531 178.109375 124.199219 178.855469 124.714844 179.632812 C 125.234375 180.40625 125.710938 181.207031 126.152344 182.027344 C 126.589844 182.847656 126.988281 183.691406 127.347656 184.550781 C 127.703125 185.414062 128.015625 186.289062 128.285156 187.179688 C 128.558594 188.074219 128.785156 188.976562 128.964844 189.890625 C 129.148438 190.804688 129.285156 191.726562 129.375 192.652344 C 129.464844 193.582031 129.511719 194.511719 129.511719 195.441406 Z M 129.511719 195.441406 " fill-opacity="1" fill-rule="nonzero"/><path fill="#770b9d" d="M 214.878906 195.441406 C 214.878906 196.375 214.832031 197.304688 214.742188 198.230469 C 214.648438 199.160156 214.511719 200.082031 214.332031 200.996094 C 214.148438 201.910156 213.921875 202.8125 213.652344 203.703125 C 213.382812 204.59375 213.070312 205.472656 212.710938 206.332031 C 212.355469 207.195312 211.957031 208.035156 211.519531 208.855469 C 211.078125 209.679688 210.601562 210.476562 210.082031 211.253906 C 209.5625 212.027344 209.007812 212.777344 208.417969 213.496094 C 207.828125 214.214844 207.203125 214.90625 206.542969 215.566406 C 205.882812 216.222656 205.195312 216.847656 204.472656 217.441406 C 203.753906 218.03125 203.003906 218.585938 202.230469 219.105469 C 201.457031 219.621094 200.65625 220.101562 199.835938 220.539062 C 199.011719 220.980469 198.171875 221.378906 197.308594 221.734375 C 196.449219 222.089844 195.574219 222.40625 194.679688 222.675781 C 193.789062 222.945312 192.886719 223.171875 191.972656 223.355469 C 191.058594 223.535156 190.136719 223.671875 189.210938 223.761719 C 188.28125 223.855469 187.351562 223.902344 186.421875 223.902344 C 185.488281 223.902344 184.558594 223.855469 183.628906 223.761719 C 182.703125 223.671875 181.78125 223.535156 180.867188 223.355469 C 179.953125 223.171875 179.050781 222.945312 178.160156 222.675781 C 177.265625 222.40625 176.390625 222.089844 175.53125 221.734375 C 174.667969 221.378906 173.828125 220.980469 173.003906 220.539062 C 172.183594 220.101562 171.382812 219.621094 170.609375 219.105469 C 169.835938 218.585938 169.085938 218.03125 168.367188 217.441406 C 167.644531 216.847656 166.957031 216.222656 166.296875 215.566406 C 165.636719 214.90625 165.011719 214.214844 164.421875 213.496094 C 163.832031 212.777344 163.277344 212.027344 162.757812 211.253906 C 162.238281 210.476562 161.761719 209.679688 161.320312 208.855469 C 160.882812 208.035156 160.484375 207.195312 160.128906 206.332031 C 159.773438 205.472656 159.457031 204.59375 159.1875 203.703125 C 158.917969 202.8125 158.691406 201.910156 158.507812 200.996094 C 158.328125 200.082031 158.191406 199.160156 158.097656 198.230469 C 158.007812 197.304688 157.960938 196.375 157.960938 195.441406 C 157.960938 194.511719 158.007812 193.582031 158.097656 192.652344 C 158.191406 191.726562 158.328125 190.804688 158.507812 189.890625 C 158.691406 188.976562 158.917969 188.074219 159.1875 187.179688 C 159.457031 186.289062 159.773438 185.414062 160.128906 184.550781 C 160.484375 183.691406 160.882812 182.847656 161.320312 182.027344 C 161.761719 181.207031 162.238281 180.40625 162.757812 179.632812 C 163.277344 178.855469 163.832031 178.109375 164.421875 177.390625 C 165.011719 176.667969 165.636719 175.980469 166.296875 175.320312 C 166.957031 174.660156 167.644531 174.035156 168.367188 173.445312 C 169.085938 172.851562 169.835938 172.296875 170.609375 171.78125 C 171.382812 171.261719 172.183594 170.785156 173.003906 170.34375 C 173.828125 169.90625 174.667969 169.507812 175.53125 169.152344 C 176.390625 168.792969 177.265625 168.480469 178.160156 168.210938 C 179.050781 167.9375 179.953125 167.714844 180.867188 167.53125 C 181.78125 167.347656 182.703125 167.210938 183.628906 167.121094 C 184.558594 167.03125 185.488281 166.984375 186.421875 166.984375 C 187.351562 166.984375 188.28125 167.03125 189.210938 167.121094 C 190.136719 167.210938 191.058594 167.347656 191.972656 167.53125 C 192.886719 167.714844 193.789062 167.9375 194.679688 168.210938 C 195.574219 168.480469 196.449219 168.792969 197.308594 169.152344 C 198.171875 169.507812 199.011719 169.90625 199.835938 170.34375 C 200.65625 170.785156 201.457031 171.261719 202.230469 171.78125 C 203.003906 172.296875 203.753906 172.851562 204.472656 173.445312 C 205.195312 174.035156 205.882812 174.660156 206.542969 175.320312 C 207.203125 175.980469 207.828125 176.667969 208.417969 177.390625 C 209.007812 178.109375 209.5625 178.855469 210.082031 179.632812 C 210.601562 180.40625 211.078125 181.207031 211.519531 182.027344 C 211.957031 182.847656 212.355469 183.691406 212.710938 184.550781 C 213.070312 185.414062 213.382812 186.289062 213.652344 187.179688 C 213.921875 188.074219 214.148438 188.976562 214.332031 189.890625 C 214.511719 190.804688 214.648438 191.726562 214.742188 192.652344 C 214.832031 193.582031 214.878906 194.511719 214.878906 195.441406 Z M 214.878906 195.441406 " fill-opacity="1" fill-rule="nonzero"/><path fill="#770b9d" d="M 300.246094 195.441406 C 300.246094 196.375 300.199219 197.304688 300.109375 198.230469 C 300.015625 199.160156 299.878906 200.082031 299.699219 200.996094 C 299.515625 201.910156 299.289062 202.8125 299.019531 203.703125 C 298.75 204.59375 298.433594 205.472656 298.078125 206.332031 C 297.722656 207.195312 297.324219 208.035156 296.882812 208.855469 C 296.445312 209.679688 295.964844 210.476562 295.449219 211.253906 C 294.929688 212.027344 294.375 212.777344 293.785156 213.496094 C 293.195312 214.214844 292.570312 214.90625 291.910156 215.566406 C 291.25 216.222656 290.5625 216.847656 289.839844 217.441406 C 289.121094 218.03125 288.371094 218.585938 287.597656 219.105469 C 286.820312 219.621094 286.023438 220.101562 285.203125 220.539062 C 284.378906 220.980469 283.539062 221.378906 282.675781 221.734375 C 281.816406 222.089844 280.941406 222.40625 280.046875 222.675781 C 279.15625 222.945312 278.253906 223.171875 277.339844 223.355469 C 276.425781 223.535156 275.503906 223.671875 274.574219 223.761719 C 273.648438 223.855469 272.71875 223.902344 271.785156 223.902344 C 270.855469 223.902344 269.925781 223.855469 268.996094 223.761719 C 268.070312 223.671875 267.148438 223.535156 266.234375 223.355469 C 265.320312 223.171875 264.417969 222.945312 263.527344 222.675781 C 262.632812 222.40625 261.757812 222.089844 260.894531 221.734375 C 260.035156 221.378906 259.195312 220.980469 258.371094 220.539062 C 257.550781 220.101562 256.75 219.621094 255.976562 219.105469 C 255.203125 218.585938 254.453125 218.03125 253.734375 217.441406 C 253.011719 216.847656 252.324219 216.222656 251.664062 215.566406 C 251.003906 214.90625 250.378906 214.214844 249.789062 213.496094 C 249.195312 212.777344 248.640625 212.027344 248.125 211.253906 C 247.605469 210.476562 247.128906 209.679688 246.6875 208.855469 C 246.25 208.035156 245.851562 207.195312 245.496094 206.332031 C 245.136719 205.472656 244.824219 204.59375 244.554688 203.703125 C 244.285156 202.8125 244.058594 201.910156 243.875 200.996094 C 243.695312 200.082031 243.558594 199.160156 243.464844 198.230469 C 243.375 197.304688 243.328125 196.375 243.328125 195.441406 C 243.328125 194.511719 243.375 193.582031 243.464844 192.652344 C 243.558594 191.726562 243.695312 190.804688 243.875 189.890625 C 244.058594 188.976562 244.285156 188.074219 244.554688 187.179688 C 244.824219 186.289062 245.136719 185.414062 245.496094 184.550781 C 245.851562 183.691406 246.25 182.847656 246.6875 182.027344 C 247.128906 181.207031 247.605469 180.40625 248.125 179.632812 C 248.640625 178.855469 249.195312 178.109375 249.789062 177.390625 C 250.378906 176.667969 251.003906 175.980469 251.664062 175.320312 C 252.324219 174.660156 253.011719 174.035156 253.734375 173.445312 C 254.453125 172.851562 255.203125 172.296875 255.976562 171.78125 C 256.75 171.261719 257.550781 170.785156 258.371094 170.34375 C 259.195312 169.90625 260.035156 169.507812 260.894531 169.152344 C 261.757812 168.792969 262.632812 168.480469 263.527344 168.210938 C 264.417969 167.9375 265.320312 167.714844 266.234375 167.53125 C 267.148438 167.347656 268.070312 167.210938 268.996094 167.121094 C 269.925781 167.03125 270.855469 166.984375 271.785156 166.984375 C 272.71875 166.984375 273.648438 167.03125 274.574219 167.121094 C 275.503906 167.210938 276.425781 167.347656 277.339844 167.53125 C 278.253906 167.714844 279.15625 167.9375 280.046875 168.210938 C 280.941406 168.480469 281.816406 168.792969 282.675781 169.152344 C 283.539062 169.507812 284.378906 169.90625 285.203125 170.34375 C 286.023438 170.785156 286.820312 171.261719 287.597656 171.78125 C 288.371094 172.296875 289.121094 172.851562 289.839844 173.445312 C 290.5625 174.035156 291.25 174.660156 291.910156 175.320312 C 292.570312 175.980469 293.195312 176.667969 293.785156 177.390625 C 294.375 178.109375 294.929688 178.855469 295.449219 179.632812 C 295.964844 180.40625 296.445312 181.207031 296.882812 182.027344 C 297.324219 182.847656 297.722656 183.691406 298.078125 184.550781 C 298.433594 185.414062 298.75 186.289062 299.019531 187.179688 C 299.289062 188.074219 299.515625 188.976562 299.699219 189.890625 C 299.878906 190.804688 300.015625 191.726562 300.109375 192.652344 C 300.199219 193.582031 300.246094 194.511719 300.246094 195.441406 Z M 300.246094 195.441406 " fill-opacity="1" fill-rule="nonzero"/><path fill="#770b9d" d="M 214.878906 281.480469 C 214.878906 282.414062 214.832031 283.34375 214.742188 284.273438 C 214.648438 285.199219 214.511719 286.121094 214.332031 287.035156 C 214.148438 287.949219 213.921875 288.851562 213.652344 289.742188 C 213.382812 290.636719 213.066406 291.511719 212.710938 292.371094 C 212.355469 293.234375 211.957031 294.074219 211.515625 294.898438 C 211.078125 295.71875 210.597656 296.515625 210.082031 297.292969 C 209.5625 298.066406 209.007812 298.816406 208.417969 299.535156 C 207.828125 300.257812 207.203125 300.945312 206.542969 301.605469 C 205.882812 302.265625 205.195312 302.890625 204.472656 303.480469 C 203.753906 304.070312 203.003906 304.625 202.230469 305.144531 C 201.453125 305.660156 200.65625 306.140625 199.835938 306.578125 C 199.011719 307.019531 198.171875 307.417969 197.308594 307.773438 C 196.449219 308.128906 195.574219 308.445312 194.679688 308.714844 C 193.789062 308.984375 192.886719 309.210938 191.972656 309.394531 C 191.058594 309.574219 190.136719 309.710938 189.210938 309.800781 C 188.28125 309.894531 187.351562 309.941406 186.421875 309.941406 C 185.488281 309.941406 184.558594 309.894531 183.628906 309.800781 C 182.703125 309.710938 181.78125 309.574219 180.867188 309.394531 C 179.953125 309.210938 179.050781 308.984375 178.160156 308.714844 C 177.265625 308.445312 176.390625 308.128906 175.53125 307.773438 C 174.667969 307.417969 173.828125 307.019531 173.003906 306.578125 C 172.183594 306.140625 171.386719 305.660156 170.609375 305.144531 C 169.835938 304.625 169.085938 304.070312 168.367188 303.480469 C 167.644531 302.890625 166.957031 302.265625 166.296875 301.605469 C 165.636719 300.945312 165.011719 300.257812 164.421875 299.535156 C 163.832031 298.816406 163.277344 298.066406 162.757812 297.292969 C 162.242188 296.515625 161.761719 295.71875 161.324219 294.898438 C 160.882812 294.074219 160.484375 293.234375 160.128906 292.371094 C 159.773438 291.511719 159.457031 290.636719 159.1875 289.742188 C 158.917969 288.851562 158.691406 287.949219 158.507812 287.035156 C 158.328125 286.121094 158.191406 285.199219 158.101562 284.273438 C 158.007812 283.34375 157.960938 282.414062 157.960938 281.480469 C 157.960938 280.550781 158.007812 279.621094 158.101562 278.691406 C 158.191406 277.765625 158.328125 276.84375 158.507812 275.929688 C 158.691406 275.015625 158.917969 274.113281 159.1875 273.222656 C 159.457031 272.328125 159.773438 271.453125 160.128906 270.59375 C 160.484375 269.730469 160.882812 268.890625 161.324219 268.066406 C 161.761719 267.246094 162.242188 266.449219 162.757812 265.671875 C 163.277344 264.898438 163.832031 264.148438 164.421875 263.429688 C 165.011719 262.707031 165.636719 262.019531 166.296875 261.359375 C 166.957031 260.699219 167.644531 260.074219 168.367188 259.484375 C 169.085938 258.894531 169.835938 258.339844 170.609375 257.820312 C 171.386719 257.304688 172.183594 256.824219 173.003906 256.386719 C 173.828125 255.945312 174.667969 255.546875 175.53125 255.191406 C 176.390625 254.835938 177.265625 254.519531 178.160156 254.25 C 179.050781 253.980469 179.953125 253.753906 180.867188 253.570312 C 181.78125 253.390625 182.703125 253.253906 183.628906 253.164062 C 184.558594 253.070312 185.488281 253.023438 186.421875 253.023438 C 187.351562 253.023438 188.28125 253.070312 189.210938 253.164062 C 190.136719 253.253906 191.058594 253.390625 191.972656 253.570312 C 192.886719 253.753906 193.789062 253.980469 194.679688 254.25 C 195.574219 254.519531 196.449219 254.835938 197.308594 255.191406 C 198.171875 255.546875 199.011719 255.945312 199.835938 256.386719 C 200.65625 256.824219 201.453125 257.304688 202.230469 257.820312 C 203.003906 258.339844 203.753906 258.894531 204.472656 259.484375 C 205.195312 260.074219 205.882812 260.699219 206.542969 261.359375 C 207.203125 262.019531 207.828125 262.707031 208.417969 263.429688 C 209.007812 264.148438 209.5625 264.898438 210.082031 265.671875 C 210.597656 266.449219 211.078125 267.246094 211.515625 268.066406 C 211.957031 268.890625 212.355469 269.730469 212.710938 270.59375 C 213.066406 271.453125 213.382812 272.328125 213.652344 273.222656 C 213.921875 274.113281 214.148438 275.015625 214.332031 275.929688 C 214.511719 276.84375 214.648438 277.765625 214.742188 278.691406 C 214.832031 279.621094 214.878906 280.550781 214.878906 281.480469 Z M 214.878906 281.480469 " fill-opacity="1" fill-rule="nonzero"/><path fill="#770b9d" d="M 129.511719 281.480469 C 129.511719 282.414062 129.464844 283.34375 129.375 284.273438 C 129.28125 285.199219 129.144531 286.121094 128.964844 287.035156 C 128.78125 287.949219 128.554688 288.851562 128.285156 289.742188 C 128.015625 290.636719 127.703125 291.511719 127.34375 292.371094 C 126.988281 293.234375 126.589844 294.074219 126.152344 294.898438 C 125.710938 295.71875 125.234375 296.515625 124.714844 297.292969 C 124.199219 298.066406 123.644531 298.816406 123.050781 299.535156 C 122.460938 300.257812 121.835938 300.945312 121.175781 301.605469 C 120.515625 302.265625 119.828125 302.890625 119.105469 303.480469 C 118.386719 304.070312 117.640625 304.625 116.863281 305.144531 C 116.089844 305.660156 115.289062 306.140625 114.46875 306.578125 C 113.648438 307.019531 112.804688 307.417969 111.945312 307.773438 C 111.082031 308.128906 110.207031 308.445312 109.316406 308.714844 C 108.421875 308.984375 107.519531 309.210938 106.605469 309.394531 C 105.691406 309.574219 104.769531 309.710938 103.84375 309.800781 C 102.914062 309.894531 101.984375 309.941406 101.054688 309.941406 C 100.121094 309.941406 99.191406 309.894531 98.265625 309.800781 C 97.335938 309.710938 96.417969 309.574219 95.503906 309.394531 C 94.589844 309.210938 93.683594 308.984375 92.792969 308.714844 C 91.902344 308.445312 91.023438 308.128906 90.164062 307.773438 C 89.304688 307.417969 88.460938 307.019531 87.640625 306.578125 C 86.816406 306.140625 86.019531 305.660156 85.242188 305.144531 C 84.46875 304.625 83.722656 304.070312 83 303.480469 C 82.28125 302.890625 81.589844 302.265625 80.933594 301.605469 C 80.273438 300.945312 79.648438 300.257812 79.054688 299.535156 C 78.464844 298.816406 77.910156 298.066406 77.394531 297.292969 C 76.875 296.515625 76.394531 295.71875 75.957031 294.898438 C 75.519531 294.074219 75.121094 293.234375 74.761719 292.371094 C 74.40625 291.511719 74.09375 290.636719 73.820312 289.742188 C 73.550781 288.851562 73.324219 287.949219 73.144531 287.035156 C 72.960938 286.121094 72.824219 285.199219 72.734375 284.273438 C 72.640625 283.34375 72.597656 282.414062 72.597656 281.480469 C 72.597656 280.550781 72.640625 279.621094 72.734375 278.691406 C 72.824219 277.765625 72.960938 276.84375 73.144531 275.929688 C 73.324219 275.015625 73.550781 274.113281 73.820312 273.222656 C 74.09375 272.328125 74.40625 271.453125 74.761719 270.59375 C 75.121094 269.730469 75.519531 268.890625 75.957031 268.066406 C 76.394531 267.246094 76.875 266.449219 77.394531 265.671875 C 77.910156 264.898438 78.464844 264.148438 79.054688 263.429688 C 79.648438 262.707031 80.273438 262.019531 80.933594 261.359375 C 81.589844 260.699219 82.28125 260.074219 83 259.484375 C 83.722656 258.894531 84.46875 258.339844 85.242188 257.820312 C 86.019531 257.304688 86.816406 256.824219 87.640625 256.386719 C 88.460938 255.945312 89.304688 255.546875 90.164062 255.191406 C 91.023438 254.835938 91.902344 254.519531 92.792969 254.25 C 93.683594 253.980469 94.589844 253.753906 95.503906 253.570312 C 96.417969 253.390625 97.335938 253.253906 98.265625 253.164062 C 99.191406 253.070312 100.121094 253.023438 101.054688 253.023438 C 101.984375 253.023438 102.914062 253.070312 103.84375 253.164062 C 104.769531 253.253906 105.691406 253.390625 106.605469 253.570312 C 107.519531 253.753906 108.421875 253.980469 109.316406 254.25 C 110.207031 254.519531 111.082031 254.835938 111.945312 255.191406 C 112.804688 255.546875 113.648438 255.945312 114.46875 256.386719 C 115.289062 256.824219 116.089844 257.304688 116.863281 257.820312 C 117.640625 258.339844 118.386719 258.894531 119.105469 259.484375 C 119.828125 260.074219 120.515625 260.699219 121.175781 261.359375 C 121.835938 262.019531 122.460938 262.707031 123.050781 263.429688 C 123.644531 264.148438 124.199219 264.898438 124.714844 265.671875 C 125.234375 266.449219 125.710938 267.246094 126.152344 268.066406 C 126.589844 268.890625 126.988281 269.730469 127.34375 270.59375 C 127.703125 271.453125 128.015625 272.328125 128.285156 273.222656 C 128.554688 274.113281 128.78125 275.015625 128.964844 275.929688 C 129.144531 276.84375 129.28125 277.765625 129.375 278.691406 C 129.464844 279.621094 129.511719 280.550781 129.511719 281.480469 Z M 129.511719 281.480469 " fill-opacity="1" fill-rule="nonzero"/></svg>