<?xml version="1.0" encoding="UTF-8"?>
<svg version="1.1" xmlns="http://www.w3.org/2000/svg" width="256" height="256">
<path d="M0 0 C0 13.53 0 27.06 0 41 C-7 43 -7 43 -10.3671875 43.75390625 C-24.91762175 47.10795958 -37.93097646 53.9200337 -49 64 C-49.59554687 64.50402344 -50.19109375 65.00804688 -50.8046875 65.52734375 C-65.87497774 79.17394298 -74.07996988 100.42315798 -75.31640625 120.3125 C-75.88685706 135.18972722 -73.14349876 149.85356111 -66 163 C-65.50886719 163.96035156 -65.01773438 164.92070312 -64.51171875 165.91015625 C-54.0366517 185.28528027 -36.29303894 198.4346456 -15.4921875 205.12890625 C7.97414192 211.21603682 31.05019599 208.15359104 52 196 C54.28285091 194.40431695 56.40382267 192.81123105 58.45703125 190.93359375 C60 190 60 190 61.91314697 190.27964783 C65.4501536 191.50057253 67.73878069 194.3763157 70.296875 197.00390625 C70.89050842 197.60178452 71.48414185 198.19966278 72.09576416 198.81565857 C73.98767195 200.72434102 75.86887499 202.6431954 77.75 204.5625 C79.03186002 205.85940836 80.3144043 207.15564078 81.59765625 208.45117188 C84.73976072 211.62632957 87.87230539 214.81064946 91 218 C70.44706084 238.75874725 40.46980543 249.8165378 11.44042969 250.24169922 C-23.8004137 250.3479593 -54.54740788 238.5675924 -80 214 C-80.79277344 213.27039063 -81.58554688 212.54078125 -82.40234375 211.7890625 C-102.76964576 192.5314026 -115.77146289 162.25511108 -117.1262207 134.40527344 C-118.07749813 99.72441651 -109.21750562 67.22951704 -85.17578125 41.25390625 C-75.59109254 31.32506354 -66.12163436 22.73273308 -54 16 C-53.10933838 15.49339844 -53.10933838 15.49339844 -52.20068359 14.9765625 C-36.67893207 6.23607897 -17.99104886 0 0 0 Z " fill="#65528C" transform="translate(120,3)"/>
<path d="M0 0 C0.8559375 0.2784375 1.711875 0.556875 2.59375 0.84375 C19.59498573 6.93061217 32.30047257 20.54819417 39.9375 36.55078125 C47.12559531 53.12039802 47.24717023 72.1073403 41 89 C34.4475329 105.33137696 22.22153243 118.34226905 6.203125 125.71484375 C-12.58730333 133.25393024 -31.41269667 133.25393024 -50.203125 125.71484375 C-67.39452251 117.80239285 -79.17660367 103.88962512 -85.99609375 86.453125 C-90.83979099 72.64047642 -90.81897353 55.79223459 -86 42 C-85.7215625 41.1440625 -85.443125 40.288125 -85.15625 39.40625 C-79.06938783 22.40501427 -65.45180583 9.69952743 -49.44921875 2.0625 C-34.17971267 -4.56159195 -15.77926171 -5.51323602 0 0 Z " fill="#FEE365" transform="translate(150,64)"/>
<path d="M0 0 C0.8559375 0.2784375 1.711875 0.556875 2.59375 0.84375 C19.59498573 6.93061217 32.30047257 20.54819417 39.9375 36.55078125 C47.12559531 53.12039802 47.24717023 72.1073403 41 89 C34.4475329 105.33137696 22.22153243 118.34226905 6.203125 125.71484375 C-12.58730333 133.25393024 -31.41269667 133.25393024 -50.203125 125.71484375 C-67.39452251 117.80239285 -79.17660367 103.88962512 -85.99609375 86.453125 C-90.83979099 72.64047642 -90.81897353 55.79223459 -86 42 C-85.7215625 41.1440625 -85.443125 40.288125 -85.15625 39.40625 C-79.06938783 22.40501427 -65.45180583 9.69952743 -49.44921875 2.0625 C-34.17971267 -4.56159195 -15.77926171 -5.51323602 0 0 Z M-61 31 C-70.48900308 42.45724608 -73.67475139 55.43957526 -73 70 C-72.64932736 72.82541956 -71.96220621 75.32386399 -71 78 C-70.67 78.93585938 -70.34 79.87171875 -70 80.8359375 C-64.89598553 94.16681739 -55.72816463 104.97654202 -42.58984375 110.96875 C-31.48007443 115.39254955 -19.4959765 117.13338481 -8 113 C-7.06414062 112.67 -6.12828125 112.34 -5.1640625 112 C7.49181749 107.15442378 18.1269668 98.75449327 23.875 86.25 C24.6032917 84.50821146 25.3126465 82.75834617 26 81 C26.35320312 80.19046875 26.70640625 79.3809375 27.0703125 78.546875 C31.5901504 66.16479805 28.99134302 53.25932884 23.9375 41.53515625 C17.17837367 28.18118791 5.91113652 19.72796797 -8 15 C-8.64453125 14.773125 -9.2890625 14.54625 -9.953125 14.3125 C-29.04659835 8.53632319 -47.87575767 17.36064236 -61 31 Z " fill="#FF7733" transform="translate(150,64)"/>
<path d="M0 0 C21.76047903 21.65172102 32.15836516 51.92207325 32.25 82.3125 C32.21387499 113.10133214 21.89181522 143.01900326 1 166 C-4.94135341 161.07668748 -10.49580435 155.78812484 -15.98242188 150.36767578 C-17.00322465 149.36362363 -18.02938622 148.36499369 -19.06054688 147.37158203 C-20.56295013 145.923648 -22.04849524 144.46020309 -23.53125 142.9921875 C-24.41361328 142.12964355 -25.29597656 141.26709961 -26.20507812 140.37841797 C-28 138 -28 138 -27.86791992 135.83422852 C-26.72135018 133.41111222 -25.32211671 131.278604 -23.8125 129.0625 C-11.26145876 109.56723512 -6.79332976 87.69378338 -11.5 64.9375 C-14.16809841 53.42268133 -19.00712736 41.35584255 -27.06640625 32.54296875 C-28 31 -28 31 -27.72035217 29.08685303 C-26.49942747 25.5498464 -23.6236843 23.26121931 -20.99609375 20.703125 C-20.39821548 20.10949158 -19.80033722 19.51585815 -19.18434143 18.90423584 C-17.27565898 17.01232805 -15.3568046 15.13112501 -13.4375 13.25 C-12.14059164 11.96813998 -10.84435922 10.6855957 -9.54882812 9.40234375 C-6.37367043 6.26023928 -3.18935054 3.12769461 0 0 Z " fill="#58C8FF" transform="translate(221,45)"/>
<path d="M0 0 C2.67772683 0.29308924 5.35457042 0.59214195 8.03125 0.89453125 C9.15321777 1.01640808 9.15321777 1.01640808 10.29785156 1.14074707 C34.53420855 3.90742448 56.81771088 15.01016986 75 31 C70.07668748 36.94135341 64.78812484 42.49580435 59.36767578 47.98242188 C58.36362363 49.00322465 57.36499369 50.02938622 56.37158203 51.06054688 C54.923648 52.56295013 53.46020309 54.04849524 51.9921875 55.53125 C51.12964355 56.41361328 50.26709961 57.29597656 49.37841797 58.20507812 C47 60 47 60 44.82763672 59.86572266 C42.46060216 58.74449576 40.40407989 57.36680067 38.25 55.875 C27.4750164 48.91138028 16.44950116 44.58917746 3.81640625 42.5078125 C1 42 1 42 0 41 C-0.08871273 37.97022196 -0.1151935 34.96332978 -0.09765625 31.93359375 C-0.0962413 31.02497086 -0.09482635 30.11634796 -0.09336853 29.18019104 C-0.08775193 26.26592779 -0.07519665 23.35174019 -0.0625 20.4375 C-0.05748714 18.46679798 -0.05292386 16.49609476 -0.04882812 14.52539062 C-0.03777711 9.68356441 -0.02050138 4.84179505 0 0 Z " fill="#8CD96A" transform="translate(136,3)"/>
<path d="M0 0 C2.475 0.495 2.475 0.495 5 1 C5 4.63 5 8.26 5 12 C5.99902344 11.98839844 6.99804688 11.97679688 8.02734375 11.96484375 C9.31769531 11.95582031 10.60804688 11.94679688 11.9375 11.9375 C13.22527344 11.92589844 14.51304687 11.91429688 15.83984375 11.90234375 C19 12 19 12 20 13 C20.125 15.5 20.125 15.5 20 18 C18.2990219 19.7009781 16.08397125 19.16929662 13.7578125 19.2109375 C12.69175781 19.23929688 11.62570313 19.26765625 10.52734375 19.296875 C8.26708939 19.34877521 6.00664784 19.3931005 3.74609375 19.4296875 C2.67746094 19.460625 1.60882813 19.4915625 0.5078125 19.5234375 C-0.96727783 19.5531665 -0.96727783 19.5531665 -2.47216797 19.58349609 C-5.01894575 19.81038569 -5.01894575 19.81038569 -6.80126953 21.29931641 C-8.68801826 23.97611715 -8.69843756 26.80343812 -9 30 C-7.78884521 29.98428955 -7.78884521 29.98428955 -6.55322266 29.96826172 C-2.91051318 29.92680169 0.73214675 29.90070562 4.375 29.875 C6.28152344 29.84986328 6.28152344 29.84986328 8.2265625 29.82421875 C9.43828125 29.81777344 10.65 29.81132813 11.8984375 29.8046875 C13.01911621 29.79421387 14.13979492 29.78374023 15.29443359 29.77294922 C18 30 18 30 20 32 C21.41092649 44.79677515 21.41092649 44.79677515 18.25 49.6875 C14.22576389 53.82352045 11.84279899 55.33604557 6 56 C6.02320313 56.69867188 6.04640625 57.39734375 6.0703125 58.1171875 C6.09738281 59.48230469 6.09738281 59.48230469 6.125 60.875 C6.14820313 61.77992188 6.17140625 62.68484375 6.1953125 63.6171875 C6 66 6 66 4 68 C2.35 67.67 0.7 67.34 -1 67 C-1 63.37 -1 59.74 -1 56 C-2.49853516 56.01740234 -2.49853516 56.01740234 -4.02734375 56.03515625 C-5.31769531 56.04417969 -6.60804687 56.05320313 -7.9375 56.0625 C-9.22527344 56.07410156 -10.51304688 56.08570313 -11.83984375 56.09765625 C-15 56 -15 56 -16 55 C-16.125 52.5 -16.125 52.5 -16 50 C-14.33509755 48.33509755 -12.29864883 48.83211896 -10.01171875 48.7890625 C-8.99529297 48.76070312 -7.97886719 48.73234375 -6.93164062 48.703125 C-4.78076703 48.65132792 -2.62970045 48.60697298 -0.47851562 48.5703125 C0.54177734 48.539375 1.56207031 48.5084375 2.61328125 48.4765625 C4.01767456 48.4468335 4.01767456 48.4468335 5.45043945 48.41650391 C8.46066255 47.92474478 9.84512075 47.14288206 12 45 C12.81314911 41.39534252 12.81314911 41.39534252 13 38 C11.78884521 38.01571045 11.78884521 38.01571045 10.55322266 38.03173828 C6.91051318 38.07319831 3.26785325 38.09929438 -0.375 38.125 C-1.64601563 38.14175781 -2.91703125 38.15851563 -4.2265625 38.17578125 C-5.43828125 38.18222656 -6.65 38.18867188 -7.8984375 38.1953125 C-9.01911621 38.20578613 -10.13979492 38.21625977 -11.29443359 38.22705078 C-14 38 -14 38 -16 36 C-16.71281666 30.33173674 -17.34882297 23.77647325 -14.796875 18.5234375 C-12.25407793 15.50547128 -9.67245271 13.49280998 -6 12 C-4.68 12 -3.36 12 -2 12 C-2.02320312 11.30132812 -2.04640625 10.60265625 -2.0703125 9.8828125 C-2.08835937 8.97273438 -2.10640625 8.06265625 -2.125 7.125 C-2.14820312 6.22007813 -2.17140625 5.31515625 -2.1953125 4.3828125 C-2 2 -2 2 0 0 Z " fill="#6F5C89" transform="translate(126,94)"/>
</svg>
