<?xml version="1.0" standalone="no"?>
<!DOCTYPE svg PUBLIC "-//W3C//DTD SVG 20010904//EN"
 "http://www.w3.org/TR/2001/REC-SVG-20010904/DTD/svg10.dtd">
<svg version="1.0" xmlns="http://www.w3.org/2000/svg"
 width="433.000000pt" height="310.000000pt" viewBox="0 0 433.000000 310.000000"
 preserveAspectRatio="xMidYMid meet">

<g transform="translate(0.000000,310.000000) scale(0.100000,-0.100000)"
fill="#000000" stroke="none">
<path d="M3840 3081 c0 -24 19 -31 86 -31 l55 0 -25 25 c-19 19 -35 25 -71 25
-37 0 -45 -3 -45 -19z"/>
<path d="M117 3037 c30 -26 93 -43 93 -26 0 12 -77 48 -103 49 -15 0 -13 -4
10 -23z"/>
<path d="M143 2945 c-13 -13 -23 -31 -23 -39 0 -8 -4 -18 -10 -21 -15 -9 -12
-22 5 -29 28 -11 63 12 75 49 21 63 -5 85 -47 40z"/>
<path d="M2275 2956 c-38 -14 -125 -98 -125 -120 0 -9 -4 -16 -10 -16 -6 0
-10 -28 -10 -65 0 -36 5 -74 10 -85 6 -11 14 -28 19 -38 5 -10 12 -38 15 -62
13 -83 29 -145 48 -178 10 -18 18 -41 18 -51 0 -25 -41 -41 -105 -41 -50 0
-68 -4 -135 -33 -49 -21 -117 -75 -191 -151 -66 -68 -78 -76 -111 -76 -57 0
-48 28 16 51 39 14 76 51 76 76 0 23 -21 38 -80 57 -68 22 -80 32 -80 65 1 51
67 161 98 161 7 0 12 4 12 9 0 6 21 13 48 17 65 9 82 17 117 52 45 46 55 60
55 77 0 8 5 15 10 15 18 0 12 118 -7 141 -84 101 -230 154 -352 128 -44 -9
-56 -17 -81 -54 -17 -24 -30 -48 -30 -54 0 -6 -3 -11 -8 -11 -4 0 -13 -15 -20
-32 -7 -18 -18 -41 -23 -50 -5 -10 -9 -29 -9 -43 0 -14 -4 -33 -9 -43 -64
-130 -79 -205 -42 -217 30 -9 64 10 131 74 35 34 69 61 77 61 7 0 13 4 13 8 0
4 20 13 44 21 36 10 48 10 65 -1 33 -20 25 -28 -29 -28 -81 0 -142 -40 -155
-102 -5 -21 -3 -33 6 -39 34 -20 1 -137 -46 -163 -11 -6 -39 -23 -62 -38 -23
-16 -46 -28 -51 -28 -6 0 -12 -4 -14 -8 -4 -10 -76 -52 -89 -52 -11 0 -83 53
-109 81 -32 32 -90 49 -202 58 -172 14 -238 -3 -238 -61 0 -26 52 -72 106 -94
24 -10 44 -22 44 -26 0 -4 9 -8 19 -8 11 0 23 -4 26 -10 6 -10 75 -14 75 -4 0
10 -28 34 -39 34 -6 0 -11 4 -11 9 0 5 -8 12 -17 15 -10 3 2 2 27 -1 25 -3 49
-9 54 -14 6 -5 20 -9 33 -9 28 0 91 -35 120 -66 12 -13 29 -24 37 -24 13 0 39
-53 30 -63 -2 -2 -9 -53 -15 -113 -5 -60 -15 -140 -20 -179 -24 -175 -30 -273
-35 -606 -5 -316 -4 -357 10 -368 13 -11 19 -11 31 -1 8 7 15 19 15 26 0 8 6
14 13 14 25 0 49 -39 55 -87 3 -31 12 -54 25 -66 19 -16 20 -21 8 -53 -10 -27
-10 -42 -2 -60 6 -13 16 -35 22 -48 6 -13 23 -30 38 -37 14 -7 29 -15 32 -16
15 -9 31 80 26 139 -12 124 -25 195 -41 226 -22 42 -20 107 4 161 11 24 20 49
20 57 0 8 5 14 10 14 6 0 10 7 10 15 0 8 3 15 8 15 8 0 32 48 32 67 0 27 23
59 51 72 36 16 127 104 138 134 5 14 2 35 -10 62 -10 22 -19 61 -19 88 0 35
-4 47 -15 47 -8 0 -15 5 -15 10 0 6 -8 10 -19 10 -10 0 -44 19 -75 42 -40 30
-56 48 -56 65 0 13 6 23 14 23 7 0 24 16 37 35 13 19 27 35 32 35 4 0 7 7 7
15 0 8 5 15 10 15 6 0 10 7 10 15 0 8 5 15 10 15 6 0 10 7 10 15 0 8 5 15 10
15 6 0 10 5 10 11 0 11 66 115 87 137 21 21 34 14 27 -15 -4 -16 -11 -29 -16
-31 -4 -2 -8 -12 -8 -23 0 -10 -4 -19 -10 -19 -5 0 -10 -5 -10 -12 0 -6 -11
-26 -25 -44 -14 -18 -25 -36 -25 -39 0 -4 -12 -19 -27 -34 -16 -14 -36 -40
-45 -57 l-17 -31 72 13 c98 18 154 17 185 -2 30 -17 117 -128 145 -183 9 -19
17 -45 17 -57 0 -27 64 -93 94 -96 80 -5 109 11 140 84 19 43 26 77 26 123 0
88 14 115 58 115 38 0 117 -51 127 -82 4 -10 11 -18 16 -18 5 0 9 -6 9 -13 0
-14 53 -37 85 -37 17 0 55 -35 55 -51 0 -16 66 -75 108 -97 24 -12 58 -22 75
-22 52 0 107 -19 107 -37 0 -13 9 -15 47 -10 26 3 49 10 51 16 2 6 13 11 24
11 16 0 19 -5 14 -22 -3 -13 -6 -30 -6 -39 0 -29 -50 -69 -87 -69 -27 0 -35
-5 -44 -27 -15 -38 -7 -408 10 -448 l12 -29 32 34 c33 36 87 137 87 164 0 8 5
18 10 21 6 3 10 19 10 36 0 16 -4 29 -10 29 -5 0 -10 13 -10 29 0 17 5 33 10
36 6 3 10 13 10 21 0 15 23 44 34 44 3 0 6 -5 6 -11 0 -27 61 -64 180 -111 14
-6 33 -14 42 -19 10 -5 27 -9 37 -9 11 0 23 -5 26 -10 3 -6 15 -10 26 -10 10
0 27 -4 37 -9 9 -6 30 -12 45 -16 36 -7 50 -44 45 -116 -3 -44 -1 -56 9 -52 7
3 13 12 13 20 0 18 24 43 42 43 8 0 19 5 26 12 12 12 65 1 119 -24 12 -6 29
-8 38 -4 14 5 16 15 10 58 -4 29 -12 60 -19 70 -12 19 -61 25 -71 8 -7 -12
-85 -14 -85 -2 0 4 -12 15 -27 24 -16 9 -80 67 -143 128 -63 62 -132 119 -152
128 -21 9 -38 20 -38 24 0 5 -5 8 -10 8 -22 0 -120 96 -120 117 0 11 -7 10
-29 -6 -16 -12 -32 -21 -35 -21 -10 0 -7 45 5 57 6 6 9 55 7 130 -2 90 0 119
9 116 15 -6 110 41 141 69 25 24 31 96 11 145 -60 148 -145 262 -246 328 -36
23 -43 33 -43 59 1 47 20 66 69 66 46 0 46 0 29 46 -6 17 -8 39 -4 49 6 17 7
17 21 -1 10 -13 14 -46 15 -105 0 -107 13 -139 58 -139 17 0 32 5 32 10 0 6 7
10 16 10 19 0 210 192 219 221 4 10 11 19 16 19 5 0 9 9 9 19 0 11 5 23 10 26
12 8 13 82 1 89 -4 3 -11 18 -14 33 -16 78 -112 155 -265 213 -45 17 -105 -3
-154 -52 l-36 -36 -6 -134 c-5 -148 -14 -218 -27 -232 -5 -6 -9 -20 -9 -33 0
-13 -4 -23 -10 -23 -5 0 -10 -6 -10 -14 0 -8 -16 -28 -35 -45 -48 -42 -114
-43 -192 -4 -29 15 -53 31 -53 35 0 4 -5 8 -11 8 -7 0 -19 8 -28 18 -9 10 -32
29 -51 42 -50 35 -130 117 -130 134 0 8 5 18 10 21 6 3 10 21 10 38 0 18 7 50
14 72 14 39 63 105 79 105 4 0 23 16 43 35 44 44 57 104 39 181 -15 65 -35 97
-75 120 -16 10 -30 22 -30 26 0 4 -9 8 -19 8 -11 0 -23 5 -26 10 -8 13 -102
11 -140 -4z m513 -982 c63 -55 69 -84 16 -84 -43 0 -63 19 -75 68 -18 77 -12
78 59 16z m-101 -135 c-5 -67 -13 -111 -27 -144 -4 -11 -14 -36 -21 -55 -23
-64 -81 -140 -135 -178 -36 -25 -36 -24 -75 48 -13 25 -32 52 -42 60 -11 8
-29 24 -40 35 -40 37 -122 65 -189 65 -46 0 -117 -29 -148 -60 -36 -36 -110
-64 -110 -41 0 8 32 37 75 69 67 49 179 73 282 59 80 -10 115 -25 190 -81 33
-25 65 -46 71 -46 12 0 92 126 92 146 0 8 5 14 10 14 6 0 10 11 10 25 0 14 4
25 9 25 5 0 11 17 14 38 12 79 19 104 29 94 5 -5 8 -38 5 -73z m307 -25 c21
-20 20 -47 -2 -74 -13 -17 -24 -21 -40 -16 -18 6 -22 15 -22 47 0 38 4 43 47
58 1 1 9 -6 17 -15z m-234 -180 c0 -16 -4 -7 84 -181 l66 -133 -27 -5 c-16 -4
-47 -15 -69 -25 -62 -28 -133 -5 -197 64 -43 47 -55 92 -35 133 11 23 20 29
57 31 24 2 49 -2 54 -7 16 -16 35 -13 41 7 3 9 2 45 -3 80 -4 34 -5 64 -3 67
8 8 32 -16 32 -31z m-1320 -474 c0 -5 -4 -10 -10 -10 -5 0 -10 5 -10 10 0 6 5
10 10 10 6 0 10 -4 10 -10z m1690 -84 c0 -17 -54 -38 -75 -30 -16 6 -20 26 -8
37 13 14 83 8 83 -7z m-1729 -83 c-9 -16 -10 -14 -11 12 0 21 3 26 11 18 8 -8
8 -16 0 -30z"/>
<path d="M240 2926 c-6 -8 -10 -25 -8 -38 2 -19 12 -24 56 -32 76 -13 90 4 38
50 -41 37 -66 43 -86 20z"/>
<path d="M392 2748 c-15 -29 7 -98 34 -109 11 -4 26 -15 35 -25 23 -27 69
-114 69 -130 0 -8 3 -14 8 -14 11 0 32 -75 32 -114 0 -55 22 -69 98 -63 73 6
85 14 84 56 -1 32 -49 131 -64 131 -4 0 -8 7 -8 15 0 8 -4 15 -10 15 -5 0 -10
7 -10 15 0 8 -3 15 -8 15 -4 0 -13 12 -19 28 -23 50 -100 145 -143 173 -52 35
-83 37 -98 7z"/>
<path d="M803 1895 c-7 -8 -13 -17 -13 -21 0 -3 -8 -18 -18 -32 -11 -15 -24
-42 -30 -59 -9 -28 -8 -34 7 -42 27 -15 44 -106 39 -204 -4 -70 -2 -82 9 -72
7 8 13 23 13 34 0 11 5 23 10 26 6 3 10 18 10 33 0 43 18 12 22 -37 2 -27 9
-47 18 -51 8 -4 27 -13 43 -21 15 -7 27 -18 27 -26 0 -8 13 -13 35 -13 19 0
35 5 35 10 0 6 8 10 19 10 10 0 24 7 31 15 11 13 8 15 -15 15 -38 0 -54 26
-55 83 0 54 -14 87 -35 87 -8 0 -15 9 -15 20 0 11 -4 20 -10 20 -5 0 -10 12
-10 28 -1 32 -21 62 -43 62 -8 0 -18 -8 -21 -17 -2 -10 -2 8 1 39 10 106 -15
158 -54 113z m7 -176 c0 -11 -4 -17 -10 -14 -5 3 -10 13 -10 21 0 8 5 14 10
14 6 0 10 -9 10 -21z m130 -164 c0 -14 -4 -25 -10 -25 -5 0 -10 11 -10 25 0
14 5 25 10 25 6 0 10 -11 10 -25z"/>
<path d="M700 1655 c0 -22 4 -34 10 -30 6 3 10 17 10 30 0 13 -4 27 -10 30 -6
4 -10 -8 -10 -30z"/>
<path d="M3152 1419 c-18 -23 -29 -28 -48 -23 -20 5 -24 2 -24 -14 0 -29 15
-35 47 -18 34 17 63 51 63 71 0 22 -12 17 -38 -16z"/>
<path d="M550 1390 c0 -11 -4 -20 -10 -20 -5 0 -10 -13 -10 -28 0 -15 -4 -32
-9 -37 -5 -6 -12 -43 -16 -82 -6 -63 -5 -73 9 -73 9 0 16 8 16 18 0 10 4 22 9
27 9 10 15 47 27 158 4 39 3 57 -5 57 -6 0 -11 -9 -11 -20z"/>
<path d="M1870 1311 c0 -11 -4 -23 -10 -26 -5 -3 -10 -15 -10 -26 0 -10 -3
-19 -8 -19 -8 0 -32 -70 -32 -94 0 -15 -64 -113 -90 -136 -38 -34 -95 -176
-107 -263 -3 -20 -9 -40 -14 -43 -5 -3 -9 -23 -9 -44 0 -21 -4 -42 -10 -45
-15 -9 -13 -184 3 -199 43 -43 116 -43 198 1 48 26 80 73 94 138 7 33 34 205
35 219 0 17 30 -17 30 -35 0 -11 4 -19 9 -19 5 0 12 -10 17 -22 6 -18 8 -13
11 27 5 60 -7 106 -56 217 -12 26 -21 50 -21 53 0 3 59 5 130 5 72 0 138 4
148 9 9 5 31 15 49 21 17 7 34 18 37 26 4 11 -9 14 -68 14 -58 0 -84 5 -117
23 -47 24 -119 94 -119 114 0 7 -3 13 -8 13 -4 0 -18 25 -31 55 -24 54 -51 73
-51 36z"/>
<path d="M3771 1214 c-16 -21 -21 -41 -21 -89 0 -61 7 -75 40 -75 16 0 50 43
50 62 0 20 19 59 35 70 6 4 36 8 67 8 42 0 56 3 53 13 -8 19 -78 37 -144 37
-52 0 -62 -3 -80 -26z"/>
<path d="M2722 1183 c-22 -9 7 -33 40 -33 23 0 29 4 26 18 -3 17 -41 26 -66
15z"/>
<path d="M2603 1108 c-35 -39 -43 -64 -43 -135 0 -73 12 -116 48 -176 12 -21
22 -42 22 -48 0 -5 5 -9 10 -9 6 0 10 -9 10 -20 0 -11 5 -20 10 -20 6 0 10
-14 10 -30 0 -44 19 -71 42 -59 30 16 47 71 52 169 3 52 8 130 12 173 4 52 2
77 -5 77 -6 0 -11 6 -11 13 0 7 -15 30 -34 50 -41 45 -90 51 -123 15z"/>
<path d="M3421 1076 c-9 -11 -8 -15 5 -20 20 -8 39 7 30 23 -10 15 -21 14 -35
-3z"/>
<path d="M2404 1036 c-6 -7 -17 -29 -25 -50 -7 -20 -29 -49 -48 -63 -48 -37
-91 -84 -91 -99 0 -8 -3 -14 -8 -14 -17 0 -63 -137 -84 -245 -20 -112 -20
-114 -5 -130 30 -30 102 -16 207 39 57 30 79 51 80 76 0 8 21 38 46 65 l45 50
-5 105 c-6 141 -13 187 -38 238 -22 44 -51 55 -74 28z"/>
<path d="M3937 682 c-10 -10 -17 -21 -17 -25 0 -9 69 -29 80 -22 16 10 12 36
-7 51 -24 18 -37 17 -56 -4z"/>
<path d="M3634 655 c-6 -14 11 -45 25 -45 3 0 12 10 20 21 11 18 11 23 -1 30
-20 13 -38 11 -44 -6z"/>
<path d="M3852 560 c-18 -29 -16 -136 3 -144 26 -10 55 33 55 82 0 72 -30 106
-58 62z"/>
<path d="M3765 540 c-17 -33 -20 -136 -4 -145 22 -14 38 30 39 103 0 77 -10
90 -35 42z"/>
</g>
</svg>
