<?xml version="1.0" encoding="UTF-8"?>
<svg version="1.1" xmlns="http://www.w3.org/2000/svg" width="450" height="450">
<path d="M0 0 C148.5 0 297 0 450 0 C450 148.5 450 297 450 450 C301.5 450 153 450 0 450 C0 301.5 0 153 0 0 Z " fill="#FEFEFE" transform="translate(0,0)"/>
<path d="M0 0 C0.90234375 0.30679688 1.8046875 0.61359375 2.734375 0.9296875 C18.69855455 6.92659432 29.26511567 17.7073061 36.5 33 C39.73247545 40.32694436 40.20974294 46.17423059 40.25 54.125 C40.270625 55.12015625 40.29125 56.1153125 40.3125 57.140625 C40.39494046 72.92797235 33.44308883 86.31861515 22.61328125 97.625 C18.74104552 101.14416192 14.64307 103.63249401 10 106 C9.32195312 106.38800781 8.64390625 106.77601563 7.9453125 107.17578125 C-2.95436565 113.19467982 -18.68348726 114.16094123 -30.6640625 110.87890625 C-47.44550168 104.5648196 -58.0499325 94.6349927 -66.65234375 78.99609375 C-72.62081597 65.72705551 -73.20104809 48.7044532 -68.31640625 35.0546875 C-62.25996501 21.00086837 -52.82553158 9.91276579 -39 3 C-26.62862782 -1.69653944 -12.83225228 -4.51505173 0 0 Z " fill="#FDFAFA" transform="translate(240,196)"/>
<path d="M0 0 C0.95669586 -0.00686325 1.91339172 -0.0137265 2.89907837 -0.02079773 C6.0573008 -0.03907885 9.21502709 -0.03522626 12.37329102 -0.02954102 C14.57137717 -0.03410219 16.7694619 -0.03940757 18.96754456 -0.04542542 C23.57331131 -0.05435913 28.1789047 -0.05193036 32.78466797 -0.04199219 C38.68399719 -0.03050263 44.58272783 -0.05071291 50.48197842 -0.07990932 C55.02106013 -0.09826423 59.55999823 -0.09798024 64.09910774 -0.0922718 C66.27399599 -0.0921185 68.44889393 -0.09817019 70.62374687 -0.11056328 C73.66621212 -0.12545754 76.70756919 -0.11480711 79.75 -0.09765625 C80.64629623 -0.10732422 81.54259247 -0.11699219 82.46604919 -0.12695312 C87.95322568 -0.06225273 91.0777634 0.76117982 95.43969727 4.40405273 C99.05923611 8.38554546 98.8837792 12.60690229 98.72485352 17.74780273 C98.1936819 22.69570273 96.52335043 25.42612183 92.87719727 28.71655273 C88.54896745 31.71301953 85.08376098 31.5739691 79.95092773 31.609375 C79.07281433 31.6192746 78.19470093 31.62917419 77.28997803 31.63937378 C74.37897464 31.67103548 71.46795492 31.69576465 68.55688477 31.72045898 C66.54191659 31.74102448 64.52695277 31.76202084 62.51199341 31.78343201 C57.20196045 31.83869445 51.8918883 31.88808531 46.58178711 31.9362793 C41.16589865 31.98646389 35.75006729 32.04216581 30.33422852 32.09741211 C19.70276685 32.2050447 9.07125566 32.30647833 -1.56030273 32.40405273 C-1.89030273 33.72405273 -2.22030273 35.04405273 -2.56030273 36.40405273 C-3.67405273 36.69280273 -4.78780273 36.98155273 -5.93530273 37.27905273 C-9.56321365 38.09646603 -9.56321365 38.09646603 -11.56030273 40.40405273 C-11.91806439 42.96784203 -11.91806439 42.96784203 -11.87280273 45.84155273 C-11.88956055 46.80963867 -11.90631836 47.77772461 -11.92358398 48.77514648 C-11.7500962 51.34700892 -11.7500962 51.34700892 -10.54081726 53.04133606 C-7.43708175 55.17689835 -4.14819293 54.84316778 -0.50878906 54.83642578 C0.31094894 54.84661743 1.13068695 54.85680908 1.9752655 54.86730957 C4.68613451 54.89751587 7.39665061 54.90671706 10.10766602 54.91577148 C11.9866911 54.93261253 13.86570487 54.95076199 15.7447052 54.97016907 C20.69140083 55.01773764 25.63805064 55.0475026 30.5848999 55.0736084 C35.63229424 55.10337937 40.67953056 55.14992155 45.72680664 55.19506836 C55.63102097 55.28117947 65.53526776 55.34848999 75.43969727 55.40405273 C75.82188494 57.06019931 76.15364828 58.72862298 76.43969727 60.40405273 C74.7430152 62.1007348 72.62837708 61.52374266 70.36529541 61.5284729 C69.63953308 61.52487762 68.91377075 61.52128235 68.16601562 61.51757812 C67.02462883 61.51779716 67.02462883 61.51779716 65.86018372 61.51802063 C63.33327428 61.51732135 60.80643765 61.50952828 58.27954102 61.50170898 C56.53219137 61.49984486 54.7848412 61.49842093 53.03749084 61.49742126 C48.42937792 61.49359566 43.82129632 61.48376502 39.2131958 61.47271729 C34.51461206 61.46250407 29.81602327 61.45792384 25.11743164 61.45288086 C15.89150639 61.44214279 6.66560443 61.42506586 -2.56030273 61.40405273 C-2.23030273 62.39405273 -1.90030273 63.38405273 -1.56030273 64.40405273 C-3.99201383 68.05161938 -5.49909327 68.13492478 -9.56030273 69.40405273 C-12.05071215 71.89446215 -11.88421288 72.8355963 -11.93530273 76.27905273 C-11.96366211 77.14272461 -11.99202148 78.00639648 -12.02124023 78.89624023 C-11.39406595 82.30849353 -10.29963996 83.29255609 -7.56030273 85.40405273 C-4.94540652 85.80719422 -2.74374605 85.96883726 -0.12963867 85.94995117 C0.6122168 85.96028885 1.35407227 85.97062653 2.1184082 85.98127747 C4.56426752 86.01071538 7.00929968 86.01220478 9.45532227 86.01342773 C11.15356017 86.0284088 12.85178351 86.04513579 14.54998779 86.0635376 C19.01502144 86.10723198 23.47985855 86.12721473 27.94506836 86.14227295 C32.50329215 86.16183658 37.06130346 86.20380739 41.61938477 86.24389648 C50.55942342 86.31922112 59.49941457 86.36949889 68.43969727 86.40405273 C68.82188494 88.06019931 69.15364828 89.72862298 69.43969727 91.40405273 C67.5684523 93.2752977 64.39771248 92.57810263 61.90039062 92.609375 C61.21749466 92.6192746 60.53459869 92.62917419 59.83100891 92.63937378 C57.56388874 92.67107209 55.29674758 92.69577887 53.02954102 92.72045898 C51.46154726 92.74102134 49.89355913 92.76201761 48.32557678 92.78343201 C44.19099478 92.83872698 40.05636216 92.88810336 35.92169189 92.9362793 C31.70564243 92.98644026 27.48966684 93.04215447 23.27368164 93.09741211 C14.99574923 93.20508444 6.71775519 93.30650909 -1.56030273 93.40405273 C-1.89030273 94.72405273 -2.22030273 96.04405273 -2.56030273 97.40405273 C-4.23092773 97.80624023 -4.23092773 97.80624023 -5.93530273 98.21655273 C-9.77871224 99.06214292 -9.77871224 99.06214292 -11.56030273 102.40405273 C-11.87692713 104.81555532 -11.87692713 104.81555532 -11.81030273 107.40405273 C-11.81545898 108.27030273 -11.82061523 109.13655273 -11.82592773 110.02905273 C-11.71444825 112.66984774 -11.71444825 112.66984774 -9.56030273 115.40405273 C-6.79149996 115.70953717 -4.24269399 115.82067203 -1.47045898 115.8046875 C-0.63457245 115.81166656 0.20131409 115.81864563 1.06253052 115.82583618 C3.83418739 115.84588293 6.60547419 115.84531297 9.37719727 115.84545898 C11.29769911 115.8572224 13.21819179 115.87058405 15.13867188 115.88548279 C20.20136814 115.92174628 25.2639831 115.94189404 30.32678223 115.95703125 C38.4313597 115.98182075 46.53575742 116.02135863 54.64016724 116.07893181 C57.47760152 116.09531695 60.31486787 116.09904378 63.15234375 116.10194397 C64.88485 116.11171661 66.61735357 116.12197929 68.34985352 116.1328125 C69.54059982 116.12898308 69.54059982 116.12898308 70.75540161 116.12507629 C76.21222103 116.1765765 76.21222103 116.1765765 78.43969727 118.40405273 C78.06469727 120.52905273 78.06469727 120.52905273 77.43969727 122.40405273 C66.18269942 122.4735647 54.92575264 122.52687017 43.66858387 122.55948925 C38.44141369 122.57514481 33.21439035 122.59638126 27.98730469 122.63037109 C22.9428278 122.66296819 17.89849216 122.68090657 12.85391808 122.68868446 C10.92938704 122.69422732 9.00486374 122.70505114 7.08039284 122.7212429 C4.38464275 122.74302177 1.68947626 122.74601946 -1.00634766 122.74462891 C-1.80188553 122.75541473 -2.5974234 122.76620056 -3.41706848 122.77731323 C-7.98889649 122.75179684 -10.92504789 122.23569934 -14.56030273 119.40405273 C-18.54065752 114.4373381 -18.18644225 109.05100225 -17.98999023 102.95874023 C-17.40198068 98.09429756 -16.26384142 96.49033497 -12.56030273 93.40405273 C-11.57030273 92.41405273 -11.57030273 92.41405273 -10.56030273 91.40405273 C-11.34405273 90.82655273 -12.12780273 90.24905273 -12.93530273 89.65405273 C-16.44552583 86.64529008 -17.38434115 84.79313408 -17.96655273 80.19702148 C-18.2508297 69.26420306 -18.2508297 69.26420306 -14.68530273 65.02905273 C-12.0085786 62.40405273 -12.0085786 62.40405273 -9.56030273 62.40405273 C-9.56030273 61.74405273 -9.56030273 61.08405273 -9.56030273 60.40405273 C-10.13780273 60.15655273 -10.71530273 59.90905273 -11.31030273 59.65405273 C-14.03265949 58.14163231 -15.61693786 56.86242942 -17.56030273 54.40405273 C-18.05639648 50.90795898 -18.05639648 50.90795898 -17.99780273 46.96655273 C-17.99586914 45.01942383 -17.99586914 45.01942383 -17.99389648 43.03295898 C-17.31013555 37.31031117 -14.68468398 34.24399389 -10.56030273 30.40405273 C-11.34405273 29.82655273 -12.12780273 29.24905273 -12.93530273 28.65405273 C-16.49082451 25.60646264 -17.43105099 23.81239315 -17.86108398 19.12670898 C-17.86495117 17.91885742 -17.86881836 16.71100586 -17.87280273 15.46655273 C-17.88956055 14.2612793 -17.90631836 13.05600586 -17.92358398 11.81420898 C-17.52654464 8.08716222 -16.8856796 6.31710654 -14.56030273 3.40405273 C-9.96188006 -0.28266146 -5.62780074 -0.02820194 0 0 Z " fill="#151515" transform="translate(95.560302734375,163.595947265625)"/>
<path d="M0 0 C-0.25 2.875 -0.25 2.875 -1 6 C-2.01320313 6.48339844 -2.01320313 6.48339844 -3.046875 6.9765625 C-3.69140625 7.31429687 -4.3359375 7.65203125 -5 8 C-5.40424279 10.98829642 -5.40424279 10.98829642 -5.25 14.375 C-5.50739562 20.51185358 -5.50739562 20.51185358 -7.7265625 22.7109375 C-9.81192679 23.7194955 -11.75920706 24.42454345 -14 25 C-14.99 25.33 -15.98 25.66 -17 26 C-18.60529141 32.0198428 -18.79984158 38.35052478 -17 44.3125 C-12.68066936 50.11660054 -7.12534073 52.07110965 -0.3125 54 C8.15232634 56.46481602 8.15232634 56.46481602 11 61 C11.62500649 64.43753568 11.78173794 66.67134274 9.97265625 69.74609375 C7.82758157 72.46492701 6.31042918 73.89652361 3 75 C-1.69131123 75.54508569 -5.10330648 75.44834676 -9.375 73.3125 C-11.96801398 71.02817816 -13.27925971 68.94984049 -15 66 C-15.99 66 -16.98 66 -18 66 C-17.82244606 70.52762542 -17.49606973 72.48085725 -14.3125 75.8125 C-11.19684767 77.87000626 -8.59329184 79.05889976 -5 80 C-4.97421875 80.84304688 -4.9484375 81.68609375 -4.921875 82.5546875 C-4.86515625 83.65039062 -4.8084375 84.74609375 -4.75 85.875 C-4.70359375 86.96554687 -4.6571875 88.05609375 -4.609375 89.1796875 C-4.31153872 92.1332065 -4.31153872 92.1332065 -1.953125 93.3828125 C-1.30859375 93.58648437 -0.6640625 93.79015625 0 94 C-1.20381448 96.49361571 -2.45428722 98.68143083 -4 101 C-17.02522431 100.71795774 -27.7087348 96.18158754 -37 87 C-49.06414693 73.21846133 -51.77850609 59.27489725 -51.17919922 41.58789062 C-50.82801212 36.51625128 -49.40975044 32.42913633 -47 28 C-46.36384766 26.73542969 -46.36384766 26.73542969 -45.71484375 25.4453125 C-40.18288609 15.30595836 -32.21990119 8.21867295 -22 3 C-21.36707031 2.6596875 -20.73414063 2.319375 -20.08203125 1.96875 C-13.73083537 -0.95632102 -6.8410195 -0.25942068 0 0 Z " fill="#FDFBFA" transform="translate(226,201)"/>
<path d="M0 0 C1.85008667 0.01135986 1.85008667 0.01135986 3.73754883 0.02294922 C16.03813006 0.24510723 28.88260626 1.49488068 38.25 10.4375 C40.85513507 14.6655061 41.32608589 18.60985441 40.25 23.4375 C38.00973951 27.47112964 35.21973564 30.9181868 32.25 34.4375 C31.52167969 35.31664062 30.79335938 36.19578125 30.04296875 37.1015625 C24.00437839 44.15965513 24.00437839 44.15965513 19.32408142 44.6317749 C18.59701492 44.66273254 17.86994843 44.69369019 17.12084961 44.72558594 C15.87826637 44.77872955 15.87826637 44.77872955 14.61058044 44.83294678 C10.8079601 44.95781041 7.00543624 45.04756576 3.20141602 45.1171875 C1.20404488 45.16378474 -0.79294869 45.23189403 -2.78881836 45.32226562 C-20.27116604 46.09945219 -20.27116604 46.09945219 -25.22583008 42.09375 C-27.75527303 39.32839207 -29.76556561 36.60886013 -31.75 33.4375 C-32.92330214 31.92636852 -34.10779564 30.4237179 -35.3125 28.9375 C-38.23353679 25.03175109 -39.23426223 21.51401684 -39.15234375 16.5625 C-38.38261785 12.49715155 -35.83903838 10.03044014 -32.75 7.4375 C-23.07102619 0.85832826 -11.35613517 -0.09738468 0 0 Z " fill="#FBFBFB" transform="translate(287.75,84.5625)"/>
<path d="M0 0 C0.9095343 -0.00554901 1.8190686 -0.01109802 2.75616455 -0.01681519 C5.75725284 -0.02860859 8.75683022 -0.00433916 11.7578125 0.02148438 C13.84619071 0.02319562 15.93457106 0.02312965 18.02294922 0.0213623 C22.39767026 0.02301538 26.77187877 0.04171154 31.14648438 0.07324219 C36.75216949 0.11291945 42.35718329 0.11728728 47.96298218 0.10977936 C52.27472069 0.10670883 56.58630846 0.1188332 60.89801025 0.13591003 C62.96485448 0.14293798 65.03171578 0.14606482 67.09857178 0.1452179 C69.98790317 0.14701696 72.87643243 0.16840847 75.765625 0.1953125 C76.61876282 0.1923819 77.47190063 0.18945129 78.35089111 0.18643188 C83.002966 0.25321857 86.10870635 0.5872101 89.8828125 3.61523438 C91.16189708 6.17340354 91.12255931 8.13371431 91.1953125 10.99023438 C91.25138672 12.42496094 91.25138672 12.42496094 91.30859375 13.88867188 C90.73813757 17.54168486 89.86887554 18.43167164 86.8828125 20.61523438 C83.82463848 21.21916611 80.80469147 21.17185852 77.69555664 21.14868164 C76.30221352 21.161605 76.30221352 21.161605 74.88072205 21.17478943 C71.80952098 21.1974959 68.73922897 21.19070158 65.66796875 21.18164062 C63.53331734 21.18687434 61.39866826 21.19314989 59.26402283 21.20042419 C54.78926719 21.21083724 50.31482937 21.20625414 45.84008789 21.19165039 C40.10527317 21.17446659 34.3714607 21.1979487 28.63675785 21.23313999 C24.22807676 21.25510002 19.81963597 21.25367575 15.41091728 21.24537468 C13.29660379 21.2445543 11.1822728 21.2514342 9.06801033 21.26614571 C6.1112013 21.28356422 3.15619918 21.26907082 0.19946289 21.24633789 C-0.67394745 21.25803009 -1.54735779 21.26972229 -2.44723511 21.2817688 C-6.84477242 21.21297216 -8.58443594 21.03277444 -12.15797424 18.23204041 C-14.28431519 15.39201174 -14.79689564 14.11655527 -14.7421875 10.61523438 C-14.75507812 9.79023438 -14.76796875 8.96523437 -14.78125 8.11523438 C-12.71173399 0.32411526 -6.84062472 -0.10634727 0 0 Z " fill="#F5F5F5" transform="translate(97.1171875,168.384765625)"/>
<path d="M0 0 C0.90234375 0.30679688 1.8046875 0.61359375 2.734375 0.9296875 C18.69855455 6.92659432 29.26511567 17.7073061 36.5 33 C39.73247545 40.32694436 40.20974294 46.17423059 40.25 54.125 C40.270625 55.12015625 40.29125 56.1153125 40.3125 57.140625 C40.39494046 72.92797235 33.44308883 86.31861515 22.61328125 97.625 C18.74104552 101.14416192 14.64307 103.63249401 10 106 C9.32195312 106.38800781 8.64390625 106.77601563 7.9453125 107.17578125 C-2.95436565 113.19467982 -18.68348726 114.16094123 -30.6640625 110.87890625 C-47.44550168 104.5648196 -58.0499325 94.6349927 -66.65234375 78.99609375 C-72.62081597 65.72705551 -73.20104809 48.7044532 -68.31640625 35.0546875 C-62.25996501 21.00086837 -52.82553158 9.91276579 -39 3 C-26.62862782 -1.69653944 -12.83225228 -4.51505173 0 0 Z M-48 16 C-48.69609375 16.54914063 -49.3921875 17.09828125 -50.109375 17.6640625 C-57.62679108 24.27822316 -64.3353807 36.18693744 -65.19287109 46.26733398 C-65.72905185 62.76382853 -64.23447108 74.49159865 -54 88 C-52.88625 89.546875 -52.88625 89.546875 -51.75 91.125 C-43.38904036 99.86600326 -32.57433266 105.42142224 -20.46875 106.23828125 C-11.24764989 106.41072308 -3.68573791 105.44786553 5 102 C5.73605469 101.72285156 6.47210938 101.44570313 7.23046875 101.16015625 C17.41271813 96.74988057 25.17375879 87.78083989 30 78 C35.66671194 62.90028586 37.31678368 48.13920522 30.67578125 32.9765625 C23.18468974 18.62355252 11.50638923 10.16610645 -3.625 4.6875 C-19.97262606 1.3256898 -35.1623649 5.36181987 -48 16 Z " fill="#FB1213" transform="translate(240,196)"/>
<path d="M0 0 C1.82324219 0.2199707 1.82324219 0.2199707 4 1 C5.46582031 2.95776367 5.46582031 2.95776367 6.828125 5.48046875 C9.79684117 10.72042041 13.14104627 15.49805025 16.75 20.3125 C17.36560791 21.14080322 17.98121582 21.96910645 18.61547852 22.82250977 C22.01880174 27.38999935 25.45870565 31.92730432 28.9375 36.4375 C29.71609375 37.45070312 30.4946875 38.46390625 31.296875 39.5078125 C32.77600405 41.42794535 34.26685502 43.33702582 35.77148438 45.23730469 C51.38219656 64.97562176 60.17171074 83.26482353 60.1875 108.875 C60.19974609 109.91269531 60.21199219 110.95039063 60.22460938 112.01953125 C60.25046898 125.69064443 57.11272233 135.47591027 47.6796875 145.54296875 C26.87483141 164.61914146 -4.53193005 167.88742637 -31.47558594 167.11816406 C-45.54017857 166.45982143 -45.54017857 166.45982143 -49 163 C-49 162.01 -49 161.02 -49 160 C-46.36013552 159.3211777 -44.41965387 158.91514137 -41.7253418 159.45996094 C-17.37715496 164.2846666 13.23386981 159.30907448 34.75 147 C36.19047104 146.03460494 37.60924087 145.03572849 39 144 C39.72316406 143.47921875 40.44632812 142.9584375 41.19140625 142.421875 C48.77822261 136.44184296 52.3002678 128.39820834 54 119 C54.28464361 115.95194134 54.33387044 112.93505806 54.3125 109.875 C54.30831055 109.04605225 54.30412109 108.21710449 54.29980469 107.36303711 C54.16588015 99.97795393 53.02083059 93.11193599 51 86 C50.70996094 84.96359375 50.41992188 83.9271875 50.12109375 82.859375 C45.71627211 68.48380647 37.17440108 57.62656816 28 46 C14.1523522 28.43491368 14.1523522 28.43491368 7.875 19.3125 C7.43784668 18.67755615 7.00069336 18.0426123 6.55029297 17.38842773 C-1.09447434 6.11007346 -1.09447434 6.11007346 -0.75 2.0625 C-0.5025 1.381875 -0.255 0.70125 0 0 Z " fill="#101010" transform="translate(311,137)"/>
<path d="M0 0 C1.85008667 0.01135986 1.85008667 0.01135986 3.73754883 0.02294922 C16.03813006 0.24510723 28.88260626 1.49488068 38.25 10.4375 C40.85513507 14.6655061 41.32608589 18.60985441 40.25 23.4375 C38.00973951 27.47112964 35.21973564 30.9181868 32.25 34.4375 C31.52167969 35.31664062 30.79335938 36.19578125 30.04296875 37.1015625 C24.00437839 44.15965513 24.00437839 44.15965513 19.32408142 44.6317749 C18.59701492 44.66273254 17.86994843 44.69369019 17.12084961 44.72558594 C15.87826637 44.77872955 15.87826637 44.77872955 14.61058044 44.83294678 C10.8079601 44.95781041 7.00543624 45.04756576 3.20141602 45.1171875 C1.20404488 45.16378474 -0.79294869 45.23189403 -2.78881836 45.32226562 C-20.27116604 46.09945219 -20.27116604 46.09945219 -25.22583008 42.09375 C-27.75527303 39.32839207 -29.76556561 36.60886013 -31.75 33.4375 C-32.92330214 31.92636852 -34.10779564 30.4237179 -35.3125 28.9375 C-38.23353679 25.03175109 -39.23426223 21.51401684 -39.15234375 16.5625 C-38.38261785 12.49715155 -35.83903838 10.03044014 -32.75 7.4375 C-23.07102619 0.85832826 -11.35613517 -0.09738468 0 0 Z M-32.75 15.4375 C-33.99910183 18.129051 -33.99910183 18.129051 -33.75 21.4375 C-31.98376013 24.51772455 -29.7159262 27.0922749 -27.375 29.75 C-26.75882812 30.47767578 -26.14265625 31.20535156 -25.5078125 31.95507812 C-22.71543723 35.27494814 -22.71543723 35.27494814 -19.75 38.4375 C-14.01805212 38.80350341 -8.28433558 38.88005498 -2.54199219 38.95239258 C-0.6077386 38.983961 1.32632356 39.03164101 3.25976562 39.09594727 C14.0212821 39.8808863 14.0212821 39.8808863 23.9777832 36.78149414 C25.75965539 34.75107704 27.00265425 32.82474967 28.25 30.4375 C28.98089844 29.58800781 29.71179688 28.73851563 30.46484375 27.86328125 C31.03332031 27.16589844 31.60179687 26.46851562 32.1875 25.75 C32.77402344 25.04488281 33.36054688 24.33976562 33.96484375 23.61328125 C35.53767285 20.95046724 35.71652698 19.48220242 35.25 16.4375 C31.38781539 11.00230642 24.48166835 8.10797189 18.25 6.4375 C13.66853676 5.94995823 9.13776506 5.86021345 4.5378418 5.91601562 C2.45046409 5.93736739 0.36656711 5.9161784 -1.72070312 5.890625 C-12.49989029 5.86847413 -25.29272744 6.73734869 -32.75 15.4375 Z " fill="#101010" transform="translate(287.75,84.5625)"/>
<path d="M0 0 C1.32 0 2.64 0 4 0 C5.35091528 2.70183055 5.33858058 5.11808206 5.5625 8.125 C5.68818359 9.76855469 5.68818359 9.76855469 5.81640625 11.4453125 C5.87699219 12.28835937 5.93757813 13.13140625 6 14 C6.886875 14.226875 7.77375 14.45375 8.6875 14.6875 C13.57312917 16.62331533 16.12719727 19.6907959 19 24 C19.125 27.1875 19.125 27.1875 19 30 C16.6875 29.875 16.6875 29.875 14 29 C12.375 26.0625 12.375 26.0625 11 23 C7.58078453 20.72052302 6.09689823 20.67486895 2.0625 20.625 C0.50208984 20.58246094 0.50208984 20.58246094 -1.08984375 20.5390625 C-4.68823472 21.10900899 -5.83294102 22.11914671 -8 25 C-8.46297164 28.63763435 -8.25817924 31.20702091 -7.125 34.6875 C-3.7900464 38.31671421 0.41699071 39.40759847 5 41 C12.59639495 43.70045254 17.38950132 46.08425198 22 53 C22.64387992 59.43879923 21.74915577 62.73091622 18 68 C14.26339044 71.83759901 11.291375 72.5849902 6 73 C6 77.29 6 81.58 6 86 C4.02 86.495 4.02 86.495 2 87 C0 85 0 85 -0.1953125 82.1796875 C-0.17210937 81.08914063 -0.14890625 79.99859375 -0.125 78.875 C-0.10695312 77.77929688 -0.08890625 76.68359375 -0.0703125 75.5546875 C-0.04710937 74.71164062 -0.02390625 73.86859375 0 73 C-0.845625 72.95875 -1.69125 72.9175 -2.5625 72.875 C-7.1162938 71.71585249 -10.05972232 69.67128594 -13 66 C-13.9375 62.125 -13.9375 62.125 -14 59 C-12.02 58.505 -12.02 58.505 -10 58 C-9.1646875 59.3921875 -9.1646875 59.3921875 -8.3125 60.8125 C-5.92609432 64.10187 -4.73558759 65.50576496 -1 67 C3.37980885 67.57440116 6.87834572 67.50116468 10.9375 65.6875 C14.01609084 63.16865295 14.94208648 61.53087392 15.375 57.5625 C15.31497492 54.04479018 15.31497492 54.04479018 13.4296875 51.92578125 C10.42431572 49.54371005 7.37712771 48.63935479 3.75 47.625 C-3.26520696 45.47038374 -9.31315985 43.03026022 -13.5 36.75 C-14.52442428 31.11566647 -15.36034394 23.90050158 -12 19 C-8.49010268 16.27092217 -5.52746764 14 -1 14 C-1.01160156 13.07316406 -1.02320313 12.14632812 -1.03515625 11.19140625 C-1.04417969 9.99386719 -1.05320313 8.79632813 -1.0625 7.5625 C-1.07410156 6.36753906 -1.08570313 5.17257813 -1.09765625 3.94140625 C-1 1 -1 1 0 0 Z " fill="#FA1113" transform="translate(221,208)"/>
<path d="M0 0 C0.95669586 -0.00686325 1.91339172 -0.0137265 2.89907837 -0.02079773 C6.0573008 -0.03907885 9.21502709 -0.03522626 12.37329102 -0.02954102 C14.57137717 -0.03410219 16.7694619 -0.03940757 18.96754456 -0.04542542 C23.57331131 -0.05435913 28.1789047 -0.05193036 32.78466797 -0.04199219 C38.68399719 -0.03050263 44.58272783 -0.05071291 50.48197842 -0.07990932 C55.02106013 -0.09826423 59.55999823 -0.09798024 64.09910774 -0.0922718 C66.27399599 -0.0921185 68.44889393 -0.09817019 70.62374687 -0.11056328 C73.66621212 -0.12545754 76.70756919 -0.11480711 79.75 -0.09765625 C80.64629623 -0.10732422 81.54259247 -0.11699219 82.46604919 -0.12695312 C87.95322568 -0.06225273 91.0777634 0.76117982 95.43969727 4.40405273 C99.11065706 8.44210851 98.76181883 12.68780625 98.74047852 17.88061523 C98.43969727 20.40405273 98.43969727 20.40405273 96.43969727 23.40405273 C94.47485352 22.74389648 94.47485352 22.74389648 92.43969727 21.40405273 C91.93579102 18.90795898 91.93579102 18.90795898 91.87719727 15.96655273 C91.8864287 11.97651668 91.8864287 11.97651668 90.03735352 8.61889648 C86.20480409 5.70465963 82.2654713 6.24139869 77.6472168 6.22705078 C76.73651428 6.22047958 75.82581177 6.21390839 74.88751221 6.20713806 C71.86584395 6.18738424 68.8442254 6.17573884 65.82250977 6.16577148 C64.79227566 6.16169596 63.76204155 6.15762043 62.70058823 6.1534214 C57.24953155 6.13255342 51.79850011 6.11825391 46.34741211 6.10888672 C40.70904141 6.09781077 35.07106413 6.06339915 29.43283272 6.02371502 C25.1040268 5.99760951 20.77531556 5.98920036 16.44643784 5.98560524 C14.36756605 5.98072487 12.28869889 5.96906989 10.20990372 5.95056725 C7.30327114 5.92630115 4.39766898 5.9271177 1.4909668 5.93408203 C0.62952057 5.92127197 -0.23192566 5.90846191 -1.11947632 5.89526367 C-5.95312478 5.92997519 -5.95312478 5.92997519 -10.09939575 8.27888489 C-11.892444 10.88721555 -12.01006666 12.32841544 -11.87280273 15.46655273 C-11.84831055 16.3237793 -11.82381836 17.18100586 -11.79858398 18.06420898 C-11.63086481 20.55651197 -11.63086481 20.55651197 -10.56030273 23.40405273 C-11.55030273 23.73405273 -12.54030273 24.06405273 -13.56030273 24.40405273 C-13.56030273 25.06405273 -13.56030273 25.72405273 -13.56030273 26.40405273 C-12.90030273 26.73405273 -12.24030273 27.06405273 -11.56030273 27.40405273 C-12.55030273 27.40405273 -13.54030273 27.40405273 -14.56030273 27.40405273 C-17.69120654 23.5234959 -17.96691335 20.29316177 -17.93530273 15.40405273 C-17.94303711 14.20780273 -17.95077148 13.01155273 -17.95874023 11.77905273 C-17.41777918 7.19679435 -16.15027853 4.67913843 -12.54600525 1.78868103 C-8.33139238 -0.16585805 -4.59356698 -0.0230192 0 0 Z " fill="#060606" transform="translate(95.560302734375,163.595947265625)"/>
<path d="M0 0 C1.32 0 2.64 0 4 0 C4 33 4 66 4 100 C2.02 100.495 2.02 100.495 0 101 C-1.93006245 99.06993755 -1.12683226 96.17276871 -1.13552856 93.60401917 C-1.13350433 92.68346237 -1.1314801 91.76290558 -1.12939453 90.81445312 C-1.13114685 89.85030991 -1.13289917 88.88616669 -1.13470459 87.89280701 C-1.13912493 84.68893664 -1.13618447 81.48512098 -1.1328125 78.28125 C-1.13348549 76.06547027 -1.13445547 73.84969061 -1.13571167 71.63391113 C-1.13718889 66.98330993 -1.13503331 62.33272789 -1.13037109 57.68212891 C-1.1246738 51.70617396 -1.12795267 45.73026391 -1.13394356 39.75431061 C-1.13754852 35.17685606 -1.13641088 30.59941225 -1.13381577 26.0219574 C-1.13314632 23.81782526 -1.13397554 21.61369217 -1.13629532 19.40956116 C-1.13882078 16.33486328 -1.13498275 13.26023922 -1.12939453 10.18554688 C-1.13141876 9.26499008 -1.13344299 8.34443329 -1.13552856 7.39598083 C-1.11426228 1.11426228 -1.11426228 1.11426228 0 0 Z " fill="#FC0201" transform="translate(134,60)"/>
<path d="M0 0 C2.58447266 0.4152832 2.58447266 0.4152832 4.36450195 2.20068359 C4.89470947 3.02560303 5.42491699 3.85052246 5.97119141 4.70043945 C6.86330322 6.07159912 6.86330322 6.07159912 7.7734375 7.47045898 C10.70320538 12.23439268 13.59008217 17.01523682 16.39697266 21.8527832 C17.52781706 23.78937018 18.65929861 25.72558529 19.79150391 27.66137695 C20.28110596 28.50369873 20.77070801 29.34602051 21.27514648 30.21386719 C22.32561751 31.98006096 23.4445766 33.70543912 24.58447266 35.4152832 C24.20947266 38.1027832 24.20947266 38.1027832 23.58447266 40.4152832 C19.95278911 39.8175557 19.67291434 39.53671867 17.32275391 36.30981445 C16.50222759 34.95629957 15.69434462 33.59506662 14.89697266 32.2277832 C14.02164263 30.77537401 13.14531871 29.3235634 12.26806641 27.87231445 C11.82575684 27.13319824 11.38344727 26.39408203 10.92773438 25.63256836 C8.83832169 22.18363233 6.65219249 18.79913193 4.45947266 15.4152832 C3.70683395 14.24863882 2.95422635 13.08197436 2.20166016 11.9152832 C1.66798828 11.0902832 1.13431641 10.2652832 0.58447266 9.4152832 C-2.2740652 11.97569134 -4.06225684 14.89258878 -6.04052734 18.1652832 C-6.37955078 18.72368896 -6.71857422 19.28209473 -7.06787109 19.85742188 C-8.18872758 21.70708981 -9.30258372 23.56084439 -10.41552734 25.4152832 C-11.25664619 26.81243487 -12.09779256 28.20956996 -12.93896484 29.60668945 C-15.10353876 33.20614869 -17.26115856 36.80970767 -19.41552734 40.4152832 C-21.06552734 40.0852832 -22.71552734 39.7552832 -24.41552734 39.4152832 C-23.84679657 35.79280181 -22.91356948 33.17003063 -21.00927734 30.04418945 C-20.51693604 29.22853516 -20.02459473 28.41288086 -19.51733398 27.57250977 C-18.98873779 26.71625 -18.4601416 25.85999023 -17.91552734 24.9777832 C-17.37597412 24.09703125 -16.8364209 23.2162793 -16.28051758 22.30883789 C-15.18423132 20.52402742 -14.08456026 18.7412914 -12.98144531 16.96069336 C-11.56046151 14.65087466 -10.17226218 12.3252137 -8.79443359 9.98950195 C-8.02327968 8.71416837 -7.25121149 7.43938696 -6.47802734 6.1652832 C-5.80900391 5.04637695 -5.13998047 3.9274707 -4.45068359 2.7746582 C-2.41552734 0.4152832 -2.41552734 0.4152832 0 0 Z " fill="#FA1011" transform="translate(135.41552734375,32.584716796875)"/>
<path d="M0 0 C0.80991898 0.00359528 1.61983795 0.00719055 2.45429993 0.01089478 C3.30300659 0.01074875 4.15171326 0.01060272 5.02613831 0.01045227 C7.84523532 0.01115168 10.66426712 0.01894539 13.48335266 0.02676392 C15.43248458 0.028628 17.38161696 0.03005195 19.33074951 0.03105164 C24.47151473 0.03487761 29.61225188 0.04470858 34.75300598 0.05575562 C39.99449789 0.06596802 45.23599431 0.07054889 50.47749329 0.07559204 C60.76982335 0.08633078 71.06213255 0.10340815 81.35444641 0.12442017 C81.91694641 2.06192017 81.91694641 2.06192017 82.35444641 4.12442017 C80.55901542 5.91985116 78.12159568 5.25072134 75.73110962 5.25994873 C74.52094429 5.25691238 74.52094429 5.25691238 73.28633118 5.2538147 C72.01809006 5.25644318 72.01809006 5.25644318 70.72422791 5.25912476 C67.91474893 5.26354475 65.10533234 5.26060451 62.29585266 5.25723267 C60.35151151 5.25790573 58.40717045 5.25887577 56.46282959 5.26013184 C52.38136496 5.26160906 48.29992218 5.2594537 44.21846008 5.25479126 C38.97797943 5.24909774 33.73755003 5.25237044 28.49707127 5.25836372 C24.47974255 5.2619719 20.46242605 5.2608295 16.44509697 5.25823593 C14.51252677 5.25756718 12.57995547 5.2583933 10.64738655 5.26071548 C7.94887976 5.26324577 5.2504567 5.25939588 2.55195618 5.2538147 C1.74720352 5.25583893 0.94245087 5.25786316 0.11331177 5.25994873 C-5.41702701 5.23868345 -5.41702701 5.23868345 -7.64555359 4.12442017 C-6.04658458 -0.67248687 -4.85190404 0.0090942 0 0 Z " fill="#020202" transform="translate(91.64555358886719,280.8755798339844)"/>
<path d="M0 0 C1.32 0 2.64 0 4 0 C4.734375 1.60546875 4.734375 1.60546875 5 4 C3.8454306 6.27571705 2.68291487 8.22334403 1.25 10.3125 C0.84604004 10.91989014 0.44208008 11.52728027 0.02587891 12.15307617 C-6.33759527 21.61841119 -13.17629119 30.7672421 -20.23046875 39.7265625 C-23.8914025 44.4300138 -27.43561439 49.22323834 -31 54 C-32.65 53.67 -34.3 53.34 -36 53 C-35.50035739 48.42949879 -33.84293216 46.2663156 -30.8125 42.875 C-20.0454708 30.46115498 -10.67096304 16.93837049 -2 3 C-1.34 2.01 -0.68 1.02 0 0 Z " fill="#111111" transform="translate(263,137)"/>
<path d="M0 0 C2.43375 -0.020625 4.8675 -0.04125 7.375 -0.0625 C8.13989746 -0.071604 8.90479492 -0.08070801 9.69287109 -0.09008789 C14.77777778 -0.11111111 14.77777778 -0.11111111 17 1 C17 1.66 17 2.32 17 3 C17.66 3 18.32 3 19 3 C20.42662219 5.85324437 20.31033868 7.83454549 20 11 C18.75 13.875 18.75 13.875 16 16 C11.96735149 16.4236426 8.03930483 16.28579987 4 16 C4 19.63 4 23.26 4 27 C2.68 27 1.36 27 0 27 C0 18.09 0 9.18 0 0 Z " fill="#C7C7C7" transform="translate(183,389)"/>
<path d="M0 0 C5.36552315 4.73428513 8.81572507 10.63145014 12 17 C11.071875 16.649375 10.14375 16.29875 9.1875 15.9375 C6.0197047 14.67617372 6.0197047 14.67617372 3 16 C2.67 16.99 2.34 17.98 2 19 C1.01 19.33 0.02 19.66 -1 20 C-1 53 -1 86 -1 120 C-1.66 120 -2.32 120 -3 120 C-3.33 86.67 -3.66 53.34 -4 19 C-5.32 19.99 -6.64 20.98 -8 22 C-9.32 21.34 -10.64 20.68 -12 20 C-8.669958 12.78746663 -4.71642877 6.38824646 0 0 Z " fill="#FBE9E8" transform="translate(135,41)"/>
<path d="M0 0 C3.1875 0.3125 3.1875 0.3125 5.5 2.1875 C8.55680441 6.03680926 8.58995712 9.07635258 8.52734375 13.890625 C8.1875 16.3125 8.1875 16.3125 6.125 18.9375 C2.46276509 20.65173762 0.1876851 20.89434511 -3.8125 20.3125 C-6.17747439 18.44541495 -7.47280715 16.99188569 -8.8125 14.3125 C-9.31948467 9.15815588 -9.31948467 9.15815588 -8.8125 6.3125 C-6.375 3.375 -6.375 3.375 -3.8125 1.3125 C-2.8125 0.3125 -2.8125 0.3125 0 0 Z " fill="#B5B5B5" transform="translate(226.8125,395.6875)"/>
<path d="M0 0 C1.32 0 2.64 0 4 0 C3.93885958 12.20441536 3.86180465 24.40861563 3.76428509 36.61279774 C3.71950865 42.27936705 3.68026862 47.94586325 3.65356445 53.61254883 C3.627604 59.07860351 3.5872533 64.54437792 3.53681374 70.01025963 C3.5200958 72.09826872 3.50861231 74.18632634 3.50238609 76.27439308 C3.4927985 79.19340197 3.46480362 82.1116858 3.43237305 85.03051758 C3.43452568 86.33279297 3.43452568 86.33279297 3.4367218 87.66137695 C3.34295165 93.60742122 3.34295165 93.60742122 1.47507954 95.74558544 C0.98830329 96.15954225 0.50152704 96.57349905 0 97 C-0.15356539 84.50049066 -0.30174717 72.00093039 -0.4429636 59.50127506 C-0.50869986 53.69783586 -0.57632441 47.89443121 -0.64819336 42.09106445 C-0.71742013 36.4955372 -0.78177964 30.8999736 -0.84269524 25.3043499 C-0.86686033 23.16439196 -0.89281024 21.02445344 -0.92053413 18.88453865 C-0.95892312 15.8983985 -0.99109246 12.91225368 -1.02172852 9.92602539 C-1.03467453 9.03194977 -1.04762054 8.13787415 -1.06095886 7.21670532 C-1.07898757 5.14444902 -1.04528625 3.07183985 -1 1 C-0.67 0.67 -0.34 0.34 0 0 Z " fill="#FD080B" transform="translate(134,60)"/>
<path d="M0 0 C1.32 0 2.64 0 4 0 C5.35091528 2.70183055 5.33858058 5.11808206 5.5625 8.125 C5.64628906 9.22070312 5.73007813 10.31640625 5.81640625 11.4453125 C5.87699219 12.28835937 5.93757812 13.13140625 6 14 C6.886875 14.226875 7.77375 14.45375 8.6875 14.6875 C13.57312917 16.62331533 16.12719727 19.6907959 19 24 C19.125 27.1875 19.125 27.1875 19 30 C16.6875 29.875 16.6875 29.875 14 29 C12.3125 26.125 12.3125 26.125 11 23 C9.36221601 19.7882039 9.36221601 19.7882039 6.6171875 19.48828125 C5.25980469 19.40126953 5.25980469 19.40126953 3.875 19.3125 C2.96492187 19.24675781 2.05484375 19.18101562 1.1171875 19.11328125 C0.41851562 19.07589844 -0.28015625 19.03851563 -1 19 C-1 18.34 -1 17.68 -1 17 C-1.66 16.67 -2.32 16.34 -3 16 C-2.34 15.67 -1.68 15.34 -1 15 C-0.68758629 12.45058627 -0.48696579 9.99638487 -0.375 7.4375 C-0.33632812 6.72658203 -0.29765625 6.01566406 -0.2578125 5.28320312 C-0.16328217 3.52257575 -0.08054183 1.76132272 0 0 Z " fill="#F9090A" transform="translate(221,208)"/>
<path d="M0 0 C1.59352059 3.18704118 1.3829977 6.53174309 1 10 C-0.125 12 -0.125 12 -2 13 C-5.1875 13.1875 -5.1875 13.1875 -8 13 C-10.3297964 9.35969312 -10.3862557 6.24881273 -10 2 C-7.70989947 -2.31077747 -4.20045325 -1.01122023 0 0 Z " fill="#F9F9F9" transform="translate(231,400)"/>
<path d="M0 0 C6.1802751 2.55360817 9.57795695 8.66050982 12.9375 14.1875 C14.1168673 17.30935461 14.23645226 19.68966839 14 23 C13.67 22.34 13.34 21.68 13 21 C11.68 21 10.36 21 9 21 C8.63648438 20.29875 8.27296875 19.5975 7.8984375 18.875 C4.6999092 12.838803 1.29465084 7.31501114 -3 2 C-2.01 1.34 -1.02 0.68 0 0 Z " fill="#F90A0A" transform="translate(262,211)"/>
<path d="M0 0 C1 3 1 3 1 6 C0.34 6.66 -0.32 7.32 -1 8 C-0.443125 8.7734375 -0.443125 8.7734375 0.125 9.5625 C1.20341529 12.56665687 0.4284932 14.04055088 -0.48388672 16.99633789 C-1.36961255 20.43491493 -1.46976123 23.90258386 -1.625 27.4375 C-1.66367188 28.16904297 -1.70234375 28.90058594 -1.7421875 29.65429688 C-1.83533984 31.43583532 -1.91870286 33.21788122 -2 35 C-2.33 35 -2.66 35 -3 35 C-3.33 31.04 -3.66 27.08 -4 23 C-5.485 25.475 -5.485 25.475 -7 28 C-7.33 28 -7.66 28 -8 28 C-8.78493587 17.99206764 -5.43204869 8.34207478 0 0 Z " fill="#FB1D1D" transform="translate(177,221)"/>
<path d="M0 0 C0.99 0.33 1.98 0.66 3 1 C3 1.99 3 2.98 3 4 C4.32 4.66 5.64 5.32 7 6 C6.67 4.35 6.34 2.7 6 1 C8.27208206 2.1225346 10.54267645 3.24791521 12.8125 4.375 C13.45509766 4.69210937 14.09769531 5.00921875 14.75976562 5.3359375 C17.63194461 6.76458611 20.3267821 8.21785473 23 10 C22.01 11.485 22.01 11.485 21 13 C22.65 13.66 24.3 14.32 26 15 C21.19033095 16.80788978 17.7241588 14.62521564 13.2578125 12.671875 C0.58387097 6.16774194 0.58387097 6.16774194 -2 1 C-1.34 0.67 -0.68 0.34 0 0 Z " fill="#FB1314" transform="translate(188,291)"/>
<path d="M0 0 C2.64 0 5.28 0 8 0 C8.33 0.66 8.66 1.32 9 2 C7.02 2 5.04 2 3 2 C3 5.3 3 8.6 3 12 C6.3 12 9.6 12 13 12 C13.33 12.66 13.66 13.32 14 14 C10.37 14.33 6.74 14.66 3 15 C3 18.3 3 21.6 3 25 C2.01 25 1.02 25 0 25 C0 16.75 0 8.5 0 0 Z " fill="#B5B5B5" transform="translate(184,390)"/>
<path d="M0 0 C0.94875 0.04125 1.8975 0.0825 2.875 0.125 C2.875 1.115 2.875 2.105 2.875 3.125 C1.555 3.455 0.235 3.785 -1.125 4.125 C-1.455 5.445 -1.785 6.765 -2.125 8.125 C-0.805 8.125 0.515 8.125 1.875 8.125 C1.875 8.785 1.875 9.445 1.875 10.125 C0.555 10.125 -0.765 10.125 -2.125 10.125 C-2.125 15.405 -2.125 20.685 -2.125 26.125 C-3.115 26.125 -4.105 26.125 -5.125 26.125 C-5.125 20.845 -5.125 15.565 -5.125 10.125 C-6.115 10.125 -7.105 10.125 -8.125 10.125 C-8.125 9.465 -8.125 8.805 -8.125 8.125 C-7.135 8.125 -6.145 8.125 -5.125 8.125 C-5.186875 6.701875 -5.186875 6.701875 -5.25 5.25 C-5.0773465 0.9336624 -4.3163376 0.1726535 0 0 Z " fill="#B5B5B5" transform="translate(245.125,388.875)"/>
<path d="M0 0 C1.81242052 -0.02687279 3.62495233 -0.04633715 5.4375 -0.0625 C6.44683594 -0.07410156 7.45617187 -0.08570313 8.49609375 -0.09765625 C11 0 11 0 12 1 C12.25 3.9375 12.25 3.9375 12 7 C7.7975546 9.80163026 4.99895065 9.14489712 0 9 C0 6.03 0 3.06 0 0 Z " fill="#FCFCFC" transform="translate(187,393)"/>
<path d="M0 0 C1.32 0 2.64 0 4 0 C4.48683149 4.86831488 4.47791429 8.10789333 2.125 12.5 C-0.95256425 15.68368716 -4.43875484 15.87699123 -8.6953125 16.1875 C-11 16 -11 16 -14 14 C-13.39671875 13.76925781 -12.7934375 13.53851563 -12.171875 13.30078125 C-7.26562322 11.29871399 -3.77693858 9.74393675 -1 5 C-0.21053391 2.31492671 -0.21053391 2.31492671 0 0 Z " fill="#F90E10" transform="translate(238,263)"/>
<path d="M0 0 C0.66 0.33 1.32 0.66 2 1 C3.41168072 8.84415043 3.12673249 17.05809746 3 25 C1.078125 24.22265625 1.078125 24.22265625 -1 23 C-2.91830324 17.53283577 -3.81693082 11.79059789 -3 6 C-2.34 5.34 -1.68 4.68 -1 4 C-0.3574765 1.93125966 -0.3574765 1.93125966 0 0 Z " fill="#FB0909" transform="translate(172,243)"/>
<path d="M0 0 C0.66 0 1.32 0 2 0 C2 1.98 2 3.96 2 6 C2.99 6 3.98 6 5 6 C5 6.66 5 7.32 5 8 C4.01 8 3.02 8 2 8 C2 12.62 2 17.24 2 22 C2.99 22 3.98 22 5 22 C5 22.99 5 23.98 5 25 C3.35 25 1.7 25 0 25 C-1.53266582 21.93466836 -1.10276471 18.73245728 -1.0625 15.375 C-1.05798828 14.66859375 -1.05347656 13.9621875 -1.04882812 13.234375 C-1.03703875 11.48954725 -1.01910324 9.744763 -1 8 C-1.66 8 -2.32 8 -3 8 C-3 7.34 -3 6.68 -3 6 C-2.34 6 -1.68 6 -1 6 C-1.0309375 4.7934375 -1.0309375 4.7934375 -1.0625 3.5625 C-1 1 -1 1 0 0 Z " fill="#B3B3B3" transform="translate(259,391)"/>
<path d="M0 0 C0.33 0 0.66 0 1 0 C1.02707139 2.24993359 1.04642829 4.49996095 1.0625 6.75 C1.07410156 8.00296875 1.08570313 9.2559375 1.09765625 10.546875 C1 14 1 14 0 18 C3.3 18 6.6 18 10 18 C10.33 18.66 10.66 19.32 11 20 C9.57107422 19.93039063 9.57107422 19.93039063 8.11328125 19.859375 C6.85902344 19.82328125 5.60476562 19.7871875 4.3125 19.75 C3.07113281 19.70359375 1.82976562 19.6571875 0.55078125 19.609375 C-3.53455169 20.05880657 -5.09488246 21.17820323 -8 24 C-8 23.01 -8 22.02 -8 21 C-8.33 21 -8.66 21 -9 21 C-9.99 20.67 -10.98 20.34 -12 20 C-6.62903226 14.33064516 -6.62903226 14.33064516 -3 13 C-2.01 13 -1.02 13 0 13 C0 8.71 0 4.42 0 0 Z " fill="#F92B2E" transform="translate(220,209)"/>
<path d="M0 0 C-0.33 0.66 -0.66 1.32 -1 2 C-0.60061233 4.09821215 -0.60061233 4.09821215 0 6 C-2.08047297 6.5321441 -4.16452293 7.05031786 -6.25 7.5625 C-7.41015625 7.85253906 -8.5703125 8.14257812 -9.765625 8.44140625 C-12.71308644 8.9504485 -14.29055439 9.18054416 -17 8 C-17.33 7.34 -17.66 6.68 -18 6 C-16.35 6 -14.7 6 -13 6 C-13 4.68 -13 3.36 -13 2 C-11.21089097 1.47044766 -9.41860852 0.9516063 -7.625 0.4375 C-6.62726563 0.14746094 -5.62953125 -0.14257812 -4.6015625 -0.44140625 C-2 -1 -2 -1 0 0 Z " fill="#FB1414" transform="translate(245,299)"/>
<path d="M0 0 C0 0.99 0 1.98 0 3 C-1.98 3 -3.96 3 -6 3 C-6.33 8.28 -6.66 13.56 -7 19 C-7.99 19 -8.98 19 -10 19 C-10 12.73 -10 6.46 -10 0 C-5.65055731 -0.86988854 -4.02871475 -1.03595522 0 0 Z " fill="#B8B8B8" transform="translate(217,397)"/>
<path d="M0 0 C0 4.66666667 0 9.33333333 0 14 C-1.98 14.99 -1.98 14.99 -4 16 C-5.24377393 13.51245214 -5.13306235 11.77344699 -5.125 9 C-5.12757813 8.113125 -5.13015625 7.22625 -5.1328125 6.3125 C-5 4 -5 4 -4 2 C-1.9375 0.875 -1.9375 0.875 0 0 Z " fill="#FB0506" transform="translate(212,228)"/>
<path d="M0 0 C3.64575537 3.64575537 4.125 8.45017592 4.125 13.4375 C4.08375 14.613125 4.0425 15.78875 4 17 C3.67 17 3.34 17 3 17 C3 14.69 3 12.38 3 10 C-0.47140452 10.76429774 -0.47140452 10.76429774 -2 15 C-2.66 10.71 -3.32 6.42 -4 2 C-3.01 2 -2.02 2 -1 2 C-0.67 1.34 -0.34 0.68 0 0 Z " fill="#FD2224" transform="translate(276,230)"/>
<path d="M0 0 C0.99 0 1.98 0 3 0 C3 6.27 3 12.54 3 19 C2.01 19 1.02 19 0 19 C0 12.73 0 6.46 0 0 Z " fill="#B2B2B2" transform="translate(249,397)"/>
<path d="M0 0 C1.32 0 2.64 0 4 0 C4.33 4.29 4.66 8.58 5 13 C4.01 12.67 3.02 12.34 2 12 C1.34 12.66 0.68 13.32 0 14 C0 9.38 0 4.76 0 0 Z " fill="#FC0302" transform="translate(275,240)"/>
<path d="M0 0 C1.62490954 -0.02698189 3.24994633 -0.04638757 4.875 -0.0625 C5.77992188 -0.07410156 6.68484375 -0.08570313 7.6171875 -0.09765625 C10 0 10 0 12 1 C12 1.66 12 2.32 12 3 C11.34 3 10.68 3 10 3 C10 3.66 10 4.32 10 5 C6.7 5 3.4 5 0 5 C0 3.35 0 1.7 0 0 Z " fill="#FB0605" transform="translate(224,195)"/>
<path d="M0 0 C1.32 0.99 2.64 1.98 4 3 C2.125 7.75 2.125 7.75 1 10 C-0.65 9.67 -2.3 9.34 -4 9 C-3.46930939 5.17902761 -2.50298434 2.93828597 0 0 Z " fill="#F82225" transform="translate(115,63)"/>
<path d="M0 0 C0.66 1.32 1.32 2.64 2 4 C3.43793392 3.68950274 4.8753318 3.3765224 6.3125 3.0625 C7.11300781 2.88847656 7.91351563 2.71445312 8.73828125 2.53515625 C11.145401 2.00113841 11.145401 2.00113841 14 1 C12.63016497 4.16115776 12.0109362 4.9927092 9 7 C2.67741935 7.4516129 2.67741935 7.4516129 -1 5 C-0.67 3.35 -0.34 1.7 0 0 Z " fill="#C0C0C0" transform="translate(221,409)"/>
<path d="M0 0 C1.32 0.66 2.64 1.32 4 2 C4 6.95 4 11.9 4 17 C3.67 17 3.34 17 3 17 C2.67 13.04 2.34 9.08 2 5 C0.515 7.475 0.515 7.475 -1 10 C-1.33 10 -1.66 10 -2 10 C-2.1953125 3.9453125 -2.1953125 3.9453125 -2 2 C-1.34 1.34 -0.68 0.68 0 0 Z " fill="#FC2E31" transform="translate(171,239)"/>
<path d="M0 0 C-0.33 1.32 -0.66 2.64 -1 4 C-3.31 4 -5.62 4 -8 4 C-8 3.34 -8 2.68 -8 2 C-9.32 2 -10.64 2 -12 2 C-12 1.34 -12 0.68 -12 0 C-7.91556885 -1.53166168 -4.20544343 -0.63081652 0 0 Z " fill="#FA0D0D" transform="translate(230,250)"/>
<path d="M0 0 C2.45823172 3.68734758 3.01242616 6.69699971 4 11 C1.69 10.67 -0.62 10.34 -3 10 C-3.625 7.125 -3.625 7.125 -4 4 C-3.34 3.34 -2.68 2.68 -2 2 C-1.67 2.99 -1.34 3.98 -1 5 C-0.67 3.35 -0.34 1.7 0 0 Z " fill="#FA1A1C" transform="translate(175,262)"/>
<path d="M0 0 C0 1.66666667 0 3.33333333 0 5 C0.66 5.33 1.32 5.66 2 6 C0.375 6.75 0.375 6.75 -2 7 C-5.25 5.1875 -5.25 5.1875 -8 3 C-8 2.34 -8 1.68 -8 1 C-5.29120665 -0.35439668 -2.99066732 -0.06501451 0 0 Z " fill="#FAEFEE" transform="translate(222,241)"/>
<path d="M0 0 C1.32 0 2.64 0 4 0 C3.25 6.625 3.25 6.625 1 10 C0.01 9.67 -0.98 9.34 -2 9 C-1.34 6.03 -0.68 3.06 0 0 Z " fill="#FA090A" transform="translate(130,38)"/>
<path d="M0 0 C0.33 0 0.66 0 1 0 C1 4.62 1 9.24 1 14 C1.99 14 2.98 14 4 14 C4 14.99 4 15.98 4 17 C2.35 17 0.7 17 -1 17 C-2.35439668 14.29120665 -2.06501451 11.99066732 -2 9 C-1.67 9 -1.34 9 -1 9 C-0.67 6.03 -0.34 3.06 0 0 Z " fill="#BDBDBD" transform="translate(260,399)"/>
<path d="M0 0 C2.96175123 0.61277612 4.38058783 1.25372522 7 3 C8.61785127 5.63965207 9 6.84012675 9 10 C7 9 7 9 4 7 C4 6.01 4 5.02 4 4 C2.35 4 0.7 4 -1 4 C-0.67 2.68 -0.34 1.36 0 0 Z " fill="#FB0A0A" transform="translate(187,288)"/>
<path d="M0 0 C0.33 0 0.66 0 1 0 C1.33 2.64 1.66 5.28 2 8 C2.66 7.67 3.32 7.34 4 7 C4.33 9.31 4.66 11.62 5 14 C1.125 13.125 1.125 13.125 0 12 C-0.07244053 9.98035801 -0.08377188 7.95832876 -0.0625 5.9375 C-0.05347656 4.83277344 -0.04445312 3.72804688 -0.03515625 2.58984375 C-0.02355469 1.73519531 -0.01195312 0.88054687 0 0 Z " fill="#FA3A3B" transform="translate(221,281)"/>
<path d="M0 0 C-0.5625 1.9375 -0.5625 1.9375 -2 4 C-5.5 4.875 -5.5 4.875 -9 5 C-9.66 4.34 -10.32 3.68 -11 3 C-7.18178484 -0.02823961 -4.81391924 -1.49397494 0 0 Z " fill="#FB0705" transform="translate(233,303)"/>
<path d="M0 0 C4.875 4.625 4.875 4.625 6 8 C5.01 8.495 5.01 8.495 4 9 C3.01 10.485 3.01 10.485 2 12 C1.34 10.35 0.68 8.7 0 7 C0.66 7 1.32 7 2 7 C1.34 6.01 0.68 5.02 0 4 C0 2.68 0 1.36 0 0 Z " fill="#F91D1C" transform="translate(183,280)"/>
<path d="M0 0 C1.98 0 3.96 0 6 0 C4.5361389 4.39158329 2.02168662 4.87947433 -2 7 C-1.125 2.25 -1.125 2.25 0 0 Z " fill="#F9EFEC" transform="translate(191,200)"/>
<path d="M0 0 C0.78375 0.04125 1.5675 0.0825 2.375 0.125 C2.705 1.115 3.035 2.105 3.375 3.125 C-1.375 6.125 -1.375 6.125 -3.625 6.125 C-4.25 4.25 -4.25 4.25 -4.625 2.125 C-2.625 0.125 -2.625 0.125 0 0 Z " fill="#F90605" transform="translate(247.625,297.875)"/>
<path d="M0 0 C0 0.66 0 1.32 0 2 C-0.66 2 -1.32 2 -2 2 C-2 2.66 -2 3.32 -2 4 C-0.68 3.67 0.64 3.34 2 3 C2.33 3.66 2.66 4.32 3 5 C0.875 6.1875 0.875 6.1875 -2 7 C-5.3125 5.625 -5.3125 5.625 -8 4 C-2 0 -2 0 0 0 Z " fill="#FB1B1D" transform="translate(253,294)"/>
<path d="M0 0 C0.66 0.33 1.32 0.66 2 1 C2 2.65 2 4.3 2 6 C0.35 6.66 -1.3 7.32 -3 8 C-3 7.34 -3 6.68 -3 6 C-3.66 5.67 -4.32 5.34 -5 5 C-3.35 3.35 -1.7 1.7 0 0 Z " fill="#F3EFEC" transform="translate(266,289)"/>
<path d="M0 0 C0.66 0.33 1.32 0.66 2 1 C2 4.96 2 8.92 2 13 C1.01 11.68 0.02 10.36 -1 9 C-1.99 9.495 -1.99 9.495 -3 10 C-2.39009109 6.44219804 -1.4216319 3.3171411 0 0 Z " fill="#FD0201" transform="translate(172,243)"/>
<path d="M0 0 C0.66 0 1.32 0 2 0 C2.75 1.6875 2.75 1.6875 3 4 C1.0625 6.75 1.0625 6.75 -1 9 C-2.125 7.25 -2.125 7.25 -3 5 C-2.24307556 2.96212652 -1.53745581 1.53745581 0 0 Z " fill="#FAF5F3" transform="translate(124,40)"/>
<path d="M0 0 C2.42945561 3.64418341 2.0828781 4.92923364 1.625 9.1875 C1.51414063 10.27417969 1.40328125 11.36085938 1.2890625 12.48046875 C1.14597656 13.72763672 1.14597656 13.72763672 1 15 C1.66 15 2.32 15 3 15 C3 16.32 3 17.64 3 19 C2.01 19 1.02 19 0 19 C0 12.73 0 6.46 0 0 Z " fill="#C1C1C1" transform="translate(249,397)"/>
<path d="M0 0 C0 0.99 0 1.98 0 3 C-2.64 3 -5.28 3 -8 3 C-8 2.01 -8 1.02 -8 0 C-4.71023192 -1.09658936 -3.28696233 -0.79953138 0 0 Z " fill="#C4C4C4" transform="translate(217,397)"/>
<path d="M0 0 C-0.33 0.66 -0.66 1.32 -1 2 C-0.60061233 4.09821215 -0.60061233 4.09821215 0 6 C-1.65 6.33 -3.3 6.66 -5 7 C-4.67 5.35 -4.34 3.7 -4 2 C-5.32 1.67 -6.64 1.34 -8 1 C-2.25 -1.125 -2.25 -1.125 0 0 Z " fill="#FD2D2F" transform="translate(245,299)"/>
<path d="M0 0 C0.99 0.99 1.98 1.98 3 3 C2.01 5.97 1.02 8.94 0 12 C-0.99 11.34 -1.98 10.68 -3 10 C-2.690625 9.0925 -2.38125 8.185 -2.0625 7.25 C-1.2727737 4.83436662 -0.57050703 2.47219715 0 0 Z " fill="#EFE9E9" transform="translate(172,221)"/>
<path d="M0 0 C1.32 0 2.64 0 4 0 C5.32229189 2.64458379 5.09677194 4.67761301 5.0625 7.625 C5.05347656 8.62789062 5.04445312 9.63078125 5.03515625 10.6640625 C5.02355469 11.43492187 5.01195312 12.20578125 5 13 C6.32 13.66 7.64 14.32 9 15 C7.0625 15.5625 7.0625 15.5625 5 16 C3.05909174 14.05909174 3.60080565 10.52706098 3.4375 7.9375 C3.35371094 6.64714844 3.26992187 5.35679687 3.18359375 4.02734375 C3.12300781 3.02832031 3.06242188 2.02929688 3 1 C2.01 0.67 1.02 0.34 0 0 Z " fill="#FBBFBB" transform="translate(222,207)"/>
<path d="M0 0 C3.67230705 3.07999946 4.56802365 5.2482602 5 10 C3.68 10.33 2.36 10.66 1 11 C1.33 8.69 1.66 6.38 2 4 C1.01 3.67 0.02 3.34 -1 3 C-0.67 2.01 -0.34 1.02 0 0 Z " fill="#FA1D1E" transform="translate(155,62)"/>
<path d="M0 0 C0.66 0.66 1.32 1.32 2 2 C1.34 2 0.68 2 0 2 C-0.33 2.66 -0.66 3.32 -1 4 C-3.875 4.125 -3.875 4.125 -7 4 C-7.66 3.34 -8.32 2.68 -9 2 C-5.54754176 -0.30163882 -4.05261287 -0.34490322 0 0 Z " fill="#C0C0C0" transform="translate(230,396)"/>
<path d="M0 0 C1.32 0 2.64 0 4 0 C4 2.31 4 4.62 4 7 C3.01 7.495 3.01 7.495 2 8 C-0.1519437 4.77208445 -0.20086443 3.71599191 0 0 Z " fill="#F90504" transform="translate(238,263)"/>
<path d="M0 0 C1.99965715 0.03703069 4.00056665 0.04760556 6 0 C2.73454239 1.88391785 -0.28111761 2.49287967 -4 3 C-4 2.34 -4 1.68 -4 1 C-5.98 1.99 -5.98 1.99 -8 3 C-8 2.01 -8 1.02 -8 0 C-5.13118749 -1.43440626 -3.12952645 -0.54164881 0 0 Z " fill="#FBE8E4" transform="translate(208,195)"/>
<path d="M0 0 C0.556875 0.268125 1.11375 0.53625 1.6875 0.8125 C-0.3125 2.8125 -0.3125 2.8125 -2.3125 3.5 C-5.42485543 5.54248325 -5.53574764 8.31711439 -6.3125 11.8125 C-6.6425 11.8125 -6.9725 11.8125 -7.3125 11.8125 C-7.74747796 7.37572479 -7.78752251 5.44586334 -5.0625 1.8125 C-2.3125 -0.1875 -2.3125 -0.1875 0 0 Z " fill="#FBDFDB" transform="translate(219.3125,228.1875)"/>
<path d="M0 0 C0.66 1.32 1.32 2.64 2 4 C1.34 4 0.68 4 0 4 C0 5.98 0 7.96 0 10 C-1.32 9.34 -2.64 8.68 -4 8 C-2.68 5.36 -1.36 2.72 0 0 Z " fill="#FBE2E2" transform="translate(127,53)"/>
<path d="M0 0 C0.99 0.495 0.99 0.495 2 1 C1.01 1.495 1.01 1.495 0 2 C0 1.34 0 0.68 0 0 Z M0 2 C0 2.66 0 3.32 0 4 C2.475 4.99 2.475 4.99 5 6 C1.69564916 7.12377697 -0.0506862 6.89554742 -3.25 5.5625 C-3.95640625 5.27503906 -4.6628125 4.98757813 -5.390625 4.69140625 C-5.92171875 4.46324219 -6.4528125 4.23507812 -7 4 C-4.35261084 2.5393715 -3.10551666 2 0 2 Z " fill="#FC3637" transform="translate(209,300)"/>
<path d="M0 0 C0.99 0.33 1.98 0.66 3 1 C3 1.99 3 2.98 3 4 C4.32 4.66 5.64 5.32 7 6 C6.34 6.66 5.68 7.32 5 8 C2.69 6.02 0.38 4.04 -2 2 C-1.34 1.34 -0.68 0.68 0 0 Z " fill="#F92326" transform="translate(188,291)"/>
<path d="M0 0 C0.391875 0.639375 0.78375 1.27875 1.1875 1.9375 C3.38472296 4.43778819 4.75791433 4.64950425 8 5 C8 5.66 8 6.32 8 7 C6.3125 7.75 6.3125 7.75 4 8 C1.25 6.0625 1.25 6.0625 -1 4 C-0.67 2.68 -0.34 1.36 0 0 Z " fill="#F9ECEA" transform="translate(190,284)"/>
<path d="M0 0 C5.94 0.33 11.88 0.66 18 1 C18 1.33 18 1.66 18 2 C9.585 2.495 9.585 2.495 1 3 C0.67 2.01 0.34 1.02 0 0 Z " fill="#FAE3E1" transform="translate(213,307)"/>
<path d="M0 0 C0.33 0.99 0.66 1.98 1 3 C1.66 3 2.32 3 3 3 C3 4.65 3 6.3 3 8 C2.01 8.33 1.02 8.66 0 9 C-0.87890625 2.84765625 -0.87890625 2.84765625 -1 1 C-0.67 0.67 -0.34 0.34 0 0 Z " fill="#FC0708" transform="translate(274,264)"/>
<path d="M0 0 C0.66 0 1.32 0 2 0 C4.42857143 6.28571429 4.42857143 6.28571429 3 10 C3 9.01 3 8.02 3 7 C2.34 7 1.68 7 1 7 C0.34 6.34 -0.32 5.68 -1 5 C-0.625 2.375 -0.625 2.375 0 0 Z " fill="#FB2021" transform="translate(274,260)"/>
<path d="M0 0 C0.33 0 0.66 0 1 0 C1.05395478 1.62463842 1.09277195 3.24978541 1.125 4.875 C1.14820313 5.77992188 1.17140625 6.68484375 1.1953125 7.6171875 C1 10 1 10 -1 12 C-1 10.02 -1 8.04 -1 6 C-1.66 6 -2.32 6 -3 6 C-1.125 1.125 -1.125 1.125 0 0 Z " fill="#FB181A" transform="translate(181,215)"/>
<path d="M0 0 C0.99 0 1.98 0 3 0 C1.55746343 3.36591866 -0.33264727 5.51047079 -3 8 C-3.33 6.02 -3.66 4.04 -4 2 C-2.68 2.33 -1.36 2.66 0 3 C0 2.01 0 1.02 0 0 Z " fill="#FAEDE8" transform="translate(182,210)"/>
<path d="M0 0 C0.33 1.98 0.66 3.96 1 6 C-0.65 5.67 -2.3 5.34 -4 5 C-4.33 4.01 -4.66 3.02 -5 2 C-2 0 -2 0 0 0 Z " fill="#FBF1EE" transform="translate(159,57)"/>
<path d="M0 0 C0.99 0.33 1.98 0.66 3 1 C2.67 3.31 2.34 5.62 2 8 C-0.2477975 5.94766315 -1.0022242 4.99332739 -2 2 C-1.34 1.34 -0.68 0.68 0 0 Z " fill="#F9F2ED" transform="translate(141,32)"/>
<path d="M0 0 C1.65 0 3.3 0 5 0 C5.33 0.66 5.66 1.32 6 2 C4 4 4 4 1.375 4.125 C0.59125 4.08375 -0.1925 4.0425 -1 4 C-0.67 2.68 -0.34 1.36 0 0 Z " fill="#F92424" transform="translate(133,33)"/>
<path d="M0 0 C1.98 0 3.96 0 6 0 C6 0.99 6 1.98 6 3 C3.23735711 3.59732819 0.83967231 4 -2 4 C-1.34 2.68 -0.68 1.36 0 0 Z " fill="#C0C0C0" transform="translate(242,389)"/>
<path d="M0 0 C2.64 0 5.28 0 8 0 C7.01 0.33 6.02 0.66 5 1 C5 1.66 5 2.32 5 3 C1.7 3 -1.6 3 -5 3 C-5 2.67 -5 2.34 -5 2 C-3.35 1.67 -1.7 1.34 0 1 C0 0.67 0 0.34 0 0 Z " fill="#C1C1C1" transform="translate(192,390)"/>
<path d="M0 0 C0.33 0.66 0.66 1.32 1 2 C-0.32 3.65 -1.64 5.3 -3 7 C-4.65 6.67 -6.3 6.34 -8 6 C-5.33333333 4 -2.66666667 2 0 0 Z " fill="#FBE3E0" transform="translate(258,296)"/>
<path d="M0 0 C0.66 0.66 1.32 1.32 2 2 C3.32 1.34 4.64 0.68 6 0 C6 0.99 6 1.98 6 3 C4 4.6875 4 4.6875 2 6 C1.01 4.35 0.02 2.7 -1 1 C-0.67 0.67 -0.34 0.34 0 0 Z " fill="#FC1517" transform="translate(258,289)"/>
<path d="M0 0 C3 1 3 1 4 3 C4.04022391 5.3329866 4.04320247 7.66706666 4 10 C2 6.25 2 6.25 2 4 C0.68 3.67 -0.64 3.34 -2 3 C-1.34 3 -0.68 3 0 3 C0 2.01 0 1.02 0 0 Z " fill="#F6E7E4" transform="translate(233,259)"/>
<path d="M0 0 C0.99 0.33 1.98 0.66 3 1 C2.67 2.98 2.34 4.96 2 7 C1.01 7.33 0.02 7.66 -1 8 C-0.67 5.36 -0.34 2.72 0 0 Z " fill="#FA0908" transform="translate(182,215)"/>
<path d="M0 0 C1.8871875 0.061875 1.8871875 0.061875 3.8125 0.125 C4.1425 0.785 4.4725 1.445 4.8125 2.125 C0.47976186 3.05344389 -2.85476186 3.05344389 -7.1875 2.125 C-4.09861478 0.06574319 -3.47814073 -0.1140374 0 0 Z " fill="#B0B0B0" transform="translate(193.1875,401.875)"/>
<path d="M0 0 C2.31 0 4.62 0 7 0 C7 0.66 7 1.32 7 2 C7.99 2.33 8.98 2.66 10 3 C6.06329512 4.31223496 3.87511856 3.24296256 0 2 C0 1.34 0 0.68 0 0 Z " fill="#FB0501" transform="translate(212,275)"/>
<path d="M0 0 C0.99 0 1.98 0 3 0 C2.67 2.64 2.34 5.28 2 8 C0.4375 6.25 0.4375 6.25 -1 4 C-0.6875 1.75 -0.6875 1.75 0 0 Z " fill="#FB0708" transform="translate(174,232)"/>
<path d="M0 0 C1.19156292 4.76625167 0.3415946 5.87879351 -2 10 C-2.99 10 -3.98 10 -5 10 C-3.35 6.7 -1.7 3.4 0 0 Z " fill="#FBD7D4" transform="translate(276,272)"/>
<path d="M0 0 C2.31 0.33 4.62 0.66 7 1 C7 1.66 7 2.32 7 3 C4.69 3.33 2.38 3.66 0 4 C0 2.68 0 1.36 0 0 Z " fill="#FA0504" transform="translate(202,299)"/>
<path d="M0 0 C0.66 0.66 1.32 1.32 2 2 C0.35 3.65 -1.3 5.3 -3 7 C-3 3 -3 3 -1.5 1.25 C-1.005 0.8375 -0.51 0.425 0 0 Z " fill="#FCEAE9" transform="translate(262,281)"/>
<path d="M0 0 C0 0.99 0 1.98 0 3 C-0.33 3.33 -0.66 3.66 -1 4 C-3.69082872 3.82364548 -6.32851446 3.38164079 -9 3 C-6.03312999 1.35173889 -3.34373475 0.55728913 0 0 Z " fill="#F80501" transform="translate(233,275)"/>
<path d="M0 0 C0.99 0 1.98 0 3 0 C4.60725635 3.21451269 4.05748185 6.43612536 4 10 C3.67 10 3.34 10 3 10 C3 8.02 3 6.04 3 4 C2.01 3.67 1.02 3.34 0 3 C0 2.01 0 1.02 0 0 Z " fill="#FB383A" transform="translate(239,259)"/>
<path d="M0 0 C0.66 0 1.32 0 2 0 C0.60667426 3.36720387 -0.9789286 4.9859524 -4 7 C-4.33 5.68 -4.66 4.36 -5 3 C-3.68 3 -2.36 3 -1 3 C-0.67 2.01 -0.34 1.02 0 0 Z " fill="#FB1B1A" transform="translate(191,210)"/>
<path d="M0 0 C0 0.99 0 1.98 0 3 C-0.66 3.66 -1.32 4.32 -2 5 C-4.625 4.625 -4.625 4.625 -7 4 C-4.61426621 2.10786631 -2.92824652 0.97608217 0 0 Z " fill="#FBE9E5" transform="translate(207,203)"/>
<path d="M0 0 C0.99 1.32 1.98 2.64 3 4 C2.34 5.32 1.68 6.64 1 8 C0.01 6.68 -0.98 5.36 -2 4 C-1.34 2.68 -0.68 1.36 0 0 Z " fill="#EFE2E1" transform="translate(174,276)"/>
<path d="M0 0 C0.99 0 1.98 0 3 0 C3 0.66 3 1.32 3 2 C2.34 2 1.68 2 1 2 C1.309375 2.928125 1.309375 2.928125 1.625 3.875 C1.74875 4.57625 1.8725 5.2775 2 6 C1.34 6.66 0.68 7.32 0 8 C-0.38063221 5.6739143 -0.71269945 3.33944736 -1 1 C-0.67 0.67 -0.34 0.34 0 0 Z " fill="#F92A2A" transform="translate(208,266)"/>
<path d="M0 0 C2.0625 0.4375 2.0625 0.4375 4 1 C4 1.66 4 2.32 4 3 C4.66 3 5.32 3 6 3 C6 3.66 6 4.32 6 5 C4.35 5 2.7 5 1 5 C0.34 3.68 -0.32 2.36 -1 1 C-0.67 0.67 -0.34 0.34 0 0 Z " fill="#FAF3F1" transform="translate(241,256)"/>
<path d="M0 0 C3 1.8125 3 1.8125 6 4 C6 4.99 6 5.98 6 7 C3.45620509 5.15794162 1.16687491 3.27521866 -1 1 C-0.67 0.67 -0.34 0.34 0 0 Z " fill="#FBF0ED" transform="translate(251,208)"/>
<path d="M0 0 C1.98 0.495 1.98 0.495 4 1 C3.34 2.65 2.68 4.3 2 6 C1.01 5.67 0.02 5.34 -1 5 C-0.67 3.35 -0.34 1.7 0 0 Z " fill="#F90809" transform="translate(114,66)"/>
<path d="M0 0 C0.61875 0.268125 1.2375 0.53625 1.875 0.8125 C2.205 1.8025 2.535 2.7925 2.875 3.8125 C0.235 3.1525 -2.405 2.4925 -5.125 1.8125 C-2.125 -0.1875 -2.125 -0.1875 0 0 Z " fill="#F6DEDB" transform="translate(210.125,297.1875)"/>
<path d="M0 0 C0.99 0 1.98 0 3 0 C3.33 1.32 3.66 2.64 4 4 C3.01 4 2.02 4 1 4 C0.67 4.66 0.34 5.32 0 6 C-1.125 2.25 -1.125 2.25 0 0 Z " fill="#FBF2F1" transform="translate(170,272)"/>
<path d="M0 0 C0.66 1.32 1.32 2.64 2 4 C1.360625 4.12375 0.72125 4.2475 0.0625 4.375 C-0.9584375 4.684375 -0.9584375 4.684375 -2 5 C-2.33 5.66 -2.66 6.32 -3 7 C-3.33 6.01 -3.66 5.02 -4 4 C-2.66666667 2.66666667 -1.33333333 1.33333333 0 0 Z " fill="#F81D1D" transform="translate(212,240)"/>
<path d="M0 0 C1.875 0.25 1.875 0.25 4 1 C5.25 3.0625 5.25 3.0625 6 5 C5.01 5.495 5.01 5.495 4 6 C3.34 5.67 2.68 5.34 2 5 C2 4.01 2 3.02 2 2 C1.34 2 0.68 2 0 2 C0 1.34 0 0.68 0 0 Z " fill="#FA1011" transform="translate(265,215)"/>
<path d="M0 0 C2.97 0.495 2.97 0.495 6 1 C6 1.99 6 2.98 6 4 C5.01 4 4.02 4 3 4 C1.3125 2 1.3125 2 0 0 Z " fill="#FBE1E0" transform="translate(264,211)"/>
<path d="M0 0 C0.66 0.33 1.32 0.66 2 1 C0.6875 3 0.6875 3 -1 5 C-1.99 5 -2.98 5 -4 5 C-4.33 5.66 -4.66 6.32 -5 7 C-5 6.01 -5 5.02 -5 4 C-2.5 1.8125 -2.5 1.8125 0 0 Z " fill="#1C1C1C" transform="translate(258,90)"/>
<path d="M0 0 C0.99 0.33 1.98 0.66 3 1 C2.67 2.65 2.34 4.3 2 6 C1.01 6 0.02 6 -1 6 C-0.67 4.02 -0.34 2.04 0 0 Z " fill="#FB0707" transform="translate(147,51)"/>
<path d="M0 0 C0.99 0.99 1.98 1.98 3 3 C2.01 3.495 2.01 3.495 1 4 C0.67 2.68 0.34 1.36 0 0 Z M0 4 C0.33 4.99 0.66 5.98 1 7 C0.34 7.66 -0.32 8.32 -1 9 C-1.66 7.68 -2.32 6.36 -3 5 C-2.01 4.67 -1.02 4.34 0 4 Z " fill="#FB2528" transform="translate(146,47)"/>
</svg>
