<?xml version="1.0" encoding="UTF-8"?>
<svg version="1.1" xmlns="http://www.w3.org/2000/svg" width="158" height="154">
<path d="M0,0 L26,0 L26,1 L31,1 L31,2 L35,2 L35,3 L38,3 L38,4 L41,4 L41,5 L44,5 L44,6 L46,6 L46,7 L48,7 L48,8 L50,8 L50,9 L52,9 L52,10 L54,10 L54,11 L56,11 L56,12 L57,12 L57,13 L59,13 L59,14 L60,14 L60,15 L62,15 L62,16 L63,16 L63,17 L64,17 L64,18 L65,18 L65,19 L67,19 L67,20 L68,20 L68,21 L69,21 L69,22 L70,22 L70,23 L71,23 L71,24 L72,24 L72,25 L73,25 L73,27 L74,27 L74,28 L75,28 L75,29 L76,29 L76,30 L77,30 L77,31 L78,31 L78,33 L79,33 L79,34 L80,34 L80,36 L81,36 L81,37 L82,37 L82,39 L83,39 L83,41 L84,41 L84,43 L85,43 L85,45 L86,45 L86,47 L87,47 L87,50 L88,50 L88,52 L89,52 L89,56 L90,56 L90,59 L91,59 L91,64 L92,64 L92,90 L91,90 L91,95 L90,95 L90,98 L89,98 L89,102 L88,102 L88,104 L87,104 L87,107 L86,107 L86,109 L85,109 L85,111 L84,111 L84,113 L83,113 L83,115 L82,115 L82,117 L81,117 L81,118 L80,118 L80,120 L79,120 L79,121 L78,121 L78,123 L77,123 L77,124 L76,124 L76,125 L75,125 L75,126 L74,126 L74,127 L73,127 L73,129 L72,129 L72,130 L71,130 L71,131 L70,131 L70,132 L69,132 L69,133 L68,133 L68,134 L67,134 L67,135 L65,135 L65,136 L64,136 L64,137 L63,137 L63,138 L62,138 L62,139 L60,139 L60,140 L59,140 L59,141 L57,141 L57,142 L56,142 L56,143 L54,143 L54,144 L52,144 L52,145 L50,145 L50,146 L48,146 L48,147 L46,147 L46,148 L44,148 L44,149 L41,149 L41,150 L38,150 L38,151 L35,151 L35,152 L31,152 L31,153 L26,153 L26,154 L0,154 L0,153 L-5,153 L-5,152 L-9,152 L-9,151 L-12,151 L-12,150 L-15,150 L-15,149 L-18,149 L-18,148 L-20,148 L-20,147 L-22,147 L-22,146 L-24,146 L-24,145 L-26,145 L-26,144 L-28,144 L-28,143 L-30,143 L-30,142 L-31,142 L-31,141 L-33,141 L-33,140 L-34,140 L-34,139 L-36,139 L-36,138 L-37,138 L-37,137 L-38,137 L-38,136 L-39,136 L-39,135 L-41,135 L-41,134 L-42,134 L-42,133 L-43,133 L-43,132 L-44,132 L-44,131 L-45,131 L-45,130 L-46,130 L-46,129 L-47,129 L-47,127 L-48,127 L-48,126 L-49,126 L-49,125 L-50,125 L-50,124 L-51,124 L-51,123 L-52,123 L-52,121 L-53,121 L-53,120 L-54,120 L-54,118 L-55,118 L-55,117 L-56,117 L-56,115 L-57,115 L-57,113 L-58,113 L-58,111 L-59,111 L-59,109 L-60,109 L-60,107 L-61,107 L-61,104 L-62,104 L-62,102 L-63,102 L-63,98 L-64,98 L-64,95 L-65,95 L-65,90 L-66,90 L-66,64 L-65,64 L-65,59 L-64,59 L-64,56 L-63,56 L-63,52 L-62,52 L-62,50 L-61,50 L-61,47 L-60,47 L-60,45 L-59,45 L-59,43 L-58,43 L-58,41 L-57,41 L-57,39 L-56,39 L-56,37 L-55,37 L-55,36 L-54,36 L-54,34 L-53,34 L-53,33 L-52,33 L-52,31 L-51,31 L-51,30 L-50,30 L-50,29 L-49,29 L-49,28 L-48,28 L-48,27 L-47,27 L-47,25 L-46,25 L-46,24 L-45,24 L-45,23 L-44,23 L-44,22 L-43,22 L-43,21 L-42,21 L-42,20 L-41,20 L-41,19 L-39,19 L-39,18 L-38,18 L-38,17 L-37,17 L-37,16 L-36,16 L-36,15 L-34,15 L-34,14 L-33,14 L-33,13 L-31,13 L-31,12 L-30,12 L-30,11 L-28,11 L-28,10 L-26,10 L-26,9 L-24,9 L-24,8 L-22,8 L-22,7 L-20,7 L-20,6 L-18,6 L-18,5 L-15,5 L-15,4 L-12,4 L-12,3 L-9,3 L-9,2 L-5,2 L-5,1 L0,1 Z " fill="#40AC62" transform="translate(66,0)"/>
<path d="M0,0 L26,0 L26,1 L31,1 L31,2 L35,2 L35,3 L38,3 L38,4 L41,4 L41,5 L44,5 L44,6 L46,6 L46,7 L48,7 L48,8 L50,8 L50,9 L52,9 L52,10 L54,10 L54,11 L56,11 L56,12 L57,12 L57,13 L59,13 L59,14 L60,14 L60,15 L62,15 L62,16 L63,16 L63,17 L64,17 L64,18 L65,18 L65,19 L67,19 L67,20 L68,20 L68,21 L69,21 L69,22 L70,22 L70,23 L71,23 L71,24 L72,24 L72,25 L73,25 L73,27 L74,27 L74,28 L75,28 L75,29 L76,29 L76,30 L77,30 L77,31 L78,31 L78,33 L79,33 L79,34 L80,34 L80,36 L81,36 L81,37 L82,37 L82,39 L83,39 L83,41 L84,41 L84,43 L85,43 L85,45 L86,45 L86,47 L87,47 L87,50 L88,50 L88,52 L89,52 L89,56 L90,56 L90,59 L91,59 L91,64 L92,64 L92,90 L91,90 L91,95 L90,95 L90,98 L89,98 L89,102 L88,102 L88,104 L87,104 L87,107 L86,107 L86,109 L85,109 L85,111 L84,111 L84,113 L83,113 L83,115 L82,115 L82,117 L81,117 L81,118 L80,118 L80,120 L79,120 L79,121 L78,121 L78,123 L77,123 L77,124 L76,124 L76,125 L75,125 L75,126 L74,126 L74,127 L73,127 L73,129 L72,129 L72,130 L71,130 L71,131 L70,131 L70,132 L69,132 L69,133 L68,133 L68,134 L67,134 L67,135 L65,135 L65,136 L64,136 L64,137 L63,137 L63,138 L62,138 L62,139 L60,139 L60,140 L59,140 L59,141 L57,141 L57,142 L56,142 L56,143 L54,143 L54,144 L52,144 L52,145 L50,145 L50,146 L48,146 L48,147 L46,147 L46,148 L44,148 L44,149 L41,149 L41,150 L38,150 L38,151 L35,151 L35,152 L31,152 L31,153 L26,153 L26,154 L0,154 L0,153 L-5,153 L-5,152 L-9,152 L-9,151 L-12,151 L-12,150 L-15,150 L-15,149 L-18,149 L-18,148 L-20,148 L-20,147 L-22,147 L-22,146 L-24,146 L-24,145 L-26,145 L-26,144 L-28,144 L-28,143 L-30,143 L-30,142 L-31,142 L-31,141 L-33,141 L-33,140 L-34,140 L-34,139 L-36,139 L-36,138 L-37,138 L-37,137 L-38,137 L-38,136 L-39,136 L-39,135 L-41,135 L-41,134 L-42,134 L-42,133 L-43,133 L-43,132 L-44,132 L-44,131 L-45,131 L-45,130 L-46,130 L-46,129 L-47,129 L-47,127 L-48,127 L-48,126 L-49,126 L-49,125 L-50,125 L-50,124 L-51,124 L-51,123 L-52,123 L-52,121 L-53,121 L-53,120 L-54,120 L-54,118 L-55,118 L-55,117 L-56,117 L-56,115 L-57,115 L-57,113 L-58,113 L-58,111 L-59,111 L-59,109 L-60,109 L-60,107 L-61,107 L-61,104 L-62,104 L-62,102 L-63,102 L-63,98 L-64,98 L-64,95 L-65,95 L-65,90 L-66,90 L-66,64 L-65,64 L-65,59 L-64,59 L-64,56 L-63,56 L-63,52 L-62,52 L-62,50 L-61,50 L-61,47 L-60,47 L-60,45 L-59,45 L-59,43 L-58,43 L-58,41 L-57,41 L-57,39 L-56,39 L-56,37 L-55,37 L-55,36 L-54,36 L-54,34 L-53,34 L-53,33 L-52,33 L-52,31 L-51,31 L-51,30 L-50,30 L-50,29 L-49,29 L-49,28 L-48,28 L-48,27 L-47,27 L-47,25 L-46,25 L-46,24 L-45,24 L-45,23 L-44,23 L-44,22 L-43,22 L-43,21 L-42,21 L-42,20 L-41,20 L-41,19 L-39,19 L-39,18 L-38,18 L-38,17 L-37,17 L-37,16 L-36,16 L-36,15 L-34,15 L-34,14 L-33,14 L-33,13 L-31,13 L-31,12 L-30,12 L-30,11 L-28,11 L-28,10 L-26,10 L-26,9 L-24,9 L-24,8 L-22,8 L-22,7 L-20,7 L-20,6 L-18,6 L-18,5 L-15,5 L-15,4 L-12,4 L-12,3 L-9,3 L-9,2 L-5,2 L-5,1 L0,1 Z M1,4 L1,5 L-4,5 L-4,6 L-9,6 L-9,7 L-12,7 L-12,8 L-15,8 L-15,9 L-17,9 L-17,10 L-19,10 L-19,11 L-21,11 L-21,12 L-23,12 L-23,13 L-25,13 L-25,14 L-26,14 L-26,15 L-28,15 L-28,16 L-29,16 L-29,17 L-31,17 L-31,18 L-32,18 L-32,19 L-34,19 L-34,20 L-35,20 L-35,21 L-36,21 L-36,22 L-37,22 L-37,23 L-38,23 L-38,24 L-39,24 L-39,25 L-40,25 L-40,26 L-41,26 L-41,27 L-42,27 L-42,28 L-43,28 L-43,29 L-44,29 L-44,30 L-45,30 L-45,32 L-46,32 L-46,33 L-47,33 L-47,34 L-48,34 L-48,36 L-49,36 L-49,37 L-50,37 L-50,39 L-51,39 L-51,40 L-52,40 L-52,42 L-53,42 L-53,44 L-54,44 L-54,50 L-53,50 L-53,49 L-51,49 L-51,50 L-50,50 L-50,53 L-49,53 L-49,54 L-48,54 L-48,60 L-47,60 L-47,62 L-46,62 L-46,63 L-45,63 L-45,65 L-44,65 L-44,67 L-42,67 L-42,69 L-41,69 L-41,71 L-39,71 L-39,74 L-38,74 L-38,76 L-37,76 L-37,77 L-36,77 L-36,81 L-35,81 L-35,82 L-33,82 L-33,84 L-32,84 L-32,86 L-31,86 L-31,87 L-28,87 L-28,93 L-27,93 L-27,96 L-26,96 L-26,98 L-25,98 L-25,100 L-24,100 L-24,102 L-23,102 L-23,104 L-22,104 L-22,105 L-21,105 L-21,106 L-20,106 L-20,109 L-19,109 L-19,111 L-18,111 L-18,115 L-17,115 L-17,118 L-16,118 L-16,121 L-15,121 L-15,128 L-4,128 L-4,130 L-3,130 L-3,133 L-2,133 L-2,136 L-1,136 L-1,137 L1,137 L1,139 L2,139 L2,140 L3,140 L3,142 L4,142 L4,150 L24,150 L24,149 L31,149 L31,148 L33,148 L33,147 L37,147 L37,146 L40,146 L40,145 L42,145 L42,144 L44,144 L44,143 L46,143 L46,142 L48,142 L48,141 L50,141 L50,140 L51,140 L51,139 L53,139 L53,138 L54,138 L54,137 L56,137 L56,136 L57,136 L57,135 L59,135 L59,134 L60,134 L60,133 L61,133 L61,132 L62,132 L62,131 L63,131 L63,130 L64,130 L64,129 L65,129 L65,128 L66,128 L66,127 L67,127 L67,126 L68,126 L68,125 L69,125 L69,124 L70,124 L70,122 L71,122 L71,121 L72,121 L72,120 L73,120 L73,118 L74,118 L74,117 L75,117 L75,115 L76,115 L76,113 L77,113 L77,112 L78,112 L78,110 L79,110 L79,107 L80,107 L80,105 L81,105 L81,103 L82,103 L82,98 L81,98 L81,96 L80,96 L80,90 L79,90 L79,89 L78,89 L78,88 L77,88 L77,87 L76,87 L76,85 L75,85 L75,84 L74,84 L74,83 L73,83 L73,80 L72,80 L72,77 L71,77 L71,76 L70,76 L70,74 L69,74 L69,73 L67,73 L67,72 L66,72 L66,69 L65,69 L65,68 L64,68 L64,62 L63,62 L63,61 L62,61 L62,58 L61,58 L61,57 L60,57 L60,55 L57,55 L57,49 L55,49 L55,48 L54,48 L54,47 L52,47 L52,40 L51,40 L51,36 L50,36 L50,35 L49,35 L49,34 L48,34 L48,32 L47,32 L47,27 L45,27 L45,26 L44,26 L44,24 L43,24 L43,23 L42,23 L42,21 L41,21 L41,20 L40,20 L40,19 L37,19 L37,18 L36,18 L36,12 L35,12 L35,10 L36,10 L36,9 L33,9 L33,8 L32,8 L32,7 L30,7 L30,8 L26,8 L26,7 L27,7 L27,6 L20,6 L20,5 L19,5 L19,4 Z " fill="#60B34D" transform="translate(66,0)"/>
<path d="M0,0 L29,0 L29,1 L30,1 L30,2 L31,2 L31,3 L32,3 L32,4 L33,4 L33,5 L34,5 L34,6 L35,6 L35,7 L36,7 L36,8 L37,8 L37,9 L38,9 L38,28 L37,28 L37,29 L36,29 L36,30 L35,30 L35,32 L36,32 L36,33 L38,33 L38,52 L37,52 L37,53 L36,53 L36,54 L35,54 L35,55 L34,55 L34,56 L33,56 L33,57 L32,57 L32,58 L31,58 L31,59 L30,59 L30,60 L29,60 L29,61 L28,61 L28,63 L12,63 L12,100 L-3,100 L-3,69 L-18,69 L-18,68 L-19,68 L-19,67 L-20,67 L-20,66 L-21,66 L-21,65 L-22,65 L-22,64 L-23,64 L-23,63 L-24,63 L-24,62 L-25,62 L-25,61 L-26,61 L-26,9 L-14,9 L-14,51 L0,51 Z " fill="#F9FCFC" transform="translate(72,30)"/>
<path d="M0,0 L1,0 L1,4 L2,4 L2,3 L4,3 L4,4 L5,4 L5,7 L6,7 L6,8 L7,8 L7,14 L8,14 L8,16 L9,16 L9,17 L10,17 L10,19 L11,19 L11,21 L13,21 L13,23 L14,23 L14,25 L16,25 L16,28 L17,28 L17,30 L18,30 L18,31 L19,31 L19,35 L20,35 L20,36 L22,36 L22,38 L23,38 L23,40 L24,40 L24,41 L27,41 L27,47 L28,47 L28,50 L29,50 L29,52 L30,52 L30,54 L31,54 L31,56 L32,56 L32,58 L33,58 L33,59 L34,59 L34,60 L35,60 L35,63 L36,63 L36,65 L37,65 L37,69 L38,69 L38,72 L39,72 L39,75 L40,75 L40,82 L51,82 L51,84 L52,84 L52,87 L53,87 L53,90 L54,90 L54,91 L56,91 L56,93 L57,93 L57,94 L58,94 L58,96 L59,96 L59,104 L54,104 L54,103 L49,103 L49,102 L47,102 L47,101 L43,101 L43,100 L40,100 L40,99 L38,99 L38,98 L36,98 L36,97 L34,97 L34,96 L32,96 L32,95 L30,95 L30,94 L28,94 L28,93 L27,93 L27,92 L25,92 L25,91 L24,91 L24,90 L23,90 L23,89 L21,89 L21,88 L20,88 L20,87 L19,87 L19,86 L18,86 L18,85 L17,85 L17,84 L16,84 L16,83 L15,83 L15,82 L14,82 L14,81 L13,81 L13,80 L12,80 L12,79 L11,79 L11,78 L10,78 L10,76 L9,76 L9,75 L8,75 L8,74 L7,74 L7,72 L6,72 L6,71 L5,71 L5,69 L4,69 L4,67 L3,67 L3,66 L2,66 L2,64 L1,64 L1,62 L0,62 L0,59 L-1,59 L-1,57 L-2,57 L-2,54 L-3,54 L-3,51 L-4,51 L-4,46 L-5,46 L-5,41 L-6,41 L-6,20 L-5,20 L-5,15 L-4,15 L-4,13 L-3,13 L-3,8 L-2,8 L-2,5 L-1,5 L-1,3 L0,3 Z " fill="#5B2E7E" transform="translate(11,46)"/>
<path d="M0,0 L1,0 L1,2 L0,2 L0,3 L-1,3 L-1,4 L-2,4 L-2,5 L-3,5 L-3,10 L-2,10 L-2,11 L-1,11 L-1,12 L0,12 L0,13 L1,13 L1,19 L2,19 L2,20 L3,20 L3,22 L4,22 L4,24 L5,24 L5,27 L6,27 L6,30 L7,30 L7,32 L8,32 L8,33 L9,33 L9,35 L10,35 L10,37 L11,37 L11,38 L12,38 L12,40 L13,40 L13,44 L14,44 L14,45 L16,45 L16,41 L17,41 L17,69 L18,69 L18,70 L19,70 L19,71 L20,71 L20,72 L21,72 L21,73 L22,73 L22,74 L23,74 L23,75 L24,75 L24,76 L25,76 L25,77 L40,77 L40,109 L56,109 L56,106 L73,106 L73,110 L74,110 L74,112 L76,112 L76,113 L77,113 L77,115 L78,115 L78,118 L80,118 L80,119 L81,119 L81,120 L82,120 L82,121 L81,121 L81,122 L79,122 L79,123 L77,123 L77,124 L74,124 L74,125 L70,125 L70,126 L68,126 L68,127 L61,127 L61,128 L41,128 L41,120 L40,120 L40,118 L39,118 L39,117 L38,117 L38,115 L36,115 L36,114 L35,114 L35,111 L34,111 L34,108 L33,108 L33,106 L22,106 L22,99 L21,99 L21,96 L20,96 L20,93 L19,93 L19,89 L18,89 L18,87 L17,87 L17,84 L16,84 L16,83 L15,83 L15,82 L14,82 L14,80 L13,80 L13,78 L12,78 L12,76 L11,76 L11,74 L10,74 L10,71 L9,71 L9,65 L6,65 L6,64 L5,64 L5,62 L4,62 L4,60 L2,60 L2,59 L1,59 L1,55 L0,55 L0,54 L-1,54 L-1,52 L-2,52 L-2,49 L-4,49 L-4,47 L-5,47 L-5,45 L-7,45 L-7,43 L-8,43 L-8,41 L-9,41 L-9,40 L-10,40 L-10,38 L-11,38 L-11,32 L-12,32 L-12,31 L-13,31 L-13,28 L-14,28 L-14,27 L-16,27 L-16,28 L-17,28 L-17,22 L-16,22 L-16,20 L-15,20 L-15,18 L-14,18 L-14,17 L-13,17 L-13,15 L-12,15 L-12,14 L-11,14 L-11,12 L-10,12 L-10,11 L-9,11 L-9,10 L-8,10 L-8,8 L-7,8 L-7,7 L-6,7 L-6,6 L-5,6 L-5,5 L-4,5 L-4,4 L-3,4 L-3,3 L-2,3 L-2,2 L-1,2 L-1,1 L0,1 Z " fill="#2E4986" transform="translate(29,22)"/>
<path d="M0,0 L2,0 L2,3 L3,3 L3,4 L4,4 L4,6 L5,6 L5,8 L6,8 L6,10 L7,10 L7,12 L9,12 L9,13 L10,13 L10,14 L11,14 L11,16 L12,16 L12,18 L13,18 L13,20 L14,20 L14,23 L8,23 L8,75 L-6,75 L-6,33 L-18,33 L-18,57 L-19,57 L-19,61 L-21,61 L-21,60 L-22,60 L-22,56 L-23,56 L-23,54 L-24,54 L-24,53 L-25,53 L-25,51 L-26,51 L-26,49 L-27,49 L-27,48 L-28,48 L-28,46 L-29,46 L-29,43 L-30,43 L-30,40 L-31,40 L-31,38 L-32,38 L-32,36 L-33,36 L-33,35 L-34,35 L-34,29 L-35,29 L-35,28 L-36,28 L-36,27 L-37,27 L-37,26 L-38,26 L-38,21 L-37,21 L-37,20 L-36,20 L-36,19 L-35,19 L-35,18 L-34,18 L-34,15 L-33,15 L-33,14 L-32,14 L-32,13 L-30,13 L-30,12 L-29,12 L-29,11 L-27,11 L-27,10 L-26,10 L-26,9 L-24,9 L-24,8 L-23,8 L-23,7 L-21,7 L-21,6 L-19,6 L-19,5 L-17,5 L-17,4 L-15,4 L-15,3 L-13,3 L-13,2 L-10,2 L-10,1 L-6,1 L-6,2 L-4,2 L-4,1 L0,1 Z " fill="#15858B" transform="translate(64,6)"/>
<path d="M0,0 L3,0 L3,3 L4,3 L4,5 L5,5 L5,6 L7,6 L7,9 L8,9 L8,11 L10,11 L10,15 L11,15 L11,17 L12,17 L12,19 L13,19 L13,21 L14,21 L14,22 L15,22 L15,23 L16,23 L16,25 L17,25 L17,26 L18,26 L18,27 L19,27 L19,29 L20,29 L20,36 L22,36 L22,37 L23,37 L23,38 L24,38 L24,37 L25,37 L25,38 L26,38 L26,39 L27,39 L27,40 L26,40 L26,41 L25,41 L25,42 L24,42 L24,43 L23,43 L23,44 L22,44 L22,45 L21,45 L21,46 L20,46 L20,47 L19,47 L19,48 L18,48 L18,49 L17,49 L17,50 L15,50 L15,51 L14,51 L14,52 L12,52 L12,53 L11,53 L11,54 L9,54 L9,55 L8,55 L8,56 L6,56 L6,57 L4,57 L4,58 L3,58 L3,57 L2,57 L2,56 L1,56 L1,55 L-1,55 L-1,52 L-2,52 L-2,50 L-3,50 L-3,49 L-5,49 L-5,47 L-6,47 L-6,43 L-23,43 L-23,46 L-39,46 L-39,45 L-24,45 L-24,8 L-8,8 L-8,6 L-7,6 L-7,5 L-6,5 L-6,4 L-5,4 L-5,3 L-2,3 L-2,2 L-1,2 L-1,1 L0,1 Z " fill="#169888" transform="translate(108,85)"/>
<path d="M0,0 L26,0 L26,1 L31,1 L31,2 L35,2 L35,3 L38,3 L38,4 L41,4 L41,5 L44,5 L44,6 L46,6 L46,7 L48,7 L48,8 L50,8 L50,9 L52,9 L52,10 L54,10 L54,11 L56,11 L56,12 L57,12 L57,13 L59,13 L59,14 L60,14 L60,15 L62,15 L62,16 L63,16 L63,17 L64,17 L64,18 L65,18 L65,19 L67,19 L67,20 L68,20 L68,21 L69,21 L69,22 L70,22 L70,23 L71,23 L71,24 L72,24 L72,25 L73,25 L73,27 L74,27 L74,28 L75,28 L75,29 L76,29 L76,30 L77,30 L77,31 L78,31 L78,33 L79,33 L79,34 L80,34 L80,36 L81,36 L81,37 L82,37 L82,39 L83,39 L83,41 L84,41 L84,43 L85,43 L85,45 L86,45 L86,47 L87,47 L87,50 L88,50 L88,52 L89,52 L89,56 L90,56 L90,59 L91,59 L91,64 L92,64 L92,90 L91,90 L91,95 L90,95 L90,98 L89,98 L89,102 L88,102 L88,104 L87,104 L87,107 L86,107 L86,109 L85,109 L85,111 L84,111 L84,113 L83,113 L83,115 L82,115 L82,117 L81,117 L81,118 L80,118 L80,120 L79,120 L79,121 L78,121 L78,123 L77,123 L77,124 L76,124 L76,125 L75,125 L75,126 L74,126 L74,127 L73,127 L73,129 L72,129 L72,130 L71,130 L71,131 L70,131 L70,132 L69,132 L69,133 L68,133 L68,134 L67,134 L67,135 L65,135 L65,136 L64,136 L64,137 L63,137 L63,138 L62,138 L62,139 L60,139 L60,140 L59,140 L59,141 L57,141 L57,142 L56,142 L56,143 L54,143 L54,144 L52,144 L52,145 L50,145 L50,146 L48,146 L48,147 L46,147 L46,148 L44,148 L44,149 L41,149 L41,150 L38,150 L38,151 L35,151 L35,152 L31,152 L31,153 L26,153 L26,154 L0,154 L0,153 L-5,153 L-5,152 L-9,152 L-9,151 L-12,151 L-12,150 L-15,150 L-15,149 L-18,149 L-18,148 L-20,148 L-20,147 L-22,147 L-22,146 L-24,146 L-24,145 L-26,145 L-26,144 L-28,144 L-28,143 L-30,143 L-30,142 L-31,142 L-31,141 L-33,141 L-33,140 L-34,140 L-34,139 L-36,139 L-36,138 L-37,138 L-37,137 L-38,137 L-38,136 L-39,136 L-39,135 L-41,135 L-41,134 L-42,134 L-42,133 L-43,133 L-43,132 L-44,132 L-44,131 L-45,131 L-45,130 L-46,130 L-46,129 L-47,129 L-47,127 L-48,127 L-48,126 L-49,126 L-49,125 L-50,125 L-50,124 L-51,124 L-51,123 L-52,123 L-52,121 L-53,121 L-53,120 L-54,120 L-54,118 L-55,118 L-55,117 L-56,117 L-56,115 L-57,115 L-57,113 L-58,113 L-58,111 L-59,111 L-59,109 L-60,109 L-60,107 L-61,107 L-61,104 L-62,104 L-62,102 L-63,102 L-63,98 L-64,98 L-64,95 L-65,95 L-65,90 L-66,90 L-66,64 L-65,64 L-65,59 L-64,59 L-64,56 L-63,56 L-63,52 L-62,52 L-62,50 L-61,50 L-61,47 L-60,47 L-60,45 L-59,45 L-59,43 L-58,43 L-58,41 L-57,41 L-57,39 L-56,39 L-56,37 L-55,37 L-55,36 L-54,36 L-54,34 L-53,34 L-53,33 L-52,33 L-52,31 L-51,31 L-51,30 L-50,30 L-50,29 L-49,29 L-49,28 L-48,28 L-48,27 L-47,27 L-47,25 L-46,25 L-46,24 L-45,24 L-45,23 L-44,23 L-44,22 L-43,22 L-43,21 L-42,21 L-42,20 L-41,20 L-41,19 L-39,19 L-39,18 L-38,18 L-38,17 L-37,17 L-37,16 L-36,16 L-36,15 L-34,15 L-34,14 L-33,14 L-33,13 L-31,13 L-31,12 L-30,12 L-30,11 L-28,11 L-28,10 L-26,10 L-26,9 L-24,9 L-24,8 L-22,8 L-22,7 L-20,7 L-20,6 L-18,6 L-18,5 L-15,5 L-15,4 L-12,4 L-12,3 L-9,3 L-9,2 L-5,2 L-5,1 L0,1 Z M0,2 L0,3 L-6,3 L-6,4 L-9,4 L-9,5 L-12,5 L-12,6 L-15,6 L-15,7 L-17,7 L-17,8 L-19,8 L-19,9 L-21,9 L-21,10 L-23,10 L-23,11 L-25,11 L-25,12 L-27,12 L-27,13 L-28,13 L-28,14 L-30,14 L-30,15 L-31,15 L-31,16 L-33,16 L-33,17 L-34,17 L-34,18 L-35,18 L-35,19 L-36,19 L-36,20 L-38,20 L-38,21 L-39,21 L-39,22 L-40,22 L-40,23 L-41,23 L-41,24 L-42,24 L-42,25 L-43,25 L-43,26 L-44,26 L-44,27 L-45,27 L-45,29 L-46,29 L-46,30 L-47,30 L-47,31 L-48,31 L-48,33 L-49,33 L-49,34 L-50,34 L-50,35 L-51,35 L-51,37 L-52,37 L-52,38 L-53,38 L-53,40 L-54,40 L-54,42 L-55,42 L-55,44 L-56,44 L-56,46 L-57,46 L-57,48 L-58,48 L-58,51 L-59,51 L-59,53 L-60,53 L-60,57 L-61,57 L-61,62 L-62,62 L-62,69 L-63,69 L-63,85 L-62,85 L-62,93 L-61,93 L-61,96 L-60,96 L-60,99 L-59,99 L-59,103 L-58,103 L-58,105 L-57,105 L-57,108 L-56,108 L-56,110 L-55,110 L-55,112 L-54,112 L-54,114 L-53,114 L-53,115 L-52,115 L-52,117 L-51,117 L-51,119 L-50,119 L-50,120 L-49,120 L-49,122 L-48,122 L-48,123 L-47,123 L-47,124 L-46,124 L-46,125 L-45,125 L-45,127 L-44,127 L-44,128 L-43,128 L-43,129 L-42,129 L-42,130 L-41,130 L-41,131 L-40,131 L-40,132 L-39,132 L-39,133 L-38,133 L-38,134 L-36,134 L-36,135 L-35,135 L-35,136 L-34,136 L-34,137 L-33,137 L-33,138 L-31,138 L-31,139 L-30,139 L-30,140 L-28,140 L-28,141 L-27,141 L-27,142 L-25,142 L-25,143 L-23,143 L-23,144 L-21,144 L-21,145 L-19,145 L-19,146 L-17,146 L-17,147 L-15,147 L-15,148 L-13,148 L-13,149 L-9,149 L-9,150 L-6,150 L-6,151 L0,151 L0,152 L24,152 L24,151 L29,151 L29,150 L33,150 L33,149 L38,149 L38,148 L40,148 L40,147 L42,147 L42,146 L44,146 L44,145 L46,145 L46,144 L48,144 L48,143 L50,143 L50,142 L52,142 L52,141 L53,141 L53,140 L55,140 L55,139 L56,139 L56,138 L58,138 L58,137 L59,137 L59,136 L60,136 L60,135 L62,135 L62,134 L63,134 L63,133 L64,133 L64,132 L65,132 L65,131 L66,131 L66,130 L67,130 L67,129 L68,129 L68,128 L69,128 L69,127 L70,127 L70,125 L71,125 L71,124 L72,124 L72,123 L73,123 L73,121 L74,121 L74,120 L75,120 L75,119 L76,119 L76,117 L77,117 L77,115 L78,115 L78,114 L79,114 L79,112 L80,112 L80,110 L81,110 L81,107 L82,107 L82,105 L83,105 L83,103 L84,103 L84,100 L85,100 L85,96 L86,96 L86,93 L87,93 L87,86 L88,86 L88,67 L87,67 L87,62 L86,62 L86,57 L85,57 L85,53 L84,53 L84,51 L83,51 L83,48 L82,48 L82,46 L81,46 L81,44 L80,44 L80,42 L79,42 L79,40 L78,40 L78,38 L77,38 L77,37 L76,37 L76,35 L75,35 L75,34 L74,34 L74,32 L73,32 L73,31 L72,31 L72,30 L71,30 L71,29 L70,29 L70,27 L69,27 L69,26 L68,26 L68,25 L67,25 L67,24 L66,24 L66,23 L65,23 L65,22 L64,22 L64,21 L63,21 L63,20 L61,20 L61,19 L60,19 L60,18 L59,18 L59,17 L58,17 L58,16 L56,16 L56,15 L55,15 L55,14 L53,14 L53,13 L52,13 L52,12 L50,12 L50,11 L48,11 L48,10 L46,10 L46,9 L44,9 L44,8 L42,8 L42,7 L39,7 L39,6 L38,6 L38,5 L33,5 L33,4 L29,4 L29,3 L24,3 L24,2 Z " fill="#242222" transform="translate(66,0)"/>
<path d="M0,0 L1,0 L1,5 L2,5 L2,1 L3,1 L3,3 L4,3 L4,5 L5,5 L5,7 L6,7 L6,8 L7,8 L7,9 L9,9 L9,12 L10,12 L10,13 L11,13 L11,17 L13,17 L13,21 L15,21 L15,23 L16,23 L16,25 L19,25 L19,27 L20,27 L20,29 L21,29 L21,30 L22,30 L22,31 L23,31 L23,33 L24,33 L24,34 L25,34 L25,37 L26,37 L26,38 L27,38 L27,39 L28,39 L28,41 L29,41 L29,42 L30,42 L30,55 L31,55 L31,62 L37,62 L37,63 L38,63 L38,64 L39,64 L39,66 L40,66 L40,69 L41,69 L41,75 L39,75 L39,76 L38,76 L38,75 L36,75 L36,74 L34,74 L34,73 L33,73 L33,72 L31,72 L31,71 L30,71 L30,70 L29,70 L29,69 L27,69 L27,68 L26,68 L26,67 L25,67 L25,66 L24,66 L24,65 L23,65 L23,64 L22,64 L22,63 L21,63 L21,62 L20,62 L20,61 L19,61 L19,60 L18,60 L18,59 L17,59 L17,58 L16,58 L16,56 L15,56 L15,55 L14,55 L14,54 L13,54 L13,52 L12,52 L12,51 L11,51 L11,49 L10,49 L10,47 L9,47 L9,46 L8,46 L8,44 L7,44 L7,42 L6,42 L6,39 L5,39 L5,37 L4,37 L4,34 L3,34 L3,31 L2,31 L2,26 L1,26 L1,21 L0,21 Z " fill="#96287A" transform="translate(5,66)"/>
<path d="M0,0 L24,0 L24,1 L29,1 L29,2 L33,2 L33,3 L38,3 L38,4 L39,4 L39,5 L42,5 L42,6 L44,6 L44,7 L46,7 L46,8 L48,8 L48,9 L50,9 L50,10 L52,10 L52,11 L53,11 L53,12 L55,12 L55,13 L56,13 L56,14 L58,14 L58,15 L59,15 L59,16 L60,16 L60,17 L61,17 L61,18 L63,18 L63,19 L64,19 L64,20 L65,20 L65,21 L66,21 L66,22 L67,22 L67,23 L68,23 L68,24 L69,24 L69,25 L70,25 L70,27 L71,27 L71,28 L72,28 L72,29 L73,29 L73,30 L74,30 L74,32 L75,32 L75,33 L76,33 L76,35 L77,35 L77,36 L78,36 L78,38 L79,38 L79,40 L80,40 L80,42 L81,42 L81,44 L82,44 L82,46 L83,46 L83,49 L84,49 L84,51 L85,51 L85,55 L86,55 L86,60 L87,60 L87,65 L88,65 L88,84 L87,84 L87,91 L86,91 L86,94 L85,94 L85,98 L84,98 L84,101 L83,101 L83,103 L82,103 L82,105 L81,105 L81,108 L80,108 L80,110 L79,110 L79,112 L78,112 L78,113 L77,113 L77,115 L76,115 L76,117 L75,117 L75,118 L74,118 L74,119 L73,119 L73,121 L72,121 L72,122 L71,122 L71,123 L70,123 L70,125 L69,125 L69,126 L68,126 L68,127 L67,127 L67,128 L66,128 L66,129 L65,129 L65,130 L64,130 L64,131 L63,131 L63,132 L62,132 L62,133 L60,133 L60,134 L59,134 L59,135 L58,135 L58,136 L56,136 L56,137 L55,137 L55,138 L53,138 L53,139 L52,139 L52,140 L50,140 L50,141 L48,141 L48,142 L46,142 L46,143 L44,143 L44,144 L42,144 L42,145 L40,145 L40,146 L38,146 L38,147 L33,147 L33,148 L29,148 L29,149 L24,149 L24,150 L0,150 L0,149 L-6,149 L-6,148 L-9,148 L-9,147 L-13,147 L-13,146 L-15,146 L-15,145 L-17,145 L-17,144 L-19,144 L-19,143 L-21,143 L-21,142 L-23,142 L-23,141 L-25,141 L-25,140 L-27,140 L-27,139 L-28,139 L-28,138 L-30,138 L-30,137 L-31,137 L-31,136 L-33,136 L-33,135 L-34,135 L-34,134 L-35,134 L-35,133 L-36,133 L-36,132 L-38,132 L-38,131 L-39,131 L-39,130 L-40,130 L-40,129 L-41,129 L-41,128 L-42,128 L-42,127 L-43,127 L-43,126 L-44,126 L-44,125 L-45,125 L-45,123 L-46,123 L-46,122 L-47,122 L-47,121 L-48,121 L-48,120 L-49,120 L-49,118 L-50,118 L-50,117 L-51,117 L-51,115 L-52,115 L-52,113 L-53,113 L-53,112 L-54,112 L-54,110 L-55,110 L-55,108 L-56,108 L-56,106 L-57,106 L-57,103 L-58,103 L-58,101 L-59,101 L-59,97 L-60,97 L-60,94 L-61,94 L-61,91 L-62,91 L-62,83 L-63,83 L-63,67 L-62,67 L-62,60 L-61,60 L-61,55 L-60,55 L-60,51 L-59,51 L-59,49 L-58,49 L-58,46 L-57,46 L-57,44 L-56,44 L-56,42 L-55,42 L-55,40 L-54,40 L-54,38 L-53,38 L-53,36 L-52,36 L-52,35 L-51,35 L-51,33 L-50,33 L-50,32 L-49,32 L-49,31 L-48,31 L-48,29 L-47,29 L-47,28 L-46,28 L-46,27 L-45,27 L-45,25 L-44,25 L-44,24 L-43,24 L-43,23 L-42,23 L-42,22 L-41,22 L-41,21 L-40,21 L-40,20 L-39,20 L-39,19 L-38,19 L-38,18 L-36,18 L-36,17 L-35,17 L-35,16 L-34,16 L-34,15 L-33,15 L-33,14 L-31,14 L-31,13 L-30,13 L-30,12 L-28,12 L-28,11 L-27,11 L-27,10 L-25,10 L-25,9 L-23,9 L-23,8 L-21,8 L-21,7 L-19,7 L-19,6 L-17,6 L-17,5 L-15,5 L-15,4 L-12,4 L-12,3 L-9,3 L-9,2 L-6,2 L-6,1 L0,1 Z M1,2 L1,3 L-4,3 L-4,4 L-9,4 L-9,5 L-12,5 L-12,6 L-15,6 L-15,7 L-17,7 L-17,8 L-19,8 L-19,9 L-21,9 L-21,10 L-23,10 L-23,11 L-25,11 L-25,12 L-26,12 L-26,13 L-28,13 L-28,14 L-29,14 L-29,15 L-31,15 L-31,16 L-32,16 L-32,17 L-34,17 L-34,18 L-35,18 L-35,19 L-36,19 L-36,20 L-37,20 L-37,21 L-38,21 L-38,22 L-39,22 L-39,23 L-40,23 L-40,24 L-41,24 L-41,25 L-42,25 L-42,26 L-43,26 L-43,27 L-44,27 L-44,28 L-45,28 L-45,30 L-46,30 L-46,31 L-47,31 L-47,32 L-48,32 L-48,34 L-49,34 L-49,35 L-50,35 L-50,37 L-51,37 L-51,38 L-52,38 L-52,40 L-53,40 L-53,42 L-54,42 L-54,44 L-55,44 L-55,47 L-56,47 L-56,49 L-57,49 L-57,52 L-58,52 L-58,57 L-59,57 L-59,59 L-60,59 L-60,64 L-61,64 L-61,85 L-60,85 L-60,90 L-59,90 L-59,95 L-58,95 L-58,98 L-57,98 L-57,101 L-56,101 L-56,103 L-55,103 L-55,106 L-54,106 L-54,108 L-53,108 L-53,110 L-52,110 L-52,111 L-51,111 L-51,113 L-50,113 L-50,115 L-49,115 L-49,116 L-48,116 L-48,118 L-47,118 L-47,119 L-46,119 L-46,120 L-45,120 L-45,122 L-44,122 L-44,123 L-43,123 L-43,124 L-42,124 L-42,125 L-41,125 L-41,126 L-40,126 L-40,127 L-39,127 L-39,128 L-38,128 L-38,129 L-37,129 L-37,130 L-36,130 L-36,131 L-35,131 L-35,132 L-34,132 L-34,133 L-32,133 L-32,134 L-31,134 L-31,135 L-30,135 L-30,136 L-28,136 L-28,137 L-27,137 L-27,138 L-25,138 L-25,139 L-23,139 L-23,140 L-21,140 L-21,141 L-19,141 L-19,142 L-17,142 L-17,143 L-15,143 L-15,144 L-12,144 L-12,145 L-8,145 L-8,146 L-6,146 L-6,147 L-1,147 L-1,148 L24,148 L24,147 L31,147 L31,146 L33,146 L33,145 L37,145 L37,144 L40,144 L40,143 L42,143 L42,142 L44,142 L44,141 L46,141 L46,140 L48,140 L48,139 L50,139 L50,138 L51,138 L51,137 L53,137 L53,136 L54,136 L54,135 L56,135 L56,134 L57,134 L57,133 L59,133 L59,132 L60,132 L60,131 L61,131 L61,130 L62,130 L62,129 L63,129 L63,128 L64,128 L64,127 L65,127 L65,126 L66,126 L66,125 L67,125 L67,124 L68,124 L68,123 L69,123 L69,122 L70,122 L70,120 L71,120 L71,119 L72,119 L72,118 L73,118 L73,116 L74,116 L74,115 L75,115 L75,113 L76,113 L76,111 L77,111 L77,110 L78,110 L78,108 L79,108 L79,105 L80,105 L80,103 L81,103 L81,101 L82,101 L82,98 L83,98 L83,94 L84,94 L84,90 L85,90 L85,85 L86,85 L86,65 L85,65 L85,59 L84,59 L84,57 L83,57 L83,53 L82,53 L82,49 L81,49 L81,48 L80,48 L80,44 L79,44 L79,42 L78,42 L78,41 L77,41 L77,40 L76,40 L76,37 L75,37 L75,36 L74,36 L74,34 L73,34 L73,33 L72,33 L72,31 L71,31 L71,29 L70,29 L70,28 L69,28 L69,27 L68,27 L68,26 L67,26 L67,25 L66,25 L66,24 L65,24 L65,23 L64,23 L64,22 L63,22 L63,21 L62,21 L62,20 L61,20 L61,19 L60,19 L60,18 L59,18 L59,17 L57,17 L57,16 L56,16 L56,15 L55,15 L55,14 L53,14 L53,13 L51,13 L51,12 L50,12 L50,11 L48,11 L48,10 L46,10 L46,9 L44,9 L44,8 L42,8 L42,7 L40,7 L40,6 L38,6 L38,5 L33,5 L33,4 L31,4 L31,3 L24,3 L24,2 Z " fill="#DAE0DD" transform="translate(66,2)"/>
<path d="M0,0 L1,0 L1,1 L3,1 L3,2 L5,2 L5,3 L6,3 L6,4 L7,4 L7,5 L9,5 L9,6 L10,6 L10,7 L11,7 L11,8 L12,8 L12,9 L13,9 L13,10 L14,10 L14,11 L15,11 L15,12 L16,12 L16,13 L17,13 L17,14 L18,14 L18,15 L19,15 L19,16 L20,16 L20,17 L21,17 L21,19 L22,19 L22,21 L23,21 L23,22 L24,22 L24,24 L25,24 L25,25 L26,25 L26,28 L27,28 L27,29 L28,29 L28,30 L29,30 L29,32 L30,32 L30,36 L31,36 L31,37 L32,37 L32,41 L33,41 L33,45 L34,45 L34,47 L35,47 L35,53 L36,53 L36,73 L35,73 L35,61 L33,61 L33,59 L32,59 L32,57 L31,57 L31,53 L30,53 L30,52 L29,52 L29,51 L28,51 L28,49 L27,49 L27,47 L26,47 L26,45 L25,45 L25,44 L24,44 L24,41 L22,41 L22,40 L21,40 L21,38 L20,38 L20,34 L19,34 L19,33 L18,33 L18,31 L17,31 L17,29 L16,29 L16,28 L15,28 L15,26 L14,26 L14,25 L15,25 L15,24 L13,24 L13,22 L12,22 L12,20 L11,20 L11,19 L10,19 L10,18 L9,18 L9,16 L8,16 L8,14 L7,14 L7,13 L6,13 L6,12 L5,12 L5,10 L4,10 L4,7 L3,7 L3,6 L2,6 L2,2 L0,2 Z " fill="#8CBE47" transform="translate(116,14)"/>
<path d="M0,0 L29,0 L29,1 L30,1 L30,2 L31,2 L31,3 L32,3 L32,4 L33,4 L33,5 L34,5 L34,6 L35,6 L35,7 L36,7 L36,8 L37,8 L37,9 L38,9 L38,28 L37,28 L37,29 L36,29 L36,30 L35,30 L35,13 L34,13 L34,14 L33,14 L33,17 L29,17 L29,15 L28,15 L28,21 L27,21 L27,25 L11,25 L11,11 L12,11 L12,10 L11,10 L11,9 L18,9 L18,10 L27,10 L27,9 L32,9 L32,8 L33,8 L33,6 L31,6 L31,7 L30,7 L30,4 L29,4 L29,2 L1,2 L1,51 L0,51 Z " fill="#DBF4EC" transform="translate(72,30)"/>
<path d="M0,0 L14,0 L14,13 L0,13 Z " fill="#169D87" transform="translate(84,66)"/>
<path d="M0,0 L14,0 L14,13 L0,13 Z " fill="#37A677" transform="translate(84,42)"/>
<path d="M0,0 L3,0 L3,1 L4,1 L4,4 L5,4 L5,7 L6,7 L6,12 L8,12 L8,15 L10,15 L10,18 L8,18 L8,19 L6,19 L6,15 L4,15 L4,14 L3,14 L3,13 L2,13 L2,11 L1,11 L1,8 L0,8 L0,7 L-3,7 L-3,2 L-15,2 L-15,39 L-31,39 L-31,38 L-16,38 L-16,1 L0,1 Z " fill="#3EA8A2" transform="translate(100,92)"/>
<path d="M0,0 L14,0 L14,13 L13,13 L13,12 L9,12 L9,11 L11,11 L11,5 L10,5 L10,4 L11,4 L11,3 L10,3 L10,2 L13,2 L13,1 L0,1 Z " fill="#40A88E" transform="translate(84,66)"/>
<path d="M0,0 L1,0 L1,19 L0,19 L0,20 L-1,20 L-1,21 L-2,21 L-2,22 L-3,22 L-3,23 L-4,23 L-4,24 L-5,24 L-5,25 L-6,25 L-6,26 L-7,26 L-7,27 L-8,27 L-8,28 L-9,28 L-9,25 L-7,25 L-7,23 L-5,23 L-5,19 L-3,19 L-3,20 L-2,20 L-2,16 L0,16 Z " fill="#C6EADC" transform="translate(109,63)"/>
<path d="M0,0 L1,0 L1,1 L2,1 L2,2 L3,2 L3,21 L2,21 L2,22 L1,22 L1,23 L0,23 L0,20 L1,20 L1,2 L0,2 Z " fill="#CAE8D1" transform="translate(107,37)"/>
<path d="M0,0 L4,0 L4,1 L1,1 L1,2 L2,2 L2,3 L-3,3 L-3,4 L-9,4 L-9,3 L-25,3 L-25,2 L-5,2 L-5,1 L0,1 Z " fill="#474647" transform="translate(95,150)"/>
</svg>
