<?xml version="1.0" encoding="UTF-8"?>
<svg version="1.1" xmlns="http://www.w3.org/2000/svg" width="512" height="512">
<path d="M0 0 C1.566717 -0.01029488 1.566717 -0.01029488 3.16508484 -0.02079773 C6.61548481 -0.03908931 10.06543112 -0.03522472 13.51586914 -0.02954102 C15.91573739 -0.03410166 18.31560433 -0.03940689 20.71546936 -0.04542542 C25.74493719 -0.05436118 30.77424628 -0.05192797 35.80371094 -0.04199219 C42.24782849 -0.03050208 48.69139812 -0.05071291 55.13544369 -0.07990932 C60.09143045 -0.0982583 65.0472856 -0.09798141 70.00329781 -0.0922718 C72.37914359 -0.09211843 74.7549982 -0.0981759 77.13081169 -0.11056328 C80.45344254 -0.12544622 83.77505713 -0.11481495 87.09765625 -0.09765625 C88.07810913 -0.10732422 89.05856201 -0.11699219 90.06872559 -0.12695312 C95.90601846 -0.06385372 99.1367627 0.57560663 103.61352539 4.40405273 C107.45733892 8.84528738 107.00321907 13.50209255 106.90649414 19.07983398 C106.9022493 20.00499313 106.89800446 20.93015228 106.89363098 21.88334656 C106.87688532 24.82804903 106.83924061 27.77205833 106.80102539 30.71655273 C106.78597324 32.71719387 106.77228576 34.71784577 106.76000977 36.71850586 C106.72699522 41.61395381 106.67524114 46.50888588 106.61352539 51.40405273 C107.28649658 51.57348389 107.95946777 51.74291504 108.65283203 51.91748047 C115.3359731 53.66103488 121.66855013 55.83847469 128.05102539 58.46655273 C128.92178711 58.81782227 129.79254883 59.1690918 130.68969727 59.53100586 C137.26060246 62.1987026 137.26060246 62.1987026 139.63720703 63.58154297 C141.5539551 64.54055427 141.5539551 64.54055427 143.54223633 64.33422852 C146.58119692 62.9694902 148.43260937 60.90025345 150.75415039 58.52124023 C151.24002625 58.02874786 151.7259021 57.53625549 152.22650146 57.02883911 C153.7794521 55.45253045 155.32192778 53.86645947 156.86352539 52.27905273 C158.88566459 50.21009585 160.91218521 48.14551042 162.94165039 46.08374023 C163.43060791 45.58619232 163.91956543 45.08864441 164.42333984 44.57601929 C167.82790704 41.13507299 171.34105603 37.87913551 175.0324707 34.74975586 C176.43429778 33.556601 177.77890842 32.29693886 179.11352539 31.02905273 C183.6099454 28.10637973 187.71084809 28.05298846 192.79486084 28.99104309 C197.60542909 30.42011555 200.52449604 33.62130429 203.9699707 37.12939453 C204.66843109 37.82069962 205.36689148 38.5120047 206.08651733 39.22425842 C208.38414116 41.50502116 210.66316027 43.80340591 212.94165039 46.10327148 C214.53791337 47.6987055 216.13499205 49.29332376 217.73284912 50.88716125 C221.07611677 54.22757256 224.41044643 57.57658646 227.73852539 60.93212891 C231.99927266 65.22694344 236.27975368 69.50142401 240.5669136 73.76985455 C243.86694296 77.0593009 247.15712975 80.35845086 250.44435883 83.66068459 C252.01878805 85.24028737 253.59604307 86.81707891 255.17618561 88.39096642 C257.38561774 90.59493169 259.58167045 92.81142562 261.7746582 95.03173828 C262.42612823 95.67668243 263.07759827 96.32162659 263.74880981 96.9861145 C268.03932192 101.36764359 271.14292269 105.49095907 271.89868164 111.77514648 C270.89937767 121.04938855 264.29505431 127.03131336 257.90258789 133.31030273 C257.28958832 133.92047241 256.67658875 134.53064209 256.04501343 135.15930176 C254.11422215 137.0790293 252.17654657 138.99162715 250.23852539 140.90405273 C248.91644596 142.21608449 247.59482717 143.52858059 246.27368164 144.84155273 C243.05892097 148.03443658 239.83797263 151.22095272 236.61352539 154.40405273 C236.890271 155.0327124 237.1670166 155.66137207 237.45214844 156.30908203 C251.61352539 188.53100383 251.61352539 188.53100383 251.61352539 192.40405273 C252.63712158 192.38834229 253.66071777 192.37263184 254.71533203 192.35644531 C258.53767938 192.30186589 262.35999273 192.26760154 266.18261719 192.23925781 C267.83241583 192.22423468 269.48217497 192.20381014 271.13183594 192.17773438 C273.51255076 192.14106375 275.89273447 192.12426171 278.27368164 192.11108398 C279.00313492 192.09560013 279.7325882 192.08011627 280.48414612 192.06416321 C286.95706935 192.06206849 291.54806642 193.56310017 296.48852539 197.96655273 C299.25406324 201.13878732 299.73845495 202.6093988 299.76069641 206.70428467 C299.77142937 208.05849518 299.77142937 208.05849518 299.78237915 209.44006348 C299.78641251 210.92995789 299.78641251 210.92995789 299.79052734 212.44995117 C299.80038414 214.01601105 299.80038414 214.01601105 299.81044006 215.6137085 C299.83020439 219.08028225 299.84184281 222.54681261 299.85180664 226.01342773 C299.85588217 227.19562141 299.8599577 228.37781509 299.86415672 229.59583282 C299.88503107 235.85319343 299.89932676 242.11053201 299.90869141 248.36791992 C299.91975718 254.8356133 299.95415556 261.30296275 299.99386311 267.77053452 C300.01999323 272.7393661 300.02838008 277.70811533 300.03197289 282.67700958 C300.03684833 285.06124443 300.04848941 287.44547536 300.06701088 289.82964325 C300.09132425 293.16689891 300.0904511 296.50325929 300.08349609 299.84057617 C300.09630615 300.82574219 300.10911621 301.8109082 300.12231445 302.82592773 C300.0779115 308.67114697 299.4832915 311.94080237 295.61352539 316.40405273 C290.09971692 320.40156388 285.21322787 320.54775969 278.56665039 320.50170898 C277.79544861 320.50029404 277.02424683 320.49887909 276.22967529 320.49742126 C273.77425201 320.49183807 271.31892097 320.47928869 268.86352539 320.46655273 C267.19555796 320.46153556 265.5275891 320.45697303 263.85961914 320.45288086 C259.77755252 320.44187415 255.69555458 320.4246211 251.61352539 320.40405273 C251.36699219 321.30087769 251.36699219 321.30087769 251.11547852 322.21582031 C249.24845461 328.74471184 246.84991966 334.88273735 244.11352539 341.09155273 C243.72293945 341.98938477 243.33235352 342.8872168 242.92993164 343.81225586 C242.20009394 345.48940816 241.46799834 347.16558151 240.73266602 348.84033203 C239.34393511 352.02162855 237.97851077 355.21249625 236.61352539 358.40405273 C237.53166016 359.30124023 238.44979492 360.19842773 239.39575195 361.12280273 C242.82027047 364.47457023 246.23124652 367.83984607 249.63842773 371.20922852 C251.1110402 372.66180544 252.58723314 374.11076225 254.06713867 375.5559082 C256.20165017 377.64154873 258.32267089 379.74014748 260.44165039 381.84155273 C261.09909241 382.47834961 261.75653442 383.11514648 262.43389893 383.77124023 C267.12660071 388.46165654 270.86156944 393.37356881 272.10180664 400.02124023 C271.70710253 405.09099524 270.44170537 408.06302342 266.9597168 411.77905273 C266.14408264 412.65158691 265.32844849 413.52412109 264.48809814 414.4230957 C263.53191794 415.41868308 262.57359544 416.4122159 261.61352539 417.40405273 C261.08826012 417.94773499 260.56299484 418.49141724 260.02181244 419.05157471 C255.63482958 423.5767727 251.20260405 428.05658356 246.76196289 432.52905273 C246.06183704 433.23450226 245.3617112 433.93995178 244.64036942 434.66677856 C240.94611786 438.38754649 237.24834455 442.10477693 233.5480957 445.81958008 C230.49776221 448.88332846 227.45489627 451.95421664 224.41821289 455.03149414 C220.72957258 458.76940901 217.02884749 462.49493904 213.31904984 466.21185303 C211.91381471 467.62379267 210.51283107 469.03997727 209.11628342 470.46051025 C207.16649496 472.44191112 205.20152664 474.40696238 203.23217773 476.36889648 C202.66368607 476.95379349 202.0951944 477.53869049 201.50947571 478.14131165 C196.75293694 482.82505457 192.44775829 484.35906491 185.67602539 484.46655273 C180.32228974 483.53015791 177.37394074 480.09828477 173.61352539 476.40405273 C172.50098764 475.37178713 171.38479126 474.34345704 170.26586914 473.31811523 C164.95994212 468.44054766 159.6823948 463.56772385 154.70727539 458.34936523 C154.08224121 457.69911377 153.45720703 457.0488623 152.81323242 456.37890625 C151.61832287 455.12660139 150.43636442 453.86177887 149.26928711 452.58349609 C146.3271367 449.3583544 146.3271367 449.3583544 142.28149414 448.28686523 C141.40106445 448.65553711 140.52063477 449.02420898 139.61352539 449.40405273 C138.96158203 449.66532959 138.30963867 449.92660645 137.63793945 450.19580078 C135.25807058 451.16517588 132.90543691 452.18697682 130.55102539 453.21655273 C111.48767439 461.40405273 111.48767439 461.40405273 106.61352539 461.40405273 C106.63447266 462.64493652 106.65541992 463.88582031 106.67700195 465.16430664 C106.74957909 469.78235263 106.7953896 474.4003485 106.83325195 479.01879883 C106.85332708 481.01497891 106.88059328 483.01110048 106.9152832 485.00708008 C106.96398196 487.88173894 106.98653525 490.75561813 107.00415039 493.63061523 C107.02479553 494.51834625 107.04544067 495.40607727 107.06671143 496.32070923 C107.06869418 501.83615041 106.42249002 505.11470013 102.61352539 509.40405273 C97.88725916 513.2815594 93.04958669 512.83478396 87.22705078 512.80810547 C85.66033379 512.81840034 85.66033379 512.81840034 84.06196594 512.8289032 C80.61156597 512.84719478 77.16161967 512.84333019 73.71118164 512.83764648 C71.31131339 512.84220713 68.91144645 512.84751236 66.51158142 512.85353088 C61.48211359 512.86246664 56.4528045 512.86003344 51.42333984 512.85009766 C44.97922229 512.83860755 38.53565266 512.85881838 32.09160709 512.88801479 C27.13562033 512.90636377 22.17976518 512.90608688 17.22375298 512.90037727 C14.84790719 512.9002239 12.47205258 512.90628137 10.09623909 512.91866875 C6.77360824 512.93355169 3.45199365 512.92292042 0.12939453 512.90576172 C-0.85105835 512.91542969 -1.83151123 512.92509766 -2.8416748 512.93505859 C-8.67896768 512.87195919 -11.90971192 512.23249884 -16.38647461 508.40405273 C-20.23028813 503.96281809 -19.77616829 499.30601292 -19.67944336 493.72827148 C-19.67519852 492.80311234 -19.67095367 491.87795319 -19.6665802 490.92475891 C-19.64983454 487.98005644 -19.61218983 485.03604714 -19.57397461 482.09155273 C-19.55892246 480.0909116 -19.54523498 478.0902597 -19.53295898 476.08959961 C-19.49994444 471.19415166 -19.44819036 466.29921959 -19.38647461 461.40405273 C-20.0594458 461.23462158 -20.73241699 461.06519043 -21.42578125 460.890625 C-28.10892232 459.14707059 -34.44149935 456.96963078 -40.82397461 454.34155273 C-42.13011719 453.81464844 -42.13011719 453.81464844 -43.46264648 453.27709961 C-50.03355168 450.60940287 -50.03355168 450.60940287 -52.41015625 449.2265625 C-54.32690431 448.2675512 -54.32690431 448.2675512 -56.31518555 448.47387695 C-59.35414613 449.83861527 -61.20555859 451.90785202 -63.52709961 454.28686523 C-64.01297546 454.7793576 -64.49885132 455.27184998 -64.99945068 455.77926636 C-66.55240132 457.35557502 -68.094877 458.941646 -69.63647461 460.52905273 C-71.65861381 462.59800962 -73.68513442 464.66259505 -75.71459961 466.72436523 C-76.20355713 467.22191315 -76.69251465 467.71946106 -77.19628906 468.23208618 C-80.60085626 471.67303248 -84.11400525 474.92896996 -87.80541992 478.05834961 C-89.207247 479.25150447 -90.55185764 480.51116661 -91.88647461 481.77905273 C-96.2100078 484.58934931 -100.37938708 484.73856732 -105.38647461 483.90405273 C-115.36370807 478.915436 -123.44365154 468.5468019 -131.28100586 460.74780273 C-131.98704138 460.04584274 -132.6930769 459.34388275 -133.42050743 458.62065125 C-137.14868333 454.91321761 -140.87365879 451.20260141 -144.59619141 447.48950195 C-148.43213219 443.66467482 -152.27961841 439.85167961 -156.12973499 436.04113007 C-159.10038846 433.09662426 -162.0621187 430.14326429 -165.02152061 427.18745422 C-166.43630506 425.77753075 -167.85445748 424.37097823 -169.27607155 422.96794128 C-171.26229112 421.00610001 -173.23547021 419.03197214 -175.20605469 417.05444336 C-176.08272041 416.19699272 -176.08272041 416.19699272 -176.97709656 415.32221985 C-181.09517682 411.15113474 -183.9509945 407.02509968 -184.67163086 401.03295898 C-183.67232689 391.75871692 -177.06800353 385.77679211 -170.67553711 379.49780273 C-170.06253754 378.88763306 -169.44953796 378.27746338 -168.81796265 377.64880371 C-166.88717137 375.72907617 -164.94949579 373.81647832 -163.01147461 371.90405273 C-161.68939518 370.59202098 -160.36777639 369.27952488 -159.04663086 367.96655273 C-155.83187019 364.77366889 -152.61092185 361.58715275 -149.38647461 358.40405273 C-149.66322021 357.77539307 -149.93996582 357.1467334 -150.22509766 356.49902344 C-164.38647461 324.27710164 -164.38647461 324.27710164 -164.38647461 320.40405273 C-165.4100708 320.41976318 -166.43366699 320.43547363 -167.48828125 320.45166016 C-171.31062859 320.50623957 -175.13294195 320.54050393 -178.95556641 320.56884766 C-180.60536505 320.58387079 -182.25512419 320.60429533 -183.90478516 320.63037109 C-186.28549997 320.66704172 -188.66568369 320.68384376 -191.04663086 320.69702148 C-191.77608414 320.71250534 -192.50553741 320.7279892 -193.25709534 320.74394226 C-199.73001857 320.74603698 -204.32101564 319.2450053 -209.26147461 314.84155273 C-212.02701245 311.66931815 -212.51140417 310.19870667 -212.53364563 306.1038208 C-212.54080093 305.20101379 -212.54795624 304.29820679 -212.55532837 303.36804199 C-212.55801727 302.37477905 -212.56070618 301.38151611 -212.56347656 300.3581543 C-212.57004776 299.31411438 -212.57661896 298.27007446 -212.58338928 297.19439697 C-212.60315361 293.72782322 -212.61479203 290.26129286 -212.62475586 286.79467773 C-212.62883139 285.61248405 -212.63290691 284.43029037 -212.63710594 283.21227264 C-212.65798029 276.95491204 -212.67227598 270.69757346 -212.68164062 264.44018555 C-212.6927064 257.97249217 -212.72710478 251.50514272 -212.76681232 245.03757095 C-212.79294245 240.06873937 -212.80132929 235.09999014 -212.8049221 230.13109589 C-212.80979755 227.74686104 -212.82143863 225.36263011 -212.8399601 222.97846222 C-212.86427347 219.64120656 -212.86340032 216.30484618 -212.85644531 212.9675293 C-212.86925537 211.98236328 -212.88206543 210.99719727 -212.89526367 209.98217773 C-212.85086072 204.1369585 -212.25624071 200.8673031 -208.38647461 196.40405273 C-202.87266614 192.40654159 -197.98617709 192.26034578 -191.33959961 192.30639648 C-190.18279694 192.30851891 -190.18279694 192.30851891 -189.00262451 192.3106842 C-186.54720123 192.3162674 -184.09187019 192.32881678 -181.63647461 192.34155273 C-179.96850718 192.34656991 -178.30053832 192.35113244 -176.63256836 192.35522461 C-172.55050174 192.36623132 -168.4685038 192.38348437 -164.38647461 192.40405273 C-164.22211914 191.80616943 -164.05776367 191.20828613 -163.88842773 190.59228516 C-162.02140383 184.06339363 -159.62286888 177.92536812 -156.88647461 171.71655273 C-156.49588867 170.8187207 -156.10530273 169.92088867 -155.70288086 168.99584961 C-154.97304316 167.31869731 -154.24094755 165.64252395 -153.50561523 163.96777344 C-152.11688433 160.78647692 -150.75145999 157.59560922 -149.38647461 154.40405273 C-150.76367676 153.05827148 -150.76367676 153.05827148 -152.16870117 151.68530273 C-155.59321968 148.33353524 -159.00419574 144.96825939 -162.41137695 141.59887695 C-163.88398942 140.14630003 -165.36018236 138.69734322 -166.84008789 137.25219727 C-168.97459939 135.16655674 -171.09562011 133.06795799 -173.21459961 130.96655273 C-173.87204163 130.32975586 -174.52948364 129.69295898 -175.20684814 129.03686523 C-179.89954993 124.34644893 -183.63451865 119.43453666 -184.87475586 112.78686523 C-184.47973666 107.71306305 -183.20946833 104.73727903 -179.7277832 101.01538086 C-178.9122699 100.14292725 -178.09675659 99.27047363 -177.25653076 98.37158203 C-171.45131222 92.33828478 -165.53818123 86.41293426 -159.61303711 80.49780273 C-158.19804556 79.08213624 -156.78320238 77.66632144 -155.36849976 76.25036621 C-152.42347421 73.30387605 -149.47667181 70.35917804 -146.52856445 67.41577148 C-142.74899162 63.64193211 -138.97397599 59.86357079 -135.20025063 56.08388519 C-132.2887603 53.16878703 -129.37489966 50.25606759 -126.46030807 47.34407043 C-125.06649756 45.95092667 -123.67342859 44.55704058 -122.28111649 43.16239929 C-120.34289396 41.22164265 -118.40150472 39.28411074 -116.45922852 37.34741211 C-115.88570648 36.77186584 -115.31218445 36.19631958 -114.72128296 35.60333252 C-110.13068144 31.03717231 -107.11398191 28.92568905 -100.71850586 28.38842773 C-94.76324376 28.42832899 -91.45681792 31.13841206 -87.44897461 35.15405273 C-86.86245117 35.78827148 -86.27592773 36.42249023 -85.67163086 37.07592773 C-83.74598309 39.03778427 -81.79379027 40.79380265 -79.70678711 42.57592773 C-76.59139983 45.26988729 -73.69304907 48.08660237 -70.84350586 51.06030273 C-69.69785156 52.25139648 -69.69785156 52.25139648 -68.52905273 53.46655273 C-66.9544366 55.11376224 -65.38953597 56.77030581 -63.83374023 58.43530273 C-63.07383789 59.21905273 -62.31393555 60.00280273 -61.53100586 60.81030273 C-60.85400635 61.52508789 -60.17700684 62.23987305 -59.47949219 62.97631836 C-57.46345839 64.66741436 -57.46345839 64.66741436 -54.89135742 64.23535156 C-52.59256737 63.47244902 -50.38111208 62.67054919 -48.16381836 61.69702148 C-47.38321045 61.35928711 -46.60260254 61.02155273 -45.79833984 60.67358398 C-44.98179932 60.31651367 -44.16525879 59.95944336 -43.32397461 59.59155273 C-24.2606236 51.40405273 -24.2606236 51.40405273 -19.38647461 51.40405273 C-19.40742188 50.16316895 -19.42836914 48.92228516 -19.44995117 47.64379883 C-19.52252831 43.02575284 -19.56833881 38.40775697 -19.60620117 33.78930664 C-19.6262763 31.79312656 -19.6535425 29.79700499 -19.68823242 27.80102539 C-19.73693118 24.92636653 -19.75948447 22.05248734 -19.77709961 19.17749023 C-19.79774475 18.28975922 -19.81838989 17.4020282 -19.83966064 16.48739624 C-19.8416434 10.97195506 -19.19543923 7.69340534 -15.38647461 3.40405273 C-10.66020838 -0.47345393 -5.82253591 -0.02667849 0 0 Z M11.61352539 114.40405273 C10.55053223 114.6614624 10.55053223 114.6614624 9.46606445 114.92407227 C-1.09713625 117.56133723 -10.69928032 121.480352 -20.38647461 126.40405273 C-21.4628418 126.92612305 -22.53920898 127.44819336 -23.64819336 127.98608398 C-41.87680813 137.20128776 -58.05350608 151.21557992 -70.38647461 167.40405273 C-71.0400293 168.2303418 -71.69358398 169.05663086 -72.36694336 169.90795898 C-95.39293061 200.01179461 -105.03309148 238.80355368 -100.61694336 276.28491211 C-96.78738574 304.50159762 -85.42070631 332.04528654 -66.38647461 353.40405273 C-65.6684668 354.24194336 -64.95045898 355.07983398 -64.21069336 355.94311523 C-40.96656639 382.61399627 -7.72687572 400.64654873 27.61352539 404.40405273 C28.70745605 404.52151855 28.70745605 404.52151855 29.82348633 404.64135742 C69.918891 408.570261 107.60471343 395.53785828 138.61352539 370.40405273 C145.18335724 364.92983582 151.29188673 359.10371572 156.61352539 352.40405273 C157.82588867 350.90745117 157.82588867 350.90745117 159.06274414 349.38061523 C183.8990683 317.74123913 194.05153436 277.9861129 189.29711914 238.30249023 C185.03994513 206.05423896 170.0223244 177.62124997 147.61352539 154.40405273 C146.81301758 153.54038086 146.01250977 152.67670898 145.18774414 151.78686523 C127.04391423 132.72248095 101.87967084 120.70874929 76.61352539 114.40405273 C75.36055664 114.08307617 74.10758789 113.76209961 72.81665039 113.43139648 C53.20487335 109.19793056 31.09679279 109.58262611 11.61352539 114.40405273 Z " fill="#5B6F99" transform="translate(212.386474609375,-0.404052734375)"/>
<path d="M0 0 C54 0 54 0 60 4 C63.84381353 8.44123464 63.38969368 13.09803982 63.29296875 18.67578125 C63.28872391 19.6009404 63.28447906 20.52609955 63.28010559 21.47929382 C63.26335993 24.4239963 63.22571522 27.3680056 63.1875 30.3125 C63.17244785 32.31314113 63.15876037 34.31379303 63.14648438 36.31445312 C63.11346983 41.20990107 63.06171575 46.10483315 63 51 C63.67297119 51.16943115 64.34594238 51.3388623 65.03930664 51.51342773 C71.72244771 53.25698214 78.05502474 55.43442195 84.4375 58.0625 C85.30826172 58.41376953 86.17902344 58.76503906 87.07617188 59.12695312 C93.64707707 61.79464986 93.64707707 61.79464986 96.02368164 63.17749023 C97.94042971 64.13650154 97.94042971 64.13650154 99.92871094 63.93017578 C102.96767152 62.56543747 104.81908398 60.49620071 107.140625 58.1171875 C107.62650085 57.62469513 108.11237671 57.13220276 108.61297607 56.62478638 C110.16592671 55.04847772 111.70840239 53.46240674 113.25 51.875 C115.2721392 49.80604312 117.29865981 47.74145768 119.328125 45.6796875 C119.81708252 45.18213959 120.30604004 44.68459167 120.80981445 44.17196655 C124.21438165 40.73102025 127.72753064 37.47508277 131.41894531 34.34570312 C132.82077239 33.15254827 134.16538303 31.89288612 135.5 30.625 C139.99642001 27.70232699 144.0973227 27.64893572 149.18133545 28.58699036 C153.9919037 30.01606281 156.91097065 33.21725155 160.35644531 36.7253418 C161.0549057 37.41664688 161.75336609 38.10795197 162.47299194 38.82020569 C164.77061577 41.10096842 167.04963488 43.39935317 169.328125 45.69921875 C170.92438798 47.29465276 172.52146666 48.88927102 174.11932373 50.48310852 C177.46259138 53.82351983 180.79692104 57.17253373 184.125 60.52807617 C188.38574727 64.82289071 192.66622829 69.09737127 196.95338821 73.36580181 C200.25341757 76.65524817 203.54360436 79.95439813 206.83083344 83.25663185 C208.40526265 84.83623463 209.98251768 86.41302618 211.56266022 87.98691368 C213.77209235 90.19087896 215.96814506 92.40737288 218.16113281 94.62768555 C218.81260284 95.2726297 219.46407288 95.91757385 220.13528442 96.58206177 C224.42579653 100.96359085 227.5293973 105.08690634 228.28515625 111.37109375 C227.28585228 120.64533582 220.68152892 126.62726063 214.2890625 132.90625 C213.67606293 133.51641968 213.06306335 134.12658936 212.43148804 134.75524902 C210.50069676 136.67497657 208.56302118 138.58757441 206.625 140.5 C205.30292057 141.81203176 203.98130178 143.12452786 202.66015625 144.4375 C199.44539558 147.63038385 196.22444724 150.81689998 193 154 C193.27674561 154.62865967 193.55349121 155.25731934 193.83862305 155.9050293 C208 188.12695109 208 188.12695109 208 192 C209.53539429 191.97643433 209.53539429 191.97643433 211.10180664 191.95239258 C214.92415399 191.89781316 218.74646734 191.86354881 222.5690918 191.83520508 C224.21889044 191.82018194 225.86864958 191.7997574 227.51831055 191.77368164 C229.89902536 191.73701101 232.27920908 191.72020897 234.66015625 191.70703125 C235.38960953 191.69154739 236.11906281 191.67606354 236.87062073 191.66011047 C243.34354396 191.65801575 247.93454103 193.15904744 252.875 197.5625 C255.64053784 200.73473459 256.12492956 202.20534607 256.14717102 206.30023193 C256.15790398 207.65444244 256.15790398 207.65444244 256.16885376 209.03601074 C256.17154266 210.02927368 256.17423157 211.02253662 256.17700195 212.04589844 C256.18357315 213.08993835 256.19014435 214.13397827 256.19691467 215.20965576 C256.216679 218.67622951 256.22831742 222.14275987 256.23828125 225.609375 C256.24235678 226.79156868 256.2464323 227.97376236 256.25063133 229.19178009 C256.27150568 235.44914069 256.28580137 241.70647927 256.29516602 247.96386719 C256.30623179 254.43156056 256.34063017 260.89891002 256.38033772 267.36648178 C256.40646784 272.33531337 256.41485469 277.30406259 256.41844749 282.27295685 C256.42332294 284.65719169 256.43496402 287.04142263 256.45348549 289.42559052 C256.47779886 292.76284618 256.47692571 296.09920656 256.4699707 299.43652344 C256.48918579 300.91427246 256.48918579 300.91427246 256.50878906 302.421875 C256.46438611 308.26709424 255.86976611 311.53674964 252 316 C246.48619153 319.99751114 241.59970248 320.14370696 234.953125 320.09765625 C234.18192322 320.0962413 233.41072144 320.09482635 232.6161499 320.09336853 C230.16072662 320.08778534 227.70539558 320.07523595 225.25 320.0625 C223.58203257 320.05748283 221.91406371 320.0529203 220.24609375 320.04882812 C216.16402713 320.03782141 212.08202919 320.02056836 208 320 C207.83564453 320.5978833 207.67128906 321.1957666 207.50195312 321.81176758 C205.63492922 328.3406591 203.23639427 334.47868462 200.5 340.6875 C200.10941406 341.58533203 199.71882812 342.48316406 199.31640625 343.40820312 C198.58656855 345.08535543 197.85447294 346.76152878 197.11914062 348.4362793 C195.73040972 351.61757582 194.36498538 354.80844351 193 358 C193.91813477 358.8971875 194.83626953 359.794375 195.78222656 360.71875 C199.20674507 364.0705175 202.61772113 367.43579334 206.02490234 370.80517578 C207.49751481 372.25775271 208.97370775 373.70670952 210.45361328 375.15185547 C212.58812478 377.23749599 214.7091455 379.33609475 216.828125 381.4375 C217.48556702 382.07429688 218.14300903 382.71109375 218.82037354 383.3671875 C223.51307532 388.0576038 227.24804404 392.96951608 228.48828125 399.6171875 C228.09357714 404.68694251 226.82817998 407.65897068 223.34619141 411.375 C222.53055725 412.24753418 221.7149231 413.12006836 220.87457275 414.01904297 C219.91839255 415.01463035 218.96007005 416.00816316 218 417 C217.47473473 417.54368225 216.94946945 418.0873645 216.40828705 418.64752197 C212.02130419 423.17271997 207.58907866 427.65253082 203.1484375 432.125 C202.44831165 432.83044952 201.74818581 433.53589905 201.02684402 434.26272583 C197.33259247 437.98349376 193.63481916 441.7007242 189.93457031 445.41552734 C186.88423682 448.47927572 183.84137088 451.55016391 180.8046875 454.62744141 C177.11604719 458.36535627 173.4153221 462.09088631 169.70552444 465.80780029 C168.30028932 467.21973994 166.89930568 468.63592454 165.50275803 470.05645752 C163.55296957 472.03785838 161.58800125 474.00290965 159.61865234 475.96484375 C159.05016068 476.54974075 158.48166901 477.13463776 157.89595032 477.73725891 C153.13941155 482.42100184 148.8342329 483.95501218 142.0625 484.0625 C136.70876435 483.12610517 133.76041534 479.69423203 130 476 C128.88746225 474.9677344 127.77126587 473.9394043 126.65234375 472.9140625 C121.34641673 468.03649493 116.06886941 463.16367111 111.09375 457.9453125 C110.46871582 457.29506104 109.84368164 456.64480957 109.19970703 455.97485352 C108.00479748 454.72254866 106.82283903 453.45772613 105.65576172 452.17944336 C102.71361131 448.95430167 102.71361131 448.95430167 98.66796875 447.8828125 C97.78753906 448.25148438 96.90710938 448.62015625 96 449 C95.02208496 449.39191528 95.02208496 449.39191528 94.02441406 449.79174805 C91.64454519 450.76112314 89.29191152 451.78292409 86.9375 452.8125 C67.874149 461 67.874149 461 63 461 C63.02094727 462.24088379 63.04189453 463.48176758 63.06347656 464.76025391 C63.1360537 469.37829989 63.18186421 473.99629577 63.21972656 478.61474609 C63.23980169 480.61092618 63.26706789 482.60704775 63.30175781 484.60302734 C63.35045657 487.4776862 63.37300986 490.3515654 63.390625 493.2265625 C63.41127014 494.11429352 63.43191528 495.00202454 63.45318604 495.91665649 C63.45516879 501.43209767 62.80896463 504.71064739 59 509 C55.36829672 511.59175159 52.91733702 512.37178457 48.4753418 512.34057617 C47.37959839 512.34021362 46.28385498 512.33985107 45.15490723 512.33947754 C44.01453003 512.32412964 42.87415283 512.30878174 41.69921875 512.29296875 C40.64271118 512.28994751 39.58620361 512.28692627 38.49768066 512.28381348 C34.56085404 512.26814803 30.62416695 512.22626405 26.6875 512.1875 C13.4771875 512.0946875 13.4771875 512.0946875 0 512 C0 476.69 0 441.38 0 405 C2.69655977 404.10114674 4.6064156 403.80840962 7.40234375 403.640625 C46.0221278 400.97450916 82.03991943 385.25122663 108.4375 356.375 C109.64230139 354.9309273 110.8275242 353.47043969 112 352 C112.80953125 351.00097656 113.6190625 350.00195312 114.453125 348.97265625 C139.28473963 317.33062605 149.43802999 277.58223565 144.68359375 237.8984375 C140.42517837 205.64078282 125.40261911 177.23111834 103 154 C102.27296875 153.20980469 101.5459375 152.41960937 100.796875 151.60546875 C74.73168476 124.04394352 36.59658247 113.2872864 0 111 C0 74.37 0 37.74 0 0 Z " fill="#404A80" transform="translate(256,0)"/>
<path d="M0 0 C3.9201645 2.07292281 6.18329222 4.22831545 7.89453125 8.28125 C7.95898438 8.98894531 8.0234375 9.69664062 8.08984375 10.42578125 C8.36103614 13.06334598 8.67034203 14.91506094 9.89453125 17.28125 C12.76462128 18.97295159 15.6331224 20.00870463 18.7734375 21.11328125 C24.62623077 23.30350051 28.65601429 26.2921167 31.95703125 31.59375 C33.48627835 37.6087886 33.00300212 42.14348474 30.14453125 47.65625 C26.88761158 51.45598962 24.37853652 52.92398947 19.51953125 54.09375 C13.99027239 54.37974615 10.22337069 53.09331854 5.51953125 50.21875 C0.711311 47.36386923 -4.09026619 46.6992014 -9.57421875 47.7578125 C-12.95690445 48.75724237 -15.4770633 49.71175756 -18.10546875 52.09375 C-19.40457462 54.93554409 -19.97751212 57.14631257 -20.10546875 60.28125 C-18.00822989 65.14127215 -14.77439434 66.94007457 -10.16796875 69.09375 C-9.47429199 69.43140381 -8.78061523 69.76905762 -8.06591797 70.11694336 C-2.39759288 72.81736593 3.41398256 75.08693536 9.26953125 77.34375 C23.17848843 82.74725804 33.50954536 89.99723458 39.89453125 103.859375 C45.06959281 116.39272722 43.74413046 129.42325672 38.8984375 141.83203125 C33.68007657 153.44243291 23.67482096 163.34996593 11.89453125 168.28125 C10.90453125 168.28125 9.91453125 168.28125 8.89453125 168.28125 C8.95640625 169.456875 9.01828125 170.6325 9.08203125 171.84375 C9.05558883 176.83255411 8.01165586 181.0963774 4.4296875 184.79296875 C-0.39475812 188.90967173 -3.38273639 189.63878543 -9.56640625 189.55859375 C-14.63527673 189.00491713 -17.23192737 186.26973103 -20.48046875 182.59375 C-22.57054864 178.33320253 -22.47780691 174.93547701 -22.10546875 170.28125 C-23.26046875 170.28125 -24.41546875 170.28125 -25.60546875 170.28125 C-30.68159954 169.7324791 -34.78266883 167.78639996 -39.29296875 165.53125 C-39.96972656 165.19609375 -40.64648438 164.8609375 -41.34375 164.515625 C-46.3861182 161.90545793 -51.45392453 158.9837769 -54.48046875 154.03125 C-55.69799959 148.67411429 -56.0607399 143.52052472 -53.60546875 138.46875 C-50.97271047 134.51961258 -47.66029607 132.49272393 -43.10546875 131.28125 C-35.89815963 130.58800965 -30.5999356 133.23795815 -24.55078125 136.90625 C-17.80932777 140.69697144 -7.84380064 140.58058393 -0.484375 138.5625 C4.59440214 136.18152319 7.53393251 132.86638761 10.14453125 127.90625 C11.43624323 123.38525808 11.28297048 119.66853297 10.01953125 115.15625 C4.61051683 107.83817167 -6.48857274 105.53297347 -14.70214844 102.2956543 C-29.84297178 96.26683826 -43.17604435 89.01711154 -49.91796875 73.46875 C-53.68266637 62.17465714 -52.44146382 50.02111484 -47.29296875 39.40234375 C-41.8604973 29.69894902 -34.3125074 22.68083562 -24.10546875 18.28125 C-23.44546875 18.28125 -22.78546875 18.28125 -22.10546875 18.28125 C-22.151875 17.70117188 -22.19828125 17.12109375 -22.24609375 16.5234375 C-22.55590085 9.81832678 -20.95297256 6.58435442 -16.54296875 1.46875 C-12.31680025 -2.02243267 -4.95413933 -1.69120897 0 0 Z " fill="#FABF2D" transform="translate(262.10546875,158.71875)"/>
<path d="M0 0 C3.9201645 2.07292281 6.18329222 4.22831545 7.89453125 8.28125 C7.95898438 8.98894531 8.0234375 9.69664062 8.08984375 10.42578125 C8.36103614 13.06334598 8.67034203 14.91506094 9.89453125 17.28125 C12.76462128 18.97295159 15.6331224 20.00870463 18.7734375 21.11328125 C24.62623077 23.30350051 28.65601429 26.2921167 31.95703125 31.59375 C33.48627835 37.6087886 33.00300212 42.14348474 30.14453125 47.65625 C26.88761158 51.45598962 24.37853652 52.92398947 19.51953125 54.09375 C13.99027239 54.37974615 10.22337069 53.09331854 5.51953125 50.21875 C0.711311 47.36386923 -4.09026619 46.6992014 -9.57421875 47.7578125 C-12.95690445 48.75724237 -15.4770633 49.71175756 -18.10546875 52.09375 C-19.40457462 54.93554409 -19.97751212 57.14631257 -20.10546875 60.28125 C-16.88419434 66.6066153 -16.88419434 66.6066153 -6.10546875 71.28125 C-6.10546875 82.50125 -6.10546875 93.72125 -6.10546875 105.28125 C-12.08876584 103.28681764 -17.48992478 101.35263252 -23.04296875 98.53125 C-23.73245605 98.18126953 -24.42194336 97.83128906 -25.13232422 97.47070312 C-36.96361783 91.34600819 -45.65230585 84.81986036 -50.3515625 71.98046875 C-53.66405258 60.12072448 -52.10244995 47.99296313 -46.10546875 37.28125 C-40.63407637 28.56936035 -33.53968599 22.34772295 -24.10546875 18.28125 C-23.44546875 18.28125 -22.78546875 18.28125 -22.10546875 18.28125 C-22.151875 17.70117188 -22.19828125 17.12109375 -22.24609375 16.5234375 C-22.55590085 9.81832678 -20.95297256 6.58435442 -16.54296875 1.46875 C-12.31680025 -2.02243267 -4.95413933 -1.69120897 0 0 Z " fill="#FEE565" transform="translate(262.10546875,158.71875)"/>
<path d="M0 0 C0.85980469 0.52464844 1.71960938 1.04929687 2.60546875 1.58984375 C9.7678569 5.75762494 9.7678569 5.75762494 24.48046875 6.65234375 C24.48046875 22.82234375 24.48046875 38.99234375 24.48046875 55.65234375 C18.23445456 55.65234375 17.05258696 55.42931096 12.48046875 51.65234375 C8.58551018 47.24489063 8.0786918 44.06223049 8.33984375 38.41015625 C8.38625 37.83007812 8.43265625 37.25 8.48046875 36.65234375 C7.32546875 36.65234375 6.17046875 36.65234375 4.98046875 36.65234375 C-0.09566204 36.10357285 -4.19673133 34.15749371 -8.70703125 31.90234375 C-9.38378906 31.5671875 -10.06054688 31.23203125 -10.7578125 30.88671875 C-15.8001807 28.27655168 -20.86798703 25.35487065 -23.89453125 20.40234375 C-25.11206209 15.04520804 -25.4748024 9.89161847 -23.01953125 4.83984375 C-17.73661211 -3.08453496 -8.11517263 -4.34067373 0 0 Z " fill="#FEE665" transform="translate(231.51953125,292.34765625)"/>
<path d="M0 0 C8.22377622 1.17482517 8.22377622 1.17482517 12 6 C13.62337043 9.24674086 14.90465964 11.9383285 15.23046875 15.56640625 C15.76979671 18.23666105 15.76979671 18.23666105 18.44140625 19.37109375 C19.98634766 19.89896484 19.98634766 19.89896484 21.5625 20.4375 C28.59667622 23.1255602 34.00972274 25.8034941 38.0625 32.3125 C39.5917471 38.3275386 39.10847087 42.86223474 36.25 48.375 C32.99308033 52.17473962 30.48400527 53.64273947 25.625 54.8125 C20.09978163 55.09828716 16.31792844 53.76679473 11.5625 51 C7.46216101 48.49234585 7.46216101 48.49234585 0 47 C0 31.49 0 15.98 0 0 Z " fill="#FABF2D" transform="translate(256,158)"/>
</svg>
