<?xml version="1.0" encoding="UTF-8"?>
<svg version="1.1" xmlns="http://www.w3.org/2000/svg" width="512" height="512">
<path d="M0 0 C8.5033744 6.78245339 16.03324754 17.88434778 18.71875 28.4453125 C18.78320312 29.65703125 18.84765625 30.86875 18.9140625 32.1171875 C19.25285691 36.51282777 19.69456872 39.50719947 21.71875 43.4453125 C26.81242723 47.12793103 33.18190815 48.69013217 39.10791016 50.5625 C42.9362985 51.85700648 46.50052063 53.54463434 50.09375 55.3828125 C50.74021484 55.71224854 51.38667969 56.04168457 52.05273438 56.38110352 C67.72994148 64.55922105 81.91186548 75.29717847 94.71875 87.4453125 C95.20811035 87.90212402 95.6974707 88.35893555 96.20166016 88.82958984 C109.75929295 101.55121787 120.81675151 116.13419726 129.71875 132.4453125 C130.06244629 133.07228027 130.40614258 133.69924805 130.76025391 134.34521484 C154.37831511 178.02366589 158.65486236 229.53756493 144.96484375 277.0625 C136.70007076 304.05798967 122.86968536 328.51826333 103.70703125 349.26953125 C102.11168179 351.01532624 100.61939268 352.77819352 99.15625 354.6328125 C95.97494031 358.30355445 92.42914348 361.32239798 88.71875 364.4453125 C87.8421875 365.20972656 86.965625 365.97414063 86.0625 366.76171875 C69.3827723 381.08745262 41.4555395 402.4453125 18.71875 402.4453125 C18.81087435 409.10247288 18.91816016 415.75926343 19.03613281 422.41601562 C19.07448271 424.68190932 19.10932483 426.94786515 19.140625 429.21386719 C19.18614527 432.46572117 19.24416076 435.7171451 19.3046875 438.96875 C19.31623871 439.98649506 19.32778992 441.00424011 19.33969116 442.05282593 C19.3694957 443.46406235 19.3694957 443.46406235 19.39990234 444.90380859 C19.41988785 446.14957169 19.41988785 446.14957169 19.4402771 447.42050171 C19.54210542 449.67144864 19.54210542 449.67144864 21.71875 451.4453125 C24.38720299 451.74978273 24.38720299 451.74978273 27.54199219 451.70068359 C28.7637616 451.70764252 29.98553101 451.71460144 31.24432373 451.72177124 C31.8992556 451.7210902 32.55418747 451.72040916 33.22896576 451.71970749 C35.28087519 451.71874283 37.33225983 451.73167813 39.38409424 451.74868774 C45.21826039 451.79496706 51.05237545 451.81954818 56.88671875 451.82617188 C60.45541487 451.8312005 64.02356745 451.85552295 67.59207916 451.89149857 C69.60713059 451.90600881 71.62230121 451.89866926 73.63739014 451.89096069 C85.06725932 452.01377327 85.06725932 452.01377327 89.71875 456.4453125 C93.31821437 461.54391954 93.20440304 466.55556014 93.15625 472.5703125 C93.17623047 473.46363281 93.19621094 474.35695313 93.21679688 475.27734375 C93.21615234 476.13972656 93.21550781 477.00210937 93.21484375 477.890625 C93.21669678 478.66937988 93.2185498 479.44813477 93.22045898 480.25048828 C92.47624856 483.50618256 91.4319451 484.4607875 88.71875 486.4453125 C85.41005981 487.05494115 82.12991265 486.98449562 78.77368164 486.95324707 C77.75219811 486.95948703 76.73071459 486.965727 75.67827702 486.97215605 C72.24492076 486.98815 68.81226816 486.97545634 65.37890625 486.96289062 C62.92177922 486.96830887 60.46465544 486.97542985 58.00753784 486.98413086 C52.02019163 487.00050349 46.03312304 486.99807041 40.04578757 486.9864803 C35.18033943 486.97745135 30.31494752 486.97621962 25.44949341 486.98057556 C24.75734995 486.98118849 24.06520649 486.98180143 23.35208899 486.98243293 C21.94606803 486.98371182 20.54004709 486.98500867 19.13402617 486.9863233 C5.94584503 486.99773293 -7.24222495 486.98460943 -20.43038785 486.96312183 C-31.74954602 486.94525046 -43.06854011 486.94835447 -54.38769531 486.96679688 C-67.52827056 486.98819688 -80.66874834 486.99663425 -93.80933857 486.98434782 C-95.2102235 486.98307361 -96.61110845 486.98181612 -98.01199341 486.98057556 C-98.70127818 486.97995846 -99.39056294 486.97934136 -100.10073513 486.97870556 C-104.96105056 486.97525003 -109.82130424 486.98108533 -114.68161011 486.99049377 C-121.22170935 487.00287547 -127.76154615 486.99407613 -134.30163193 486.97091675 C-136.7058854 486.96561509 -139.1101649 486.96716815 -141.51440811 486.97596741 C-144.78868897 486.98684856 -148.06196532 486.97324836 -151.33618164 486.95324707 C-152.77371748 486.9666314 -152.77371748 486.9666314 -154.24029446 486.98028612 C-160.65422229 486.90394231 -160.65422229 486.90394231 -163.87145996 484.5507431 C-165.50491197 482.11128775 -165.78428383 480.80726965 -165.77734375 477.890625 C-165.77798828 477.02824219 -165.77863281 476.16585938 -165.77929688 475.27734375 C-165.75931641 474.38402344 -165.73933594 473.49070312 -165.71875 472.5703125 C-165.72583984 471.68472656 -165.73292969 470.79914063 -165.74023438 469.88671875 C-165.69015112 464.71658611 -165.3524779 460.79567761 -162.28125 456.4453125 C-156.52254395 450.95891394 -149.77771093 451.87727402 -142.203125 451.90625 C-140.82642052 451.89633645 -139.4497293 451.88439269 -138.07305908 451.87051392 C-134.46364661 451.83825093 -130.85453759 451.82776732 -127.24499512 451.82366943 C-121.45406483 451.81488804 -115.66338212 451.77949975 -109.87265778 451.7314949 C-107.85061915 451.71889022 -105.82889375 451.71966857 -103.80682373 451.72177124 C-102.58505432 451.71481232 -101.36328491 451.70785339 -100.10449219 451.70068359 C-99.0256073 451.69942474 -97.94672241 451.69816589 -96.83514404 451.6968689 C-94.11455161 451.70153901 -94.11455161 451.70153901 -92.28125 449.4453125 C-91.98958918 447.38451106 -91.98958918 447.38451106 -92.05419922 444.99560547 C-92.05435028 444.07480194 -92.05450134 443.15399841 -92.05465698 442.20529175 C-92.07014084 440.71148483 -92.07014084 440.71148483 -92.0859375 439.1875 C-92.0887674 438.16931183 -92.09159729 437.15112366 -92.09451294 436.1020813 C-92.1057323 432.8413735 -92.13084004 429.58093766 -92.15625 426.3203125 C-92.16627753 424.11328521 -92.17540377 421.90625362 -92.18359375 419.69921875 C-92.20567732 414.28115678 -92.23917205 408.86325407 -92.28125 403.4453125 C-93.16969101 403.11272682 -93.16969101 403.11272682 -94.07608032 402.77342224 C-96.80467885 401.74965335 -99.53124257 400.72056503 -102.2578125 399.69140625 C-103.18924072 399.34283569 -104.12066895 398.99426514 -105.08032227 398.63513184 C-128.4163529 389.80624847 -149.21031288 376.63347395 -167.28125 359.4453125 C-168.12042969 358.65495605 -168.12042969 358.65495605 -168.9765625 357.84863281 C-204.07941355 324.59428296 -223.55158647 279.58305975 -225.46875 231.40234375 C-226.23125915 184.65100163 -211.05679403 138.59736969 -181.28125 102.4453125 C-180.82669434 101.88392578 -180.37213867 101.32253906 -179.90380859 100.74414062 C-161.1234621 77.62788566 -137.7831425 60.15056947 -110.65625 47.8828125 C-109.94678223 47.56022461 -109.23731445 47.23763672 -108.50634766 46.90527344 C-103.53941785 44.74939466 -98.59643038 43.45053107 -93.28125 42.4453125 C-93.24596191 41.80118408 -93.21067383 41.15705566 -93.17431641 40.4934082 C-92.43610966 28.6354899 -88.17531478 19.00609245 -81.28125 9.4453125 C-80.57162109 8.45724609 -80.57162109 8.45724609 -79.84765625 7.44921875 C-60.26484284 -17.45923231 -24.12413096 -16.44076049 0 0 Z " fill="#B485ED" transform="translate(292.28125,16.5546875)"/>
<path d="M0 0 C8.5033744 6.78245339 16.03324754 17.88434778 18.71875 28.4453125 C18.78320312 29.65703125 18.84765625 30.86875 18.9140625 32.1171875 C19.25285691 36.51282777 19.69456872 39.50719947 21.71875 43.4453125 C26.81242723 47.12793103 33.18190815 48.69013217 39.10791016 50.5625 C42.9362985 51.85700648 46.50052063 53.54463434 50.09375 55.3828125 C50.74021484 55.71224854 51.38667969 56.04168457 52.05273438 56.38110352 C67.72994148 64.55922105 81.91186548 75.29717847 94.71875 87.4453125 C95.20811035 87.90212402 95.6974707 88.35893555 96.20166016 88.82958984 C109.75929295 101.55121787 120.81675151 116.13419726 129.71875 132.4453125 C130.06244629 133.07228027 130.40614258 133.69924805 130.76025391 134.34521484 C154.37831511 178.02366589 158.65486236 229.53756493 144.96484375 277.0625 C136.70007076 304.05798967 122.86968536 328.51826333 103.70703125 349.26953125 C102.11168179 351.01532624 100.61939268 352.77819352 99.15625 354.6328125 C95.97494031 358.30355445 92.42914348 361.32239798 88.71875 364.4453125 C87.8421875 365.20972656 86.965625 365.97414063 86.0625 366.76171875 C69.3827723 381.08745262 41.4555395 402.4453125 18.71875 402.4453125 C18.81087435 409.10247288 18.91816016 415.75926343 19.03613281 422.41601562 C19.07448271 424.68190932 19.10932483 426.94786515 19.140625 429.21386719 C19.18614527 432.46572117 19.24416076 435.7171451 19.3046875 438.96875 C19.31623871 439.98649506 19.32778992 441.00424011 19.33969116 442.05282593 C19.3694957 443.46406235 19.3694957 443.46406235 19.39990234 444.90380859 C19.41988785 446.14957169 19.41988785 446.14957169 19.4402771 447.42050171 C19.54210542 449.67144864 19.54210542 449.67144864 21.71875 451.4453125 C24.38720299 451.74978273 24.38720299 451.74978273 27.54199219 451.70068359 C28.7637616 451.70764252 29.98553101 451.71460144 31.24432373 451.72177124 C32.22672153 451.72074968 32.22672153 451.72074968 33.22896576 451.71970749 C35.28087519 451.71874283 37.33225983 451.73167813 39.38409424 451.74868774 C45.21826039 451.79496706 51.05237545 451.81954818 56.88671875 451.82617188 C60.45541487 451.8312005 64.02356745 451.85552295 67.59207916 451.89149857 C69.60713059 451.90600881 71.62230121 451.89866926 73.63739014 451.89096069 C85.06725932 452.01377327 85.06725932 452.01377327 89.71875 456.4453125 C93.31821437 461.54391954 93.20440304 466.55556014 93.15625 472.5703125 C93.17623047 473.46363281 93.19621094 474.35695313 93.21679688 475.27734375 C93.21615234 476.13972656 93.21550781 477.00210937 93.21484375 477.890625 C93.21669678 478.66937988 93.2185498 479.44813477 93.22045898 480.25048828 C92.47624856 483.50618256 91.4319451 484.4607875 88.71875 486.4453125 C85.41005981 487.05494115 82.12991265 486.98449562 78.77368164 486.95324707 C77.75219811 486.95948703 76.73071459 486.965727 75.67827702 486.97215605 C72.24492076 486.98815 68.81226816 486.97545634 65.37890625 486.96289062 C62.92177922 486.96830887 60.46465544 486.97542985 58.00753784 486.98413086 C52.02019163 487.00050349 46.03312304 486.99807041 40.04578757 486.9864803 C35.18033943 486.97745135 30.31494752 486.97621962 25.44949341 486.98057556 C24.75734995 486.98118849 24.06520649 486.98180143 23.35208899 486.98243293 C21.94606803 486.98371182 20.54004709 486.98500867 19.13402617 486.9863233 C5.94584503 486.99773293 -7.24222495 486.98460943 -20.43038785 486.96312183 C-31.74954602 486.94525046 -43.06854011 486.94835447 -54.38769531 486.96679688 C-67.52827056 486.98819688 -80.66874834 486.99663425 -93.80933857 486.98434782 C-95.2102235 486.98307361 -96.61110845 486.98181612 -98.01199341 486.98057556 C-98.70127818 486.97995846 -99.39056294 486.97934136 -100.10073513 486.97870556 C-104.96105056 486.97525003 -109.82130424 486.98108533 -114.68161011 486.99049377 C-121.22170935 487.00287547 -127.76154615 486.99407613 -134.30163193 486.97091675 C-136.7058854 486.96561509 -139.1101649 486.96716815 -141.51440811 486.97596741 C-144.78868897 486.98684856 -148.06196532 486.97324836 -151.33618164 486.95324707 C-152.29453887 486.96216996 -153.2528961 486.97109284 -154.24029446 486.98028612 C-160.65422229 486.90394231 -160.65422229 486.90394231 -163.87145996 484.5507431 C-165.50491197 482.11128775 -165.78428383 480.80726965 -165.77734375 477.890625 C-165.77798828 477.02824219 -165.77863281 476.16585938 -165.77929688 475.27734375 C-165.75931641 474.38402344 -165.73933594 473.49070312 -165.71875 472.5703125 C-165.72938477 471.24193359 -165.72938477 471.24193359 -165.74023438 469.88671875 C-165.69015112 464.71658611 -165.3524779 460.79567761 -162.28125 456.4453125 C-156.52254395 450.95891394 -149.77771093 451.87727402 -142.203125 451.90625 C-140.82642052 451.89633645 -139.4497293 451.88439269 -138.07305908 451.87051392 C-134.46364661 451.83825093 -130.85453759 451.82776732 -127.24499512 451.82366943 C-121.45406483 451.81488804 -115.66338212 451.77949975 -109.87265778 451.7314949 C-107.85061915 451.71889022 -105.82889375 451.71966857 -103.80682373 451.72177124 C-102.58505432 451.71481232 -101.36328491 451.70785339 -100.10449219 451.70068359 C-99.0256073 451.69942474 -97.94672241 451.69816589 -96.83514404 451.6968689 C-94.11455161 451.70153901 -94.11455161 451.70153901 -92.28125 449.4453125 C-91.95108494 447.34551206 -91.95108494 447.34551206 -91.96240234 444.90380859 C-91.94253265 443.96298431 -91.92266296 443.02216003 -91.90219116 442.05282593 C-91.89063995 441.03508087 -91.87908875 440.01733582 -91.8671875 438.96875 C-91.84782135 437.92836578 -91.8284552 436.88798157 -91.8085022 435.81607056 C-91.74859273 432.4842353 -91.70227548 429.15236571 -91.65625 425.8203125 C-91.6180807 423.56508887 -91.5790296 421.30987998 -91.5390625 419.0546875 C-91.44288201 413.51835975 -91.35786804 407.98194365 -91.28125 402.4453125 C-88.23044089 403.08710722 -85.17967024 403.72908458 -82.12890625 404.37109375 C-80.83950134 404.6423407 -80.83950134 404.6423407 -79.52404785 404.91906738 C-78.68474731 405.09570923 -77.84544678 405.27235107 -76.98071289 405.4543457 C-75.75482956 405.7123143 -75.75482956 405.7123143 -74.50418091 405.97549438 C-72.72250546 406.35205283 -70.94198762 406.73408669 -69.16186523 407.11791992 C-43.42827717 412.54133725 -14.99423441 410.54336808 10.35546875 403.99609375 C12.71875 403.4453125 12.71875 403.4453125 15.71875 403.4453125 C15.21085938 402.548125 14.70296875 401.6509375 14.1796875 400.7265625 C1.71875 378.29140968 1.71875 378.29140968 1.71875 370.4453125 C0.81253906 370.65027344 -0.09367188 370.85523438 -1.02734375 371.06640625 C-2.24550781 371.33582031 -3.46367187 371.60523438 -4.71875 371.8828125 C-5.91371094 372.14964844 -7.10867188 372.41648437 -8.33984375 372.69140625 C-45.48647748 380.17962913 -86.32948479 371.81705957 -118.03955078 351.30810547 C-125.25375572 346.47850405 -131.90921154 341.26500795 -138.1953125 335.2578125 C-140.15835244 333.55209989 -141.9080054 332.47622418 -144.28125 331.4453125 C-144.87292969 332.095 -145.46460938 332.7446875 -146.07421875 333.4140625 C-147.25951172 334.66703125 -147.25951172 334.66703125 -148.46875 335.9453125 C-149.63470703 337.19828125 -149.63470703 337.19828125 -150.82421875 338.4765625 C-153.28125 340.4453125 -153.28125 340.4453125 -155.95703125 340.8515625 C-158.28125 340.4453125 -158.28125 340.4453125 -160.28125 338.4453125 C-163.10333654 328.12881072 -162.87436964 315.06913186 -162.28125 304.4453125 C-160.49738525 302.66144775 -157.94677404 303.27198811 -155.53125 303.2578125 C-148.97315804 303.29850387 -142.49697366 303.77099991 -135.96875 304.3828125 C-135.0312793 304.46958252 -134.09380859 304.55635254 -133.12792969 304.64575195 C-126.40987212 305.31669038 -126.40987212 305.31669038 -125.28125 306.4453125 C-124.803443 310.27862773 -124.85537945 311.89269476 -127.25 315 C-128.0853125 315.76570313 -128.920625 316.53140625 -129.78125 317.3203125 C-130.6165625 318.10148437 -131.451875 318.88265625 -132.3125 319.6875 C-132.9621875 320.26757812 -133.611875 320.84765625 -134.28125 321.4453125 C-132.71667786 325.55351419 -129.76046647 327.95868671 -126.46875 330.6953125 C-125.88907471 331.17911377 -125.30939941 331.66291504 -124.7121582 332.16137695 C-114.28257617 340.68185339 -102.40368545 346.72807778 -90.28125 352.4453125 C-89.44464844 352.84621094 -88.60804688 353.24710937 -87.74609375 353.66015625 C-55.72468148 367.72246958 -16.12404682 365.54526656 15.97387695 353.31201172 C28.47247446 348.26530178 40.19847914 341.90760336 50.71875 333.4453125 C51.2338916 333.03555176 51.7490332 332.62579102 52.27978516 332.20361328 C79.70037531 310.26551431 99.65965622 277.34343978 104.3203125 242.16796875 C108.21364942 203.13942914 99.20666557 164.40448682 74.33984375 133.6015625 C73.46927977 132.54688447 72.59558961 131.49477889 71.71875 130.4453125 C71.29223145 129.93226563 70.86571289 129.41921875 70.42626953 128.890625 C55.05020967 110.64999998 28.58092567 90.39497112 4.2578125 87.11328125 C0.78226975 87.5677753 -1.01889137 89.06922749 -3.78125 91.1953125 C-4.6990625 91.89140625 -5.616875 92.5875 -6.5625 93.3046875 C-7.90828125 94.36429688 -7.90828125 94.36429688 -9.28125 95.4453125 C-10.09650146 95.98172363 -10.91175293 96.51813477 -11.75170898 97.07080078 C-15.10622736 100.21972905 -16.07400274 103.27243078 -17.47265625 107.578125 C-17.7446434 108.37000214 -18.01663055 109.16187927 -18.29685974 109.97775269 C-19.16111893 112.50370969 -20.0030609 115.0364249 -20.84375 117.5703125 C-21.96521588 120.88706303 -23.0940786 124.20128838 -24.22265625 127.515625 C-24.49139557 128.30656555 -24.76013489 129.0975061 -25.03701782 129.91241455 C-30.49237796 145.91939781 -30.49237796 145.91939781 -34.28125 148.4453125 C-36.78125 148.7578125 -36.78125 148.7578125 -39.28125 148.4453125 C-41.9118948 146.32645553 -42.89995133 144.32074812 -43.93530273 141.14501953 C-44.22247665 140.2804715 -44.50965057 139.41592346 -44.80552673 138.525177 C-45.10560135 137.59389984 -45.40567596 136.66262268 -45.71484375 135.703125 C-46.37041662 133.73046008 -47.02601642 131.75780411 -47.68164062 129.78515625 C-48.70253106 126.67656085 -49.71988573 123.56683469 -50.7355957 120.45654297 C-51.72003337 117.45247102 -52.71697987 114.45275878 -53.71484375 111.453125 C-54.01289413 110.5258963 -54.31094452 109.5986676 -54.61802673 108.64334106 C-57.15887777 101.02188967 -60.16829174 96.85538423 -67.09375 92.5703125 C-79.42155996 84.51614332 -87.71184408 73.43595155 -91.58984375 59.01953125 C-94.81421122 42.35119095 -93.41091794 27.770222 -84.125 13.09375 C-64.31675539 -15.35961832 -27.66225633 -18.85201716 0 0 Z " fill="#A26CEC" transform="translate(292.28125,16.5546875)"/>
<path d="M0 0 C41.58 0 83.16 0 126 0 C127.98 4.95 127.98 4.95 130 10 C134.1572485 14.1572485 137.39313672 16.11795384 143.25 16.3125 C146.77803251 16.30676336 148.84663141 15.77751182 151.8125 13.875 C152.864375 13.25625 153.91625 12.6375 155 12 C158.24073647 13.09716775 160.32198174 15.07441363 162.70794678 17.46743774 C163.42864853 18.18539017 164.14935028 18.90334259 164.89189148 19.64305115 C165.67232315 20.43067337 166.45275482 21.21829559 167.25683594 22.02978516 C168.08647354 22.85913071 168.91611115 23.68847626 169.77088928 24.54295349 C172.51348464 27.28694281 175.2489268 30.03794973 177.984375 32.7890625 C179.88338767 34.69291568 181.7839031 36.59526595 183.68438721 38.49765015 C188.17547851 42.99495491 192.66144767 47.49733311 197.14559674 52.00155866 C202.25167538 57.13000044 207.36344159 62.25275698 212.47569227 67.37504506 C222.99013346 77.91038522 233.49741465 88.45283982 244 99 C242.20277181 102.91206999 239.76089782 105.32425137 236.5 108.0625 C235.93394043 108.5378418 235.36788086 109.01318359 234.78466797 109.50292969 C217.42515435 123.6415215 197.47333853 132.32339808 176 138 C174.16501953 138.51433594 174.16501953 138.51433594 172.29296875 139.0390625 C153.44706865 143.48561445 129.70588136 142.96155998 111 138 C110.35820801 137.83371094 109.71641602 137.66742188 109.05517578 137.49609375 C88.42994827 132.02709161 57.046923 120.08544532 45.6171875 100.6484375 C45.31167969 99.83246094 45.31167969 99.83246094 45 99 C45.6496875 98.41992188 46.299375 97.83984375 46.96875 97.2421875 C48.22171875 96.07042969 48.22171875 96.07042969 49.5 94.875 C50.3353125 94.10929687 51.170625 93.34359375 52.03125 92.5546875 C54.4459899 89.42127501 54.16681043 87.85054065 54 84 C53.18845459 83.91435791 52.37690918 83.82871582 51.54077148 83.74047852 C47.83954029 83.3491368 44.13851974 82.95583626 40.4375 82.5625 C38.52227539 82.36043945 38.52227539 82.36043945 36.56835938 82.15429688 C34.70727539 81.95610352 34.70727539 81.95610352 32.80859375 81.75390625 C31.67220459 81.63345947 30.53581543 81.5130127 29.36499023 81.38891602 C28.25454346 81.26057373 27.14409668 81.13223145 26 81 C24.13130249 80.82090088 24.13130249 80.82090088 22.22485352 80.63818359 C19 80 19 80 16.59375 77.03515625 C15.86710177 75.72648314 15.17068476 74.40071707 14.5 73.0625 C14.12689697 72.36044434 13.75379395 71.65838867 13.36938477 70.93505859 C3 50.85858743 3 50.85858743 3 44 C4.98 43.505 4.98 43.505 7 43 C7.23020349 36.6211356 6.36933424 30.91948692 5.0625 24.6875 C3.73291156 18.10838895 2.55632732 11.6850109 2.2734375 4.9609375 C2.10005136 2.67939731 2.10005136 2.67939731 0 0 Z " fill="#FED3C6" transform="translate(112,239)"/>
<path d="M0 0 C0.90878906 0.69738281 1.81757813 1.39476563 2.75390625 2.11328125 C3.66011719 2.79777344 4.56632812 3.48226562 5.5 4.1875 C6.42941406 4.92613281 7.35882813 5.66476563 8.31640625 6.42578125 C9.29665771 7.12719238 10.27690918 7.82860352 11.28686523 8.55126953 C14.98234737 11.65310706 16.16387455 15.15415404 17.60546875 19.65625 C17.87604095 20.44671219 18.14661316 21.23717438 18.42538452 22.05158997 C19.28219018 24.56645289 20.11249266 27.08910411 20.94140625 29.61328125 C21.78138255 32.11218659 22.62674701 34.60922607 23.47235107 37.10623169 C24.01471667 38.70898356 24.55515714 40.31238831 25.09356689 41.91647339 C27.58175677 51.33007373 27.58175677 51.33007373 32.31640625 59.42578125 C34.65585361 59.1384807 36.99032055 58.80641346 39.31640625 58.42578125 C41.95972335 52.23992516 44.18426402 45.94530931 46.3046875 39.56640625 C46.85177197 37.93995557 47.39930596 36.31365603 47.94726562 34.6875 C48.79414246 32.17417223 49.63418116 29.65954907 50.45385742 27.13720703 C51.25859632 24.66870334 52.09146032 22.21120892 52.9296875 19.75390625 C53.16536942 19.00691467 53.40105133 18.2599231 53.64387512 17.49029541 C55.61187522 11.84504703 58.56012963 8.9389421 63.31640625 5.42578125 C64.17105469 4.71550781 65.02570313 4.00523438 65.90625 3.2734375 C67.06833984 2.38978516 67.06833984 2.38978516 68.25390625 1.48828125 C69.02605469 0.88113281 69.79820312 0.27398437 70.59375 -0.3515625 C75.78165073 -2.68127976 80.69649353 -0.92383441 85.76171875 0.9921875 C87.32732652 1.64399833 88.88711234 2.30993363 90.44140625 2.98828125 C91.2710791 3.34615723 92.10075195 3.7040332 92.95556641 4.07275391 C114.78948892 13.68271055 133.91987266 28.34200416 148.31640625 47.42578125 C148.9196875 48.225 149.52296875 49.02421875 150.14453125 49.84765625 C168.59454704 75.2787591 177.31640625 103.12808568 177.31640625 134.42578125 C136.06640625 134.42578125 94.81640625 134.42578125 52.31640625 134.42578125 C51.32640625 131.45578125 50.33640625 128.48578125 49.31640625 125.42578125 C46.76626726 121.08110001 44.06071543 119.43714199 39.39453125 117.93359375 C35.52066825 116.98697309 32.10158383 116.48799809 28.46484375 118.3984375 C27.85898438 118.77871094 27.253125 119.15898437 26.62890625 119.55078125 C25.53578125 120.16953125 24.44265625 120.78828125 23.31640625 121.42578125 C20.0918024 120.33582894 18.02038814 118.37737985 15.64642334 115.99630737 C14.93413574 115.2867691 14.22184814 114.57723083 13.48797607 113.84619141 C12.71689514 113.06791992 11.94581421 112.28964844 11.15136719 111.48779297 C10.33148315 110.66820099 9.51159912 109.84860901 8.66687012 109.00418091 C5.95674001 106.29265693 3.25376377 103.57411633 0.55078125 100.85546875 C-1.32636804 98.97458955 -3.20390575 97.09410638 -5.08197021 95.21414185 C-9.51993781 90.76996099 -13.952783 86.32070703 -18.3838079 81.86960518 C-23.42942784 76.80162149 -28.48073591 71.73932354 -33.5325284 66.67749381 C-43.92255472 56.26656896 -54.30542447 45.84852619 -64.68359375 35.42578125 C-56.74071452 18.58363081 -28.80292896 6.11397694 -12.30859375 -0.19921875 C-7.69428578 -1.83752354 -4.37345717 -2.5655069 0 0 Z " fill="#FD87C7" transform="translate(220.68359375,104.57421875)"/>
<path d="M0 0 C5.312876 4.43743753 10.25737163 9.11957049 15.13842773 14.02490234 C15.91973557 14.80606415 16.7010434 15.58722595 17.50602722 16.39205933 C20.0675958 18.95432017 22.62561188 21.52009637 25.18359375 24.0859375 C26.96699007 25.87120044 28.75060846 27.65624158 30.53443909 29.44107056 C34.73639203 33.64644123 38.93611407 37.85403107 43.13474089 42.06272185 C47.91879277 46.85798931 52.70571793 51.65038414 57.49287498 56.44255137 C67.33176179 66.29186304 77.16707255 76.14473914 87 86 C90.53113769 84.63226959 90.53113769 84.63226959 93.875 82.875 C98.95526855 80.78312471 104.16195943 81.85488194 109.0703125 83.8984375 C112.53736911 85.87760747 115.18045122 88.44275066 117 92 C117.33 94.64 117.66 97.28 118 100 C159.25 100 200.5 100 243 100 C243 117.5170817 243 117.5170817 241.4375 124.625 C241.26041504 125.45636475 241.08333008 126.28772949 240.90087891 127.14428711 C234.59356464 155.30589204 221.79936241 179.03596921 202 200 C196.65304023 195.535788 191.68153184 190.8191737 186.76977539 185.88330078 C185.97871399 185.09238541 185.18765259 184.30147003 184.37261963 183.48658752 C181.77858558 180.89186111 179.18810398 178.2936189 176.59765625 175.6953125 C174.79183966 173.88762933 172.98580104 172.08016794 171.17955017 170.2729187 C166.92447273 166.01442329 162.67162814 161.75371057 158.41987652 157.49189556 C153.57536591 152.63617012 148.72798268 147.78331665 143.8803674 142.930691 C133.91706678 132.95696499 123.9573421 122.9796745 114 113 C111.58473687 113.94801004 109.2424715 114.86926011 106.95703125 116.1015625 C102.89740111 117.96526496 98.16659978 117.78285344 94 116.27734375 C88.3173094 113.25229078 84.92237835 109.08753143 83 103 C83 102.01 83 101.02 83 100 C40.1 100 -2.8 100 -47 100 C-47 89.875 -47 89.875 -46.5 85.4375 C-46.4071875 84.59058594 -46.314375 83.74367188 -46.21875 82.87109375 C-46.1465625 82.25363281 -46.074375 81.63617188 -46 81 C-45.05382812 80.80921875 -44.10765625 80.6184375 -43.1328125 80.421875 C-39.73671309 79.29958502 -39.73671309 79.29958502 -38.6796875 76.015625 C-38.41414063 74.77296875 -38.14859375 73.5303125 -37.875 72.25 C-37.55702722 70.87996709 -37.23799287 69.51018019 -36.91796875 68.140625 C-36.76505371 67.44646484 -36.61213867 66.75230469 -36.45458984 66.03710938 C-33.97822549 54.94001799 -30.09084315 45.09217696 -25 35 C-24.52691406 34.04351562 -24.05382812 33.08703125 -23.56640625 32.1015625 C-17.40736582 20.2022266 -9.22277024 9.6683147 0 0 Z " fill="#79C8E4" transform="translate(155,139)"/>
<path d="M0 0 C3.90847621 0.53741919 7.77946434 1.10748505 11.63671875 1.9375 C12.46236328 2.11023438 13.28800781 2.28296875 14.13867188 2.4609375 C15.81920025 2.81635959 17.49891627 3.17564776 19.17773438 3.5390625 C30.95765867 5.98446894 42.87706272 6.29886858 54.875 6.375 C55.6040152 6.38022675 56.3330304 6.38545349 57.08413696 6.39083862 C71.74711467 6.43882908 85.62393094 4.49573281 99.9909668 1.57250977 C103.31549566 0.93997263 106.6472445 0.45701516 110 0 C110.01981934 1.0194873 110.03963867 2.03897461 110.06005859 3.08935547 C110.13602808 6.86532648 110.22475809 10.64090773 110.31738281 14.41650391 C110.35570852 16.0518424 110.39055507 17.68726624 110.421875 19.32275391 C110.46744842 21.6712091 110.52545367 24.01907495 110.5859375 26.3671875 C110.60326431 27.46726639 110.60326431 27.46726639 110.62094116 28.58956909 C110.61868097 32.74977105 110.61868097 32.74977105 113 36 C115.66845299 36.30447023 115.66845299 36.30447023 118.82324219 36.25537109 C120.6558963 36.26580948 120.6558963 36.26580948 122.52557373 36.27645874 C123.50797153 36.27543718 123.50797153 36.27543718 124.51021576 36.27439499 C126.56212519 36.27343033 128.61350983 36.28636563 130.66534424 36.30337524 C136.49951039 36.34965456 142.33362545 36.37423568 148.16796875 36.38085938 C151.73666487 36.385888 155.30481745 36.41021045 158.87332916 36.44618607 C160.88838059 36.46069631 162.90355121 36.45335676 164.91864014 36.44564819 C176.34850932 36.56846077 176.34850932 36.56846077 181 41 C184.59946437 46.09860704 184.48565304 51.11024764 184.4375 57.125 C184.45748047 58.01832031 184.47746094 58.91164063 184.49804688 59.83203125 C184.49740234 60.69441406 184.49675781 61.55679688 184.49609375 62.4453125 C184.49794678 63.22406738 184.4997998 64.00282227 184.50170898 64.80517578 C183.75749856 68.06087006 182.7131951 69.015475 180 71 C176.69130981 71.60962865 173.41116265 71.53918312 170.05493164 71.50793457 C169.03344811 71.51417453 168.01196459 71.5204145 166.95952702 71.52684355 C163.52617076 71.5428375 160.09351816 71.53014384 156.66015625 71.51757812 C154.20302922 71.52299637 151.74590544 71.53011735 149.28878784 71.53881836 C143.30144163 71.55519099 137.31437304 71.55275791 131.32703757 71.5411678 C126.46158943 71.53213885 121.59619752 71.53090712 116.73074341 71.53526306 C116.03859995 71.53587599 115.34645649 71.53648893 114.63333899 71.53712043 C113.22731803 71.53839932 111.82129709 71.53969617 110.41527617 71.5410108 C97.22709503 71.55242043 84.03902505 71.53929693 70.85086215 71.51780933 C59.53170398 71.49993796 48.21270989 71.50304197 36.89355469 71.52148438 C23.75297944 71.54288438 10.61250166 71.55132175 -2.52808857 71.53903532 C-3.9289735 71.53776111 -5.32985845 71.53650362 -6.73074341 71.53526306 C-7.42002818 71.53464596 -8.10931294 71.53402886 -8.81948513 71.53339306 C-13.67980056 71.52993753 -18.54005424 71.53577283 -23.40036011 71.54518127 C-29.94045935 71.55756297 -36.48029615 71.54876363 -43.02038193 71.52560425 C-45.4246354 71.52030259 -47.8289149 71.52185565 -50.23315811 71.53065491 C-53.50743897 71.54153606 -56.78071532 71.52793586 -60.05493164 71.50793457 C-61.01328887 71.51685746 -61.9716461 71.52578034 -62.95904446 71.53497362 C-69.37297229 71.45862981 -69.37297229 71.45862981 -72.59020996 69.1054306 C-74.22366197 66.66597525 -74.50303383 65.36195715 -74.49609375 62.4453125 C-74.49673828 61.58292969 -74.49738281 60.72054687 -74.49804688 59.83203125 C-74.47806641 58.93871094 -74.45808594 58.04539062 -74.4375 57.125 C-74.44458984 56.23941406 -74.45167969 55.35382813 -74.45898438 54.44140625 C-74.40890112 49.27127361 -74.0712279 45.35036511 -71 41 C-65.24129395 35.51360144 -58.49646093 36.43196152 -50.921875 36.4609375 C-49.54517052 36.45102395 -48.1684793 36.43908019 -46.79180908 36.42520142 C-43.18239661 36.39293843 -39.57328759 36.38245482 -35.96374512 36.37835693 C-30.17281483 36.36957554 -24.38213212 36.33418725 -18.59140778 36.2861824 C-16.56936915 36.27357772 -14.54764375 36.27435607 -12.52557373 36.27645874 C-11.30380432 36.26949982 -10.08203491 36.26254089 -8.82324219 36.25537109 C-7.7443573 36.25411224 -6.66547241 36.25285339 -5.55389404 36.2515564 C-2.83330161 36.25622651 -2.83330161 36.25622651 -1 34 C-0.75470419 31.42420615 -0.62658207 28.94770993 -0.5859375 26.3671875 C-0.56657135 25.61535187 -0.5472052 24.86351624 -0.5272522 24.08889771 C-0.46740853 21.68438101 -0.42105274 19.27981656 -0.375 16.875 C-0.33682454 15.24607272 -0.29777307 13.61716572 -0.2578125 11.98828125 C-0.16170334 7.99235194 -0.07769059 3.99632813 0 0 Z " fill="#AF7EEB" transform="translate(201,432)"/>
<path d="M0 0 C8.81674493 7.0324037 15.41250607 17.76360136 18.71875 28.4453125 C18.95335937 29.10015625 19.18796875 29.755 19.4296875 30.4296875 C23.26943785 43.29534451 20.08132281 59.36105266 14.4375 71.11328125 C8.85128417 81.12191794 1.33938902 88.70010823 -8.40820312 94.60742188 C-13.59297483 97.96090188 -15.24118983 101.73247312 -17.28125 107.4453125 C-17.50120636 108.04844269 -17.72116272 108.65157288 -17.94778442 109.27297974 C-19.81604176 114.39692554 -21.61569457 119.54380537 -23.40625 124.6953125 C-24.21367089 127.00898599 -25.02217059 129.32227611 -25.83175659 131.63519287 C-26.33185796 133.06489792 -26.83057421 134.49508849 -27.32766724 135.92584229 C-27.97048433 137.76860931 -28.62541064 139.60713981 -29.28125 141.4453125 C-29.60464355 142.38600586 -29.92803711 143.32669922 -30.26123047 144.29589844 C-31.28125 146.4453125 -31.28125 146.4453125 -34.28125 148.4453125 C-36.78125 148.7578125 -36.78125 148.7578125 -39.28125 148.4453125 C-41.9118948 146.32645553 -42.89995133 144.32074812 -43.93530273 141.14501953 C-44.22247665 140.2804715 -44.50965057 139.41592346 -44.80552673 138.525177 C-45.10560135 137.59389984 -45.40567596 136.66262268 -45.71484375 135.703125 C-46.37041662 133.73046008 -47.02601642 131.75780411 -47.68164062 129.78515625 C-48.70253106 126.67656085 -49.71988573 123.56683469 -50.7355957 120.45654297 C-51.72003337 117.45247102 -52.71697987 114.45275878 -53.71484375 111.453125 C-54.01289413 110.5258963 -54.31094452 109.5986676 -54.61802673 108.64334106 C-57.15887777 101.02188967 -60.16829174 96.85538423 -67.09375 92.5703125 C-79.42155996 84.51614332 -87.71184408 73.43595155 -91.58984375 59.01953125 C-94.81421122 42.35119095 -93.41091794 27.770222 -84.125 13.09375 C-64.31675539 -15.35961832 -27.66225633 -18.85201716 0 0 Z " fill="#112050" transform="translate(292.28125,16.5546875)"/>
<path d="M0 0 C3.06078533 1.35182129 4.89890956 3.8140349 6.97664261 6.345397 C7.4527095 6.9199966 7.9287764 7.49459621 8.41926956 8.08660793 C30.01006359 34.75696326 40.91414261 65.59169868 40.91414261 99.845397 C-0.33585739 99.845397 -41.58585739 99.845397 -84.08585739 99.845397 C-85.07585739 96.875397 -86.06585739 93.905397 -87.08585739 90.845397 C-87.74585739 89.525397 -88.40585739 88.205397 -89.08585739 86.845397 C-77.8267414 75.46958587 -66.55343906 64.10805837 -55.26293182 52.76341057 C-50.02112466 47.49579913 -44.78410518 42.22358668 -39.55802536 36.9403677 C-35.00405172 32.33662711 -30.44141749 27.74168227 -25.86807847 23.1571756 C-23.44580532 20.72837229 -21.02815727 18.29533062 -18.62082291 15.85171223 C-15.93617811 13.1269327 -13.2322411 10.42182705 -10.52628708 7.71819973 C-9.32758736 6.49253544 -9.32758736 6.49253544 -8.10467148 5.24211025 C-7.36714142 4.51145351 -6.62961136 3.78079678 -5.8697319 3.02799892 C-5.23185116 2.38550921 -4.59397041 1.7430195 -3.93675995 1.08106041 C-2.08585739 -0.154603 -2.08585739 -0.154603 0 0 Z " fill="#FEE7DF" transform="translate(357.0858573913574,139.15460300445557)"/>
<path d="M0 0 C41.58 0 83.16 0 126 0 C127.98 4.95 127.98 4.95 130 10 C130.99 11.485 130.99 11.485 132 13 C122.11113105 22.91219643 112.21939169 32.82152033 102.32430363 42.72750854 C97.73025805 47.32678426 93.13715201 51.92699031 88.54614258 56.52929688 C84.11983699 60.96642669 79.69112981 65.40114603 75.26070976 69.83416748 C73.5664646 71.53026773 71.87310326 73.22725127 70.18062019 74.92510986 C67.81940689 77.29352743 65.4551385 79.6588527 63.09008789 82.0234375 C62.38302704 82.73409363 61.67596619 83.44474976 60.94747925 84.17694092 C60.30662888 84.81641663 59.6657785 85.45589233 59.00550842 86.11474609 C58.16621591 86.9554213 58.16621591 86.9554213 57.30996799 87.81307983 C56 89 56 89 55 89 C54.67 87.35 54.34 85.7 54 84 C53.18845459 83.91435791 52.37690918 83.82871582 51.54077148 83.74047852 C47.83954029 83.3491368 44.13851974 82.95583626 40.4375 82.5625 C38.52227539 82.36043945 38.52227539 82.36043945 36.56835938 82.15429688 C34.70727539 81.95610352 34.70727539 81.95610352 32.80859375 81.75390625 C31.67220459 81.63345947 30.53581543 81.5130127 29.36499023 81.38891602 C28.25454346 81.26057373 27.14409668 81.13223145 26 81 C24.13130249 80.82090088 24.13130249 80.82090088 22.22485352 80.63818359 C19 80 19 80 16.59375 77.03515625 C15.86710177 75.72648314 15.17068476 74.40071707 14.5 73.0625 C14.12689697 72.36044434 13.75379395 71.65838867 13.36938477 70.93505859 C3 50.85858743 3 50.85858743 3 44 C4.98 43.505 4.98 43.505 7 43 C7.23020349 36.6211356 6.36933424 30.91948692 5.0625 24.6875 C3.73291156 18.10838895 2.55632732 11.6850109 2.2734375 4.9609375 C2.10005136 2.67939731 2.10005136 2.67939731 0 0 Z " fill="#FEEEEF" transform="translate(112,239)"/>
<path d="M0 0 C41.25 0 82.5 0 125 0 C125 17.5170817 125 17.5170817 123.4375 24.625 C123.26041504 25.45636475 123.08333008 26.28772949 122.90087891 27.14428711 C116.59356464 55.30589204 103.79936241 79.03596921 84 100 C78.61895349 95.50903918 73.62042169 90.75790825 68.67797852 85.79150391 C67.87716354 84.99083496 67.07634857 84.19016602 66.25126648 83.36523438 C63.62476696 80.73804239 61.00181984 78.10733417 58.37890625 75.4765625 C56.55066939 73.6464591 54.72221053 71.81657745 52.89353943 69.98690796 C48.5853384 65.67528872 44.27936987 61.36145175 39.97449392 57.04651296 C35.06952459 52.13032954 30.16168329 47.21701744 25.25360978 42.30393338 C15.16589545 32.20579313 5.08175667 22.10408808 -5 12 C-4.72285156 11.38511719 -4.44570313 10.77023438 -4.16015625 10.13671875 C-3.61681641 8.92435547 -3.61681641 8.92435547 -3.0625 7.6875 C-2.52302734 6.48673828 -2.52302734 6.48673828 -1.97265625 5.26171875 C-0.92153959 2.90510392 -0.92153959 2.90510392 0 0 Z " fill="#58BFEA" transform="translate(273,239)"/>
<path d="M0 0 C1.65 0.66 3.3 1.32 5 2 C7.64 2.66 10.28 3.32 13 4 C13 44.92 13 85.84 13 128 C-23.11524123 128 -57.93296213 115.76481135 -84 90 C-84.66 88.68 -85.32 87.36 -86 86 C-57.62 57.62 -29.24 29.24 0 0 Z " fill="#FD66B8" transform="translate(243,252)"/>
<path d="M0 0 C43.96349001 11.53140722 84.12642726 44.47086015 106.89575195 83.4152832 C107.94817857 85.26770039 108.97936445 87.12989138 110 89 C110.34369629 89.62696777 110.68739258 90.25393555 111.04150391 90.89990234 C126.73106034 119.91564233 134.45099833 153.01112624 133 186 C132.67 186.66 132.34 187.32 132 188 C131.25951416 187.85377197 130.51902832 187.70754395 129.75610352 187.55688477 C126.358973 186.88827941 122.96075761 186.22535197 119.5625 185.5625 C117.81549805 185.21735352 117.81549805 185.21735352 116.03320312 184.86523438 C109.69335298 183.63298181 103.43148662 182.59843779 97 182 C96.96261719 180.75347656 96.92523438 179.50695312 96.88671875 178.22265625 C95.27714086 133.3850484 77.74420807 95.60189989 45.4375 64.5 C33.55133127 53.61271864 19.50205857 45.80809311 5 39 C3.41058594 38.18789062 3.41058594 38.18789062 1.7890625 37.359375 C-0.46246896 36.26198992 -2.46622677 35.43878104 -4.875 34.8125 C-5.90625 34.544375 -6.9375 34.27625 -8 34 C-7.39193053 30.2012739 -6.22620816 27.20577363 -4.5625 23.75 C-1.23884861 16.0652569 -0.65554255 8.25787933 0 0 Z " fill="#AF7EEC" transform="translate(312,60)"/>
<path d="M0 0 C0.33 0.66 0.66 1.32 1 2 C2.03125 2.144375 3.0625 2.28875 4.125 2.4375 C25.58427205 5.55255562 46.95334635 24.67822164 62 39 C62.64582031 39.59296875 63.29164063 40.1859375 63.95703125 40.796875 C86.51515041 62.13991983 100.09641742 93.78638731 105 124 C105.17055908 124.90878906 105.34111816 125.81757813 105.5168457 126.75390625 C111.27537223 165.44282427 99.46366917 205.96247342 76.64453125 237.2578125 C57.87291366 262.37186464 33.38010261 280.25852741 4 291 C3.3814917 291.2475 2.7629834 291.495 2.12573242 291.75 C-2.97651826 293.76783209 -8.06508833 295.04097828 -13.4375 296.125 C-14.23220703 296.29386719 -15.02691406 296.46273438 -15.84570312 296.63671875 C-54.27950154 304.57991224 -95.77026482 297.19829304 -128.75830078 275.86279297 C-135.97250572 271.03319155 -142.62796154 265.81969545 -148.9140625 259.8125 C-150.87710244 258.10678739 -152.6267554 257.03091168 -155 256 C-155.59167969 256.6496875 -156.18335938 257.299375 -156.79296875 257.96875 C-157.97826172 259.22171875 -157.97826172 259.22171875 -159.1875 260.5 C-160.35345703 261.75296875 -160.35345703 261.75296875 -161.54296875 263.03125 C-164 265 -164 265 -166.67578125 265.40625 C-169 265 -169 265 -171 263 C-173.82208654 252.68349822 -173.59311964 239.62381936 -173 229 C-171.21613525 227.21613525 -168.66552404 227.82667561 -166.25 227.8125 C-159.69190804 227.85319137 -153.21572366 228.32568741 -146.6875 228.9375 C-145.7500293 229.02427002 -144.81255859 229.11104004 -143.84667969 229.20043945 C-137.12862212 229.87137788 -137.12862212 229.87137788 -136 231 C-135.522193 234.83331523 -135.57412945 236.44738226 -137.96875 239.5546875 C-138.8040625 240.32039062 -139.639375 241.08609375 -140.5 241.875 C-141.3353125 242.65617188 -142.170625 243.43734375 -143.03125 244.2421875 C-143.6809375 244.82226562 -144.330625 245.40234375 -145 246 C-143.43542786 250.10820169 -140.47921647 252.51337421 -137.1875 255.25 C-136.31798706 255.9757019 -136.31798706 255.9757019 -135.4309082 256.71606445 C-125.00132617 265.23654089 -113.12243545 271.28276528 -101 277 C-100.16339844 277.40089844 -99.32679688 277.80179687 -98.46484375 278.21484375 C-66.44343148 292.27715708 -26.84279682 290.09995406 5.25512695 277.86669922 C17.75372446 272.81998928 29.47972914 266.46229086 40 258 C40.5151416 257.59023926 41.0302832 257.18047852 41.56103516 256.75830078 C68.98162531 234.82020181 88.94090622 201.89812728 93.6015625 166.72265625 C97.49489942 127.69411664 88.48791557 88.95917432 63.62109375 58.15625 C62.75052977 57.10157197 61.87683961 56.04946639 61 55 C60.57348145 54.48695313 60.14696289 53.97390625 59.70751953 53.4453125 C41.94928298 32.37871046 18.04547163 19.01683311 -8 11 C-7.59007812 10.45730469 -7.18015625 9.91460937 -6.7578125 9.35546875 C-6.21898437 8.64003906 -5.68015625 7.92460938 -5.125 7.1875 C-4.59132813 6.47980469 -4.05765625 5.77210937 -3.5078125 5.04296875 C-2.29185219 3.39543703 -1.13583859 1.70375789 0 0 Z " fill="#9052EB" transform="translate(303,92)"/>
<path d="M0 0 C2.39453125 1.79296875 2.39453125 1.79296875 4.8125 4.1875 C7.7264506 7.05391471 10.29520464 9.16462441 13.90917969 11.00073242 C19.2089963 14.28691393 20.43801787 18.69967099 22.24609375 24.4453125 C22.58753922 25.45214081 22.92898468 26.45896912 23.28077698 27.49630737 C24.35970655 30.69767225 25.39893648 33.91034129 26.4375 37.125 C27.16082247 39.29383392 27.88670815 41.46181477 28.61523438 43.62890625 C30.20926346 48.38724681 31.77851539 53.15292543 33.32615662 57.92654419 C34.22014494 61.51099001 34.22014494 61.51099001 36.625 64.0625 C39.6710833 65.2649013 42.85119003 66.10034001 46 67 C46 82.84 46 98.68 46 115 C43.03 115.99 40.06 116.98 37 118 C35.35 118.66 33.7 119.32 32 120 C3.62 91.62 -24.76 63.24 -54 34 C-46.19755584 18.39511167 -23.08486914 8.12961491 -8 1 C-4.93380174 -0.02206609 -3.18752345 -0.39546255 0 0 Z " fill="#FEEEEF" transform="translate(210,106)"/>
<path d="M0 0 C8.23484782 5.8184446 15.03126088 13.83632411 17.6484375 23.6796875 C19.25777266 36.02567026 17.78720326 47.20133978 10.4609375 57.4921875 C6.75848783 61.90361689 2.6903766 64.93787268 -2.3515625 67.6796875 C-3.10050781 68.09347656 -3.84945312 68.50726563 -4.62109375 68.93359375 C-13.13015036 72.98350958 -23.37658216 73.20656176 -32.3515625 70.4296875 C-43.65053913 65.89313778 -50.60242106 59.36301477 -56.3515625 48.6796875 C-59.93054143 40.14519927 -60.26936255 28.32595821 -57.06640625 19.60546875 C-51.68942551 8.27583963 -44.84125947 1.50614184 -33.3515625 -3.3203125 C-31.9284375 -3.97 -31.9284375 -3.97 -30.4765625 -4.6328125 C-20.04513556 -6.92772643 -9.32109675 -5.2334397 0 0 Z " fill="#77C6E1" transform="translate(276.3515625,28.3203125)"/>
<path d="M0 0 C0.33 0 0.66 0 1 0 C1.4640625 1.4540625 1.4640625 1.4540625 1.9375 2.9375 C2.69523342 5.84065792 2.69523342 5.84065792 4 7 C5.90106125 7.10256774 7.80590051 7.1357184 9.7097168 7.1418457 C10.93156174 7.14888016 12.15340668 7.15591461 13.41227722 7.16316223 C14.06970602 7.16497812 14.72713482 7.16679401 15.4044857 7.16866493 C17.46042 7.17582023 19.51611418 7.19148163 21.57197571 7.21000671 C27.41896157 7.26250429 33.26582094 7.31040801 39.11303711 7.32592773 C42.68709915 7.33603704 46.26056474 7.36544124 49.83439064 7.40724754 C51.19422699 7.41952765 52.55414775 7.42468425 53.9140377 7.42244911 C67.17777262 7.40602191 67.17777262 7.40602191 72 12 C75.59946437 17.09860704 75.48565304 22.11024764 75.4375 28.125 C75.45748047 29.01832031 75.47746094 29.91164063 75.49804688 30.83203125 C75.49708008 32.12560547 75.49708008 32.12560547 75.49609375 33.4453125 C75.49794678 34.22406738 75.4997998 35.00282227 75.50170898 35.80517578 C74.7708666 39.00238893 73.61903142 40.02026047 71 42 C68.02888441 42.37394577 65.43485737 42.50687929 62.46777344 42.45410156 C61.17942596 42.45497772 61.17942596 42.45497772 59.86505127 42.45587158 C57.02941305 42.45308745 54.19482931 42.42198017 51.359375 42.390625 C49.39211603 42.38316378 47.42484963 42.37747028 45.45758057 42.37347412 C40.28213955 42.35820849 35.10714822 42.31891849 29.93188477 42.2746582 C24.64996423 42.23372565 19.36797096 42.2154674 14.0859375 42.1953125 C3.72376086 42.15242529 -6.63808216 42.08416255 -17 42 C-16.69180002 40.07972868 -16.38028887 38.1599886 -16.06738281 36.24047852 C-15.89426575 35.17136734 -15.72114868 34.10225616 -15.54278564 33.00074768 C-13.45851909 21.47804423 -8.05973355 8.65675085 0 0 Z " fill="#A26DEC" transform="translate(310,461)"/>
<path d="M0 0 C0.02578125 0.85980469 0.0515625 1.71960937 0.078125 2.60546875 C0.89470542 19.62374709 6.60620661 31.80504243 17 45 C15.99324219 45.31710938 14.98648438 45.63421875 13.94921875 45.9609375 C-24.0147087 58.373364 -52.38659554 83.63446494 -70.6875 118.9375 C-75.86825152 129.6169128 -79.3563252 140.32560153 -81.5690918 151.95996094 C-82.99820622 159.13972999 -82.99820622 159.13972999 -86 162 C-89.0625 162.375 -89.0625 162.375 -92 162 C-94 160 -94 160 -94.28320312 157.96875 C-94.27817662 151.61524802 -93.32954847 146.07213861 -91.5 140 C-91.09950439 138.64249634 -91.09950439 138.64249634 -90.69091797 137.25756836 C-83.45554767 113.62381596 -70.97573459 92.9371435 -54 75 C-53.14148438 74.06542969 -52.28296875 73.13085938 -51.3984375 72.16796875 C-37.74075151 57.63626769 -20.53252344 46.32423082 -2 39 C-1.01 39 -0.02 39 1 39 C0.59007812 38.13117188 0.18015625 37.26234375 -0.2421875 36.3671875 C-0.78101563 35.21476562 -1.31984375 34.06234375 -1.875 32.875 C-2.40867187 31.73804687 -2.94234375 30.60109375 -3.4921875 29.4296875 C-7.37385449 20.60040351 -8.17273331 12.53871706 -8 3 C-1.125 0 -1.125 0 0 0 Z " fill="#8F53EB" transform="translate(200,58)"/>
<path d="M0 0 C1.25554687 0.26554687 2.51109375 0.53109375 3.8046875 0.8046875 C8.10406878 1.71318899 12.40464616 2.6159056 16.70556641 3.51708984 C18.51700505 3.8983439 20.32711386 4.28591619 22.13671875 4.67578125 C47.73318837 10.07535858 76.24324229 8.2178667 101.44140625 1.55078125 C104 1 104 1 109 1 C109 4.96 109 8.92 109 13 C72.7278971 22.97989423 36.29766033 22.37868541 0 13 C0 8.71 0 4.42 0 0 Z " fill="#8F52EC" transform="translate(201,419)"/>
<path d="M0 0 C2.48046875 0.06640625 2.48046875 0.06640625 5 1 C6.36328125 3.21484375 6.36328125 3.21484375 7.3125 5.9375 C7.80169922 7.28134766 7.80169922 7.28134766 8.30078125 8.65234375 C9 11 9 11 9 13 C9.90363281 12.97679687 10.80726563 12.95359375 11.73828125 12.9296875 C12.91777344 12.91164063 14.09726562 12.89359375 15.3125 12.875 C17.07013672 12.84019531 17.07013672 12.84019531 18.86328125 12.8046875 C22 13 22 13 25 15 C24.68861865 18.2779964 24.32674163 19.68067027 21.93359375 22.01953125 C20.69802734 22.90705078 20.69802734 22.90705078 19.4375 23.8125 C18.19806641 24.71935547 18.19806641 24.71935547 16.93359375 25.64453125 C16.29550781 26.09183594 15.65742188 26.53914063 15 27 C15.144375 27.58007812 15.28875 28.16015625 15.4375 28.7578125 C16.50889428 33.26659675 17.23945936 37.33054247 17 42 C15 42.875 15 42.875 12 43 C10.0625 41.6953125 10.0625 41.6953125 8 40 C5.07702766 37.54081298 5.07702766 37.54081298 1.4375 36.8125 C-1.43548822 38.21216093 -3.7525946 40.05422432 -6.28515625 41.98828125 C-8 43 -8 43 -10.9375 42.8125 C-11.618125 42.544375 -12.29875 42.27625 -13 42 C-12.85737588 40.4372038 -12.71074489 38.87477304 -12.5625 37.3125 C-12.48128906 36.44238281 -12.40007812 35.57226562 -12.31640625 34.67578125 C-12.01156391 32.09779359 -11.50910741 29.54553705 -11 27 C-14.3 24.36 -17.6 21.72 -21 19 C-20 14 -20 14 -19 13 C-16.64686445 12.92728259 -14.29166332 12.91629132 -11.9375 12.9375 C-10.64714844 12.94652344 -9.35679687 12.95554687 -8.02734375 12.96484375 C-7.02832031 12.97644531 -6.02929688 12.98804688 -5 13 C-4.80664062 12.22914062 -4.61328125 11.45828125 -4.4140625 10.6640625 C-4.15367187 9.66117188 -3.89328125 8.65828125 -3.625 7.625 C-3.36976563 6.62726562 -3.11453125 5.62953125 -2.8515625 4.6015625 C-2 2 -2 2 0 0 Z " fill="#142353" transform="translate(254,37)"/>
<path d="M0 0 C4.36037068 2.53325179 7.35129389 6.38591291 8.9296875 11.12109375 C9.31992941 16.97472235 8.92674715 20.90040919 5.9296875 26.12109375 C1.66524438 30.59724681 -1.99444373 33.22346874 -8.3203125 33.43359375 C-13.36018438 33.36803444 -15.99957445 32.0743743 -20.0703125 29.12109375 C-24.15697346 24.8135322 -25.83346043 21.18509038 -26.5078125 15.30859375 C-26.34787613 10.32234234 -24.32970777 6.81350047 -21.0703125 3.12109375 C-14.45234297 -2.59694268 -8.0687306 -3.28086516 0 0 Z " fill="#9053EB" transform="translate(264.0703125,222.87890625)"/>
<path d="M0 0 C2.68359375 1.57421875 2.68359375 1.57421875 5.4375 3.6875 C6.79681641 4.71423828 6.79681641 4.71423828 8.18359375 5.76171875 C9.11300781 6.50035156 10.04242188 7.23898438 11 8 C12.4703772 9.0521167 12.4703772 9.0521167 13.97045898 10.12548828 C17.66594112 13.22732581 18.8474683 16.72837279 20.2890625 21.23046875 C20.69492081 22.41616203 20.69492081 22.41616203 21.10897827 23.62580872 C21.96578393 26.14067164 22.79608641 28.66332286 23.625 31.1875 C24.18828081 32.86324421 24.75336957 34.53838185 25.3203125 36.21289062 C25.59582947 37.0271048 25.87134644 37.84131897 26.1552124 38.6802063 C26.42625793 39.48054291 26.69730347 40.28087952 26.9765625 41.10546875 C27.24293518 41.89331757 27.50930786 42.68116638 27.78375244 43.4928894 C29.91086976 49.79126063 29.91086976 49.79126063 32.1484375 56.05078125 C32.41575684 56.78594971 32.68307617 57.52111816 32.95849609 58.27856445 C34.28481457 60.47075188 35.6574398 61.06364366 38 62 C38 64.64 38 67.28 38 70 C34.03127373 69.76654551 31.57061241 69.41137174 28.3125 67.0625 C23.96994818 61.31155299 22.08024016 54.35446672 19.90898132 47.54679871 C18.87271183 44.29952003 17.8105403 41.06088089 16.74829102 37.82202148 C16.20736082 36.14776027 15.67935468 34.46926876 15.16430664 32.78686523 C11.79280052 20.99850373 11.79280052 20.99850373 3.359375 12.6015625 C2.45541992 12.16279785 1.55146484 11.7240332 0.62011719 11.27197266 C-3.52432692 9.25999411 -6.67184817 6.13742679 -10 3 C-6.97472034 -0.02527966 -4.13975709 -0.4572633 0 0 Z " fill="#F9C3B7" transform="translate(218,103)"/>
<path d="M0 0 C0 3 0 3 -1.6875 4.8671875 C-2.450625 5.52976562 -3.21375 6.19234375 -4 6.875 C-4.7425 7.53242187 -5.485 8.18984375 -6.25 8.8671875 C-9 11 -9 11 -10.88067627 11.96282959 C-16.16427586 14.71929152 -18.17405981 17.34302072 -20.09075928 22.94296265 C-20.36502747 23.83576935 -20.63929565 24.72857605 -20.921875 25.6484375 C-21.2340094 26.57919098 -21.5461438 27.50994446 -21.86773682 28.46890259 C-22.85542255 31.42951027 -23.80410418 34.4008064 -24.75 37.375 C-25.7173147 40.33918032 -26.69266416 43.30047527 -27.67510986 46.25967407 C-28.28216462 48.09608709 -28.87938022 49.93579237 -29.46502686 51.77914429 C-33.5750331 64.43387554 -33.5750331 64.43387554 -39 67.9375 C-42 69 -42 69 -46 69 C-46.48828125 63.04296875 -46.48828125 63.04296875 -46 61 C-44.8236499 60.38112915 -44.8236499 60.38112915 -43.62353516 59.74975586 C-40.25347423 57.50210775 -39.77623467 55.77977049 -38.53515625 51.9609375 C-37.92861206 50.14154663 -37.92861206 50.14154663 -37.30981445 48.28540039 C-37.00414047 47.3265947 -37.00414047 47.3265947 -36.69229126 46.34841919 C-36.05840271 44.36216135 -35.40199128 42.38468138 -34.73901367 40.40795898 C-32.86215219 34.79242784 -31.04745721 29.15814225 -29.265625 23.51171875 C-25.00396435 10.26868833 -25.00396435 10.26868833 -18 6 C-17.21238281 5.36449219 -16.42476563 4.72898437 -15.61328125 4.07421875 C-10.00255627 -0.35077874 -6.99120349 -1.94200097 0 0 Z " fill="#EB4BA5" transform="translate(302,104)"/>
<path d="M0 0 C3.5 0.25 3.5 0.25 5.5 2.25 C5.90033308 5.01378094 6.20133356 7.7217722 6.4375 10.5 C7.11711442 17.58558338 8.22529802 24.31211266 9.9140625 31.234375 C11.39211185 38.84140234 11.39211185 38.84140234 9.3125 42.125 C6.84492892 43.65659584 5.35480169 43.67822025 2.5 43.25 C-1.17979586 40.26037836 -1.67502478 36.44588402 -2.625 32 C-2.79386719 31.26136719 -2.96273437 30.52273438 -3.13671875 29.76171875 C-4.69142364 22.8206347 -5.64919928 16.06909452 -5.6875 8.9375 C-5.70167969 7.72449219 -5.71585937 6.51148438 -5.73046875 5.26171875 C-5.38799284 0.78631325 -4.42705769 0.31621841 0 0 Z " fill="#9154EC" transform="translate(109.5,239.75)"/>
<path d="M0 0 C0.03867188 1.28970703 0.03867188 1.28970703 0.078125 2.60546875 C0.63053699 14.11823676 2.8831997 24.16942808 9 34 C9 34.66 9 35.32 9 36 C6.36 36.66 3.72 37.32 1 38 C0.03654556 36.12762629 -0.92053102 34.2519701 -1.875 32.375 C-2.40867188 31.33085938 -2.94234375 30.28671875 -3.4921875 29.2109375 C-7.5521571 20.56509551 -8.17043759 12.4119423 -8 3 C-1.125 0 -1.125 0 0 0 Z " fill="#9E6BE7" transform="translate(200,58)"/>
<path d="M0 0 C2.64 0.66 5.28 1.32 8 2 C8.69763552 13.67893543 5.87911969 23.91244571 0 34 C-0.495 34.495 -0.495 34.495 -1 35 C-3.33944736 34.71269945 -5.6739143 34.38063221 -8 34 C-7.39193053 30.2012739 -6.22620816 27.20577363 -4.5625 23.75 C-1.23884861 16.0652569 -0.65554255 8.25787933 0 0 Z " fill="#9F6BE8" transform="translate(312,60)"/>
<path d="M0 0 C0.33 0.66 0.66 1.32 1 2 C2.97888961 2.72693904 4.97954558 3.39816251 7 4 C3.66974596 10.42263279 3.66974596 10.42263279 1.1875 12.5625 C-2.18288014 13.23657603 -4.81326103 12.10310195 -8 11 C-7.59007812 10.45730469 -7.18015625 9.91460937 -6.7578125 9.35546875 C-6.21898437 8.64003906 -5.68015625 7.92460938 -5.125 7.1875 C-4.59132813 6.47980469 -4.05765625 5.77210937 -3.5078125 5.04296875 C-2.29185219 3.39543703 -1.13583859 1.70375789 0 0 Z " fill="#7327C9" transform="translate(303,92)"/>
<path d="M0 0 C2.24313853 2.50765958 4.14275248 5.19817299 6 8 C3.03 8.66 0.06 9.32 -3 10 C-4.98 7.36 -6.96 4.72 -9 2 C-7.05311841 -1.89376319 -3.55047848 -1.40367754 0 0 Z " fill="#7126CA" transform="translate(211,95)"/>
</svg>
