<?xml version="1.0" encoding="UTF-8"?>
<svg version="1.1" xmlns="http://www.w3.org/2000/svg" width="250" height="250">
<path d="M0 0 C0.33 0 0.66 0 1 0 C1.17015625 0.72445312 1.3403125 1.44890625 1.515625 2.1953125 C3.46890473 10.22412009 3.46890473 10.22412009 8 17 C10.58121635 18.34864409 13.20889253 19.19261067 16 20 C17.155 20.391875 18.31 20.78375 19.5 21.1875 C20.325 21.455625 21.15 21.72375 22 22 C19.10713985 23.92857343 16.84278236 24.76654837 13.5625 25.8125 C9.06247158 27.4115854 6.38481892 28.66396559 4 33 C3.06096434 34.79375049 3.06096434 34.79375049 3 37 C4.47846005 39.9407263 4.47846005 39.9407263 6.625 43 C18.28645675 61.04258961 22.12543528 82.41792121 18.2734375 103.61328125 C14.21009909 122.21371313 5.15554752 136.63801735 -8 150 C-8.70769531 150.7321875 -9.41539062 151.464375 -10.14453125 152.21875 C-26.45718462 167.93878307 -50.7535073 175.16467448 -73 175 C-98.9660218 173.73198411 -120.27214391 165.12760429 -139 147 C-139.763125 146.26265625 -140.52625 145.5253125 -141.3125 144.765625 C-155.51701758 130.067895 -162.07231126 111.61874289 -163.28100586 91.5324707 C-163.72719252 84.67657731 -164.4737993 77.09663312 -168.9375 71.625 C-173.72623959 69.08403614 -178.81904562 67.55346 -184 66 C-184 65.67 -184 65.34 -184 65 C-183.09636719 64.72285156 -182.19273437 64.44570312 -181.26171875 64.16015625 C-179.49248047 63.61681641 -179.49248047 63.61681641 -177.6875 63.0625 C-175.92986328 62.52302734 -175.92986328 62.52302734 -174.13671875 61.97265625 C-172.08446023 61.33627721 -170.03839863 60.67946621 -168 60 C-166.29624285 56.54958535 -165.35856484 52.89822191 -164.375 49.1875 C-163.98441406 47.72376953 -163.98441406 47.72376953 -163.5859375 46.23046875 C-163.39257812 45.49441406 -163.19921875 44.75835937 -163 44 C-160.65085508 46.34914492 -160.26859643 47.95679446 -159.375 51.125 C-159.11460937 52.03507812 -158.85421875 52.94515625 -158.5859375 53.8828125 C-158.39257812 54.58148438 -158.19921875 55.28015625 -158 56 C-157.52691406 55.04480469 -157.05382812 54.08960938 -156.56640625 53.10546875 C-152.22680913 44.54190816 -147.50750078 37.13689636 -141 30 C-140.32582031 29.23300781 -139.65164062 28.46601562 -138.95703125 27.67578125 C-123.35981806 10.9080455 -101.43955836 1.5445845 -78.7734375 0.72265625 C-56.40919816 0.23888501 -34.81551233 3.05338956 -17.04296875 17.84765625 C-15.03510759 19.21121468 -15.03510759 19.21121468 -12.55078125 18.93359375 C-9.31762059 17.75024705 -7.4278404 16.4563553 -5 14 C-3.5888224 10.80355895 -3.5888224 10.80355895 -2.75 7.3125 C-1.05038168 1.05038168 -1.05038168 1.05038168 0 0 Z " fill="#665BC6" transform="translate(197,43)"/>
<path d="M0 0 C0.33 0 0.66 0 1 0 C1.17015625 0.72445312 1.3403125 1.44890625 1.515625 2.1953125 C3.46890473 10.22412009 3.46890473 10.22412009 8 17 C10.58121635 18.34864409 13.20889253 19.19261067 16 20 C17.155 20.391875 18.31 20.78375 19.5 21.1875 C20.7375 21.5896875 20.7375 21.5896875 22 22 C19.10713985 23.92857343 16.84278236 24.76654837 13.5625 25.8125 C9.00877886 27.4503997 6.39526255 28.60868533 4 33 C2.87710864 35.64470466 1.92412732 38.27382442 1 41 C0.34 41 -0.32 41 -1 41 C-1.38091797 39.86111328 -1.38091797 39.86111328 -1.76953125 38.69921875 C-2.11371094 37.70535156 -2.45789063 36.71148437 -2.8125 35.6875 C-3.14894531 34.70136719 -3.48539063 33.71523437 -3.83203125 32.69921875 C-5.00661195 29.98471954 -5.62481006 28.70846996 -8 27 C-11.17753787 25.77113557 -11.17753787 25.77113557 -14.6875 24.8125 C-15.86699219 24.46832031 -17.04648438 24.12414062 -18.26171875 23.76953125 C-19.61716797 23.38861328 -19.61716797 23.38861328 -21 23 C-18.8565459 21.91583992 -16.70608434 20.86348941 -14.52734375 19.8515625 C-13.24537109 19.24441406 -13.24537109 19.24441406 -11.9375 18.625 C-11.08027344 18.22539063 -10.22304687 17.82578125 -9.33984375 17.4140625 C-5.78540859 15.26597314 -4.38415938 13.16068669 -3.0859375 9.23828125 C-2.85132813 8.27277344 -2.61671875 7.30726562 -2.375 6.3125 C-1.08787346 1.08787346 -1.08787346 1.08787346 0 0 Z " fill="#272727" transform="translate(197,43)"/>
<path d="M0 0 C0.66 0 1.32 0 2 0 C2.495 1.485 2.495 1.485 3 3 C2.01 3.33 1.02 3.66 0 4 C0 4.99 0 5.98 0 7 C0.99 7 1.98 7 3 7 C3.33 5.68 3.66 4.36 4 3 C7.3 2.67 10.6 2.34 14 2 C14.495 3.485 14.495 3.485 15 5 C14.67 5.66 14.34 6.32 14 7 C14.7425 6.154375 15.485 5.30875 16.25 4.4375 C17.1575 3.633125 18.065 2.82875 19 2 C21.3125 2.1875 21.3125 2.1875 23 3 C22.67 4.32 22.34 5.64 22 7 C22.37125 6.360625 22.7425 5.72125 23.125 5.0625 C25.58052793 2.36141928 27.44578805 2.31592995 31 2 C31 3.65 31 5.3 31 7 C33.26297735 6.14532959 33.26297735 6.14532959 34 3.5 C35 1 35 1 37 0 C37.495 1.485 37.495 1.485 38 3 C37.01 3.33 36.02 3.66 35 4 C35 4.99 35 5.98 35 7 C38.39914975 5.86695008 39.05254451 4.87481525 41 2 C41.99 2.33 42.98 2.66 44 3 C43.67 4.32 43.34 5.64 43 7 C43.66 7 44.32 7 45 7 C44.67 7.99 44.34 8.98 44 10 C37.53860294 11.39705882 37.53860294 11.39705882 34.0625 10.5 C31.70580674 9.84293332 31.70580674 9.84293332 28 10 C28.33 8.35 28.66 6.7 29 5 C28.34 5 27.68 5 27 5 C26.67 6.98 26.34 8.96 26 11 C25.34 11 24.68 11 24 11 C24 10.34 24 9.68 24 9 C23.01 9.66 22.02 10.32 21 11 C18.99363529 10.70740515 16.99285937 10.37366113 15 10 C14.01 10.33 13.02 10.66 12 11 C11.505 8.525 11.505 8.525 11 6 C10.34 7.65 9.68 9.3 9 11 C8.34 11 7.68 11 7 11 C7.33 9.02 7.66 7.04 8 5 C5.2160817 6.39195915 5.02101003 8.15575779 4 11 C2.02 11 0.04 11 -2 11 C-2 10.34 -2 9.68 -2 9 C-2.99 9.66 -3.98 10.32 -5 11 C-6.671549 10.69208308 -8.33805547 10.35613097 -10 10 C-12.72502965 10.37722015 -12.72502965 10.37722015 -15 11 C-15.33 10.01 -15.66 9.02 -16 8 C-16.94875 8.495 -17.8975 8.99 -18.875 9.5 C-22 11 -22 11 -24 11 C-24 10.34 -24 9.68 -24 9 C-25.65 9.66 -27.3 10.32 -29 11 C-29.33 9.35 -29.66 7.7 -30 6 C-30.66 7.65 -31.32 9.3 -32 11 C-32.66 11 -33.32 11 -34 11 C-33.25 4.25 -33.25 4.25 -31 2 C-28.375 2.375 -28.375 2.375 -26 3 C-26.33 4.32 -26.66 5.64 -27 7 C-24.48916886 5.74458443 -24.12874554 4.49936512 -23 2 C-22.67 2 -22.34 2 -22 2 C-22 3.65 -22 5.3 -22 7 C-21.34 7 -20.68 7 -20 7 C-19.67 5.35 -19.34 3.7 -19 2 C-18.34 3.32 -17.68 4.64 -17 6 C-16.01 4.68 -15.02 3.36 -14 2 C-12.68 2.33 -11.36 2.66 -10 3 C-10.33 4.32 -10.66 5.64 -11 7 C-10.01 6.67 -9.02 6.34 -8 6 C-7.34 6.33 -6.68 6.66 -6 7 C-5.67 5.68 -5.34 4.36 -5 3 C-4.01 4.485 -4.01 4.485 -3 6 C-2.67 4.68 -2.34 3.36 -2 2 C-1.34 2 -0.68 2 0 2 C0 1.34 0 0.68 0 0 Z " fill="#EAE8E5" transform="translate(150,140)"/>
<path d="M0 0 C2.60848159 2.60848159 2.83811136 4.81543471 3.75 8.375 C5.29656499 13.60403618 5.29656499 13.60403618 8.8125 17.6875 C12.20528712 19.08452999 15.43393571 20.14414457 19 21 C16.86224011 23.13775989 15.40527526 23.7271766 12.625 24.8125 C8.54822779 26.60915442 6.25221594 28.01531026 4 32 C2.83575243 35.29532682 1.86753816 38.61528671 1 42 C-1.34400368 39.65599632 -1.54411672 38.30224127 -2.3125 35.125 C-3.23805511 31.99788175 -3.85790759 30.17417779 -5.9375 27.625 C-10.72623959 25.08403614 -15.81904562 23.55346 -21 22 C-21 21.67 -21 21.34 -21 21 C-20.09636719 20.72285156 -19.19273438 20.44570312 -18.26171875 20.16015625 C-17.08222656 19.79792969 -15.90273438 19.43570313 -14.6875 19.0625 C-13.51574219 18.70285156 -12.34398437 18.34320313 -11.13671875 17.97265625 C-9.08446023 17.33627721 -7.03839863 16.67946621 -5 16 C-3.29624285 12.54958535 -2.35856484 8.89822191 -1.375 5.1875 C-1.11460938 4.21167969 -0.85421875 3.23585938 -0.5859375 2.23046875 C-0.39257812 1.49441406 -0.19921875 0.75835937 0 0 Z " fill="#EFEDEA" transform="translate(34,87)"/>
<path d="M0 0 C1.65 0 3.3 0 5 0 C4.67 2.97 4.34 5.94 4 9 C6.97 9 9.94 9 13 9 C13.33 6.03 13.66 3.06 14 0 C15.65 0 17.3 0 19 0 C17.96324187 7.75362732 16.83622588 15.39277848 15 23 C13.35 23 11.7 23 10 23 C10.33 19.7 10.66 16.4 11 13 C8.03 13 5.06 13 2 13 C1.67 16.3 1.34 19.6 1 23 C-0.65 23 -2.3 23 -4 23 C-2.96324187 15.24637268 -1.83622588 7.60722152 0 0 Z " fill="#ECEBED" transform="translate(85,78)"/>
<path d="M0 0 C2.4375 1.1875 2.4375 1.1875 4 3 C4.25 5.6875 4.25 5.6875 4 8 C2.35 8 0.7 8 -1 8 C-1.33 7.01 -1.66 6.02 -2 5 C-3.65 5 -5.3 5 -7 5 C-7.66 6.32 -8.32 7.64 -9 9 C-8.07767578 9.16435547 -8.07767578 9.16435547 -7.13671875 9.33203125 C-6.32847656 9.49058594 -5.52023438 9.64914063 -4.6875 9.8125 C-3.88699219 9.96332031 -3.08648437 10.11414063 -2.26171875 10.26953125 C0.2958694 11.09555713 1.41777721 11.83728638 3 14 C2.89076119 20.11737362 2.89076119 20.11737362 0.2890625 22.6953125 C-2.51215958 24.29191348 -4.35341185 24.40119664 -7.5625 24.375 C-8.98755859 24.38660156 -8.98755859 24.38660156 -10.44140625 24.3984375 C-13 24 -13 24 -14.83984375 22.7265625 C-16 21 -16 21 -16 17 C-14.35 17 -12.7 17 -11 17 C-11 17.99 -11 18.98 -11 20 C-6.85906302 20.20970559 -6.85906302 20.20970559 -3 19 C-3 18.01 -3 17.02 -3 16 C-3.62648438 15.80664062 -4.25296875 15.61328125 -4.8984375 15.4140625 C-5.71570313 15.15367188 -6.53296875 14.89328125 -7.375 14.625 C-8.59316406 14.24214844 -8.59316406 14.24214844 -9.8359375 13.8515625 C-12 13 -12 13 -14 11 C-14 7.625 -14 7.625 -13 4 C-8.85295836 0.14917562 -5.58101793 -0.72346529 0 0 Z " fill="#ECEAED" transform="translate(125,77)"/>
<path d="M0 0 C2 3 2 3 3.375 6 C5.03756453 9.0693499 5.96939846 10.35481631 9 12 C12.15118325 12.72045367 12.15118325 12.72045367 15 13 C12.82727516 15.17272484 11.99177687 15.33228325 9.125 16.0625 C6.28845173 17.04239849 5.23204102 17.63975952 3.5859375 20.1953125 C2.60760515 22.44055004 1.74337881 24.66715991 1 27 C0.70480469 26.40316406 0.40960938 25.80632812 0.10546875 25.19140625 C-3.06980845 18.89695216 -5.43370555 16.27294808 -12 14 C-9 12 -9 12 -6 10.9375 C-1.72446339 8.17621594 -1.14497362 4.79081067 0 0 Z " fill="#2D2D2C" transform="translate(34,95)"/>
<path d="M0 0 C6.27 0 12.54 0 19 0 C19 1.32 19 2.64 19 4 C16.36 4 13.72 4 11 4 C10.87625 4.9075 10.7525 5.815 10.625 6.75 C9.85207844 12.18285445 8.9150506 17.58965229 8 23 C6.02 23 4.04 23 2 23 C3.10690752 16.59406714 4.33945169 10.28636144 6 4 C3.69 4 1.38 4 -1 4 C-0.67 2.68 -0.34 1.36 0 0 Z " fill="#ECE7ED" transform="translate(151,78)"/>
<path d="M0 0 C0.66 1.32 1.32 2.64 2 4 C1.34 4 0.68 4 0 4 C0 4.99 0 5.98 0 7 C2.26297735 6.14532959 2.26297735 6.14532959 3 3.5 C4 1 4 1 6 0 C6.33 1.32 6.66 2.64 7 4 C6.34 4 5.68 4 5 4 C5 4.99 5 5.98 5 7 C5.928125 6.154375 6.85625 5.30875 7.8125 4.4375 C9.39453125 2.99609375 9.39453125 2.99609375 11 2 C11.99 2.33 12.98 2.66 14 3 C13.67 4.32 13.34 5.64 13 7 C13.99 6.67 14.98 6.34 16 6 C15.3125 7.9375 15.3125 7.9375 14 10 C6.72032223 12.23990085 -2.62777714 11.59399413 -10 10 C-10.23053497 7.15673536 -10.35903101 5.53854651 -8.75 3.125 C-8.1725 2.75375 -7.595 2.3825 -7 2 C-5 2.5 -5 2.5 -3 3 C-1.22809091 1.64555699 -1.22809091 1.64555699 0 0 Z " fill="#DEDCDA" transform="translate(80,140)"/>
<path d="M0 0 C0.99 0.33 1.98 0.66 3 1 C2.34 2.32 1.68 3.64 1 5 C1.66 5 2.32 5 3 5 C3.66 3.35 4.32 1.7 5 0 C6.32 0 7.64 0 9 0 C9.125 2.375 9.125 2.375 9 5 C8.34 5.66 7.68 6.32 7 7 C5.68 7 4.36 7 3 7 C3.33 7.66 3.66 8.32 4 9 C5.65 9 7.3 9 9 9 C9.66 7.35 10.32 5.7 11 4 C11.33 4.99 11.66 5.98 12 7 C11.67 7.66 11.34 8.32 11 9 C11.66 8.67 12.32 8.34 13 8 C13 6.68 13 5.36 13 4 C14.75 1.75 14.75 1.75 17 0 C18.32 0 19.64 0 21 0 C20 3 20 3 19 4 C18.67 4.66 18.34 5.32 18 6 C17.34 6 16.68 6 16 6 C15.67 8.31 15.34 10.62 15 13 C7 13 7 13 4 12.4375 C1.19252086 12.02807596 -0.36394509 12.08751945 -3 13 C-3.33 11.35 -3.66 9.7 -4 8 C-2.68 7.67 -1.36 7.34 0 7 C-0.66 6.34 -1.32 5.68 -2 5 C-1.46428571 1.46428571 -1.46428571 1.46428571 0 0 Z " fill="#EBE9E6" transform="translate(161,163)"/>
<path d="M0 0 C0.33 0.66 0.66 1.32 1 2 C2.65 1.34 4.3 0.68 6 0 C6.33 1.32 6.66 2.64 7 4 C6.01 4 5.02 4 4 4 C4 4.99 4 5.98 4 7 C7.27773504 6.24849977 7.27773504 6.24849977 9 3 C9.99 3.33 10.98 3.66 12 4 C11.34 4 10.68 4 10 4 C10 4.66 10 5.32 10 6 C12.475 6.495 12.475 6.495 15 7 C14.01 8.32 13.02 9.64 12 11 C11.0925 10.835 10.185 10.67 9.25 10.5 C5.9726793 9.99579682 3.11194422 9.70566182 -0.125 10.5625 C-2 11 -2 11 -4 10 C-5.66821323 10.32550502 -7.33499557 10.65846063 -9 11 C-10 10 -10 10 -10.1875 7.0625 C-10 4 -10 4 -8 2 C-5.875 2.375 -5.875 2.375 -4 3 C-4.33 4.32 -4.66 5.64 -5 7 C-4.34 6.67 -3.68 6.34 -3 6 C-3 4.68 -3 3.36 -3 2 C-2.01 1.34 -1.02 0.68 0 0 Z " fill="#EEEBE8" transform="translate(131,165)"/>
<path d="M0 0 C1.64826111 2.96687001 2.44271087 5.65626525 3 9 C5.97 9.99 8.94 10.98 12 12 C10 14 10 14 6.5 15.3125 C2.84787975 16.64956988 2.84787975 16.64956988 1.5625 19.6875 C1.376875 20.450625 1.19125 21.21375 1 22 C0.34 22 -0.32 22 -1 22 C-1.495 20.6078125 -1.495 20.6078125 -2 19.1875 C-4.75750679 14.79272355 -7.10922593 14.44317923 -12 13 C-10 11 -10 11 -6.5625 9.875 C-4.1097827 8.89902291 -3.1992973 8.34946228 -1.875 6.02734375 C-1.15035246 4.05198243 -0.56485849 2.02684516 0 0 Z " fill="#E8E6E3" transform="translate(197,53)"/>
<path d="M0 0 C0.66 0.33 1.32 0.66 2 1 C1.88601335 2.62580966 1.75844341 4.25067157 1.625 5.875 C1.55539063 6.77992188 1.48578125 7.68484375 1.4140625 8.6171875 C1 11 1 11 -1 13 C-3.8203125 13.1953125 -3.8203125 13.1953125 -7.125 13.125 C-8.22070312 13.10695312 -9.31640625 13.08890625 -10.4453125 13.0703125 C-11.28835937 13.04710937 -12.13140625 13.02390625 -13 13 C-12.67 11.35 -12.34 9.7 -12 8 C-10.8553125 8.1546875 -10.8553125 8.1546875 -9.6875 8.3125 C-8.800625 8.209375 -7.91375 8.10625 -7 8 C-5.1375562 5.59141286 -5.1375562 5.59141286 -4 3 C-3.67 3.66 -3.34 4.32 -3 5 C-2.34 5 -1.68 5 -1 5 C-1 4.01 -1 3.02 -1 2 C-3.45224694 2.10613836 -3.45224694 2.10613836 -6 3 C-7.37466625 5.47636012 -7.37466625 5.47636012 -8 8 C-8.99 7.67 -9.98 7.34 -11 7 C-10.6875 4.625 -10.6875 4.625 -10 2 C-6.33134759 -0.44576827 -4.32799657 -0.23607254 0 0 Z " fill="#D2D2D2" transform="translate(68,138)"/>
<path d="M0 0 C0.33 0 0.66 0 1 0 C1.21618085 3.17065239 1.31217164 5.37565673 -0.125 8.25 C-2.53498981 10.49932382 -4.84646071 11.15905619 -8 12 C-7.43410156 12.30292969 -6.86820313 12.60585937 -6.28515625 12.91796875 C-0.21955403 16.38250429 -0.21955403 16.38250429 1 19.8125 C1 20.534375 1 21.25625 1 22 C1.66 22 2.32 22 3 22 C2.67 22.99 2.34 23.98 2 25 C-1 24 -1 24 -2.5625 21.1875 C-4.96661153 17.28666533 -8.37395973 16.31514814 -12.5625 14.859375 C-14.8243719 14.06192016 -16.88176575 13.11795696 -19 12 C-18.13117188 11.72027344 -17.26234375 11.44054687 -16.3671875 11.15234375 C-8.9119933 8.55887015 -4.56769078 6.47089527 0 0 Z " fill="#29282A" transform="translate(195,53)"/>
<path d="M0 0 C3.5 0.1875 3.5 0.1875 5.5 1.1875 C5.74042276 5.27468695 4.92258812 8.36429443 3.5 12.1875 C-0.61142314 13.05306277 -4.30838094 13.1875 -8.5 13.1875 C-8.83 11.8675 -9.16 10.5475 -9.5 9.1875 C-6.36650268 8.14300089 -5.51031744 8.25326355 -2.5 9.1875 C-1.84 7.2075 -1.18 5.2275 -0.5 3.1875 C-0.17 3.8475 0.16 4.5075 0.5 5.1875 C1.16 5.1875 1.82 5.1875 2.5 5.1875 C2.5 4.1975 2.5 3.2075 2.5 2.1875 C0.52 2.5175 -1.46 2.8475 -3.5 3.1875 C-3.5 4.5075 -3.5 5.8275 -3.5 7.1875 C-4.49 7.1875 -5.48 7.1875 -6.5 7.1875 C-5.72988171 2.31008414 -5.38771874 0.28862779 0 0 Z " fill="#EBEAE6" transform="translate(114.5,162.8125)"/>
<path d="M0 0 C1.65 0 3.3 0 5 0 C4.20736384 7.76783437 2.58110513 15.3629639 1 23 C-0.65 23 -2.3 23 -4 23 C-3.48400816 15.1177798 -1.9078547 7.65541695 0 0 Z " fill="#EBE7ED" transform="translate(139,78)"/>
<path d="M0 0 C1.65 0 3.3 0 5 0 C5.33 0.99 5.66 1.98 6 3 C5.67 3.66 5.34 4.32 5 5 C7.51083114 3.74458443 7.87125446 2.49936512 9 0 C9.33 0 9.66 0 10 0 C10 1.65 10 3.3 10 5 C10.66 5 11.32 5 12 5 C12.33 3.35 12.66 1.7 13 0 C13.66 1.32 14.32 2.64 15 4 C15.99 2.68 16.98 1.36 18 0 C19.32 0.33 20.64 0.66 22 1 C21.8046875 2.89453125 21.8046875 2.89453125 21 5 C18.8203125 6.01171875 18.8203125 6.01171875 16.125 6.6875 C14.79855469 7.03361328 14.79855469 7.03361328 13.4453125 7.38671875 C12.63835937 7.58910156 11.83140625 7.79148438 11 8 C10.01 8.33 9.02 8.66 8 9 C8 8.34 8 7.68 8 7 C6.35 7.66 4.7 8.32 3 9 C2.67 7.35 2.34 5.7 2 4 C1.34 5.65 0.68 7.3 0 9 C-0.66 9 -1.32 9 -2 9 C-1.125 2.25 -1.125 2.25 0 0 Z " fill="#DFDDDA" transform="translate(118,142)"/>
<path d="M0 0 C-0.76419214 9.01746725 -0.76419214 9.01746725 -4 13 C-4.99 13 -5.98 13 -7 13 C-6.49396008 10.83125748 -6.00016187 9.00032373 -5 7 C-6.32 6.67 -7.64 6.34 -9 6 C-7.01260984 0.46369883 -5.82303895 -0.15323787 0 0 Z " fill="#EBE9E6" transform="translate(117,138)"/>
<path d="M0 0 C0.33 0.66 0.66 1.32 1 2 C2.42015245 2.47242394 3.86235114 2.87974923 5.3125 3.25 C8.64739599 4.33158789 9.94963331 4.94963331 12.5 7.5 C14.54853403 12.27991275 14.81643761 16.84189693 15 22 C12.65599632 19.65599632 12.45588328 18.30224127 11.6875 15.125 C10.76194489 11.99788175 10.14209241 10.17417779 8.0625 7.625 C3.27376041 5.08403614 -1.81904562 3.55346 -7 2 C-7 1.67 -7 1.34 -7 1 C-2.25 0 -2.25 0 0 0 Z " fill="#EDEBE8" transform="translate(20,107)"/>
<path d="M0 0 C5.445 1.485 5.445 1.485 11 3 C8.86224011 5.13775989 7.40527526 5.7271766 4.625 6.8125 C0.5865265 8.57568586 -1.72834217 10.09274853 -4 14 C-4.8388598 16.32747228 -5.43132451 18.58312918 -6 21 C-7.09765625 19.28515625 -7.09765625 19.28515625 -8 17 C-7.00235455 12.53766338 -5.06570623 8.85256498 -1.5 6 C0.67109253 5.13156299 2.70237925 4.42548532 5 4 C3.02 3.34 1.04 2.68 -1 2 C-0.67 1.34 -0.34 0.68 0 0 Z " fill="#DADCDE" transform="translate(42,105)"/>
<path d="M0 0 C0.99 0.33 1.98 0.66 3 1 C2.34 2.32 1.68 3.64 1 5 C1.66 5 2.32 5 3 5 C3.66 3.35 4.32 1.7 5 0 C6.32 0 7.64 0 9 0 C9.125 2.375 9.125 2.375 9 5 C8.34 5.66 7.68 6.32 7 7 C5.68 7 4.36 7 3 7 C2.67 7.66 2.34 8.32 2 9 C-0.0625 7.25 -0.0625 7.25 -2 5 C-1.80984746 2.78155374 -1.58477845 1.58477845 0 0 Z " fill="#E0DDDB" transform="translate(161,163)"/>
<path d="M0 0 C3.5 0.1875 3.5 0.1875 5.5 1.1875 C5.5 2.8375 5.5 4.4875 5.5 6.1875 C4.51 6.5175 3.52 6.8475 2.5 7.1875 C2.5 7.8475 2.5 8.5075 2.5 9.1875 C1.51 9.1875 0.52 9.1875 -0.5 9.1875 C-1.125 7.3125 -1.125 7.3125 -1.5 5.1875 C-0.84 4.5275 -0.18 3.8675 0.5 3.1875 C0.5 3.8475 0.5 4.5075 0.5 5.1875 C1.16 5.1875 1.82 5.1875 2.5 5.1875 C2.5 4.1975 2.5 3.2075 2.5 2.1875 C0.52 2.5175 -1.46 2.8475 -3.5 3.1875 C-3.5 4.5075 -3.5 5.8275 -3.5 7.1875 C-4.49 7.1875 -5.48 7.1875 -6.5 7.1875 C-5.72988171 2.31008414 -5.38771874 0.28862779 0 0 Z " fill="#D5D3D3" transform="translate(114.5,162.8125)"/>
<path d="M0 0 C0.598125 0.226875 1.19625 0.45375 1.8125 0.6875 C1.8125 2.0075 1.8125 3.3275 1.8125 4.6875 C2.4725 5.0175 3.1325 5.3475 3.8125 5.6875 C2.8225 7.1725 2.8225 7.1725 1.8125 8.6875 C1.214375 8.501875 0.61625 8.31625 0 8.125 C-2.35158762 7.46656313 -2.35158762 7.46656313 -5.1875 8.6875 C-5.55003776 3.24943353 -5.55003776 3.24943353 -3.9375 0.75 C-2.1875 -0.3125 -2.1875 -0.3125 0 0 Z " fill="#DDDBDA" transform="translate(96.1875,167.3125)"/>
<path d="M0 0 C0.598125 0.226875 1.19625 0.45375 1.8125 0.6875 C2.1425 2.9975 2.4725 5.3075 2.8125 7.6875 C0.4864143 8.06813221 -1.84805264 8.40019945 -4.1875 8.6875 C-5.1875 7.6875 -5.1875 7.6875 -5.4375 5.3125 C-5.1875 2.6875 -5.1875 2.6875 -3.9375 0.8125 C-2.1875 -0.3125 -2.1875 -0.3125 0 0 Z " fill="#E3E1DE" transform="translate(75.1875,142.3125)"/>
<path d="M0 0 C0.66 0 1.32 0 2 0 C2 0.99 2 1.98 2 3 C2.66 3.66 3.32 4.32 4 5 C3.175 5.391875 2.35 5.78375 1.5 6.1875 C0.2625 7.0846875 0.2625 7.0846875 -1 8 C-1.41780879 10.62694422 -1.41780879 10.62694422 -1 13 C2.465 12.505 2.465 12.505 6 12 C4.8125 13.5 4.8125 13.5 3 15 C-0.12414314 15.31241431 -1.99825776 15.00058075 -5 14 C-5.19622241 9.78121808 -4.80230168 6.82989106 -3 3 C-2.34 3 -1.68 3 -1 3 C-0.67 2.01 -0.34 1.02 0 0 Z " fill="#525F7F" transform="translate(71,162)"/>
<path d="M0 0 C0.66 1.98 1.32 3.96 2 6 C0.25 7.5625 0.25 7.5625 -2 9 C-4.25 8.6875 -4.25 8.6875 -6 8 C-6.36458333 3.50347222 -6.36458333 3.50347222 -4.6875 1.1875 C-3 0 -3 0 0 0 Z " fill="#D8D8D7" transform="translate(75,167)"/>
<path d="M0 0 C3.98218499 0.27782686 5.74909842 0.79273348 8.875 3.375 C11 6 11 6 11 9 C11.66 9 12.32 9 13 9 C12.67 9.99 12.34 10.98 12 12 C9 11 9 11 7.1875 8.125 C4.76104795 4.65863992 2.86113361 3.57955466 -1 2 C-0.67 1.34 -0.34 0.68 0 0 Z " fill="#353436" transform="translate(185,66)"/>
<path d="M0 0 C0.99 0.33 1.98 0.66 3 1 C2.67 1.66 2.34 2.32 2 3 C2.99 3 3.98 3 5 3 C5 2.34 5 1.68 5 1 C5.66 1 6.32 1 7 1 C6.690625 1.5775 6.38125 2.155 6.0625 2.75 C5.07416636 4.84294184 4.4831387 6.74535275 4 9 C3.34 9 2.68 9 2 9 C2 7.68 2 6.36 2 5 C1.773125 5.639375 1.54625 6.27875 1.3125 6.9375 C0 9 0 9 -2.625 9.75 C-3.40875 9.8325 -4.1925 9.915 -5 10 C-5.33 9.01 -5.66 8.02 -6 7 C-4.7934375 6.6596875 -4.7934375 6.6596875 -3.5625 6.3125 C-2.716875 5.879375 -1.87125 5.44625 -1 5 C-0.10613836 2.45224694 -0.10613836 2.45224694 0 0 Z " fill="#64596E" transform="translate(170,163)"/>
<path d="M0 0 C1.65 0 3.3 0 5 0 C5.33 0.99 5.66 1.98 6 3 C5.67 3.66 5.34 4.32 5 5 C5.66 5 6.32 5 7 5 C6.34 6.32 5.68 7.64 5 9 C4.34 9 3.68 9 3 9 C2.67 7.35 2.34 5.7 2 4 C1.34 5.65 0.68 7.3 0 9 C-0.66 9 -1.32 9 -2 9 C-1.125 2.25 -1.125 2.25 0 0 Z " fill="#E8E6E3" transform="translate(118,142)"/>
<path d="M0 0 C0.66 0 1.32 0 2 0 C0.53869969 5.47987616 0.53869969 5.47987616 -1.8125 7.75 C-5.27155798 9.72660456 -7.98025709 11 -12 11 C-11 8 -11 8 -8.0625 6.3125 C-5 5 -5 5 -3 5 C-2.690625 4.360625 -2.38125 3.72125 -2.0625 3.0625 C-1 1 -1 1 0 0 Z " fill="#E4E2DE" transform="translate(32,98)"/>
<path d="M0 0 C0.66 0.33 1.32 0.66 2 1 C2 2.32 2 3.64 2 5 C1.34 5 0.68 5 0 5 C-0.33 4.34 -0.66 3.68 -1 3 C-2.65 3 -4.3 3 -6 3 C-6.66 4.65 -7.32 6.3 -8 8 C-8.99 7.67 -9.98 7.34 -11 7 C-10.6875 4.625 -10.6875 4.625 -10 2 C-6.33134759 -0.44576827 -4.32799657 -0.23607254 0 0 Z " fill="#E6E5E1" transform="translate(68,138)"/>
<path d="M0 0 C0.99 1.32 1.98 2.64 3 4 C2.34 5.32 1.68 6.64 1 8 C0.278125 7.814375 -0.44375 7.62875 -1.1875 7.4375 C-4.12826973 6.98004693 -6.14103058 7.26483643 -9 8 C-9.33 6.68 -9.66 5.36 -10 4 C-9.05125 4.020625 -8.1025 4.04125 -7.125 4.0625 C-4.09333717 4.22551826 -4.09333717 4.22551826 -2 3 C-1.34 3.33 -0.68 3.66 0 4 C0 2.68 0 1.36 0 0 Z " fill="#EDEBE8" transform="translate(144,143)"/>
<path d="M0 0 C0.99 0 1.98 0 3 0 C3 0.99 3 1.98 3 3 C8.55053286 2.25640327 8.55053286 2.25640327 14 1 C13.34 1.66 12.68 2.32 12 3 C11.731875 3.845625 11.46375 4.69125 11.1875 5.5625 C10.795625 6.366875 10.40375 7.17125 10 8 C7.375 8.8125 7.375 8.8125 5 9 C5.99 8.34 6.98 7.68 8 7 C8 6.01 8 5.02 8 4 C6.05925139 4.27617533 6.05925139 4.27617533 4 5 C3.01 6.485 3.01 6.485 2 8 C1.34 8 0.68 8 0 8 C0 7.01 0 6.02 0 5 C0.66 5 1.32 5 2 5 C1.34 3.35 0.68 1.7 0 0 Z " fill="#4C5373" transform="translate(85,139)"/>
<path d="M0 0 C-0.33 1.65 -0.66 3.3 -1 5 C-0.01 4.67 0.98 4.34 2 4 C1.25 5.9375 1.25 5.9375 0 8 C-2 8.8125 -2 8.8125 -4 9 C-4.66 8.67 -5.32 8.34 -6 8 C-6.36458333 3.50347222 -6.36458333 3.50347222 -4.6875 1.1875 C-3 0 -3 0 0 0 Z " fill="#EAE8E5" transform="translate(185,167)"/>
<path d="M0 0 C0.99 0.33 1.98 0.66 3 1 C2.67 2.32 2.34 3.64 2 5 C2.66 5 3.32 5 4 5 C3.67 5.99 3.34 6.98 3 8 C1.35 8.33 -0.3 8.66 -2 9 C-2.6875 7.3125 -2.6875 7.3125 -3 5 C-1.5625 2.25 -1.5625 2.25 0 0 Z " fill="#DAD7D5" transform="translate(191,142)"/>
<path d="M0 0 C0.625 1.8125 0.625 1.8125 1 4 C0.01 5.485 0.01 5.485 -1 7 C-1 7.66 -1 8.32 -1 9 C-3.70879335 10.35439668 -6.00933268 10.06501451 -9 10 C-8.67 8.35 -8.34 6.7 -8 5 C-7.236875 5.103125 -6.47375 5.20625 -5.6875 5.3125 C-4.800625 5.209375 -3.91375 5.10625 -3 5 C-1.1375562 2.59141286 -1.1375562 2.59141286 0 0 Z " fill="#E8E6E3" transform="translate(64,141)"/>
<path d="M0 0 C1.65 0 3.3 0 5 0 C5 0.99 5 1.98 5 3 C4.01 2.67 3.02 2.34 2 2 C1.608125 2.825 1.21625 3.65 0.8125 4.5 C0.214375 5.325 -0.38375 6.15 -1 7 C-3.6875 7.3125 -3.6875 7.3125 -6 7 C-6 8.65 -6 10.3 -6 12 C-6.66 12 -7.32 12 -8 12 C-8.19622241 7.78121808 -7.80230168 4.82989106 -6 1 C-5.34 2.32 -4.68 3.64 -4 5 C-3.34 5 -2.68 5 -2 5 C-1.34 3.35 -0.68 1.7 0 0 Z " fill="#455066" transform="translate(62,140)"/>
<path d="M0 0 C1.32 0.66 2.64 1.32 4 2 C3.67 3.32 3.34 4.64 3 6 C3.99 5.67 4.98 5.34 6 5 C5.34 6.32 4.68 7.64 4 9 C2.68 9 1.36 9 0 9 C-0.87890625 2.84765625 -0.87890625 2.84765625 -1 1 C-0.67 0.67 -0.34 0.34 0 0 Z " fill="#E2E1DE" transform="translate(97,141)"/>
<path d="M0 0 C0.33 0.66 0.66 1.32 1 2 C2.65 1.34 4.3 0.68 6 0 C6.33 1.32 6.66 2.64 7 4 C5.68 4 4.36 4 3 4 C2.67 4.99 2.34 5.98 2 7 C1.01 7 0.02 7 -1 7 C-1 5.68 -1 4.36 -1 3 C-1.66 2.67 -2.32 2.34 -3 2 C-2.01 1.34 -1.02 0.68 0 0 Z " fill="#B5B2BA" transform="translate(131,165)"/>
<path d="M0 0 C0.66 0.66 1.32 1.32 2 2 C1.9765625 4.1640625 1.9765625 4.1640625 1.625 6.625 C1.45871094 7.85089844 1.45871094 7.85089844 1.2890625 9.1015625 C1.14597656 10.04128906 1.14597656 10.04128906 1 11 C2.32 11.66 3.64 12.32 5 13 C0.71 13 -3.58 13 -8 13 C-8.33 12.34 -8.66 11.68 -9 11 C-7.02 11 -5.04 11 -3 11 C-2.87625 10.29875 -2.7525 9.5975 -2.625 8.875 C-1.96161655 5.82343613 -1.02788045 2.94659062 0 0 Z " fill="#37476F" transform="translate(70,139)"/>
<path d="M0 0 C1.32 0 2.64 0 4 0 C4 1.65 4 3.3 4 5 C4.99 4.67 5.98 4.34 7 4 C6.34 5.32 5.68 6.64 5 8 C3.68 8 2.36 8 1 8 C1.020625 7.236875 1.04125 6.47375 1.0625 5.6875 C1.12942841 2.89814214 1.12942841 2.89814214 0 0 Z " fill="#ECEAE7" transform="translate(78,167)"/>
<path d="M0 0 C0.66 0.99 1.32 1.98 2 3 C1.01 3.33 0.02 3.66 -1 4 C-1 4.99 -1 5.98 -1 7 C-0.01 7 0.98 7 2 7 C1.34 8.32 0.68 9.64 0 11 C-1.32 10.34 -2.64 9.68 -4 9 C-2.25 2.25 -2.25 2.25 0 0 Z " fill="#EFEDEA" transform="translate(186,140)"/>
<path d="M0 0 C1.32 0 2.64 0 4 0 C4 1.65 4 3.3 4 5 C4.66 5 5.32 5 6 5 C5.34 6.32 4.68 7.64 4 9 C3.01 9 2.02 9 1 9 C1.33 6.69 1.66 4.38 2 2 C1.34 2 0.68 2 0 2 C0 1.34 0 0.68 0 0 Z " fill="#E9E7E4" transform="translate(147,167)"/>
<path d="M0 0 C0.99 0 1.98 0 3 0 C2.67 0.99 2.34 1.98 2 3 C1.34 2.67 0.68 2.34 0 2 C0.33 2.99 0.66 3.98 1 5 C0.34 5 -0.32 5 -1 5 C-1.33 7.64 -1.66 10.28 -2 13 C-2.66 13 -3.32 13 -4 13 C-4 10.03 -4 7.06 -4 4 C-3.34 4 -2.68 4 -2 4 C-1.34 2.68 -0.68 1.36 0 0 Z " fill="#EBE9E6" transform="translate(68,163)"/>
<path d="M0 0 C0 0.99 0 1.98 0 3 C-0.99 3 -1.98 3 -3 3 C-3.66 4.32 -4.32 5.64 -5 7 C-7.97 6.505 -7.97 6.505 -11 6 C-10.67 4.68 -10.34 3.36 -10 2 C-10 2.99 -10 3.98 -10 5 C-8.68 5 -7.36 5 -6 5 C-6 3.68 -6 2.36 -6 1 C-4 0 -4 0 0 0 Z " fill="#606071" transform="translate(117,165)"/>
<path d="M0 0 C0.66 1.32 1.32 2.64 2 4 C1.34 4 0.68 4 0 4 C0 4.99 0 5.98 0 7 C0.66 7 1.32 7 2 7 C1.67 8.32 1.34 9.64 1 11 C0.01 11 -0.98 11 -2 11 C-2.05399736 9.54207116 -2.09279177 8.08357288 -2.125 6.625 C-2.15980469 5.40683594 -2.15980469 5.40683594 -2.1953125 4.1640625 C-2 2 -2 2 0 0 Z " fill="#E5E3E0" transform="translate(80,140)"/>
<path d="M0 0 C0.99 0.33 1.98 0.66 3 1 C2.65066406 1.51949219 2.30132812 2.03898437 1.94140625 2.57421875 C-1.54055504 7.87724314 -1.54055504 7.87724314 -3 14 C-4.11328125 12.29296875 -4.11328125 12.29296875 -5 10 C-4.35546875 7.67578125 -4.35546875 7.67578125 -3.1875 5.3125 C-2.80980469 4.52488281 -2.43210938 3.73726563 -2.04296875 2.92578125 C-1 1 -1 1 0 0 Z " fill="#CACED4" transform="translate(39,112)"/>
<path d="M0 0 C2.31 0 4.62 0 7 0 C8.25 7.625 8.25 7.625 6 11 C5.01 10.67 4.02 10.34 3 10 C3.515625 9.608125 4.03125 9.21625 4.5625 8.8125 C5.036875 8.214375 5.51125 7.61625 6 7 C5.76956136 4.34533951 5.76956136 4.34533951 5 2 C3.35 1.67 1.7 1.34 0 1 C0 0.67 0 0.34 0 0 Z " fill="#535883" transform="translate(93,166)"/>
<path d="M0 0 C2.125 0.375 2.125 0.375 4 1 C3.875 2.875 3.875 2.875 3 5 C-0.0625 6.25 -0.0625 6.25 -3 7 C-2.25 2.25 -2.25 2.25 0 0 Z " fill="#D6D4D2" transform="translate(169,142)"/>
<path d="M0 0 C2.125 0.375 2.125 0.375 4 1 C3.67 2.32 3.34 3.64 3 5 C1.68 5.33 0.36 5.66 -1 6 C-1.625 4.125 -1.625 4.125 -2 2 C-1.34 1.34 -0.68 0.68 0 0 Z " fill="#D6D4D2" transform="translate(123,167)"/>
<path d="M0 0 C0.33 0 0.66 0 1 0 C1 1.98 1 3.96 1 6 C2.65 5.34 4.3 4.68 6 4 C6 4.66 6 5.32 6 6 C-0.625 7.125 -0.625 7.125 -4 6 C-3.34 6 -2.68 6 -2 6 C-1.855625 5.195625 -1.71125 4.39125 -1.5625 3.5625 C-1 1 -1 1 0 0 Z " fill="#5D5B7C" transform="translate(120,145)"/>
<path d="M0 0 C0.66 0 1.32 0 2 0 C2.125 2.375 2.125 2.375 2 5 C1.34 5.66 0.68 6.32 0 7 C-0.99 7 -1.98 7 -3 7 C-2.38722388 4.03824877 -1.74627478 2.61941217 0 0 Z " fill="#EEECE9" transform="translate(113,144)"/>
<path d="M0 0 C-0.33 1.32 -0.66 2.64 -1 4 C-2.65 4.33 -4.3 4.66 -6 5 C-6.33 4.01 -6.66 3.02 -7 2 C-4 0 -4 0 0 0 Z " fill="#BAB9BA" transform="translate(115,140)"/>
<path d="M0 0 C1.98 0 3.96 0 6 0 C5.34 1.65 4.68 3.3 4 5 C2.68 4.67 1.36 4.34 0 4 C0 2.68 0 1.36 0 0 Z " fill="#F2EFEC" transform="translate(157,171)"/>
<path d="M0 0 C0.99 0 1.98 0 3 0 C3 0.66 3 1.32 3 2 C3.66 2 4.32 2 5 2 C4.67 4.31 4.34 6.62 4 9 C0 4.5 0 4.5 0 0 Z " fill="#65616C" transform="translate(144,167)"/>
<path d="M0 0 C2.0625 0.4375 2.0625 0.4375 4 1 C3.67 2.65 3.34 4.3 3 6 C2.01 5.67 1.02 5.34 0 5 C-0.75 3 -0.75 3 -1 1 C-0.67 0.67 -0.34 0.34 0 0 Z " fill="#A8A7A5" transform="translate(73,142)"/>
<path d="M0 0 C2.475 0.495 2.475 0.495 5 1 C3.515 4.465 3.515 4.465 2 8 C1.34 8 0.68 8 0 8 C0 7.01 0 6.02 0 5 C0.66 5 1.32 5 2 5 C1.34 3.35 0.68 1.7 0 0 Z " fill="#465073" transform="translate(80,139)"/>
<path d="M0 0 C0.99 0 1.98 0 3 0 C2.67 1.65 2.34 3.3 2 5 C1.01 5.33 0.02 5.66 -1 6 C-1.042721 4.33388095 -1.04063832 2.66617115 -1 1 C-0.67 0.67 -0.34 0.34 0 0 Z " fill="#CDCBC9" transform="translate(182,167)"/>
<path d="M0 0 C0.66 0.66 1.32 1.32 2 2 C0.75 3.5625 0.75 3.5625 -1 5 C-3.1875 4.6875 -3.1875 4.6875 -5 4 C-5 3.34 -5 2.68 -5 2 C-3.35 1.34 -1.7 0.68 0 0 Z " fill="#746388" transform="translate(169,168)"/>
<path d="M0 0 C1.32 0 2.64 0 4 0 C3 3 3 3 2 4 C1.67 4.66 1.34 5.32 1 6 C0.34 6 -0.32 6 -1 6 C-1.33 5.01 -1.66 4.02 -2 3 C-1.34 2.01 -0.68 1.02 0 0 Z " fill="#DFDDDB" transform="translate(178,163)"/>
<path d="M0 0 C0.66 0 1.32 0 2 0 C2.33 0.99 2.66 1.98 3 3 C2.01 3.33 1.02 3.66 0 4 C-1.21869929 6.50447516 -1.21869929 6.50447516 -2 9 C-3.04449911 5.86650268 -2.93423645 5.01031744 -2 2 C-1.34 2 -0.68 2 0 2 C0 1.34 0 0.68 0 0 Z " fill="#DEDCD9" transform="translate(150,140)"/>
<path d="M0 0 C0.66 0 1.32 0 2 0 C2 0.99 2 1.98 2 3 C2.66 3.66 3.32 4.32 4 5 C-0.75 6.125 -0.75 6.125 -3 5 C-3 4.34 -3 3.68 -3 3 C-2.34 3 -1.68 3 -1 3 C-0.67 2.01 -0.34 1.02 0 0 Z " fill="#424F74" transform="translate(71,162)"/>
<path d="M0 0 C2.00720923 0.28674418 4.0085944 0.61866701 6 1 C6 2.32 6 3.64 6 5 C5.34 5 4.68 5 4 5 C3.67 4.34 3.34 3.68 3 3 C0.98330173 1.86649466 0.98330173 1.86649466 -1 1 C-0.67 0.67 -0.34 0.34 0 0 Z " fill="#F1EFEB" transform="translate(64,138)"/>
<path d="M0 0 C0.99 1.32 1.98 2.64 3 4 C-0.3 3.34 -3.6 2.68 -7 2 C-7 1.67 -7 1.34 -7 1 C-2.25 0 -2.25 0 0 0 Z " fill="#F6F5F1" transform="translate(20,107)"/>
<path d="M0 0 C1.32 0.33 2.64 0.66 4 1 C3.67 2.65 3.34 4.3 3 6 C2.01 5.67 1.02 5.34 0 5 C0 3.35 0 1.7 0 0 Z " fill="#A9A8A6" transform="translate(141,167)"/>
<path d="M0 0 C0.66 0 1.32 0 2 0 C1.67 1.98 1.34 3.96 1 6 C0.01 6 -0.98 6 -2 6 C-1.125 1.125 -1.125 1.125 0 0 Z " fill="#F5F3EF" transform="translate(110,164)"/>
<path d="M0 0 C-1.32 0.33 -2.64 0.66 -4 1 C-4.33 2.32 -4.66 3.64 -5 5 C-5.99 5 -6.98 5 -8 5 C-8 4.01 -8 3.02 -8 2 C-4.77208445 -0.1519437 -3.71599191 -0.20086443 0 0 Z " fill="#665D77" transform="translate(158,142)"/>
</svg>
