<?xml version="1.0" encoding="UTF-8"?>
<svg version="1.1" xmlns="http://www.w3.org/2000/svg" width="512" height="512">
<path d="M0 0 C1.01790619 0.00215515 2.03581238 0.0043103 3.08456421 0.00653076 C17.69363523 0.05620146 32.02575853 0.30709809 46.375 3.3125 C47.34985352 3.51117676 48.32470703 3.70985352 49.32910156 3.91455078 C97.7109774 14.03517194 141.69928269 35.9516877 177.375 70.3125 C178.3640332 71.26068604 178.3640332 71.26068604 179.37304688 72.22802734 C188.86130305 81.37247479 197.6012044 90.66984009 205.375 101.3125 C206.23306152 102.46355017 207.09113451 103.61459177 207.94921875 104.765625 C213.98736829 112.95680614 219.34595521 121.47054105 224.375 130.3125 C224.73948242 130.94430176 225.10396484 131.57610352 225.47949219 132.22705078 C247.08534998 169.97532572 256.85198095 212.74189997 256.6875 255.9375 C256.68534485 256.95540619 256.6831897 257.97331238 256.68096924 259.02206421 C256.63129854 273.63113523 256.38040191 287.96325853 253.375 302.3125 C253.07698486 303.77478027 253.07698486 303.77478027 252.77294922 305.26660156 C242.65232806 353.6484774 220.7358123 397.63678269 186.375 433.3125 C185.74287598 433.97185547 185.11075195 434.63121094 184.45947266 435.31054688 C175.31502521 444.79880305 166.01765991 453.5387044 155.375 461.3125 C154.22394983 462.17056152 153.07290823 463.02863451 151.921875 463.88671875 C143.73224019 469.92427396 135.22961724 475.30707302 126.375 480.3125 C125.66778809 480.7146875 124.96057617 481.116875 124.23193359 481.53125 C101.09654164 494.5566741 75.92537591 503.30551461 49.9375 508.625 C49.21860596 508.77235596 48.49971191 508.91971191 47.7590332 509.0715332 C33.08339502 511.86090125 18.55831162 512.66142619 3.64770508 512.62817383 C0.70811513 512.6250221 -2.2304558 512.64854926 -5.16992188 512.67382812 C-18.54306192 512.71848737 -31.43916711 511.51301542 -44.625 509.3125 C-46.33055054 509.03031616 -46.33055054 509.03031616 -48.07055664 508.74243164 C-91.33802759 500.97044532 -132.38793216 480.98345309 -165.625 452.3125 C-166.37007813 451.67828125 -167.11515625 451.0440625 -167.8828125 450.390625 C-181.38779833 438.57948485 -194.05918743 425.82889772 -204.625 411.3125 C-205.48149066 410.16255169 -206.33826433 409.01281411 -207.1953125 407.86328125 C-213.23534209 399.67315742 -218.61867614 391.16870382 -223.625 382.3125 C-224.0271875 381.60528809 -224.429375 380.89807617 -224.84375 380.16943359 C-237.8691741 357.03404164 -246.61801461 331.86287591 -251.9375 305.875 C-252.08485596 305.15610596 -252.23221191 304.43721191 -252.3840332 303.6965332 C-255.35789088 288.05024391 -255.99800362 272.57681954 -255.9375 256.6875 C-255.93534485 255.66959381 -255.9331897 254.65168762 -255.93096924 253.60293579 C-255.88129854 238.99386477 -255.63040191 224.66174147 -252.625 210.3125 C-252.42632324 209.33764648 -252.22764648 208.36279297 -252.02294922 207.35839844 C-241.90232806 158.9765226 -219.9858123 114.98821731 -185.625 79.3125 C-184.99287598 78.65314453 -184.36075195 77.99378906 -183.70947266 77.31445312 C-174.56502521 67.82619695 -165.26765991 59.0862956 -154.625 51.3125 C-153.47394983 50.45443848 -152.32290823 49.59636549 -151.171875 48.73828125 C-142.98224019 42.70072604 -134.47961724 37.31792698 -125.625 32.3125 C-124.91778809 31.9103125 -124.21057617 31.508125 -123.48193359 31.09375 C-100.34654164 18.0683259 -75.17537591 9.31948539 -49.1875 4 C-48.46860596 3.85264404 -47.74971191 3.70528809 -47.0090332 3.5534668 C-31.36274391 0.57960912 -15.88931954 -0.06050362 0 0 Z " fill="#415EB3" transform="translate(255.625,-0.3125)"/>
<path d="M0 0 C4.57659612 3.84819896 8.98841099 7.8103404 13.27075195 11.98266602 C13.85377579 12.5478746 14.43679962 13.11308319 15.03749084 13.69541931 C20.36324388 18.86770179 25.65679468 24.07299848 30.94038105 29.28831577 C34.47796937 32.77965011 38.0254599 36.25942463 41.59887695 39.71411133 C45.07450929 43.07474335 48.52201322 46.46201472 51.95189476 49.86930656 C53.25528825 51.15501224 54.56812737 52.43122053 55.89074135 53.69714546 C68.39283782 65.68776099 68.39283782 65.68776099 68.72306824 76.10557556 C69.56474418 84.90257084 78.18135691 92.96198662 83.67843628 99.43690491 C84.97090242 100.9655845 86.25074895 102.50490539 87.53027344 104.04443359 C94.92148691 112.87641631 102.80686224 121.11743825 110.97290039 129.23364258 C113.07089508 131.32085192 115.15789115 133.4186359 117.24414062 135.51757812 C124.52605672 142.80675656 131.87891931 149.64638193 140 156 C141.13329297 156.94504236 142.26185455 157.89582752 143.3828125 158.85546875 C152.86161421 167.26679742 152.86161421 167.26679742 164 173 C165.06617302 172.90367531 165.06617302 172.90367531 166.15388489 172.80540466 C171.1833497 172.50853266 174.65819999 173.46189734 178.53353882 176.64749146 C182.71384786 180.42246547 186.60565658 184.48073851 190.51171875 188.53515625 C191.9735326 190.01563966 193.43758388 191.49391689 194.90376282 192.97007751 C198.74190736 196.84625825 202.54906289 200.75152124 206.35040283 204.66375732 C210.24061606 208.65658254 214.15957834 212.62096923 218.07617188 216.58789062 C225.74574971 224.36445939 233.38286989 232.17207561 241 240 C239.3930998 243.47387156 237.9849123 245.02340732 234.75 247.125 C234.00234375 247.62257813 233.2546875 248.12015625 232.484375 248.6328125 C221.54047052 254.65540144 205.87201726 253.37741964 194.0625 250.375 C191.69336976 249.62930655 189.33812799 248.83785101 187 248 C185.81792969 247.5875 184.63585937 247.175 183.41796875 246.75 C159.08702892 237.62913651 137.23900291 223.06756285 117 207 C116.07960938 206.28199219 115.15921875 205.56398438 114.2109375 204.82421875 C98.08904625 192.14201439 83.13990336 178.21868902 68.625 163.75 C68.15046387 163.2781427 67.67592773 162.8062854 67.18701172 162.32012939 C61.56536407 156.72257869 56.14721951 151.03558048 51 145 C50.07471527 143.95153496 49.14771256 142.90458279 48.21875 141.859375 C21.5921563 111.55596054 -10.86473004 69.86743023 -11.3125 27.6875 C-11.34150391 26.78837891 -11.37050781 25.88925781 -11.40039062 24.96289062 C-11.48026934 16.46502396 -9.15921491 9.68763116 -3.25 3.4375 C-2.32960938 2.44556641 -2.32960938 2.44556641 -1.390625 1.43359375 C-0.93171875 0.96050781 -0.4728125 0.48742187 0 0 Z " fill="#415EB3" transform="translate(126,145)"/>
<path d="M0 0 C1.40310572 -0.00514064 2.80620497 -0.01242302 4.20928955 -0.02168274 C8.01310336 -0.04018542 11.81621559 -0.0272667 15.62000012 -0.00759244 C19.60197586 0.00880184 23.58390743 -0.00001976 27.56590271 -0.00511169 C34.25156861 -0.00963128 40.93695459 0.00622989 47.62255859 0.03417969 C55.35202213 0.06624427 63.08098123 0.06621047 70.81048065 0.04896492 C78.24773583 0.03310274 85.68480606 0.03983048 93.12205315 0.05690193 C96.28668071 0.06377442 99.45116011 0.06273807 102.6157856 0.05535698 C106.34158992 0.04769704 110.06681988 0.05980981 113.79252625 0.08720589 C115.81225806 0.09737956 117.83205882 0.08790469 119.85179138 0.07788086 C121.05328827 0.09060532 122.25478516 0.10332977 123.49269104 0.11643982 C124.53704095 0.11924674 125.58139086 0.12205366 126.65738773 0.12494564 C130.05976433 0.76006795 131.21999453 1.97820389 133.36889648 4.63110352 C134.97284424 7.83899903 134.53416594 11.3321745 134.54589844 14.85693359 C134.55246964 15.70750839 134.55904083 16.55808319 134.56581116 17.43443298 C134.58556344 20.25650109 134.59721087 23.07851593 134.60717773 25.90063477 C134.61125326 26.86342535 134.61532879 27.82621593 134.61952782 28.81818199 C134.64039653 33.91377931 134.65469493 39.00934964 134.6640625 44.10498047 C134.67513024 49.37109256 134.7095321 54.63678247 134.7492342 59.90274525 C134.77536571 63.94936413 134.78375124 67.9958819 134.78734398 72.04257774 C134.7922187 73.98386169 134.8038578 75.92514086 134.82238197 77.86634254 C134.84670039 80.58359965 134.84582188 83.29975749 134.83886719 86.01708984 C134.85808228 87.21970963 134.85808228 87.21970963 134.87768555 88.44662476 C134.84247699 92.22124246 134.51959212 94.39561841 132.46452332 97.60697937 C129.17537898 100.78389826 127.27829842 100.75755319 122.80239868 100.76481628 C121.61903427 100.76908127 120.43566986 100.77334625 119.21644592 100.77774048 C117.91146652 100.77728729 116.60648712 100.77683411 115.26196289 100.77636719 C113.87901213 100.77935811 112.49606222 100.78276048 111.1131134 100.7865448 C107.35068211 100.79539639 103.58827354 100.79772341 99.82583284 100.79836059 C96.68713749 100.79930895 93.54844746 100.80298645 90.40975416 100.80653268 C83.00518168 100.81468185 75.60062137 100.81711652 68.19604492 100.81640625 C60.55368038 100.81580551 52.91138643 100.82635557 45.26903975 100.84214991 C38.71187527 100.85521945 32.15473388 100.86059039 25.59755647 100.85995084 C21.67944954 100.85969565 17.7614053 100.86255804 13.84331131 100.87312889 C10.15794938 100.88279988 6.4727102 100.88289597 2.78734398 100.87561226 C0.78902468 100.87406555 -1.20929457 100.88242038 -3.20759583 100.89105225 C-4.39659988 100.88685776 -5.58560394 100.88266327 -6.81063843 100.87834167 C-8.36088494 100.87915883 -8.36088494 100.87915883 -9.94244957 100.87999249 C-12.69372575 100.62530657 -14.31170197 100.09868778 -16.63110352 98.63110352 C-19.45159072 94.98543193 -18.93388954 90.48618466 -18.9375 86.08642578 C-18.94582352 85.22580536 -18.95414703 84.36518494 -18.96272278 83.47848511 C-18.98681003 80.63478061 -18.99559261 77.79130544 -19.00219727 74.94750977 C-19.01116339 72.96980215 -19.02028523 70.99209524 -19.02955627 69.01438904 C-19.04604453 64.86927644 -19.0537463 60.72424461 -19.05664062 56.57910156 C-19.06202933 51.2680729 -19.09973035 45.95780305 -19.14538479 40.64698887 C-19.17512573 36.5626091 -19.18236351 32.4784129 -19.18336678 28.39393425 C-19.18757368 26.43589738 -19.20002679 24.47786018 -19.22088432 22.51992989 C-19.24774205 19.78110997 -19.24299077 17.04406015 -19.23046875 14.30517578 C-19.24530304 13.49722061 -19.26013733 12.68926544 -19.27542114 11.85682678 C-19.226305 8.0841799 -18.82125469 5.96985085 -16.94558716 2.62841797 C-11.57004818 -0.61089254 -6.15605699 -0.05482376 0 0 Z " fill="#F5F7FA" transform="translate(259.631103515625,154.368896484375)"/>
<path d="M0 0 C1.00933594 -0.02449219 2.01867187 -0.04898438 3.05859375 -0.07421875 C12.23173648 1.91994271 19.09363901 8.62608234 25.4921875 15.12109375 C26.28980499 15.91725601 27.08742249 16.71341827 27.90921021 17.53370667 C29.57940829 19.2055531 31.24471459 20.88229975 32.90527344 22.5637207 C35.43936273 25.12688411 37.99172881 27.67073587 40.546875 30.21289062 C42.17559588 31.84784664 43.80323812 33.48387804 45.4296875 35.12109375 C46.18700165 35.87547226 46.9443158 36.62985077 47.72457886 37.40708923 C53.65863114 43.44742469 58.10933409 48.72664878 58.375 57.5625 C58.08523602 67.38549906 53.62128387 74.49851642 48.5625 82.6875 C47.5579353 84.34465311 46.55404367 86.0022144 45.55078125 87.66015625 C44.08253895 90.07819976 42.60766955 92.4903726 41.10620117 94.88793945 C40.65865479 95.60296631 40.2111084 96.31799316 39.75 97.0546875 C39.35167969 97.68487793 38.95335937 98.31506836 38.54296875 98.96435547 C36.22734573 103.03399373 36.00955014 107.13185337 36.5625 111.6875 C40.62554381 122.58384475 49.70161408 131.97548289 57.48046875 140.421875 C59.3869044 142.49642036 61.2301561 144.61015931 63.0625 146.75 C66.38439054 150.57520728 69.96218394 154.10669631 73.5703125 157.66015625 C75.5625 159.6875 75.5625 159.6875 77.625 162.3125 C79.94507574 165.15646381 82.57938861 167.36587184 85.3671875 169.7421875 C87.64419223 171.7598892 89.75465463 173.88135619 91.875 176.0625 C96.78823047 181.02595089 102.10430472 185.34154074 107.5625 189.6875 C108.83831509 190.72915286 110.11299392 191.77219848 111.38671875 192.81640625 C112.71594079 193.89868938 114.04536634 194.9807226 115.375 196.0625 C115.99713379 196.57466064 116.61926758 197.08682129 117.26025391 197.61450195 C122.36980672 201.74144846 127.37345007 205.49340702 134.2734375 205.14453125 C143.85104911 203.23227774 153.02229502 196.10630429 161.18066406 191.00292969 C169.08953452 186.13035995 177.0559634 181.48032075 186.5625 182.6875 C199.22441125 186.17010218 208.92047343 198.83385941 217.95019531 207.83496094 C219.81652709 209.69150598 221.6932874 211.53708745 223.5703125 213.3828125 C240.51724705 230.18009283 240.51724705 230.18009283 240.9375 240.25 C240.62008168 252.2450114 232.17727147 259.71945521 224.0625 267.5 C223.01836118 268.51898471 221.97538416 269.53916132 220.93359375 270.56054688 C219.0167117 272.43700884 217.09257015 274.30461648 215.16210938 276.16723633 C211.91470363 279.31552423 208.71115892 282.50294549 205.5625 285.75 C196.23129591 294.78960397 186.04752507 297.45834517 173.34814453 297.27514648 C142.40984197 295.91200893 112.91581022 277.39899834 88.5625 259.6875 C88.00739746 259.28402344 87.45229492 258.88054687 86.88037109 258.46484375 C65.94598133 243.15716327 46.71509081 226.03741896 28.43066406 207.68603516 C26.6710652 205.92101456 24.90609603 204.16148867 23.140625 202.40234375 C17.40161335 196.66700396 11.78961112 190.90031549 6.5625 184.6875 C5.67425326 183.66573013 4.78498206 182.64484965 3.89453125 181.625 C-25.13399442 147.78088945 -58.02990707 103.72183627 -55.6640625 56.85839844 C-54.43477966 45.07953744 -45.82440314 35.76942442 -37.82421875 27.73828125 C-36.90344292 26.80752022 -36.90344292 26.80752022 -35.96406555 25.85795593 C-34.67502766 24.55887404 -33.38334284 23.26241361 -32.08911133 21.96850586 C-30.12965853 20.00466896 -28.18679278 18.02536213 -26.24414062 16.04492188 C-10.31048963 -0.03940315 -10.31048963 -0.03940315 0 0 Z M-39.1796875 39.375 C-39.88351563 40.138125 -40.58734375 40.90125 -41.3125 41.6875 C-42.01117188 42.43 -42.70984375 43.1725 -43.4296875 43.9375 C-48.16290782 50.42035429 -48.9688293 56.80874804 -48.875 64.6875 C-48.86525146 65.61175781 -48.85550293 66.53601563 -48.84545898 67.48828125 C-47.80090929 108.4487926 -15.59066195 149.45470848 10.5625 178.6875 C11.3875 179.61175781 12.2125 180.53601563 13.0625 181.48828125 C14.48069915 183.06698605 15.90294542 184.6420808 17.33203125 186.2109375 C18.55671962 187.5707491 19.77480898 188.93702885 20.96069336 190.33081055 C25.99556074 196.21989542 31.41936187 201.69667901 36.9050293 207.16040039 C38.49708966 208.74709946 40.0837299 210.33907742 41.66992188 211.93164062 C47.12875877 217.39431314 52.67254396 222.687435 58.5625 227.6875 C59.61116048 228.61256322 60.65810969 229.53957091 61.703125 230.46875 C91.66864844 256.79845019 133.75521552 290.00475513 175.5625 290.0625 C176.49578125 290.08699219 177.4290625 290.11148438 178.390625 290.13671875 C187.37462535 290.17436121 194.47362948 287.22027699 201.5625 281.6875 C202.72179038 279.63021532 202.72179038 279.63021532 203.5625 277.6875 C195.17696969 269.06991092 186.76435345 260.47978664 178.31643963 251.92331791 C174.39420987 247.94897734 170.48178979 243.96591328 166.59057617 239.96118164 C162.83245524 236.09412589 159.05017445 232.25227235 155.25016212 228.42638969 C153.80730421 226.96510431 152.37325291 225.49506713 150.94846153 224.01616096 C142.62977043 214.61250646 142.62977043 214.61250646 131.36254883 210.39624023 C130.53161209 210.45633774 129.70067535 210.51643524 128.84455872 210.57835388 C118.6578823 211.06556141 105.27327494 196.31360564 98.1875 189.9375 C97.47851562 189.28265625 96.76953125 188.6278125 96.0390625 187.953125 C94.71100727 186.73818489 93.37611255 185.52961475 92.00268555 184.36621094 C85.35606123 178.71351587 79.22836784 172.53945167 73.06323242 166.37353516 C71.13805298 164.45053818 69.20500969 162.53569426 67.27148438 160.62109375 C60.23270852 153.61401008 53.70873836 146.49887776 47.5625 138.6875 C46.61809483 137.56532978 45.66746747 136.44832442 44.70703125 135.33984375 C31.54542745 120.01770867 31.54542745 120.01770867 31.31860352 110.8527832 C29.85316779 100.69301747 22.02475489 94.76935076 14.96484375 87.98046875 C13.48803477 86.52166427 12.01358649 85.06046644 10.54139709 83.59700012 C6.6810947 79.77282812 2.78848703 75.98326387 -1.1116333 72.19976807 C-5.0912746 68.32609866 -9.0365942 64.41778667 -12.98632812 60.51367188 C-18.74024735 54.83895072 -24.50265227 49.1731336 -30.29711914 43.53979492 C-30.90753052 42.94306976 -31.51794189 42.3463446 -32.14685059 41.73153687 C-35.44515189 37.58739226 -35.44515189 37.58739226 -39.1796875 39.375 Z " fill="#F5F6FA" transform="translate(163.4375,107.3125)"/>
<path d="M0 0 C3.35168385 1.9146494 5.87294854 4.02175891 8.6875 6.66015625 C9.19055664 7.13122803 9.69361328 7.6022998 10.21191406 8.08764648 C11.86062728 9.6423719 13.4946924 11.21114704 15.125 12.78515625 C16.02484619 13.65213135 16.02484619 13.65213135 16.94287109 14.53662109 C18.76223959 16.29836905 20.57094924 18.07023446 22.375 19.84765625 C22.94806885 20.40759277 23.5211377 20.9675293 24.11157227 21.54443359 C25.48915837 22.91927256 26.81264672 24.34791774 28.125 25.78515625 C28.125 26.44515625 28.125 27.10515625 28.125 27.78515625 C28.785 27.78515625 29.445 27.78515625 30.125 27.78515625 C30.125 28.44515625 30.125 29.10515625 30.125 29.78515625 C30.785 29.78515625 31.445 29.78515625 32.125 29.78515625 C32.125 30.44515625 32.125 31.10515625 32.125 31.78515625 C32.785 31.78515625 33.445 31.78515625 34.125 31.78515625 C36.01053293 33.65675667 37.66744978 35.67296674 39.37109375 37.7109375 C41.16698096 39.90233647 41.16698096 39.90233647 43.5625 42.16015625 C46.12701867 46.46854762 46.13224237 49.91160464 45.125 54.78515625 C41.51265165 63.94110843 36.30312395 72.36579076 31.25 80.78515625 C30.77393311 81.58115234 30.29786621 82.37714844 29.80737305 83.19726562 C29.13315308 84.29264648 29.13315308 84.29264648 28.4453125 85.41015625 C27.84614014 86.38855469 27.84614014 86.38855469 27.23486328 87.38671875 C26.68548096 88.07894531 26.68548096 88.07894531 26.125 88.78515625 C25.465 88.78515625 24.805 88.78515625 24.125 88.78515625 C22.84544373 87.4855957 22.84544373 87.4855957 21.29467773 85.5859375 C16.01216634 79.38003852 10.18127973 73.71773387 4.41015625 67.97265625 C3.18682777 66.75119641 1.96372252 65.52951296 0.74082947 64.30761719 C-2.45441761 61.11616015 -5.65265786 57.92771958 -8.8515625 54.7399292 C-12.12488433 51.47689763 -15.39532274 48.21097881 -18.66601562 44.9453125 C-25.06621509 38.55578828 -31.46958507 32.16945174 -37.875 25.78515625 C-35.35388541 20.4168862 -31.19577333 16.77132732 -27.02661133 12.62109375 C-25.56890838 11.16655074 -24.12503524 9.69919471 -22.68164062 8.23046875 C-21.75931641 7.3075 -20.83699219 6.38453125 -19.88671875 5.43359375 C-19.04584717 4.58974121 -18.20497559 3.74588867 -17.33862305 2.87646484 C-12.15452519 -1.52418744 -6.38291129 -2.69712692 0 0 Z " fill="#425EB3" transform="translate(169.875,115.21484375)"/>
<path d="M0 0 C2.7448071 1.48367951 5.01014472 3.14498946 7.3125 5.25 C7.3125 5.91 7.3125 6.57 7.3125 7.25 C7.9725 7.25 8.6325 7.25 9.3125 7.25 C10.64453125 8.60546875 10.64453125 8.60546875 12.125 10.4375 C16.3163682 15.47929074 20.86411069 19.8023677 25.95703125 23.91796875 C26.40433594 24.35753906 26.85164063 24.79710937 27.3125 25.25 C27.3125 25.91 27.3125 26.57 27.3125 27.25 C28.6325 27.91 29.9525 28.57 31.3125 29.25 C31.3125 29.91 31.3125 30.57 31.3125 31.25 C31.89902344 31.50265625 32.48554688 31.7553125 33.08984375 32.015625 C38.52883125 35.03622263 43.40632314 41.41233337 45.3125 47.25 C45.48333909 54.10796934 43.6903646 58.6341186 39.04418945 63.74536133 C38.18011475 64.5989624 37.31604004 65.45256348 36.42578125 66.33203125 C35.96390915 66.79107346 35.50203705 67.25011566 35.02616882 67.72306824 C33.56377862 69.17434914 32.09455874 70.61848204 30.625 72.0625 C29.62649177 73.05096646 28.62844011 74.03989437 27.63085938 75.02929688 C25.19585692 77.44077274 22.7563041 79.84744957 20.3125 82.25 C16.22462128 80.62919985 13.49891638 77.69721147 10.47412109 74.62280273 C9.90128891 74.04865631 9.32845673 73.47450989 8.73826599 72.88296509 C6.8495144 70.98773223 4.9678366 69.08562889 3.0859375 67.18359375 C1.77416069 65.86554592 0.461867 64.54801234 -0.85092163 63.23097229 C-4.30346 59.76513666 -7.75038566 56.29377673 -11.19573975 52.82080078 C-16.71650347 47.25689738 -22.24402038 41.69972266 -27.7747612 36.1457386 C-29.7082413 34.20201204 -31.63828616 32.25492123 -33.56802368 30.30747986 C-34.74787115 29.12080678 -35.92782736 27.93424179 -37.10791016 26.74780273 C-37.646129 26.20284653 -38.18434784 25.65789032 -38.73887634 25.09642029 C-41.44994988 22.32626456 -41.44994988 22.32626456 -44.6875 20.25 C-44.6875 19.59 -44.6875 18.93 -44.6875 18.25 C-42.65705624 16.86962837 -40.64443807 15.62646167 -38.51953125 14.40625 C-37.88770432 14.03649048 -37.25587738 13.66673096 -36.60490417 13.2857666 C-35.26265598 12.5022623 -33.91828989 11.72237698 -32.57202148 10.94580078 C-30.52161111 9.76247216 -28.47814025 8.56785442 -26.43554688 7.37109375 C-25.13060541 6.61129678 -23.82527864 5.85216112 -22.51953125 5.09375 C-21.91099808 4.73849243 -21.3024649 4.38323486 -20.67549133 4.01721191 C-13.66271653 -0.01655314 -7.97201823 -2.22474927 0 0 Z " fill="#415EB3" transform="translate(352.6875,297.75)"/>
<path d="M0 0 C41.25 0 82.5 0 125 0 C119.37091988 5.62908012 119.37091988 5.62908012 116.27734375 8.0234375 C115.58406982 8.56194336 114.8907959 9.10044922 114.17651367 9.65527344 C113.0682019 10.50653809 113.0682019 10.50653809 111.9375 11.375 C111.15673096 11.97860352 110.37596191 12.58220703 109.5715332 13.20410156 C102.80993259 18.41492556 95.98406811 23.53933686 89.14599609 28.64916992 C77.50329114 37.15747037 77.50329114 37.15747037 66.40234375 46.33203125 C64 48 64 48 62.08520508 47.77539062 C59.74166151 46.90393595 58.18587815 45.82247299 56.234375 44.26171875 C55.51725342 43.69485352 54.80013184 43.12798828 54.0612793 42.54394531 C53.29855713 41.93131836 52.53583496 41.31869141 51.75 40.6875 C50.12724407 39.40375627 48.50352748 38.12122606 46.87890625 36.83984375 C46.06180176 36.1938623 45.24469727 35.54788086 44.40283203 34.88232422 C40.87190718 32.11627762 37.28528425 29.42816926 33.6875 26.75 C27.29019753 21.97693598 20.94784703 17.13995879 14.63378906 12.25732422 C12.86300469 10.89457175 11.084538 9.5422933 9.3046875 8.19140625 C8.69971436 7.73072754 8.09474121 7.27004883 7.47143555 6.79541016 C6.30288208 5.90592139 5.13253361 5.01878472 3.96020508 4.13427734 C2.62186588 3.11302798 1.3080766 2.05973473 0 1 C0 0.67 0 0.34 0 0 Z " fill="#435FB3" transform="translate(255,161)"/>
<path d="M0 0 C3.45493779 1.67789572 6.23651075 3.6680939 9.21875 6.07421875 C10.95910761 7.17851464 10.95910761 7.17851464 12.97265625 6.84375 C16.11632135 5.53540383 18.36751248 3.31449696 20.90234375 1.08203125 C23 0 23 0 25.3125 0.4765625 C28.8775797 2.49746523 31.91556674 4.94948644 35.0625 7.5625 C36.40900095 8.66027276 37.75666949 9.75661484 39.10546875 10.8515625 C39.76853027 11.39071289 40.4315918 11.92986328 41.11474609 12.48535156 C44.58523624 15.2736086 48.16632427 17.91058558 51.73828125 20.56640625 C55.86883005 23.6396608 59.96678744 26.75554587 64.0625 29.875 C64.80161621 30.43501709 65.54073242 30.99503418 66.30224609 31.57202148 C66.99785645 32.10255127 67.6934668 32.63308105 68.41015625 33.1796875 C69.34033569 33.88714111 69.34033569 33.88714111 70.28930664 34.60888672 C72 36 72 36 75 39 C33.75 39 -7.5 39 -50 39 C-44.38222417 33.38222417 -44.38222417 33.38222417 -40.98828125 30.94140625 C-40.23909424 30.39742187 -39.48990723 29.8534375 -38.71801758 29.29296875 C-37.92419678 28.72191406 -37.13037598 28.15085938 -36.3125 27.5625 C-28.8128435 22.10661465 -21.43587128 16.52028336 -14.13989258 10.79516602 C-9.47242518 7.13351957 -4.76053205 3.53990325 0 0 Z " fill="#425EB3" transform="translate(305,209)"/>
<path d="M0 0 C4.67372119 2.67069782 8.01744244 4.64539645 11.9375 8 C16.38022005 11.71033704 20.91657421 15.23565515 25.5625 18.6875 C31.73912941 23.29346857 37.89061187 27.93008582 44 32.625 C44.79607666 33.22916748 45.59215332 33.83333496 46.41235352 34.45581055 C47.14252686 35.01953369 47.8727002 35.58325684 48.625 36.1640625 C49.60339844 36.91357178 49.60339844 36.91357178 50.6015625 37.67822266 C51.06304687 38.11440918 51.52453125 38.5505957 52 39 C52 39.66 52 40.32 52 41 C49.72432159 42.85300867 47.43623633 44.59245287 45.0625 46.3125 C43.58273154 47.40282956 42.10358458 48.49400303 40.625 49.5859375 C39.85800781 50.15022461 39.09101563 50.71451172 38.30078125 51.29589844 C34.69063522 53.96979692 31.1262753 56.7022775 27.5625 59.4375 C26.86962891 59.96730469 26.17675781 60.49710938 25.46289062 61.04296875 C21.70396895 63.91845722 17.95635066 66.80778496 14.21875 69.7109375 C13.43943115 70.31365479 12.6601123 70.91637207 11.85717773 71.53735352 C10.35359266 72.70051631 8.8529834 73.86753838 7.35571289 75.03881836 C6.6827417 75.55839111 6.00977051 76.07796387 5.31640625 76.61328125 C4.72287354 77.07516846 4.12934082 77.53705566 3.51782227 78.01293945 C2 79 2 79 0 79 C0 52.93 0 26.86 0 0 Z " fill="#425FB3" transform="translate(248,165)"/>
<path d="M0 0 C0 26.07 0 52.14 0 79 C-2.84767119 77.5761644 -4.9632584 76.39989554 -7.43359375 74.53125 C-8.07530518 74.0480127 -8.7170166 73.56477539 -9.37817383 73.06689453 C-10.05775146 72.54981934 -10.7373291 72.03274414 -11.4375 71.5 C-12.50810669 70.69151611 -12.50810669 70.69151611 -13.6003418 69.86669922 C-17.85819779 66.64564185 -22.0900437 63.39224767 -26.3125 60.125 C-34.76062934 53.59690006 -43.38748422 47.30864388 -52 41 C-50.58619191 37.62206085 -49.00888327 35.96283397 -46.0625 33.8203125 C-45.25868896 33.22806885 -44.45487793 32.6358252 -43.62670898 32.02563477 C-42.75989502 31.39842529 -41.89308105 30.77121582 -41 30.125 C-39.17729872 28.78402792 -37.35570748 27.44154587 -35.53515625 26.09765625 C-34.61105957 25.41719238 -33.68696289 24.73672852 -32.73486328 24.03564453 C-28.58280517 20.94513743 -24.50902881 17.7579102 -20.4375 14.5625 C-1.81836155 0 -1.81836155 0 0 0 Z " fill="#425FB3" transform="translate(387,165)"/>
</svg>
