<?xml version="1.0" standalone="no"?>
<!DOCTYPE svg PUBLIC "-//W3C//DTD SVG 20010904//EN"
 "http://www.w3.org/TR/2001/REC-SVG-20010904/DTD/svg10.dtd">
<svg version="1.0" xmlns="http://www.w3.org/2000/svg"
 width="182.000000pt" height="129.000000pt" viewBox="0 0 182.000000 129.000000"
 preserveAspectRatio="xMidYMid meet">

<g transform="translate(0.000000,129.000000) scale(0.100000,-0.100000)"
fill="#000000" stroke="none">
<path d="M0 645 l0 -645 910 0 910 0 0 645 0 646 -102 -3 c-87 -3 -103 -6
-106 -20 -2 -11 5 -18 20 -21 13 -2 5 -5 -19 -6 -40 -1 -43 1 -43 24 l0 25
-785 0 -785 0 0 -645z m105 584 c16 -16 -20 -10 -41 7 -18 14 -18 15 6 8 14
-3 29 -10 35 -15z m940 -58 c30 -49 19 -102 -26 -124 -16 -8 -26 -24 -30 -47
-3 -19 -8 -40 -10 -46 -2 -6 26 -33 62 -61 53 -40 72 -49 96 -46 43 7 65 58
64 145 -1 61 1 68 25 87 31 24 61 20 115 -14 40 -26 64 -73 55 -107 -9 -35
-101 -128 -125 -128 -18 0 -21 6 -21 49 0 28 -5 53 -10 56 -7 4 -8 -3 -4 -20
6 -24 4 -26 -13 -21 -16 5 -22 1 -25 -19 -3 -14 -1 -25 3 -25 5 0 27 -16 48
-35 37 -34 71 -103 71 -145 0 -19 -56 -54 -72 -44 -7 5 -8 3 -2 -7 8 -14 7
-70 -3 -104 -5 -17 -4 -18 11 -6 13 11 16 11 16 0 0 -12 60 -59 74 -59 3 0 32
-27 66 -61 39 -38 66 -59 76 -55 7 3 20 9 28 12 8 3 16 -4 20 -18 10 -40 7
-51 -11 -43 -46 18 -69 14 -81 -13 -11 -26 -11 -25 -9 15 2 40 1 42 -38 53
-87 27 -126 44 -135 59 -10 18 -15 15 -24 -16 -4 -13 -3 -23 2 -23 12 0 -7
-56 -32 -93 -27 -41 -36 -19 -36 91 0 90 0 92 24 92 23 0 36 16 36 47 0 13 -2
13 -15 -1 -15 -14 -50 -12 -41 3 3 4 -10 7 -28 7 -35 0 -82 29 -91 57 -4 10
-16 17 -31 17 -13 0 -24 5 -24 10 0 17 -39 50 -60 50 -16 0 -20 -7 -20 -34 0
-78 -41 -121 -86 -91 -14 9 -24 25 -24 39 0 21 -65 102 -80 99 -3 0 -25 -3
-49 -7 l-44 -7 26 33 c36 44 59 87 55 100 -2 6 -23 -21 -46 -59 -23 -39 -49
-74 -58 -77 -14 -5 -11 -11 16 -31 19 -14 40 -25 47 -25 7 0 10 -6 6 -16 -3
-8 0 -26 7 -40 12 -22 10 -26 -18 -54 -18 -16 -36 -30 -42 -30 -5 0 -10 -8
-10 -18 0 -10 -5 -23 -12 -30 -6 -6 -17 -28 -24 -49 -11 -31 -11 -41 0 -58 7
-11 14 -50 15 -87 1 -62 0 -66 -19 -61 -21 6 -36 43 -26 68 3 8 1 15 -4 15 -6
0 -10 11 -10 24 0 13 -7 29 -15 36 -12 10 -15 9 -15 -5 0 -9 -6 -15 -13 -12
-8 2 -11 22 -10 58 1 30 2 97 2 150 0 53 4 125 10 160 5 35 12 89 15 120 4 48
2 56 -12 55 -10 0 -16 4 -15 10 1 7 -17 17 -40 23 -23 7 -49 14 -57 17 -8 3
-1 -3 15 -12 39 -22 16 -30 -27 -9 -59 28 -74 43 -61 63 9 14 23 16 79 14 59
-2 74 -7 105 -32 l36 -29 34 22 c19 12 43 27 54 33 21 12 34 64 16 64 -7 0 -7
8 1 25 12 27 47 41 73 31 9 -3 13 -2 10 4 -14 22 -57 10 -88 -25 -52 -59 -87
-39 -52 29 8 15 15 34 15 40 0 23 39 94 55 100 73 28 187 -36 167 -94 -13 -39
-44 -70 -71 -70 -31 0 -54 -21 -70 -62 -10 -26 -8 -28 28 -39 30 -9 37 -15 34
-30 -3 -11 -16 -22 -29 -25 -27 -7 -32 -24 -7 -24 9 0 32 19 51 41 38 45 84
69 130 69 39 0 44 8 27 41 -8 15 -15 38 -15 51 0 13 -6 35 -14 50 -37 70 48
156 119 120 17 -8 35 -22 40 -31z m-945 30 c0 -21 -13 -41 -26 -41 -17 0 -17
5 -4 31 11 20 30 26 30 10z m55 -21 c18 -20 17 -20 -13 -20 -30 0 -42 16 -25
33 10 11 19 8 38 -13z m80 -77 c15 -16 31 -37 36 -48 5 -11 21 -36 35 -54 33
-47 28 -66 -19 -68 -34 -1 -37 1 -37 27 0 31 -47 123 -60 115 -4 -3 -10 5 -13
17 -12 46 17 51 58 11z m131 -370 c-3 -30 -3 -38 2 -23 8 27 15 21 26 -23 4
-15 11 -25 16 -22 6 4 10 -9 10 -29 0 -31 3 -36 23 -36 20 0 19 -2 -7 -15 -27
-14 -31 -14 -38 0 -5 8 -16 15 -23 15 -10 0 -16 11 -16 33 l-2 32 -4 -30 c-3
-16 -9 -34 -15 -40 -7 -7 -8 -3 -3 13 10 33 -3 114 -17 106 -6 -4 -9 -3 -7 2
3 5 11 21 19 37 23 46 42 35 36 -20z m-59 -70 c-3 -10 -5 -4 -5 12 0 17 2 24
5 18 2 -7 2 -21 0 -30z m998 -86 c-8 -20 -45 -30 -45 -11 0 8 6 11 15 8 9 -4
18 1 21 10 4 9 8 15 10 13 3 -2 2 -11 -1 -20z m-1060 -51 c-7 -53 -25 -79 -25
-36 0 23 23 101 28 95 2 -2 1 -28 -3 -59z m606 -72 c16 -8 32 -14 36 -13 4 1
19 1 33 0 l24 -1 -22 -16 c-22 -15 -111 -22 -132 -9 -6 4 -2 -10 9 -31 12 -21
21 -55 21 -74 l-1 -35 -14 30 c-12 26 -13 27 -14 8 -1 -12 -6 -45 -12 -73 -9
-40 -17 -53 -41 -66 -16 -8 -41 -14 -56 -12 -36 4 -39 35 -15 140 13 60 26 90
50 118 18 21 33 43 33 49 0 7 7 28 16 49 l16 37 20 -43 c12 -24 33 -49 49 -58z
m779 46 c13 -9 13 -10 0 -11 -8 -1 -23 0 -33 0 -12 2 -19 -7 -23 -28 -6 -30
-27 -41 -39 -21 -4 6 -4 24 0 40 6 27 11 30 43 30 20 0 44 -5 52 -10z m-480
-20 c0 -5 -6 -10 -14 -10 -8 0 -18 5 -21 10 -3 6 3 10 14 10 12 0 21 -4 21
-10z m-20 -39 c17 -25 19 -36 11 -71 -5 -22 -7 -49 -4 -59 5 -21 -12 -61 -27
-61 -6 0 -10 9 -10 20 0 10 -11 36 -25 56 -29 43 -33 99 -8 126 23 25 38 23
63 -11z m290 -1 c0 -5 -4 -10 -10 -10 -5 0 -10 5 -10 10 0 6 5 10 10 10 6 0
10 -4 10 -10z m-383 -96 c5 -62 3 -71 -16 -88 -11 -11 -21 -24 -21 -31 0 -17
-72 -52 -99 -47 -21 3 -23 7 -16 50 9 66 38 127 69 147 14 10 26 23 26 29 0 7
5 17 12 24 22 22 39 -10 45 -84z m603 -70 c0 -11 -5 -14 -16 -10 -9 3 -18 6
-20 6 -3 0 -2 5 1 10 10 16 35 12 35 -6z m-130 -3 c0 -17 -18 -21 -24 -6 -3 9
0 15 9 15 8 0 15 -4 15 -9z m92 -69 c-5 -34 -32 -39 -32 -6 0 12 3 30 6 38 10
27 31 0 26 -32z m-42 11 c0 -35 -14 -60 -24 -44 -9 15 3 71 15 71 5 0 9 -12 9
-27z"/>
<path d="M1122 803 c2 -20 9 -29 26 -31 29 -4 28 9 -4 37 l-25 22 3 -28z"/>
<path d="M1094 753 c-3 -21 -17 -55 -31 -76 l-24 -38 -37 28 c-50 38 -131 40
-184 3 -20 -13 -34 -28 -32 -32 3 -4 23 6 45 22 33 23 47 28 77 23 45 -8 77
-29 95 -66 l14 -27 27 21 c32 25 55 77 61 136 5 53 -2 57 -11 6z"/>
<path d="M1204 735 c-9 -23 14 -45 26 -25 5 8 8 19 7 24 -6 17 -27 18 -33 1z"/>
<path d="M1124 650 c6 -40 6 -40 -21 -29 -28 11 -43 0 -43 -32 0 -38 78 -86
95 -59 3 5 15 10 26 10 18 0 18 2 -5 38 -13 20 -29 54 -36 75 -15 49 -24 47
-16 -3z"/>
<path d="M591 474 c0 -11 3 -14 6 -6 3 7 2 16 -1 19 -3 4 -6 -2 -5 -13z"/>
<path d="M1245 440 c-3 -5 3 -10 14 -10 11 0 23 5 26 10 3 6 -3 10 -14 10 -11
0 -23 -4 -26 -10z"/>
<path d="M581 414 c0 -11 3 -14 6 -6 3 7 2 16 -1 19 -3 4 -6 -2 -5 -13z"/>
<path d="M342 705 c0 -16 2 -22 5 -12 2 9 2 23 0 30 -3 6 -5 -1 -5 -18z"/>
<path d="M391 634 c0 -11 3 -14 6 -6 3 7 2 16 -1 19 -3 4 -6 -2 -5 -13z"/>
</g>
</svg>
